<?xml version="1.0" encoding="UTF-8" standalone="no"?>
<!-- Created with Inkscape (http://www.inkscape.org/) -->

<svg
   xmlns:dc="http://purl.org/dc/elements/1.1/"
   xmlns:cc="http://creativecommons.org/ns#"
   xmlns:rdf="http://www.w3.org/1999/02/22-rdf-syntax-ns#"
   xmlns:svg="http://www.w3.org/2000/svg"
   xmlns="http://www.w3.org/2000/svg"
   xmlns:sodipodi="http://sodipodi.sourceforge.net/DTD/sodipodi-0.dtd"
   xmlns:inkscape="http://www.inkscape.org/namespaces/inkscape"
   id="svg3838"
   version="1.1"
   inkscape:version="0.48.4 r9939"
   width="175.625"
   height="115.3125"
   xml:space="preserve"
   sodipodi:docname="New document 5"><metadata
     id="metadata3844"><rdf:RDF><cc:Work
         rdf:about=""><dc:format>image/svg+xml</dc:format><dc:type
           rdf:resource="http://purl.org/dc/dcmitype/StillImage" /><dc:title></dc:title></cc:Work></rdf:RDF></metadata><defs
     id="defs3842" /><sodipodi:namedview
     pagecolor="#ffffff"
     bordercolor="#666666"
     borderopacity="1"
     objecttolerance="10"
     gridtolerance="10"
     guidetolerance="10"
     inkscape:pageopacity="0"
     inkscape:pageshadow="2"
     inkscape:window-width="1920"
     inkscape:window-height="1025"
     id="namedview3840"
     showgrid="false"
     fit-margin-top="0"
     fit-margin-left="0"
     fit-margin-right="0"
     fit-margin-bottom="0"
     inkscape:zoom="3.8141414"
     inkscape:cx="116.67488"
     inkscape:cy="45.310298"
     inkscape:window-x="0"
     inkscape:window-y="30"
     inkscape:window-maximized="1"
     inkscape:current-layer="g3846" /><g
     id="g3846"
     inkscape:groupmode="layer"
     inkscape:label="paper"
     transform="matrix(1.25,0,0,-1.25,-82.7825,171.02375)"><path
       id="path4455-1"
       style="fill:none;stroke:#000000;stroke-width:0.60000002;stroke-linecap:butt;stroke-linejoin:miter;stroke-opacity:1"
       d="m 95.579605,102.70994 c 5.243645,0 15.730935,3.77181 15.730935,11.06409 -1e-5,7.29229 -10.4873,11.0641 -15.730937,11.0641 -5.24364,0 -16.360168,-2.51695 -23.491528,-11.0641 7.13136,-8.54714 18.24789,-11.06409 23.49153,-11.06409 z"
       inkscape:connector-curvature="0"
       sodipodi:nodetypes="szscs" /><path
       id="path4514-5"
       style="fill:none;stroke:#000000;stroke-width:0.60000002;stroke-linecap:butt;stroke-linejoin:miter;stroke-opacity:1"
       d="m 168.07678,132.57768 c -13.2485,-0.23244 -16.41182,-12.99009 -16.41182,-12.99009 0,0 -1.69668,8.20064 -4.45682,8.20064 -2.76015,0 -4.18874,-3.06804 -4.18874,-5.58935 0,-2.52131 1.67924,-4.99919 3.02768,-6.19624 -1.48313,-0.14831 -3.72581,-0.76074 -3.72581,-2.2286 0,-1.46786 2.24268,-2.08029 3.72581,-2.22861 -1.34844,-1.19704 -3.02768,-3.67492 -3.02768,-6.19624 0,-2.52131 1.42859,-5.589348 4.18874,-5.589348 2.76015,0 4.45683,8.200638 4.45683,8.200638 0,0 3.16331,-12.757648 16.41181,-12.990088 13.2485,-0.23244 16.01554,13.312788 16.01554,18.803648 0,5.49086 -2.76704,19.03608 -16.01554,18.80364 z"
       inkscape:connector-curvature="0"
       sodipodi:nodetypes="scsscccsscszs" /><g
       id="g4655"
       transform="translate(0,0.58864878)"><path
         sodipodi:nodetypes="szscs"
         inkscape:connector-curvature="0"
         d="m 97.628318,66.112797 c 5.297812,0 15.893442,0.909234 15.893442,2.667114 -1e-5,1.757882 -10.59564,2.667116 -15.893442,2.667116 -5.29781,0 -16.529181,-0.606737 -23.734213,-2.667116 7.205032,-2.060377 18.436403,-2.667114 23.734213,-2.667114 z"
         style="fill:none;stroke:#000000;stroke-width:0.60000002;stroke-linecap:butt;stroke-linejoin:miter;stroke-opacity:1"
         id="path4455-1-4" /><path
         transform="matrix(0.8,0,0,-0.8,-177.824,571.744)"
         sodipodi:nodetypes="cscc"
         inkscape:connector-curvature="0"
         id="path4571"
         d="m 313.79713,628.71965 c 1.34408,-0.8806 3.75996,-2.30566 4.56524,-2.68817 0.92696,-0.4403 2.31739,-0.37073 1.11235,0.32444 -1.20504,0.69521 -4.82016,2.22469 -4.82016,2.22469"
         style="fill:none;stroke:#000000;stroke-width:0.75;stroke-linecap:butt;stroke-linejoin:miter;stroke-opacity:1" /><path
         sodipodi:nodetypes="cscc"
         inkscape:connector-curvature="0"
         id="path4571-2"
         d="m 73.213704,68.637224 c 1.07526,-0.70448 3.00797,-1.84453 3.65219,-2.15054 0.74157,-0.35224 1.85391,-0.29658 0.88988,0.25955 -0.96403,0.55617 -3.85613,1.77975 -3.85613,1.77975"
         style="fill:none;stroke:#000000;stroke-width:0.60000002;stroke-linecap:butt;stroke-linejoin:miter;stroke-opacity:1" /></g><path
       id="path4602-0"
       style="fill:none;stroke:#000000;stroke-width:0.60000002;stroke-linecap:butt;stroke-linejoin:miter;stroke-opacity:1"
       d="m 191.74367,76.335496 c -4.37523,0 -7.52975,-0.435808 -17.20427,-3.18872 6.79052,2.097456 6.62208,2.315216 9.21392,3.411192 3.24434,1.371888 6.71115,3.96736 6.71115,5.71004 0,1.195728 -1.69203,1.959152 -4.13422,1.48312 -2.83897,-0.553368 -8.3055,-2.817936 -8.00888,-2.447152 0.29663,0.370776 3.04041,4.746 2.66963,5.63588 -0.37079,0.889872 -2.44168,0.511768 -4.01832,-0.554696 -1.62128,-1.096648 -7.62423,-7.009248 -7.62423,-7.009248 0,0 3.35464,6.685632 2.44716,7.712256 -0.5491,0.621192 -1.5253,-0.339664 -2.52131,-1.557288 -1.53183,-1.872672 -5.41342,-9.862784 -5.41342,-9.862784 0,0 0.62068,2.383616 0.82806,3.370704 0.41466,1.973432 0.61442,3.516208 0.50676,5.157272 -0.0606,0.924144 -0.66741,1.236752 -1.33482,-1.038192 -0.33007,-1.125096 -2.16907,-10.289184 -2.16907,-10.289184 0,0 -0.11337,2.535456 -0.12977,3.133104 -0.0371,1.353344 0,3.670736 -0.59325,3.374112 -0.59321,-0.296632 -0.66741,-2.966256 -0.66741,-2.966256 0,0 -0.61179,2.558392 -1.26066,2.892096 -0.2719,0.13984 -0.8528,0.111232 -0.44493,-1.408968 0.36561,-1.362728 2.59547,-6.970696 2.59547,-6.970696 0,0 -5.91161,10.246456 -7.3971,11.012216 -0.70876,0.365368 -1.55736,0.278088 -1.59436,-0.926952 -0.0612,-1.98888 8.69484,-10.60436 8.69484,-10.60436 0,0 -11.80656,10.048224 -14.08971,10.085264 -0.63025,0.01023 -1.15404,-0.22036 -1.11234,-1.112344 0.0553,-1.182888 4.89431,-4.449384 4.89431,-4.449384 0,0 -4.0514,0.81972 -5.48757,0.81572 -1.43617,-0.004 -3.41118,0.14832 -3.26287,-1.55728 0.14831,-1.705592 5.04262,-2.298848 6.82238,-3.040408 -1.63144,-0.815728 -2.22469,-1.03572 -2.22469,-1.776001 -10e-6,-0.740274 0.59324,-0.960264 2.22468,-1.775994 -1.77975,-0.74156 -6.67406,-1.33482 -6.82237,-3.04041 -0.14832,-1.7056 1.8267,-1.55324 3.26287,-1.55728 1.43617,-0.004 5.48757,0.81572 5.48757,0.81572 0,0 -4.839,-3.2665 -4.89432,-4.44938 -0.0417,-0.89199 0.4821,-1.12258 1.11235,-1.11235 2.28315,0.037 14.0897,10.08527 14.0897,10.08527 0,0 -8.75601,-8.61548 -8.69483,-10.60436 0.037,-1.20504 0.88559,-1.29232 1.59436,-0.92696 1.48549,0.76576 7.3971,11.01222 7.3971,11.01222 0,0 -2.22986,-5.60797 -2.59547,-6.9707 -0.40787,-1.5202 0.17303,-1.5488 0.44493,-1.40896 0.64887,0.3337 1.26066,2.89209 1.26066,2.89209 0,0 0.0742,-2.66962 0.66741,-2.96625 0.59325,-0.29663 0.55617,2.02076 0.59324,3.37411 0.0164,0.59765 0.12978,3.1331 0.12978,3.1331 0,0 1.839,-9.16409 2.16907,-10.28918 0.66741,-2.27495 1.27419,-1.96234 1.33482,-1.03819 0.10766,1.64106 -0.0922,3.18384 -0.50676,5.15727 -0.20739,0.98709 -0.82806,3.3707 -0.82806,3.3707 0,0 3.88159,-7.99011 5.41342,-9.86278 0.99601,-1.21763 1.97221,-2.17848 2.52131,-1.55729 0.90748,1.02662 -2.44716,7.71226 -2.44716,7.71226 0,0 6.00294,-5.9126 7.62422,-7.00925 1.57665,-1.06647 3.64754,-1.44457 4.01832,-0.5547 0.37079,0.88988 -2.373,5.26511 -2.66962,5.63588 -0.29662,0.37079 5.16991,-1.89378 8.00888,-2.44715 2.44219,-0.47603 4.13422,0.28739 4.13422,1.48312 0,1.74268 -3.46681,4.33815 -6.71115,5.71004 -2.59185,1.09598 -2.42341,1.31374 -9.21393,3.41119 9.67452,-2.75291 12.82905,-3.18872 17.20428,-3.18872 4.37521,0 10.17795,1.57563 10.17795,6.966937 0,5.39131 -5.80274,6.966934 -10.17795,6.966934 z"
       inkscape:connector-curvature="0"
       sodipodi:nodetypes="scsssccscssccsscccccscsccccccscccsccccccscscccccssccsscsscssscscs" /><text
       xml:space="preserve"
       style="font-size:5.94611502px;font-style:normal;font-weight:normal;line-height:125%;letter-spacing:0px;word-spacing:0px;fill:#000000;fill-opacity:1;stroke:none;font-family:Sans"
       x="122.33441"
       y="-111.66038"
       id="text4623"
       sodipodi:linespacing="125%"
       transform="scale(1,-1)"><tspan
         sodipodi:role="line"
         id="tspan4625"
         x="122.33441"
         y="-111.66038"
         style="font-style:normal;font-variant:normal;font-weight:normal;font-stretch:normal;font-family:DIN 1451 Mittelschrift;-inkscape-font-specification:DIN 1451 Mittelschrift"><tspan
   style="font-style:italic;-inkscape-font-specification:DIN 1451 Mittelschrift Italic"
   id="tspan4627">x </tspan>= 3</tspan></text>
<text
       xml:space="preserve"
       style="font-size:5.94611502px;font-style:normal;font-weight:normal;line-height:125%;letter-spacing:0px;word-spacing:0px;fill:#000000;fill-opacity:1;stroke:none;font-family:Sans"
       x="122.29813"
       y="-67.273773"
       id="text4623-7"
       sodipodi:linespacing="125%"
       transform="scale(1,-1)"><tspan
         sodipodi:role="line"
         id="tspan4625-7"
         x="122.29813"
         y="-67.273773"
         style="font-style:normal;font-variant:normal;font-weight:normal;font-stretch:normal;font-family:DIN 1451 Mittelschrift;-inkscape-font-specification:DIN 1451 Mittelschrift"><tspan
   style="font-style:italic;-inkscape-font-specification:DIN 1451 Mittelschrift Italic"
   id="tspan4627-5">x </tspan>= 5</tspan></text>
</g></svg>