<?xml version="1.0" encoding="UTF-8" standalone="no"?>
<!-- Created with Inkscape (http://www.inkscape.org/) -->

<svg
   xmlns:dc="http://purl.org/dc/elements/1.1/"
   xmlns:cc="http://creativecommons.org/ns#"
   xmlns:rdf="http://www.w3.org/1999/02/22-rdf-syntax-ns#"
   xmlns:svg="http://www.w3.org/2000/svg"
   xmlns="http://www.w3.org/2000/svg"
   xmlns:sodipodi="http://sodipodi.sourceforge.net/DTD/sodipodi-0.dtd"
   xmlns:inkscape="http://www.inkscape.org/namespaces/inkscape"
   id="svg3872"
   version="1.1"
   inkscape:version="0.91 r13725"
   xml:space="preserve"
   width="771.25"
   height="522.5"
   viewBox="0 0 771.25 522.5"
   sodipodi:docname="dge.svg"><metadata
     id="metadata3878"><rdf:RDF><cc:Work
         rdf:about=""><dc:format>image/svg+xml</dc:format><dc:type
           rdf:resource="http://purl.org/dc/dcmitype/StillImage" /><dc:title></dc:title></cc:Work></rdf:RDF></metadata><defs
     id="defs3876"><marker
       inkscape:stockid="Arrow1Lend"
       orient="auto"
       refY="0.0"
       refX="0.0"
       id="Arrow1Lend"
       style="overflow:visible;"
       inkscape:isstock="true"><path
         id="path5209"
         d="M 0.0,0.0 L 5.0,-5.0 L -12.5,0.0 L 5.0,5.0 L 0.0,0.0 z "
         style="fill-rule:evenodd;stroke:#000000;stroke-width:1pt;stroke-opacity:1;fill:#000000;fill-opacity:1"
         transform="scale(0.8) rotate(180) translate(12.5,0)" /></marker><marker
       inkscape:stockid="Arrow2Lend"
       orient="auto"
       refY="0.0"
       refX="0.0"
       id="Arrow2Lend"
       style="overflow:visible;"
       inkscape:isstock="true"><path
         id="path5227"
         style="fill-rule:evenodd;stroke-width:0.625;stroke-linejoin:round;stroke:#000000;stroke-opacity:1;fill:#000000;fill-opacity:1"
         d="M 8.7185878,4.0337352 L -2.2072895,0.016013256 L 8.7185884,-4.0017078 C 6.9730900,-1.6296469 6.9831476,1.6157441 8.7185878,4.0337352 z "
         transform="scale(1.1) rotate(180) translate(1,0)" /></marker></defs><sodipodi:namedview
     pagecolor="#ffffff"
     bordercolor="#666666"
     borderopacity="1"
     objecttolerance="10"
     gridtolerance="10"
     guidetolerance="10"
     inkscape:pageopacity="0"
     inkscape:pageshadow="2"
     inkscape:window-width="1920"
     inkscape:window-height="1025"
     id="namedview3874"
     showgrid="false"
     inkscape:zoom="1"
     inkscape:cx="490.75542"
     inkscape:cy="386.43232"
     inkscape:window-x="0"
     inkscape:window-y="30"
     inkscape:window-maximized="1"
     inkscape:current-layer="g3882" /><g
     id="g3880"
     inkscape:groupmode="layer"
     inkscape:label="ink_ext_XXXXXX"
     transform="matrix(1.25,0,0,-1.25,0,522.5)"><g
       id="g3882"
       transform="scale(0.1,0.1)"><path
         d="m 3905.55,1417.15 0,-163.17"
         style="fill:none;stroke:#000000;stroke-width:24;stroke-linecap:butt;stroke-linejoin:miter;stroke-miterlimit:4;stroke-dasharray:none;stroke-opacity:1"
         id="path3884"
         inkscape:connector-curvature="0" /><path
         d="m 205.078,1534.06 820.702,-260.78 0,-302.971 c 0,0 187.93,-61.368 1246.45,-391.168 1058.47,-329.84 2569.53,-226.289 3336.56,356.64 l 550.35,437.229 0,-122.74 -544.57,-427.622 C 4928.05,255.039 3296.8,141.211 2266.45,458.32 l -1481.919,465.391 0,239.999 -580.351,184.37 0.898,185.98 z"
         style="fill:none;stroke:#000000;stroke-width:8;stroke-linecap:butt;stroke-linejoin:miter;stroke-miterlimit:4;stroke-dasharray:none;stroke-opacity:1"
         id="path3886"
         inkscape:connector-curvature="0" /><path
         id="path5047-8"
         style="fill:#ffffff;fill-opacity:1;fill-rule:evenodd;stroke:#000000;stroke-width:8px;stroke-linecap:butt;stroke-linejoin:miter;stroke-opacity:1"
         d="m 4647.2332,597.43592 c 0,-10.18178 -0.4234,-26.40936 -0.4234,-36.78302 -1e-4,-9.40125 -2.964,-16.61056 -2.964,-27.56437 2e-4,-13.77887 10.7971,-26.26301 10.7971,-37.48344 0,-10.16197 -14.8194,-19.91933 -14.8194,-40.16045 0.7164,-20.97199 31.8666,-40.33048 31.6751,-60.32554 -0.1914,-19.99506 -10.7207,-28.41115 -20.193,-37.45606 -9.4722,-9.0449 -11.5343,-15.98528 -11.5343,-26.39983 0,-20.57834 16.6821,-37.26037 37.2604,-37.26035 20.5783,-2e-5 37.2604,16.68201 37.2604,37.26035 0,10.48479 -2.1604,17.48626 -11.5674,26.46808 -9.4069,8.98182 -19.8948,17.39273 -20.0862,37.38783 -0.1915,19.995 30.9587,39.3535 31.6751,60.3255 0,20.2411 -14.8194,29.9985 -14.8194,40.1605 0,11.2204 10.7969,23.7045 10.7971,37.4834 0,10.9538 -2.9639,18.1631 -2.964,27.5644 0,10.3736 -0.4234,26.6012 -0.4234,36.783 z"
         inkscape:connector-curvature="0"
         sodipodi:nodetypes="cccscszssszscscccc" /><path
         d="m 206.91,1533.87 1819.85,1438.39 467.89,-159.14 m 0,-379.68 -1468.87,-1162.07"
         style="fill:none;stroke:#000000;stroke-width:8;stroke-linecap:butt;stroke-linejoin:miter;stroke-miterlimit:4;stroke-dasharray:none;stroke-opacity:1"
         id="path3888"
         inkscape:connector-curvature="0" /><path
         d="M 1021.95,970.309 2786.13,2356.72"
         style="fill:none;stroke:#000000;stroke-width:8;stroke-linecap:butt;stroke-linejoin:miter;stroke-miterlimit:4;stroke-dasharray:none;stroke-opacity:1"
         id="path3890"
         inkscape:connector-curvature="0" /><path
         d="m 5202.15,1674.61 951.25,-301.6"
         style="fill:none;stroke:#000000;stroke-width:8;stroke-linecap:butt;stroke-linejoin:miter;stroke-miterlimit:4;stroke-dasharray:none;stroke-opacity:1"
         id="path3892"
         inkscape:connector-curvature="0" /><path
         d="m 4788.87,1008.36 c 0,0 -188.48,212.89 -212.54,242.69 -21.33,26.45 8.16,51.53 32.54,54.26 24.41,2.7 77.77,12.27 77.77,12.27 l -77.77,88.04 21.72,206.14 -509.85,1106.44 -189.84,222.35"
         style="fill:none;stroke:#000000;stroke-width:8;stroke-linecap:butt;stroke-linejoin:miter;stroke-miterlimit:4;stroke-dasharray:none;stroke-opacity:1"
         id="path3894"
         inkscape:connector-curvature="0" /><path
         d="m 4690.23,1315.19 0,-55.97 c 0,0 -71.79,-12.07 -84.92,-15.28 -3.86,-0.93 -12.38,-11.52 -7.97,-17.61"
         style="fill:none;stroke:#000000;stroke-width:8;stroke-linecap:butt;stroke-linejoin:miter;stroke-miterlimit:4;stroke-dasharray:none;stroke-opacity:1"
         id="path3896"
         inkscape:connector-curvature="0" /><path
         d="m 2469.22,3056.68 0,-82.74 33.24,-43.39"
         style="fill:none;stroke:#000000;stroke-width:8;stroke-linecap:butt;stroke-linejoin:miter;stroke-miterlimit:4;stroke-dasharray:none;stroke-opacity:1"
         id="path3898"
         inkscape:connector-curvature="0" /><path
         d="m 2596.02,3334.65 0,-63.75 138.98,-136.96"
         style="fill:none;stroke:#000000;stroke-width:8;stroke-linecap:butt;stroke-linejoin:miter;stroke-miterlimit:4;stroke-dasharray:none;stroke-opacity:1"
         id="path3900"
         inkscape:connector-curvature="0" /><path
         d="m 3069.22,3473.59 0,-65.08 74.61,-71.17"
         style="fill:none;stroke:#000000;stroke-width:8;stroke-linecap:butt;stroke-linejoin:miter;stroke-miterlimit:4;stroke-dasharray:none;stroke-opacity:1"
         id="path3902"
         inkscape:connector-curvature="0" /><path
         d="m 2487.58,2763.71 197.97,-221.02"
         style="fill:none;stroke:#000000;stroke-width:8;stroke-linecap:butt;stroke-linejoin:miter;stroke-miterlimit:4;stroke-dasharray:none;stroke-opacity:1"
         id="path3904"
         inkscape:connector-curvature="0" /><path
         d="m 2494.38,2929.14 214.21,-231.88"
         style="fill:none;stroke:#000000;stroke-width:8;stroke-linecap:butt;stroke-linejoin:miter;stroke-miterlimit:4;stroke-dasharray:none;stroke-opacity:1"
         id="path3906"
         inkscape:connector-curvature="0" /><path
         d="m 4038.01,2076.64 c 0,-33.95 -58.56,-61.52 -130.74,-61.52 -72.23,0 -130.75,27.57 -130.75,61.52 0,33.98 58.52,61.52 130.75,61.52 72.18,0 130.74,-27.54 130.74,-61.52 z"
         style="fill:none;stroke:#000000;stroke-width:8;stroke-linecap:butt;stroke-linejoin:miter;stroke-miterlimit:4;stroke-dasharray:none;stroke-opacity:1"
         id="path3908"
         inkscape:connector-curvature="0" /><path
         d="m 3787.73,2052.3 c 19.85,22.07 66.33,37.58 120.47,37.58 53.17,0 98.91,-14.92 119.38,-36.37"
         style="fill:none;stroke:#000000;stroke-width:8;stroke-linecap:butt;stroke-linejoin:miter;stroke-miterlimit:4;stroke-dasharray:none;stroke-opacity:1"
         id="path3910"
         inkscape:connector-curvature="0" /><path
         d="m 4200.94,3852.19 c 0,-74.46 -128.21,-134.77 -286.33,-134.77 -158.16,0 -286.37,60.31 -286.37,134.77 0,74.41 128.21,134.72 286.37,134.72 158.12,0 286.33,-60.31 286.33,-134.72 z"
         style="fill:none;stroke:#000000;stroke-width:8;stroke-linecap:butt;stroke-linejoin:miter;stroke-miterlimit:4;stroke-dasharray:none;stroke-opacity:1"
         id="path3912"
         inkscape:connector-curvature="0" /><path
         d="m 4128.16,3852.19 c 0,-55.51 -95.62,-100.51 -213.55,-100.51 -117.97,0 -213.56,45 -213.56,100.51 0,55.46 95.59,100.46 213.56,100.46 117.93,0 213.55,-45 213.55,-100.46 z"
         style="fill:none;stroke:#000000;stroke-width:8;stroke-linecap:butt;stroke-linejoin:miter;stroke-miterlimit:4;stroke-dasharray:none;stroke-opacity:1"
         id="path3914"
         inkscape:connector-curvature="0" /><path
         d="m 4006.8,3852.19 c 0,-23.99 -41.29,-43.4 -92.19,-43.4 -50.94,0 -92.23,19.41 -92.23,43.4 0,23.94 41.29,43.36 92.23,43.36 50.9,0 92.19,-19.42 92.19,-43.36 z"
         style="fill:none;stroke:#000000;stroke-width:8;stroke-linecap:butt;stroke-linejoin:miter;stroke-miterlimit:4;stroke-dasharray:none;stroke-opacity:1"
         id="path3916"
         inkscape:connector-curvature="0" /><path
         d="m 3628.24,3840.82 0,-97.11 c 0,-74.45 128.21,-134.77 286.37,-134.77 158.12,0 286.33,60.32 286.33,134.77 l 0,102.89"
         style="fill:none;stroke:#000000;stroke-width:8;stroke-linecap:butt;stroke-linejoin:miter;stroke-miterlimit:4;stroke-dasharray:none;stroke-opacity:1"
         id="path3918"
         inkscape:connector-curvature="0" /><path
         d="m 3709.22,3822.89 c 25.55,42.07 107.81,72.81 205.39,72.81 97.15,0 179.14,-30.51 205.04,-72.3"
         style="fill:none;stroke:#000000;stroke-width:8;stroke-linecap:butt;stroke-linejoin:miter;stroke-miterlimit:4;stroke-dasharray:none;stroke-opacity:1"
         id="path3920"
         inkscape:connector-curvature="0" /><path
         d="m 3822.7,3850.43 0,-57.07 c 0,-16.64 22.81,-32.78 52.03,-40.08 m 85,0.62 c 27.22,7.58 47.34,23.52 47.34,39.46 l 0,58.98"
         style="fill:none;stroke:#000000;stroke-width:8;stroke-linecap:butt;stroke-linejoin:miter;stroke-miterlimit:4;stroke-dasharray:none;stroke-opacity:1"
         id="path3922"
         inkscape:connector-curvature="0" /><path
         d="m 3819.8,3614.65 0,-302.39 c 0,-23.98 41.29,-43.39 92.19,-43.39 50.94,0 92.23,19.41 92.23,43.39 l 0,303.36"
         style="fill:none;stroke:#000000;stroke-width:8;stroke-linecap:butt;stroke-linejoin:miter;stroke-miterlimit:4;stroke-dasharray:none;stroke-opacity:1"
         id="path3924"
         inkscape:connector-curvature="0" /><path
         d="m 2164.02,2593.47 c -1.09,74.38 93.99,97.78 152.31,116.88 65.47,21.45 172.58,53.67 172.58,53.67 l 7.65,164.92 34.53,19.18 c 0,0 -33.2,49.57 -49.84,70.94 -19.06,24.45 -11.99,65.7 11.02,96.37 23,30.7 81.01,81.99 81.01,81.99 0,0 31.95,-36.45 51.76,-54.65 27.97,-25.74 79.34,-29.84 111.52,-8.98 18.36,11.91 27.23,37.54 1.33,61.44 -20.43,18.87 -141.6,138.32 -141.6,138.32 0,0 53.71,46.02 122.73,73.83 69.03,27.81 169.69,54.65 169.69,54.65 l 113.17,-107.38 c 26.79,-26.8 76.44,-46.14 133.39,-23.79 22.93,9.02 35.78,43.98 11.92,64.53 -19.77,16.99 -78.21,79.1 -78.21,79.1 212.62,63.91 483.83,76.09 750.16,52.23 m 186.52,-22.7 c 178.48,-27.42 347.66,-70.04 487.07,-122.85 90.04,-34.1 138.36,-78.83 170.9,-84.26 32.54,-5.43 103.05,-21.72 103.05,-21.72 l 16.29,-160 c 0,0 155.7,-26.25 227.77,-37.93 125.98,-20.5 238.32,-51.83 222.7,-166.48"
         style="fill:none;stroke:#000000;stroke-width:8;stroke-linecap:butt;stroke-linejoin:miter;stroke-miterlimit:4;stroke-dasharray:none;stroke-opacity:1"
         id="path3926"
         inkscape:connector-curvature="0" /><path
         d="m 4595.35,2988.55 169.73,284.77"
         style="fill:none;stroke:#000000;stroke-width:8;stroke-linecap:butt;stroke-linejoin:miter;stroke-miterlimit:4;stroke-dasharray:none;stroke-opacity:1"
         id="path3928"
         inkscape:connector-curvature="0" /><path
         d="M 4784.26,3116.09 4613.59,2841.87"
         style="fill:none;stroke:#000000;stroke-width:8;stroke-linecap:butt;stroke-linejoin:miter;stroke-miterlimit:4;stroke-dasharray:none;stroke-opacity:1"
         id="path3930"
         inkscape:connector-curvature="0" /><path
         d="m 4251.91,1287.07 c 0,-13.44 -23.2,-24.38 -51.79,-24.38 -28.6,0 -51.8,10.94 -51.8,24.38 0,13.48 23.2,24.37 51.8,24.37 28.59,0 51.79,-10.89 51.79,-24.37 z"
         style="fill:none;stroke:#000000;stroke-width:8;stroke-linecap:butt;stroke-linejoin:miter;stroke-miterlimit:4;stroke-dasharray:none;stroke-opacity:1"
         id="path3932"
         inkscape:connector-curvature="0" /><path
         d="m 4612.58,1354.88 c 0,-13.48 -23.17,-24.37 -51.76,-24.37 -28.63,0 -51.8,10.89 -51.8,24.37 0,13.48 23.17,24.38 51.8,24.38 28.59,0 51.76,-10.9 51.76,-24.38 z"
         style="fill:none;stroke:#000000;stroke-width:8;stroke-linecap:butt;stroke-linejoin:miter;stroke-miterlimit:4;stroke-dasharray:none;stroke-opacity:1"
         id="path3934"
         inkscape:connector-curvature="0" /><path
         d="m 4725.16,1047.07 c 0,-13.44 -23.21,-24.38 -51.8,-24.38 -28.63,0 -51.8,10.94 -51.8,24.38 0,13.48 23.17,24.37 51.8,24.37 28.59,0 51.8,-10.89 51.8,-24.37 z"
         style="fill:none;stroke:#000000;stroke-width:8;stroke-linecap:butt;stroke-linejoin:miter;stroke-miterlimit:4;stroke-dasharray:none;stroke-opacity:1"
         id="path3936"
         inkscape:connector-curvature="0" /><path
         d="m 3555.47,1723.94 c -30.74,-1.68 -62.19,-4.57 -94.1,-8.82 -230.12,-30.71 -354.18,-257.62 -367.74,-271.18 -20.93,-20.93 -60.31,-26.21 -100.15,-24.14 -38.32,2 -153.4,3.83 -153.4,3.83 l -320.28,-89.76 c -58.98,-15.79 -235.93,-42.11 -317.34,27.81 -35.66,30.66 -33.79,75.78 -33.79,75.78 l 0.28,55.66 c 0,0 -2.11,-45.11 33.55,-75.74 81.41,-69.92 258.36,-43.63 317.34,-27.81 l 320.24,89.76 c 0,0 115.12,-1.83 153.44,-3.82 39.84,-2.11 79.21,3.2 100.15,24.1 13.56,13.55 137.62,240.51 367.7,271.17 11.33,1.52 22.61,2.85 33.79,4.02 m 1079.76,-39.06 c 110.94,-20.08 221.92,-40.04 332.85,-60.04 92.66,-16.68 220.24,-8.55 277.74,45.16 57.54,53.67 50.66,83.79 50.66,83.79 -0.82,-20.78 -0.7,-73.52 -0.7,-73.52 -13.28,-37.15 -31.64,-58.36 -59.1,-75.08 -58.6,-35.74 -175.94,-52.73 -268.64,-36.05 -98.28,18.55 -207.53,39.02 -305.93,56.76"
         style="fill:none;stroke:#000000;stroke-width:8;stroke-linecap:butt;stroke-linejoin:miter;stroke-miterlimit:4;stroke-dasharray:none;stroke-opacity:1"
         id="path3938"
         inkscape:connector-curvature="0" /><path
         d="m 2168.95,1484.61 c 0,52.34 95.43,75.23 153.75,94.33 65.42,21.45 172.57,53.71 172.57,53.71 l 43.95,29.34 c 0,0 -33.2,49.57 -49.88,70.94 -19.03,24.45 -12,65.7 11.05,96.37 23.01,30.7 81.02,81.99 81.02,81.99 0,0 31.91,-36.45 51.75,-54.65 27.97,-25.74 79.34,-29.84 111.53,-8.99 18.32,11.92 27.22,37.54 1.33,61.45 -20.43,18.87 -141.61,138.32 -141.61,138.32 0,0 53.68,46.02 122.7,73.83 69.06,27.81 169.73,54.65 169.73,54.65 l 113.12,-107.39 c 26.8,-26.79 76.45,-46.13 133.4,-23.79 5.04,2 9.57,5.2 13.36,9.22 m 1233.55,78.95 c 38.52,-11.92 75.51,-24.57 110.59,-37.85 90.04,-34.1 118.2,-65.43 162.26,-91.92 l 112.86,-27.65 c 0,0 158.59,-32.97 230.66,-44.69 125.98,-20.47 239.77,-60.43 228.91,-145.35"
         style="fill:none;stroke:#000000;stroke-width:8;stroke-linecap:butt;stroke-linejoin:miter;stroke-miterlimit:4;stroke-dasharray:none;stroke-opacity:1"
         id="path3940"
         inkscape:connector-curvature="0" /><path
         d="m 5084.18,1790.15 c 0,-20.46 -35.2,-37.03 -78.63,-37.03 -43.44,0 -78.64,16.57 -78.64,37.03 0,20.43 35.2,37 78.64,37 43.43,0 78.63,-16.57 78.63,-37 z"
         style="fill:none;stroke:#000000;stroke-width:8;stroke-linecap:butt;stroke-linejoin:miter;stroke-miterlimit:4;stroke-dasharray:none;stroke-opacity:1"
         id="path3942"
         inkscape:connector-curvature="0" /><path
         d="m 4940.7,1769.72 c 14.1,9.93 38.13,16.49 65.43,16.49 26.92,0 50.67,-6.37 64.85,-16.09"
         style="fill:none;stroke:#000000;stroke-width:8;stroke-linecap:butt;stroke-linejoin:miter;stroke-miterlimit:4;stroke-dasharray:none;stroke-opacity:1"
         id="path3944"
         inkscape:connector-curvature="0" /><path
         d="m 2440.12,1472.85 c 0,-20.43 -35.2,-36.99 -78.64,-36.99 -43.43,0 -78.63,16.56 -78.63,36.99 0,20.43 35.2,36.99 78.63,36.99 43.44,0 78.64,-16.56 78.64,-36.99 z"
         style="fill:none;stroke:#000000;stroke-width:8;stroke-linecap:butt;stroke-linejoin:miter;stroke-miterlimit:4;stroke-dasharray:none;stroke-opacity:1"
         id="path3946"
         inkscape:connector-curvature="0" /><path
         d="m 2296.64,1452.46 c 14.1,9.92 38.13,16.44 65.43,16.44 26.91,0 50.66,-6.36 64.84,-16.05"
         style="fill:none;stroke:#000000;stroke-width:8;stroke-linecap:butt;stroke-linejoin:miter;stroke-miterlimit:4;stroke-dasharray:none;stroke-opacity:1"
         id="path3948"
         inkscape:connector-curvature="0" /><path
         d="m 5085.55,2927.77 c 0,-20.43 -35.2,-37.03 -78.64,-37.03 -43.43,0 -78.63,16.6 -78.63,37.03 0,20.43 35.2,36.99 78.63,36.99 43.44,0 78.64,-16.56 78.64,-36.99 z"
         style="fill:none;stroke:#000000;stroke-width:8;stroke-linecap:butt;stroke-linejoin:miter;stroke-miterlimit:4;stroke-dasharray:none;stroke-opacity:1"
         id="path3950"
         inkscape:connector-curvature="0" /><path
         d="m 4942.07,2907.34 c 14.1,9.96 38.13,16.49 65.39,16.49 26.95,0 50.7,-6.37 64.88,-16.06"
         style="fill:none;stroke:#000000;stroke-width:8;stroke-linecap:butt;stroke-linejoin:miter;stroke-miterlimit:4;stroke-dasharray:none;stroke-opacity:1"
         id="path3952"
         inkscape:connector-curvature="0" /><path
         d="m 2441.48,2594.22 c 0,-20.47 -35.23,-37.03 -78.63,-37.03 -43.44,0 -78.63,16.56 -78.63,37.03 0,20.43 35.19,36.99 78.63,36.99 43.4,0 78.63,-16.56 78.63,-36.99 z"
         style="fill:none;stroke:#000000;stroke-width:8;stroke-linecap:butt;stroke-linejoin:miter;stroke-miterlimit:4;stroke-dasharray:none;stroke-opacity:1"
         id="path3954"
         inkscape:connector-curvature="0" /><path
         d="m 2298.01,2573.79 c 14.1,9.92 38.12,16.48 65.39,16.48 26.91,0 50.7,-6.37 64.88,-16.09"
         style="fill:none;stroke:#000000;stroke-width:8;stroke-linecap:butt;stroke-linejoin:miter;stroke-miterlimit:4;stroke-dasharray:none;stroke-opacity:1"
         id="path3956"
         inkscape:connector-curvature="0" /><path
         d="m 5085.55,1447.11 c 0,-20.43 -35.2,-36.99 -78.64,-36.99 -43.43,0 -78.63,16.56 -78.63,36.99 0,20.47 35.2,37.03 78.63,37.03 43.44,0 78.64,-16.56 78.64,-37.03 z"
         style="fill:none;stroke:#000000;stroke-width:8;stroke-linecap:butt;stroke-linejoin:miter;stroke-miterlimit:4;stroke-dasharray:none;stroke-opacity:1"
         id="path3958"
         inkscape:connector-curvature="0" /><path
         d="m 2441.48,1129.84 c 0,-20.43 -35.23,-36.99 -78.63,-36.99 -43.44,0 -78.67,16.56 -78.67,36.99 0,20.43 35.23,36.99 78.67,36.99 43.4,0 78.63,-16.56 78.63,-36.99 z"
         style="fill:none;stroke:#000000;stroke-width:8;stroke-linecap:butt;stroke-linejoin:miter;stroke-miterlimit:4;stroke-dasharray:none;stroke-opacity:1"
         id="path3960"
         inkscape:connector-curvature="0" /><path
         d="m 4036.64,1300.94 c 0,-33.99 -58.55,-61.53 -130.74,-61.53 -72.23,0 -130.74,27.54 -130.74,61.53 0,33.98 58.51,61.52 130.74,61.52 36.99,0 70.43,-7.23 94.22,-18.87"
         style="fill:none;stroke:#000000;stroke-width:8;stroke-linecap:butt;stroke-linejoin:miter;stroke-miterlimit:4;stroke-dasharray:none;stroke-opacity:1"
         id="path3962"
         inkscape:connector-curvature="0" /><path
         d="m 4080.59,1247.19 c -38.64,-25.82 -102.5,-42.7 -174.69,-42.7 -117.97,0 -213.56,45 -213.56,100.51 0,55.51 95.59,100.51 213.56,100.51 13.24,0 28.4,-0.12 40.98,-1.18"
         style="fill:none;stroke:#000000;stroke-width:8;stroke-linecap:butt;stroke-linejoin:miter;stroke-miterlimit:4;stroke-dasharray:none;stroke-opacity:1"
         id="path3964"
         inkscape:connector-curvature="0" /><path
         d="m 3692.34,1305.39 0,-64.38 c 0,-55.5 95.59,-100.5 213.56,-100.5 99.3,0 181.6,37.26 200.43,68"
         style="fill:none;stroke:#000000;stroke-width:8;stroke-linecap:butt;stroke-linejoin:miter;stroke-miterlimit:4;stroke-dasharray:none;stroke-opacity:1"
         id="path3966"
         inkscape:connector-curvature="0" /><path
         d="m 3789.8,1274.18 c 22.23,19.06 67.97,34.02 117.43,34.02 48.2,0 93.32,-13.59 116.01,-31.87"
         style="fill:none;stroke:#000000;stroke-width:8;stroke-linecap:butt;stroke-linejoin:miter;stroke-miterlimit:4;stroke-dasharray:none;stroke-opacity:1"
         id="path3968"
         inkscape:connector-curvature="0" /><path
         d="m 2645.51,2472.77 1303.04,-1069.84 138.29,-160 51.52,-97.62 c 0,0 111.21,24.41 162.73,32.54 51.53,8.12 100.32,2.7 119.3,-21.68 18.99,-24.41 211.52,-238.67 211.52,-238.67 l 157.66,31.211 m -1.72,-4.102 0,62.381 -154.57,-29.799 c 0,0 -192.54,214.209 -211.52,238.629 -18.99,24.41 -67.78,29.8 -119.34,21.68 -51.52,-8.13 -162.69,-32.54 -162.69,-32.54 l -51.53,97.62 -138.32,160 -1252.85,1025.11 -54.73,16.68 3.21,-31.6"
         style="fill:none;stroke:#000000;stroke-width:8;stroke-linecap:butt;stroke-linejoin:miter;stroke-miterlimit:4;stroke-dasharray:none;stroke-opacity:1"
         id="path3970"
         inkscape:connector-curvature="0" /><path
         d="m 5233.36,2855.97 c 0,0 3.75,-27.14 -53.79,-80.85 -57.54,-53.68 -185.08,-61.84 -277.73,-45.12 l -366.84,68.2 -1.25,141.21 c 0,0 -63.91,17.97 -113.79,25.67 -49.84,7.65 -116.95,-24.93 -151.48,-44.11 -34.5,-19.17 -142.86,-46.01 -262.7,-0.97 -114.1,42.89 -318.32,83.44 -548.44,52.73 -230.11,-30.66 -354.18,-257.61 -367.73,-271.17 -20.94,-20.94 -60.27,-26.21 -100.16,-24.14 -38.28,1.99 -153.4,3.83 -153.4,3.83 l -75.7,-25.47 -2.69,-151.13 -241.84,-65 c -58.98,-15.82 -235.98,-42.11 -317.34,27.81 -35.71,30.62 -33.79,75.78 -33.79,75.78 l 0.23,55.66 c 0,0 -2.11,-45.11 33.56,-75.74 81.4,-69.92 258.4,-43.63 317.38,-27.81 l 170.66,46.02 23.01,157.22 126.56,38.36 c 0,0 115.12,-1.83 153.4,-3.83 39.89,-2.07 79.22,3.21 100.16,24.14 13.55,13.56 137.62,240.47 367.73,271.18 230.12,30.66 434.34,-9.85 548.44,-52.74 119.84,-45.08 228.2,-18.2 262.7,0.94 34.53,19.18 101.64,51.8 151.48,44.14 49.88,-7.7 175.47,-29.73 175.47,-29.73 l 18.2,-153.43 288.21,-51.92 c 92.65,-16.72 220.19,-8.55 277.73,45.12 57.54,53.71 54.45,87.65 54.45,87.65 -0.78,-20.82 -0.7,-62.5 -0.7,-62.5 z"
         style="fill:#ffffff;fill-opacity:1;fill-rule:nonzero;stroke:none"
         id="path3972"
         inkscape:connector-curvature="0" /><path
         d="m 5233.36,2855.97 c 0,0 3.75,-27.14 -53.79,-80.85 -57.54,-53.68 -185.08,-61.84 -277.73,-45.12 l -366.84,68.2 -1.25,141.21 c 0,0 -63.91,17.97 -113.79,25.67 -49.84,7.65 -116.95,-24.93 -151.48,-44.11 -34.5,-19.17 -142.86,-46.01 -262.7,-0.97 -114.1,42.89 -318.32,83.44 -548.44,52.73 -230.11,-30.66 -354.18,-257.61 -367.73,-271.17 -20.94,-20.94 -60.27,-26.21 -100.16,-24.14 -38.28,1.99 -153.4,3.83 -153.4,3.83 l -75.7,-25.47 -2.69,-151.13 -241.84,-65 c -58.98,-15.82 -235.98,-42.11 -317.34,27.81 -35.71,30.62 -33.79,75.78 -33.79,75.78 l 0.23,55.66 c 0,0 -2.11,-45.11 33.56,-75.74 81.4,-69.92 258.4,-43.63 317.38,-27.81 l 170.66,46.02 23.01,157.22 126.56,38.36 c 0,0 115.12,-1.83 153.4,-3.83 39.89,-2.07 79.22,3.21 100.16,24.14 13.55,13.56 137.62,240.47 367.73,271.18 230.12,30.66 434.34,-9.85 548.44,-52.74 119.84,-45.08 228.2,-18.2 262.7,0.94 34.53,19.18 101.64,51.8 151.48,44.14 49.88,-7.7 175.47,-29.73 175.47,-29.73 l 18.2,-153.43 288.21,-51.92 c 92.65,-16.72 220.19,-8.55 277.73,45.12 57.54,53.71 54.45,87.65 54.45,87.65 -0.78,-20.82 -0.7,-62.5 -0.7,-62.5 z"
         style="fill:none;stroke:#000000;stroke-width:8;stroke-linecap:butt;stroke-linejoin:miter;stroke-miterlimit:4;stroke-dasharray:none;stroke-opacity:1"
         id="path3974"
         inkscape:connector-curvature="0" /><path
         d="m 4036.72,816.398 c 0,-33.937 -58.52,-61.519 -130.74,-61.519 -72.19,0 -130.71,27.582 -130.71,61.519 0,33.993 58.52,61.532 130.71,61.532 72.22,0 130.74,-27.539 130.74,-61.532 z"
         style="fill:none;stroke:#000000;stroke-width:8;stroke-linecap:butt;stroke-linejoin:miter;stroke-miterlimit:4;stroke-dasharray:none;stroke-opacity:1"
         id="path3976"
         inkscape:connector-curvature="0" /><path
         d="m 3949.61,1403.2 0,60.39"
         style="fill:none;stroke:#000000;stroke-width:8;stroke-linecap:butt;stroke-linejoin:miter;stroke-miterlimit:4;stroke-dasharray:none;stroke-opacity:1"
         id="path3978"
         inkscape:connector-curvature="0" /><path
         d="m 4087.7,1241.17 0,63.75"
         style="fill:none;stroke:#000000;stroke-width:8;stroke-linecap:butt;stroke-linejoin:miter;stroke-miterlimit:4;stroke-dasharray:none;stroke-opacity:1"
         id="path3980"
         inkscape:connector-curvature="0" /><path
         d="m 4139.1,1145.74 0,58.98"
         style="fill:none;stroke:#000000;stroke-width:8;stroke-linecap:butt;stroke-linejoin:miter;stroke-miterlimit:4;stroke-dasharray:none;stroke-opacity:1"
         id="path3982"
         inkscape:connector-curvature="0" /><path
         d="m 4632.27,918.551 0,58.949"
         style="fill:none;stroke:#000000;stroke-width:8;stroke-linecap:butt;stroke-linejoin:miter;stroke-miterlimit:4;stroke-dasharray:none;stroke-opacity:1"
         id="path3984"
         inkscape:connector-curvature="0" /><path
         d="m 3906.56,3247.5 0,-1211.49"
         style="fill:none;stroke:#000000;stroke-width:24;stroke-linecap:butt;stroke-linejoin:miter;stroke-miterlimit:4;stroke-dasharray:none;stroke-opacity:1"
         id="path3986"
         inkscape:connector-curvature="0" /><g
         id="g3988"
         transform="scale(0.925367,-1.07463)"><path
           d="m 4221.64,-1043.89 0,303.158"
           style="fill:none;stroke:#000000;stroke-width:24.06710052;stroke-linecap:butt;stroke-linejoin:miter;stroke-miterlimit:4;stroke-dasharray:none;stroke-opacity:1"
           id="path3990"
           inkscape:connector-curvature="0" /></g><path
         d="m 3909.84,281.68 0,-271.84016"
         style="fill:none;stroke:#000000;stroke-width:24;stroke-linecap:butt;stroke-linejoin:miter;stroke-miterlimit:4;stroke-dasharray:none;stroke-opacity:1"
         id="path3992"
         inkscape:connector-curvature="0" /><g
         id="g3994"
         transform="matrix(1.10309,0.149251,0.388696,-0.358961,0,0)"><path
           d="m 5058.89,-5768.57 c -6.63,-5.39 -15.92,-8.58 -26.37,-8.15 l -36.57,1.56 c -10.42,0.35 -20.03,4.4 -27,10.31 -3.48,2.92 -6.4,6.6 -8.42,10.43 -2.03,3.85 -3.14,7.52 -3.28,11.91 l -0.94,31.62 c -0.3,8.68 3.63,16.95 10.26,22.33 6.61,5.46 16.13,8 26.55,7.55 l 36.37,-0.87 c 10.39,-0.37 20,-4.42 26.98,-10.34 3.5,-3 6.42,-6.57 8.41,-10.42 2.03,-3.84 3.38,-8.18 3.51,-12.48 l 0.97,-31.69 c 0.23,-8.61 -3.86,-16.31 -10.47,-21.76 z"
           style="fill:none;stroke:#000000;stroke-width:11.8732996;stroke-linecap:butt;stroke-linejoin:miter;stroke-miterlimit:4;stroke-dasharray:none;stroke-opacity:1"
           id="path3996"
           inkscape:connector-curvature="0" /></g><g
         id="g3998"
         transform="matrix(1.10309,0.149251,0.388696,-0.358961,0,0)"><path
           d="m 5058.89,-5768.57 c 6.61,5.45 10.7,13.15 10.47,21.76 l -0.97,31.69 c -0.13,4.3 -1.48,8.64 -3.51,12.48 -1.99,3.85 -4.91,7.42 -8.41,10.42 -6.98,5.92 -16.59,9.97 -26.98,10.34 l -36.37,0.87 c -10.42,0.45 -19.94,-2.09 -26.55,-7.55 -6.63,-5.38 -10.56,-13.65 -10.26,-22.33 l 0.94,-31.62 c 0.14,-4.39 1.25,-8.06 3.28,-11.91 2.02,-3.83 4.94,-7.51 8.42,-10.43 6.97,-5.91 16.58,-9.96 27,-10.31 l 36.57,-1.56 c 10.45,-0.43 19.74,2.76 26.37,8.15 z"
           style="fill:none;stroke:#000000;stroke-width:11.8732996;stroke-linecap:butt;stroke-linejoin:miter;stroke-miterlimit:4;stroke-dasharray:none;stroke-opacity:1"
           id="path4000"
           inkscape:connector-curvature="0" /></g><g
         id="g4002"
         transform="matrix(1.10309,0.149251,0.388696,-0.358961,0,0)"><path
           d="m 4905.85,-5771.59 c -1.71,5.05 -3.99,10.19 -4.18,15.67 l -1.91,63.3 c -0.26,8.71 1.66,17.11 5.22,24.48 3.57,7.36 8.89,13.59 15.52,18.97 6.65,5.37 14.53,9.73 23.45,12.56 8.94,2.76 18.86,4.15 29.26,3.79 l 73.33,-2.92 c 10.43,-0.44 20.4,-2.4 29.5,-5.9 9.09,-3.52 17.32,-8.37 24.28,-14.27 6.98,-5.93 12.83,-13.18 16.88,-20.86 4.02,-7.68 6.3,-15.76 6.53,-24.37 l 1.92,-63.3 c 0.26,-8.7 -1.63,-17.1 -5.19,-24.46 -3.58,-7.36 -8.88,-13.61 -15.52,-18.98 -6.61,-5.46 -14.56,-9.74 -23.47,-12.58 -8.88,-2.83 -18.8,-4.22 -29.26,-3.79 l -73.32,2.93 c -10.45,0.45 -20.36,2.31 -29.51,5.9 -7.37,2.81 -13.58,6.87 -19.61,11.32 -8.28,10.92 -16.05,21.62 -23.92,32.51 z"
           style="fill:none;stroke:#000000;stroke-width:11.8732996;stroke-linecap:butt;stroke-linejoin:miter;stroke-miterlimit:4;stroke-dasharray:none;stroke-opacity:1"
           id="path4004"
           inkscape:connector-curvature="0" /></g><g
         id="g4006"
         transform="matrix(1.10309,0.149251,0.388696,-0.358961,0,0)"><path
           d="m 4843.45,-5682.63 -0.2,8.3 c -0.4,12.99 2.56,24.99 7.91,36.04 5.35,11.04 13.35,21.01 23.26,29.16 9.98,8.05 21.71,14.56 35.12,18.72 13.37,4.26 28.34,5.69 43.98,5.12 l 109.88,-3.82 c 15.64,-0.57 30.67,-4.12 44.36,-9.41 13.63,-5.22 25.96,-12.18 36.4,-20.99 10.47,-8.92 18.86,-19.37 24.91,-30.78 3,-5.72 5.52,-11.75 7.18,-17.91 1.69,-6.16 2.68,-12.49 2.9,-19.04 l 3.04,-95.47 c 0.38,-13.02 -2.59,-25.02 -7.94,-36.07 -5.35,-11.04 -13.31,-21.08 -23.26,-29.14 -9.94,-8.17 -21.71,-14.58 -35.08,-18.84 -13.37,-4.14 -28.14,-6.26 -43.79,-5.57 l -90.5,3.39 c -17.98,21.79 -35.14,42.64 -51.85,64.84 6.03,-4.45 12.24,-8.51 19.61,-11.32 9.15,-3.59 19.06,-5.45 29.51,-5.9 l 73.32,-2.93 c 10.46,-0.43 20.38,0.96 29.26,3.79 8.91,2.84 16.86,7.12 23.47,12.58 6.64,5.37 11.94,11.62 15.52,18.98 3.56,7.36 5.45,15.76 5.19,24.46 l -1.92,63.3 c -0.23,8.61 -2.51,16.69 -6.53,24.37 -4.05,7.68 -9.9,14.93 -16.88,20.86 -6.96,5.9 -15.19,10.75 -24.28,14.27 -9.1,3.5 -19.07,5.46 -29.5,5.9 l -73.33,2.92 c -10.4,0.36 -20.32,-1.03 -29.26,-3.79 -8.92,-2.83 -16.8,-7.19 -23.45,-12.56 -6.63,-5.38 -11.95,-11.61 -15.52,-18.97 -3.6,-7.37 -5.48,-15.77 -5.22,-24.48 l 1.91,-63.3 c 0.19,-5.48 2.47,-10.62 4.18,-15.67 -22.93,31.6 -43.68,60.94 -62.4,88.96 z"
           style="fill:none;stroke:#000000;stroke-width:11.8732996;stroke-linecap:butt;stroke-linejoin:miter;stroke-miterlimit:4;stroke-dasharray:none;stroke-opacity:1"
           id="path4008"
           inkscape:connector-curvature="0" /></g><g
         id="g4010"
         transform="matrix(1.10309,0.149251,0.388696,-0.358961,0,0)"><path
           d="m 4796.43,-5610.89 c 0.37,0.83 0.51,1.63 0.93,2.46 7.13,14.73 17.77,27.85 31.06,38.61 13.24,10.83 29.04,19.46 46.88,25.14 17.85,5.58 37.66,8.36 58.51,7.57 l 146.65,-5.83 c 20.85,-0.8 40.57,-4.79 58.79,-11.8 18.21,-7.02 34.65,-16.71 48.59,-28.55 6.97,-5.92 13.4,-12.38 19.02,-19.3 5.58,-6.81 10.47,-14.14 14.49,-21.83 4.02,-7.58 7.3,-15.57 9.55,-23.88 2.26,-8.22 3.56,-16.93 3.79,-25.52 l 3.82,-126.62 c 0.27,-8.7 -0.65,-17.25 -2.39,-25.37 -1.74,-8.12 -4.24,-16.11 -7.81,-23.48 -7.2,-14.64 -18,-27.19 -31.25,-38.03 -13.29,-10.74 -29.08,-19.48 -46.94,-25.06 -17.81,-5.66 -37.64,-8.47 -58.49,-7.67 l -69.31,2.53 c -14.06,15.69 -27.18,32.21 -40.7,48.58 l 90.5,-3.39 c 15.65,-0.69 30.42,1.43 43.79,5.57 13.37,4.26 25.14,10.67 35.08,18.84 9.95,8.06 17.91,18.1 23.26,29.14 5.35,11.05 8.32,23.05 7.94,36.07 l -3.04,95.47 c -0.22,6.55 -1.21,12.88 -2.9,19.04 -1.66,6.16 -4.18,12.19 -7.18,17.91 -6.05,11.41 -14.44,21.86 -24.91,30.78 -10.44,8.81 -22.77,15.77 -36.4,20.99 -13.69,5.29 -28.72,8.84 -44.36,9.41 l -109.88,3.82 c -15.64,0.57 -30.61,-0.86 -43.98,-5.12 -13.41,-4.16 -25.14,-10.67 -35.12,-18.72 -9.91,-8.15 -17.91,-18.12 -23.26,-29.16 -5.35,-11.05 -8.31,-23.05 -7.91,-36.04 l 0.2,-8.3 c -21.83,32.6 -32.76,49.16 -47.02,71.74 z"
           style="fill:none;stroke:#000000;stroke-width:11.8732996;stroke-linecap:butt;stroke-linejoin:miter;stroke-miterlimit:4;stroke-dasharray:none;stroke-opacity:1"
           id="path4012"
           inkscape:connector-curvature="0" /></g><g
         id="g4014"
         transform="matrix(1.10309,0.149251,0.388696,-0.358961,0,0)"><path
           d="m 4760.96,-5555.99 c 6.91,8.86 12.16,18.77 21.15,26.21 16.59,13.43 36.45,24.3 58.74,31.38 22.29,7 47.01,10.41 73.04,9.49 l 183.25,-7.39 c 26.06,-1.02 51.05,-6.51 73.82,-15.34 22.78,-8.8 43.31,-20.51 60.75,-35.35 8.69,-7.37 16.72,-15.69 23.69,-24.2 7.03,-8.61 13.2,-17.69 18.23,-27.24 5.04,-9.57 8.89,-19.71 11.7,-29.97 2.8,-10.37 4.42,-20.68 4.71,-31.45 l 4.98,-158.87 c 0.36,-10.85 -0.87,-21.04 -3.03,-31.2 -2.19,-10.16 -5.42,-19.99 -9.91,-29.14 -8.92,-18.41 -22.19,-34.7 -38.75,-48.22 -16.59,-13.52 -36.48,-24.31 -58.77,-31.39 -22.29,-6.99 -46.94,-10.49 -73.01,-9.46 l -40.6,1.95 c -16.38,16.03 -32.67,30.92 -48.66,48.74 l 69.3,-2.51 c 20.89,-0.9 40.72,1.91 58.53,7.57 17.86,5.58 33.65,14.32 46.94,25.06 13.25,10.84 24.05,23.39 31.23,38.12 3.59,7.28 6.09,15.27 7.83,23.39 1.74,8.12 2.66,16.67 2.39,25.37 l -3.82,126.62 c -0.23,8.59 -1.53,17.3 -3.79,25.52 -2.25,8.31 -5.53,16.3 -9.55,23.88 -4.02,7.69 -8.91,15.02 -14.49,21.83 -5.62,6.92 -12.05,13.38 -19.02,19.3 -13.94,11.84 -30.38,21.53 -48.59,28.55 -18.22,7.01 -37.94,11 -58.79,11.8 l -146.65,5.83 c -20.85,0.79 -40.66,-1.99 -58.51,-7.57 -17.84,-5.68 -33.64,-14.31 -46.92,-25.06 -13.25,-10.84 -23.89,-23.96 -31.02,-38.69 -0.42,-0.83 -0.56,-1.63 -0.93,-2.46 -14.39,22.64 -30.82,48.24 -35.47,54.9 z"
           style="fill:none;stroke:#000000;stroke-width:11.8732996;stroke-linecap:butt;stroke-linejoin:miter;stroke-miterlimit:4;stroke-dasharray:none;stroke-opacity:1"
           id="path4016"
           inkscape:connector-curvature="0" /></g><g
         id="g4018"
         transform="matrix(1.10309,0.149251,0.388696,-0.358961,0,0)"><path
           d="m 4714.74,-5516.76 c 7.34,8.81 12.37,18.96 21.52,26.35 19.89,16.22 43.63,29.25 70.38,37.65 26.75,8.4 56.29,12.53 87.56,11.38 l 219.8,-8.29 c 31.27,-1.14 61.34,-7.59 88.67,-18.1 13.66,-5.3 26.53,-11.48 38.74,-18.71 12.24,-7.21 23.7,-15.29 34.13,-24.1 10.48,-8.93 20.04,-18.99 28.46,-29.32 8.38,-10.33 15.66,-21.22 21.74,-32.74 6.01,-11.43 10.82,-23.47 14.2,-35.88 3.35,-12.32 5.3,-25 5.7,-38 l 5.7,-189.81 c 0.41,-13.12 -0.65,-26.18 -3.28,-38.36 -2.63,-12.1 -6.8,-23.29 -12.19,-34.24 -10.7,-22.07 -26.59,-42.18 -46.49,-58.39 -19.88,-16.22 -43.83,-28.56 -70.61,-36.97 -26.72,-8.51 -56.28,-12.53 -87.53,-11.37 l -6.4,0.16 c -18.12,14.55 -35.91,31.75 -53.89,49.32 l 40.6,-1.95 c 26.07,-1.03 50.72,2.47 73.01,9.46 22.29,7.08 42.18,17.87 58.77,31.39 16.56,13.52 29.83,29.81 38.75,48.22 4.49,9.15 7.72,18.98 9.91,29.14 2.16,10.16 3.39,20.35 3.03,31.2 l -4.98,158.87 c -0.29,10.77 -1.91,21.08 -4.71,31.45 -2.81,10.26 -6.66,20.4 -11.7,29.97 -5.03,9.55 -11.2,18.63 -18.23,27.24 -6.97,8.51 -15,16.83 -23.69,24.2 -17.44,14.84 -37.97,26.55 -60.75,35.35 -22.77,8.83 -47.76,14.32 -73.82,15.34 l -183.25,7.39 c -26.03,0.92 -50.75,-2.49 -73.04,-9.49 -22.29,-7.08 -42.15,-17.95 -58.74,-31.38 -8.99,-7.44 -14.24,-17.35 -21.15,-26.21 -0.58,0.86 -4.12,6.57 -4.53,7.16 -13.83,17.64 -27.91,26.91 -41.69,32.07 z"
           style="fill:none;stroke:#000000;stroke-width:11.8732996;stroke-linecap:butt;stroke-linejoin:miter;stroke-miterlimit:4;stroke-dasharray:none;stroke-opacity:1"
           id="path4020"
           inkscape:connector-curvature="0" /></g><g
         id="g4022"
         transform="matrix(1.10309,0.149251,0.388696,-0.358961,0,0)"><path
           d="m 4628.98,-5537.07 c 2.28,6.39 3.73,13.41 6.7,19.54 6.29,12.84 14.02,24.76 23.1,36.04 9.12,11.31 19.61,21.65 31.24,31.07 23.19,18.89 51.01,34.03 82.18,43.95 31.21,9.82 65.81,14.64 102.31,13.26 l 256.54,-10.32 c 36.53,-1.45 71.41,-8.81 103.31,-21.14 15.93,-6.1 31,-13.22 45.24,-21.56 14.26,-8.42 27.6,-18.33 39.79,-28.72 12.23,-10.37 23.38,-21.62 33.14,-33.55 9.8,-12.03 18.44,-24.88 25.46,-38.18 7.05,-13.39 12.43,-26.82 16.36,-41.29 3.97,-14.46 6.19,-29.41 6.64,-44.57 l 6.86,-222.08 c 0.49,-15.26 -0.88,-29.97 -3.91,-44.17 -3.1,-14.13 -7.94,-27.91 -14.22,-40.75 -6.24,-12.82 -13.98,-24.75 -23.1,-36.04 -9.09,-11.3 -19.57,-21.64 -31.2,-31.04 -23.23,-18.91 -50.97,-34.14 -82.21,-43.98 -19.62,-6.2 -42.32,-6.72 -64.24,-8.63 -21.14,11.45 -42.66,26.43 -64.13,43.73 l 6.4,-0.16 c 31.25,-1.16 60.81,2.86 87.53,11.37 26.78,8.41 50.73,20.75 70.61,36.97 19.9,16.21 35.79,36.32 46.49,58.39 5.39,10.95 9.56,22.14 12.19,34.24 2.63,12.18 3.69,25.24 3.28,38.36 l -5.7,189.81 c -0.4,13 -2.35,25.68 -5.7,38 -3.38,12.41 -8.19,24.45 -14.2,35.88 -6.08,11.52 -13.36,22.41 -21.74,32.74 -8.42,10.33 -17.98,20.39 -28.46,29.32 -10.43,8.81 -21.89,16.89 -34.13,24.1 -12.21,7.23 -25.08,13.41 -38.74,18.71 -27.33,10.51 -57.4,16.96 -88.67,18.1 l -219.8,8.29 c -31.27,1.15 -60.81,-2.98 -87.56,-11.38 -26.75,-8.4 -50.49,-21.43 -70.38,-37.65 -9.15,-7.39 -14.18,-17.54 -21.52,-26.35 -20.58,7.76 -40.54,4.68 -58.37,-6.1 -6.67,-4.08 -16.02,-8.3 -27.39,-14.21 z"
           style="fill:none;stroke:#000000;stroke-width:11.8732996;stroke-linecap:butt;stroke-linejoin:miter;stroke-miterlimit:4;stroke-dasharray:none;stroke-opacity:1"
           id="path4024"
           inkscape:connector-curvature="0" /></g><g
         id="g4026"
         transform="matrix(1.10309,0.149251,0.388696,-0.358961,0,0)"><path
           d="m 4562.54,-5571.02 c 0.41,12.48 0.74,25.12 3.27,36.95 3.52,16.15 8.91,31.67 16.08,46.41 7.17,14.63 15.98,28.62 26.37,41.54 10.39,12.92 22.21,24.9 35.49,35.66 26.53,21.58 58.57,38.39 94.24,49.61 17.83,5.68 36.64,9.69 56.2,12.27 19.52,2.58 39.77,3.7 60.63,2.9 l 293.09,-11.11 c 20.88,-0.89 41.12,-3.35 60.87,-7.44 19.75,-4.1 38.87,-9.63 57.07,-16.64 18.26,-7.1 35.65,-15.54 51.91,-25.1 16.32,-9.65 31.56,-20.85 45.5,-32.67 13.94,-11.83 26.43,-24.28 37.65,-37.99 11.21,-13.74 20.91,-28.31 28.98,-43.67 8.04,-15.27 14.59,-31.26 19.1,-47.78 4.48,-16.41 7.04,-33.74 7.61,-51.13 l 7.6,-253.12 c 0.54,-17.41 -1.08,-34.52 -4.6,-50.66 -3.51,-16.15 -8.92,-31.67 -16.05,-46.4 -7.13,-14.72 -15.97,-28.73 -26.4,-41.56 -10.39,-12.92 -22.18,-24.89 -35.46,-35.63 -19.8,-16.17 -45.28,-26.44 -70.39,-37 -10.71,-0.97 -20.7,-3.37 -31.86,-3.45 -28.82,-0.22 -59.37,11.01 -90.47,27.8 21.92,1.91 44.62,2.43 64.24,8.63 31.24,9.84 58.98,25.07 82.21,43.98 11.63,9.4 22.11,19.74 31.2,31.04 9.12,11.29 16.86,23.22 23.1,36.04 6.28,12.84 11.12,26.62 14.22,40.75 3.03,14.2 4.4,28.91 3.91,44.17 l -6.86,222.08 c -0.45,15.16 -2.67,30.11 -6.64,44.57 -3.93,14.47 -9.31,27.9 -16.36,41.29 -7.02,13.3 -15.66,26.15 -25.46,38.18 -9.76,11.93 -20.91,23.18 -33.14,33.55 -12.19,10.39 -25.53,20.3 -39.79,28.72 -14.24,8.34 -29.31,15.46 -45.24,21.56 -31.9,12.33 -66.78,19.69 -103.31,21.14 l -256.54,10.32 c -36.5,1.38 -71.1,-3.44 -102.31,-13.26 -31.17,-9.92 -58.99,-25.06 -82.18,-43.95 -11.63,-9.42 -22.12,-19.76 -31.24,-31.07 -9.08,-11.28 -16.81,-23.2 -23.1,-36.04 -2.97,-6.13 -4.42,-13.15 -6.7,-19.54 -27.52,-14.38 -49.58,-25.73 -66.44,-33.95 z"
           style="fill:none;stroke:#000000;stroke-width:11.8732996;stroke-linecap:butt;stroke-linejoin:miter;stroke-miterlimit:4;stroke-dasharray:none;stroke-opacity:1"
           id="path4028"
           inkscape:connector-curvature="0" /></g><g
         id="g4030"
         transform="matrix(1.10309,0.149251,0.388696,-0.358961,0,0)"><path
           d="m 4504.75,-5567.83 -0.06,1.38 c -0.55,19.47 1.3,38.3 5.28,56.49 3.93,18.18 10.07,35.53 18.09,52.15 8.06,16.52 17.94,32.59 29.64,47.14 11.73,14.45 25.27,27.49 40.17,39.66 14.96,12.11 31.22,23.44 48.94,32.87 17.71,9.44 36.68,17.22 56.74,23.6 20.09,6.27 41.17,10.8 63.14,13.74 21.99,2.83 44.75,4.13 68.21,3.22 l 329.68,-12.67 c 23.48,-0.89 46.47,-3.74 68.66,-8.33 22.23,-4.58 43.84,-11.27 64.34,-19.19 20.5,-7.91 40.05,-17.18 58.37,-27.96 18.31,-10.88 35.48,-23.23 51.15,-36.52 15.72,-13.36 29.75,-27.56 42.35,-43 12.62,-15.53 23.68,-31.94 32.69,-49.08 9.09,-17.24 16.18,-35.29 21.24,-53.85 5.06,-18.57 7.98,-37.49 8.57,-57.06 l 8.76,-285.37 c 0.6,-19.57 -1.3,-38.31 -5.23,-56.48 -3.94,-18.29 -10.08,-35.64 -18.14,-52.17 -4.36,-8.99 -10.69,-17.07 -16.14,-25.54 -48.05,-32.05 -105.04,-52.81 -169.9,-58.78 25.11,10.56 50.59,20.83 70.39,37 13.28,10.74 25.07,22.71 35.46,35.63 10.43,12.83 19.27,26.84 26.4,41.56 7.13,14.73 12.54,30.25 16.05,46.4 3.52,16.14 5.14,33.25 4.6,50.66 l -7.6,253.12 c -0.57,17.39 -3.13,34.72 -7.61,51.13 -4.51,16.52 -11.06,32.51 -19.1,47.78 -8.07,15.36 -17.77,29.93 -28.98,43.67 -11.22,13.71 -23.71,26.16 -37.65,37.99 -13.94,11.82 -29.21,23 -45.5,32.67 -16.26,9.56 -33.65,18 -51.91,25.1 -18.2,7.01 -37.35,12.54 -57.07,16.64 -19.75,4.09 -39.99,6.55 -60.87,7.44 l -293.09,11.11 c -20.86,0.8 -41.11,-0.32 -60.63,-2.9 -19.56,-2.58 -38.37,-6.59 -56.2,-12.27 -35.67,-11.22 -67.71,-28.03 -94.24,-49.61 -13.28,-10.76 -25.1,-22.74 -35.49,-35.66 -10.39,-12.92 -19.2,-26.91 -26.37,-41.54 -7.17,-14.74 -12.56,-30.26 -16.08,-46.41 -2.53,-11.83 -2.86,-24.47 -3.27,-36.95 -6.11,-2.86 -23.89,-12 -23.89,-12 l -33.9,15.19 z"
           style="fill:none;stroke:#000000;stroke-width:11.8732996;stroke-linecap:butt;stroke-linejoin:miter;stroke-miterlimit:4;stroke-dasharray:none;stroke-opacity:1"
           id="path4032"
           inkscape:connector-curvature="0" /></g><g
         id="g4034"
         transform="matrix(1.10309,0.149251,0.388696,-0.358961,0,0)"><path
           d="m 4450.28,-5527.8 c 0.76,14.13 0.89,28.44 3.81,41.96 4.38,20.21 11.06,40.06 19.97,58.47 8.93,18.4 20.13,35.24 33.1,51.4 13.02,16.09 27.88,31.41 44.47,44.95 16.58,13.42 34.98,25.42 54.64,35.87 19.68,10.47 40.75,19.23 63.06,26.23 22.26,7.08 45.68,12.68 70.09,15.98 24.4,3.18 49.91,3.98 76.01,2.98 l 366.2,-14.13 c 26.08,-1.03 51.64,-4.33 76.3,-9.4 24.67,-5.09 48.38,-11.79 71.18,-20.59 22.73,-8.72 44.66,-19.41 65,-31.41 20.34,-12 39.41,-25.62 56.85,-40.45 17.45,-14.84 33.08,-30.87 47.06,-48.02 14,-17.13 26.39,-35.38 36.44,-54.49 5.03,-9.54 9.5,-19.23 13.45,-29.23 3.98,-9.99 7.28,-20.26 10.12,-30.61 2.8,-10.26 4.95,-20.8 6.52,-31.36 1.62,-10.64 2.65,-21.41 2.97,-32.27 l 9.51,-316.42 c 0.25,-8.72 -1.81,-16.75 -2.38,-25.37 -27.41,-33.59 -56.3,-66.16 -93.45,-91.09 5.45,8.47 11.78,16.55 16.14,25.54 8.06,16.53 14.2,33.88 18.14,52.17 3.93,18.17 5.83,36.91 5.23,56.48 l -8.76,285.37 c -0.59,19.57 -3.51,38.49 -8.57,57.06 -5.06,18.56 -12.15,36.61 -21.24,53.85 -9.01,17.14 -20.07,33.55 -32.69,49.08 -12.6,15.44 -26.63,29.64 -42.35,43 -15.67,13.29 -32.84,25.64 -51.15,36.52 -18.32,10.78 -37.87,20.05 -58.37,27.96 -20.5,7.92 -42.11,14.61 -64.34,19.19 -22.19,4.59 -45.18,7.44 -68.66,8.33 l -329.68,12.67 c -23.46,0.91 -46.22,-0.39 -68.21,-3.22 -21.95,-2.93 -43.05,-7.47 -63.14,-13.74 -20.06,-6.38 -39.03,-14.16 -56.74,-23.6 -17.72,-9.43 -33.98,-20.76 -48.94,-32.87 -14.9,-12.17 -28.44,-25.21 -40.17,-39.66 -11.7,-14.55 -21.58,-30.62 -29.64,-47.14 -7.99,-16.61 -14.16,-33.97 -18.09,-52.15 -3.98,-18.19 -5.83,-37.02 -5.28,-56.49 l 0.06,-1.38 -47.83,21.89 -6.64,18.14 z"
           style="fill:none;stroke:#000000;stroke-width:11.8732996;stroke-linecap:butt;stroke-linejoin:miter;stroke-miterlimit:4;stroke-dasharray:none;stroke-opacity:1"
           id="path4036"
           inkscape:connector-curvature="0" /></g><g
         id="g4038"
         transform="matrix(1,0,0,-1,642,274)"><path
           d="m 2466.9622,-3210.6553 c -149.0925,-145.1028 -201.6208,-202.6266 -233.1379,-285.8532 -31.517,-83.2266 -40.4539,-259.9571 -40.4539,-259.9571"
           style="fill:none;stroke:#000000;stroke-width:8;stroke-linecap:butt;stroke-linejoin:miter;stroke-miterlimit:4;stroke-dasharray:none;stroke-opacity:1"
           id="path4040"
           inkscape:connector-curvature="0"
           sodipodi:nodetypes="czc" /><circle
           style="opacity:1;fill:none;fill-opacity:1;stroke:#000000;stroke-width:8;stroke-linecap:butt;stroke-linejoin:round;stroke-miterlimit:4;stroke-dasharray:none;stroke-dashoffset:0;stroke-opacity:1"
           id="path5183"
           cx="2194"
           cy="-3783"
           r="27" /><circle
           style="opacity:1;fill:none;fill-opacity:1;stroke:#000000;stroke-width:8;stroke-linecap:butt;stroke-linejoin:round;stroke-miterlimit:4;stroke-dasharray:none;stroke-dashoffset:0;stroke-opacity:1"
           id="path5183-3"
           cx="2496"
           cy="-3757"
           r="27" /></g><g
         id="g4042"
         transform="matrix(0.99997414,-0.00719071,-0.00719071,-0.99997414,619.66918,290.26869)"><path
           d="m 2623.12,-3246.49 c -103.55,-1.91 -208.78,-131.21 -201.32,-237.77 11.48,-164.92 115.07,-166.33 74.76,-249.3"
           style="fill:none;stroke:#000000;stroke-width:8;stroke-linecap:butt;stroke-linejoin:miter;stroke-miterlimit:4;stroke-dasharray:none;stroke-opacity:1"
           id="path4044"
           inkscape:connector-curvature="0"
           sodipodi:nodetypes="ccc" /></g><g
         id="g4046"
         transform="scale(1.50106,-0.498937)"><path
           d="m 29.094,-8371.55 607.254,0 c 13.585,0 24.509,34.68 24.509,77.83 l 0,2858.19 c 0,43.05 -10.924,77.73 -24.509,77.73 l -607.254,0 c -13.5842,0 -24.51131,-34.68 -24.51131,-77.73 l 0,-2858.19 c 0,-43.15 10.92711,-77.83 24.51131,-77.83 z"
           style="fill:none;stroke:#000000;stroke-width:9.2441597;stroke-linecap:butt;stroke-linejoin:miter;stroke-miterlimit:4;stroke-dasharray:none;stroke-opacity:1"
           id="path4048"
           inkscape:connector-curvature="0" /></g><g
         id="g4050"
         transform="matrix(1.10309,0.149251,0.388696,-0.358961,0,0)"><path
           d="m 3605.99,-8521.56 c 77.85,216.6 31.49,658.41 -134.36,1129.08 -215.69,612.1 -551.81,1041.28 -750.75,958.56 -198.9,-82.7 -185.31,-645.96 30.37,-1258.07 202.08,-573.48 510.77,-986.52 712.39,-968.41"
           style="fill:none;stroke:#000000;stroke-width:11.8732996;stroke-linecap:butt;stroke-linejoin:miter;stroke-miterlimit:4;stroke-dasharray:none;stroke-opacity:1"
           id="path4052"
           inkscape:connector-curvature="0" /></g><g
         id="g4054"
         transform="scale(0.999313,-1.00069)"><path
           d="m 658.069,-3169.58 c 0,86.82 -70.364,157.2 -157.174,157.2 -86.817,0 -157.182,-70.38 -157.182,-157.2 0,-86.81 70.365,-157.19 157.182,-157.19 86.81,0 157.174,70.38 157.174,157.19 z"
           style="fill:none;stroke:#000000;stroke-width:8;stroke-linecap:butt;stroke-linejoin:miter;stroke-miterlimit:4;stroke-dasharray:none;stroke-opacity:1"
           id="path4056"
           inkscape:connector-curvature="0" /></g><g
         id="g4058"
         transform="scale(0.999313,-1.00069)"><path
           d="m 642.359,-3169.58 c 0,78.11 -63.328,141.47 -141.464,141.47 -78.144,0 -141.472,-63.36 -141.472,-141.47 0,-78.15 63.328,-141.46 141.472,-141.46 78.136,0 141.464,63.31 141.464,141.46 z"
           style="fill:none;stroke:#000000;stroke-width:8;stroke-linecap:butt;stroke-linejoin:miter;stroke-miterlimit:4;stroke-dasharray:none;stroke-opacity:1"
           id="path4060"
           inkscape:connector-curvature="0" /></g><g
         id="g4062"
         transform="scale(0.999312,-1.00069)"><path
           d="m 554.799,-3169.58 c 0,29.75 -24.126,53.87 -53.904,53.87 -29.751,0 -53.912,-24.12 -53.912,-53.87 0,-29.78 24.161,-53.9 53.912,-53.9 29.778,0 53.904,24.12 53.904,53.9 z"
           style="fill:none;stroke:#000000;stroke-width:8;stroke-linecap:butt;stroke-linejoin:miter;stroke-miterlimit:4;stroke-dasharray:none;stroke-opacity:1"
           id="path4064"
           inkscape:connector-curvature="0" /></g><g
         id="g4066"
         transform="scale(0.999312,-1.00069)"><path
           d="m 514.378,-3169.58 c 0,7.42 -6.055,13.47 -13.482,13.47 -7.435,0 -13.49,-6.05 -13.49,-13.47 0,-7.45 6.055,-13.47 13.49,-13.47 7.427,0 13.482,6.02 13.482,13.47 z"
           style="fill:none;stroke:#000000;stroke-width:8;stroke-linecap:butt;stroke-linejoin:miter;stroke-miterlimit:4;stroke-dasharray:none;stroke-opacity:1"
           id="path4068"
           inkscape:connector-curvature="0" /></g><g
         id="g4070"
         transform="scale(0.999313,-1.00069)"><path
           d="m 84.351,-3732.08 c 0,8.66 -7.0322,15.73 -15.71,15.73 -8.6818,0 -15.7178,-7.07 -15.7178,-15.73 0,-8.71 7.036,-15.73 15.7178,-15.73 8.6778,0 15.71,7.02 15.71,15.73 z"
           style="fill:none;stroke:#000000;stroke-width:8;stroke-linecap:butt;stroke-linejoin:miter;stroke-miterlimit:4;stroke-dasharray:none;stroke-opacity:1"
           id="path4072"
           inkscape:connector-curvature="0" /></g><g
         id="g4074"
         transform="scale(0.999313,-1.00069)"><path
           d="m 94.4361,-3732.08 c 0,14.25 -11.5235,25.8 -25.7911,25.8 -14.2716,0 -25.8459,-11.55 -25.8459,-25.8 0,-14.29 11.5744,-25.85 25.8459,-25.85 14.2676,0 25.7911,11.56 25.7911,25.85 z"
           style="fill:none;stroke:#000000;stroke-width:8;stroke-linecap:butt;stroke-linejoin:miter;stroke-miterlimit:4;stroke-dasharray:none;stroke-opacity:1"
           id="path4076"
           inkscape:connector-curvature="0" /></g><g
         id="g4078"
         transform="scale(0.999313,-1.00069)"><path
           d="m 500.895,-4025.12 c 0,8.66 -7.044,15.73 -15.718,15.73 -8.674,0 -15.71,-7.07 -15.71,-15.73 0,-8.71 7.036,-15.73 15.71,-15.73 8.674,0 15.718,7.02 15.718,15.73 z"
           style="fill:none;stroke:#000000;stroke-width:8;stroke-linecap:butt;stroke-linejoin:miter;stroke-miterlimit:4;stroke-dasharray:none;stroke-opacity:1"
           id="path4080"
           inkscape:connector-curvature="0" /></g><g
         id="g4082"
         transform="scale(0.999313,-1.00069)"><path
           d="m 511.019,-4025.12 c 0,14.25 -11.57,25.8 -25.842,25.8 -14.271,0 -25.842,-11.55 -25.842,-25.8 0,-14.29 11.571,-25.84 25.842,-25.84 14.272,0 25.842,11.55 25.842,25.84 z"
           style="fill:none;stroke:#000000;stroke-width:8;stroke-linecap:butt;stroke-linejoin:miter;stroke-miterlimit:4;stroke-dasharray:none;stroke-opacity:1"
           id="path4084"
           inkscape:connector-curvature="0" /></g><g
         id="g4086"
         transform="scale(0.999313,-1.00069)"><path
           d="m 962.341,-4007.17 c 0,8.67 -7.036,15.74 -15.71,15.74 -8.686,0 -15.722,-7.07 -15.722,-15.74 0,-8.67 7.036,-15.73 15.722,-15.73 8.674,0 15.71,7.06 15.71,15.73 z"
           style="fill:none;stroke:#000000;stroke-width:8;stroke-linecap:butt;stroke-linejoin:miter;stroke-miterlimit:4;stroke-dasharray:none;stroke-opacity:1"
           id="path4088"
           inkscape:connector-curvature="0" /></g><g
         id="g4090"
         transform="scale(0.999313,-1.00069)"><path
           d="m 972.461,-4007.17 c 0,14.25 -11.57,25.85 -25.83,25.85 -14.272,0 -25.842,-11.6 -25.842,-25.85 0,-14.24 11.57,-25.84 25.842,-25.84 14.26,0 25.83,11.6 25.83,25.84 z"
           style="fill:none;stroke:#000000;stroke-width:8;stroke-linecap:butt;stroke-linejoin:miter;stroke-miterlimit:4;stroke-dasharray:none;stroke-opacity:1"
           id="path4092"
           inkscape:connector-curvature="0" /></g><g
         id="g4094"
         transform="scale(0.999313,-1.00069)"><path
           d="m 970.194,-3541.24 c 0,8.71 -7.036,15.74 -15.71,15.74 -8.674,0 -15.718,-7.03 -15.718,-15.74 0,-8.67 7.044,-15.69 15.718,-15.69 8.674,0 15.71,7.02 15.71,15.69 z"
           style="fill:none;stroke:#000000;stroke-width:8;stroke-linecap:butt;stroke-linejoin:miter;stroke-miterlimit:4;stroke-dasharray:none;stroke-opacity:1"
           id="path4096"
           inkscape:connector-curvature="0" /></g><g
         id="g4098"
         transform="scale(0.999313,-1.00069)"><path
           d="m 980.326,-3541.24 c 0,14.29 -11.57,25.85 -25.842,25.85 -14.272,0 -25.803,-11.56 -25.803,-25.85 0,-14.24 11.531,-25.8 25.803,-25.8 14.272,0 25.842,11.56 25.842,25.8 z"
           style="fill:none;stroke:#000000;stroke-width:8;stroke-linecap:butt;stroke-linejoin:miter;stroke-miterlimit:4;stroke-dasharray:none;stroke-opacity:1"
           id="path4100"
           inkscape:connector-curvature="0" /></g><g
         id="g4102"
         transform="scale(0.999313,-1.00069)"><path
           d="m 944.403,-2832.74 c 0,8.66 -7.036,15.69 -15.722,15.69 -8.713,0 -15.749,-7.03 -15.749,-15.69 0,-8.71 7.036,-15.73 15.749,-15.73 8.686,0 15.722,7.02 15.722,15.73 z"
           style="fill:none;stroke:#000000;stroke-width:8;stroke-linecap:butt;stroke-linejoin:miter;stroke-miterlimit:4;stroke-dasharray:none;stroke-opacity:1"
           id="path4104"
           inkscape:connector-curvature="0" /></g><g
         id="g4106"
         transform="scale(0.999313,-1.00069)"><path
           d="m 954.484,-2832.74 c 0,14.25 -11.57,25.8 -25.803,25.8 -14.26,0 -25.83,-11.55 -25.83,-25.8 0,-14.29 11.57,-25.84 25.83,-25.84 14.233,0 25.803,11.55 25.803,25.84 z"
           style="fill:none;stroke:#000000;stroke-width:8;stroke-linecap:butt;stroke-linejoin:miter;stroke-miterlimit:4;stroke-dasharray:none;stroke-opacity:1"
           id="path4108"
           inkscape:connector-curvature="0" /></g><g
         id="g4110"
         transform="scale(0.999313,-1.00069)"><path
           d="m 85.4924,-2840.63 c 0,8.71 -7.0361,15.73 -15.7608,15.73 -8.674,0 -15.71,-7.02 -15.71,-15.73 0,-8.66 7.036,-15.68 15.71,-15.68 8.7247,0 15.7608,7.02 15.7608,15.68 z"
           style="fill:none;stroke:#000000;stroke-width:8;stroke-linecap:butt;stroke-linejoin:miter;stroke-miterlimit:4;stroke-dasharray:none;stroke-opacity:1"
           id="path4112"
           inkscape:connector-curvature="0" /></g><g
         id="g4114"
         transform="scale(0.999313,-1.00069)"><path
           d="m 95.5736,-2840.63 c 0,14.29 -11.5705,25.85 -25.842,25.85 -14.2285,0 -25.7911,-11.56 -25.7911,-25.85 0,-14.24 11.5626,-25.8 25.7911,-25.8 14.2715,0 25.842,11.56 25.842,25.8 z"
           style="fill:none;stroke:#000000;stroke-width:8;stroke-linecap:butt;stroke-linejoin:miter;stroke-miterlimit:4;stroke-dasharray:none;stroke-opacity:1"
           id="path4116"
           inkscape:connector-curvature="0" /></g><g
         id="g4118"
         transform="matrix(0.867735,0.1317,0.131535,-0.869029,0,0)"><path
           d="m 1254.82,-4208.91 -182.45,307.71 -48.12,58.16 -36.093,34.05 c 0,0 30.093,18.04 35.113,27.07 5.03,9.02 14.01,15.02 4.01,26.09 -10.04,11.02 -79.199,92.19 -79.199,92.19 l 31.069,26.06 77.21,-99.23 c 0,0 6,-6.02 12.01,-5.02 6.02,1.01 11.03,5.05 11.03,5.05 l 14.01,13 25.08,-32.07 87.23,-42.11 258.59,-225.52"
           style="fill:none;stroke:#000000;stroke-width:9.10851002;stroke-linecap:butt;stroke-linejoin:miter;stroke-miterlimit:4;stroke-dasharray:none;stroke-opacity:1"
           id="path4120"
           inkscape:connector-curvature="0" /></g><g
         id="g4122"
         transform="matrix(0.867735,0.1317,0.131535,-0.869029,0,0)"><path
           d="m 1566.58,-3846.08 c 30.81,-0.5 56.11,-16.53 55.29,-60.66 -0.82,-43.06 -9.21,-72.64 -9.21,-72.64 0,0 -3.99,-19.03 -0.01,-31.06 4.03,-12.07 21.74,-94.38 12.03,-153.39 -11.5,-70.16 -37.09,-147.84 -110.27,-191.97 0,0 -13.99,22.56 -24.04,31.6 -10.02,9 -19.03,20.05 -29.05,11.01 -10.02,-9.02 -11.06,-17.04 -4.02,-29.06 7.01,-12.02 33.09,-47.13 33.09,-47.13 0,0 -31.09,-20.03 -46.12,-23.03 -15.03,-3 -38.07,-6.04 -38.07,-6.04 0,0 -28.98,40.83 -42.13,58.16 -5.74,7.59 -18.89,14.4 -27.42,8.02 -7.61,-5.63 -7.16,-16.05 -2.62,-23.05 4.96,-7.79 17.99,-21.04 17.99,-21.04 0,0 -61.12,4.98 -70.14,9.01 -9.02,3.98 -34.02,34.27 -34.02,34.27 -8.67,6.81 -23.03,0.55 -30.63,-3.71 -7.03,-5.01 -50.63,-28.57 -50.63,-28.57 0,0 -13.51,-4.43 -24.53,-2.42 -11.02,2.03 -35.94,21.8 -34.25,47.49 1.75,26.43 29.03,44.54 56.78,60.18 28.2,15.86 45.11,27.05 45.11,27.05 0,0 8.03,12.05 9.02,20.07 0.99,8.02 6.03,24.05 28.06,23.04 22.07,-0.98 68.92,-3.85 103.58,6.84 34.28,10.55 64.36,41.99 76.57,96.57 10.72,48 0.27,64.99 12.33,73.02 12.03,8.02 42.08,9.02 46.08,20.06 4.05,11.04 9.03,20.02 11.05,36.06 1.97,16.07 7.75,54.89 12.38,85.84 3.5,23.78 26.92,46.02 57.8,45.48 z"
           style="fill:none;stroke:#000000;stroke-width:9.10851002;stroke-linecap:butt;stroke-linejoin:miter;stroke-miterlimit:4;stroke-dasharray:none;stroke-opacity:1"
           id="path4124"
           inkscape:connector-curvature="0" /></g><g
         id="g4126"
         transform="matrix(0.867735,0.1317,0.131535,-0.869029,0,0)"><path
           d="m 1228.53,-4352.01 -51.4,78.91"
           style="fill:none;stroke:#000000;stroke-width:9.10851002;stroke-linecap:butt;stroke-linejoin:miter;stroke-miterlimit:4;stroke-dasharray:none;stroke-opacity:1"
           id="path4128"
           inkscape:connector-curvature="0" /></g><g
         id="g4130"
         transform="matrix(1.00932,0.296029,0.413933,-0.280715,0,0)"><path
           d="m 4251.49,-8483.59 98.58,-10.42"
           style="fill:none;stroke:#000000;stroke-width:12.55729961;stroke-linecap:butt;stroke-linejoin:miter;stroke-miterlimit:4;stroke-dasharray:none;stroke-opacity:1"
           id="path4132"
           inkscape:connector-curvature="0" /></g><g
         id="g4134"
         transform="matrix(0.867735,0.1317,0.131535,-0.869029,0,0)"><path
           d="m 1623.71,-4168.34 76.67,-94.23 -11.52,-16.04 30.05,-34.55 -38.06,-32.6 -26.59,34.08 -205.47,-175.43 -37.58,19.57 -70.21,116.25"
           style="fill:none;stroke:#000000;stroke-width:9.10851002;stroke-linecap:butt;stroke-linejoin:miter;stroke-miterlimit:4;stroke-dasharray:none;stroke-opacity:1"
           id="path4136"
           inkscape:connector-curvature="0" /></g><g
         id="g4138"
         transform="matrix(0.867735,0.1317,0.131535,-0.869029,0,0)"><path
           d="m 1040.3,-3811.97 c -0.01,7.19 -5.85,13 -13.02,13.03 -7.19,-0.01 -13.06,-5.84 -13.06,-13.03 0.01,-7.19 5.86,-13.05 13.06,-13.04 7.19,0.02 13.02,5.85 13.02,13.04 z"
           style="fill:none;stroke:#000000;stroke-width:9.10851002;stroke-linecap:butt;stroke-linejoin:miter;stroke-miterlimit:4;stroke-dasharray:none;stroke-opacity:1"
           id="path4140"
           inkscape:connector-curvature="0" /></g><g
         id="g4142"
         transform="matrix(0.867735,0.1317,0.131535,-0.869029,0,0)"><path
           d="m 1101.94,-3758.36 c -0.01,7.19 -5.84,13.05 -13,13.05 -7.21,-0.02 -13.07,-5.85 -13.06,-13.04 0.01,-7.19 5.84,-13.05 13.05,-13.04 7.2,0.01 13.02,5.85 13.01,13.03 z"
           style="fill:none;stroke:#000000;stroke-width:9.10851002;stroke-linecap:butt;stroke-linejoin:miter;stroke-miterlimit:4;stroke-dasharray:none;stroke-opacity:1"
           id="path4144"
           inkscape:connector-curvature="0" /></g><g
         id="g4146"
         transform="matrix(0.867735,0.1317,0.131535,-0.869029,0,0)"><path
           d="m 990.173,-3668.13 c -0.014,7.19 -5.847,13 -13.005,13.03 -7.201,-0.01 -13.069,-5.84 -13.059,-13.03 0.01,-7.2 5.845,-13.06 13.048,-13.03 7.206,0.01 13.027,5.83 13.016,13.03 z"
           style="fill:none;stroke:#000000;stroke-width:9.10851002;stroke-linecap:butt;stroke-linejoin:miter;stroke-miterlimit:4;stroke-dasharray:none;stroke-opacity:1"
           id="path4148"
           inkscape:connector-curvature="0" /></g><g
         id="g4150"
         transform="matrix(0.867735,0.1317,0.131535,-0.869029,0,0)"><path
           d="m 1330.74,-4064.99 c -0.03,9.94 -8.05,18.02 -17.99,17.99 -9.95,0.03 -18.01,-8.03 -17.98,-17.96 -0.03,-9.93 8.04,-18.02 17.98,-18 9.96,-0.01 18.01,8.04 17.99,17.97 z"
           style="fill:none;stroke:#000000;stroke-width:9.10851002;stroke-linecap:butt;stroke-linejoin:miter;stroke-miterlimit:4;stroke-dasharray:none;stroke-opacity:1"
           id="path4152"
           inkscape:connector-curvature="0" /></g><g
         id="g4154"
         transform="matrix(0.867735,0.1317,0.131535,-0.869029,0,0)"><path
           d="m 1357.65,-4064.95 c 0.02,24.82 -20.09,44.92 -44.89,44.93 -24.84,-0.04 -44.93,-20.16 -44.95,-44.97 0.02,-24.81 20.13,-44.92 44.93,-44.89 24.81,-0.01 44.93,20.11 44.91,44.93 z"
           style="fill:none;stroke:#000000;stroke-width:9.10851002;stroke-linecap:butt;stroke-linejoin:miter;stroke-miterlimit:4;stroke-dasharray:none;stroke-opacity:1"
           id="path4156"
           inkscape:connector-curvature="0" /></g><g
         id="g4158"
         transform="matrix(0.867735,0.1317,0.131535,-0.869029,0,0)"><path
           d="m 1373.99,-4064.95 c -0.03,33.8 -27.42,61.2 -61.23,61.2 -33.84,0 -61.25,-27.4 -61.25,-61.24 -0.01,-33.81 27.42,-61.21 61.23,-61.21 33.81,0 61.25,27.4 61.25,61.25 z"
           style="fill:none;stroke:#000000;stroke-width:9.10851002;stroke-linecap:butt;stroke-linejoin:miter;stroke-miterlimit:4;stroke-dasharray:none;stroke-opacity:1"
           id="path4160"
           inkscape:connector-curvature="0" /></g><g
         id="g4162"
         transform="matrix(1.10309,0.149251,0.388696,-0.358961,0,0)"><path
           d="m 3670.62,-9065.68 c -179.94,178.74 -181.43,203.15 -251.6,214.67 -70.18,11.52 -93.96,-79.76 -83.34,-147.38 10.56,-67.55 16.54,-202.83 80.8,-304.4 64.27,-101.58 112.63,-62.76 112.63,-62.76"
           style="fill:none;stroke:#000000;stroke-width:11.8732996;stroke-linecap:butt;stroke-linejoin:miter;stroke-miterlimit:4;stroke-dasharray:none;stroke-opacity:1"
           id="path4164"
           inkscape:connector-curvature="0" /></g><g
         id="g4166"
         transform="scale(1.50106,-0.498937)"><path
           d="m 67.6864,-8136.05 156.2406,0 c 3.932,0 7.11,9.79 7.11,22.01 l 0,298.37 c 0,12.12 -3.178,21.91 -7.11,21.91 l -156.2406,0 c -3.9321,0 -7.0757,-9.79 -7.0757,-21.91 l 0,-298.37 c 0,-12.22 3.1436,-22.01 7.0757,-22.01 z"
           style="fill:none;stroke:#000000;stroke-width:9.2441597;stroke-linecap:butt;stroke-linejoin:miter;stroke-miterlimit:4;stroke-dasharray:none;stroke-opacity:1"
           id="path4168"
           inkscape:connector-curvature="0" /></g><g
         id="g4170"
         transform="scale(1.50106,-0.498937)"><path
           d="m 76.8466,-7942.51 52.5694,0 c 1.299,0 2.363,3.21 2.363,7.28 l 0,99.04 c 0,4.08 -1.064,7.29 -2.363,7.29 l -52.5694,0 c -1.3012,0 -2.3655,-3.21 -2.3655,-7.29 l 0,-99.04 c 0,-4.07 1.0643,-7.28 2.3655,-7.28 z"
           style="fill:none;stroke:#000000;stroke-width:9.2441597;stroke-linecap:butt;stroke-linejoin:miter;stroke-miterlimit:4;stroke-dasharray:none;stroke-opacity:1"
           id="path4172"
           inkscape:connector-curvature="0" /></g><g
         id="g4174"
         transform="scale(1.50106,-0.498937)"><path
           d="m 76.818,-8091.89 108.65,0 c 1.301,0 2.339,3.29 2.339,7.28 l 0,99.12 c 0,4 -1.038,7.28 -2.339,7.28 l -108.65,0 c -1.2986,0 -2.3369,-3.28 -2.3369,-7.28 l 0,-99.12 c 0,-3.99 1.0383,-7.28 2.3369,-7.28 z"
           style="fill:none;stroke:#000000;stroke-width:9.2441597;stroke-linecap:butt;stroke-linejoin:miter;stroke-miterlimit:4;stroke-dasharray:none;stroke-opacity:1"
           id="path4176"
           inkscape:connector-curvature="0" /></g><g
         id="g4178"
         transform="matrix(1.10309,0.149251,0.388696,-0.358961,0,0)"><path
           d="m 3522.61,-9969.06 773.24,321.51"
           style="fill:none;stroke:#000000;stroke-width:11.8732996;stroke-linecap:butt;stroke-linejoin:miter;stroke-miterlimit:4;stroke-dasharray:none;stroke-opacity:1"
           id="path4180"
           inkscape:connector-curvature="0" /></g><g
         id="g4182"
         transform="matrix(1.10309,0.149251,0.388696,-0.358961,0,0)"><path
           d="m 2365.81,-6694.3 211.54,87.96 m 355.94,147.99 208.73,86.8"
           style="fill:none;stroke:#000000;stroke-width:11.8732996;stroke-linecap:butt;stroke-linejoin:miter;stroke-miterlimit:4;stroke-dasharray:none;stroke-opacity:1"
           id="path4184"
           inkscape:connector-curvature="0" /></g><g
         id="g4186"
         transform="matrix(1.10309,0.149251,0.388696,-0.358961,0,0)"><path
           d="m 2934.54,-6459.56 c -83.94,64.13 -162.07,87.68 -226.68,60.82 -64.12,-26.66 -107.65,-99.93 -130.83,-207.29"
           style="fill:none;stroke:#000000;stroke-width:11.8732996;stroke-linecap:butt;stroke-linejoin:miter;stroke-miterlimit:4;stroke-dasharray:none;stroke-opacity:1"
           id="path4188"
           inkscape:connector-curvature="0" /></g><path
         d="m 4449.73,3796.95 0,17.97 -8.28,0 0,-17.97 c 0,-18.59 -7.66,-20.47 -11.25,-20.47 -10.47,0 -11.88,14.38 -11.88,16.1 l 0,63.9 c 0,13.44 0,25.94 -11.41,37.82 -12.5,12.5 -28.59,17.65 -43.9,17.65 -26.25,0 -48.6,-15.15 -48.6,-36.25 0,-9.53 6.72,-15 15,-15 8.91,0 14.69,6.41 14.69,14.69 0,3.91 -1.56,14.37 -16.25,14.37 8.6,11.57 24.38,15 34.53,15 15.63,0 33.6,-12.34 33.6,-40.93 l 0,-12.19 c -15.94,-0.63 -38.44,-1.56 -58.6,-11.09 -23.9,-10.94 -32.34,-27.5 -32.34,-41.57 0,-25.93 31.41,-34.06 51.56,-34.06 21.1,0 35.94,12.81 42.03,27.97 l -0.47,0 c 1.41,-12.81 10.32,-26.25 25.32,-26.25 6.72,0 26.25,4.37 26.25,30.31 z m -53.75,16.41 c 0,-30.47 -22.66,-41.25 -37.03,-41.25 -15.79,0 -28.91,11.09 -28.91,27.19 0,17.5 13.44,44.06 65.94,45.62 l 0,-31.56 z m 224.37,-44.85 0,9.85 c -17.34,0 -23.12,0.78 -30.47,10 l -42.81,55.31 c 9.53,12.19 21.72,27.81 29.38,36.25 10,11.41 23.12,16.25 38.12,16.56 l 0,10 c -8.28,-0.62 -17.97,-0.93 -26.25,-0.93 -9.53,0 -26.56,0.62 -31.09,0.93 l 0,-10 c 7.03,-0.62 9.37,-4.84 9.37,-9.84 0,-5.16 -3.28,-9.38 -4.84,-11.25 l -19.53,-25 -25,32.34 c -2.82,3.28 -2.82,3.91 -2.82,5.78 0,4.85 4.85,7.66 11.25,7.97 l 0,10 -34.68,-0.93 c -6.72,0 -21.72,0.31 -30.63,0.93 l 0,-10 c 22.66,0 22.66,-0.31 37.66,-19.53 l 31.72,-41.25 c -15,-19.22 -15,-19.84 -30,-38.12 -15.47,-18.44 -33.91,-19.22 -40.94,-19.22 l 0,-10.16 c 8.59,0.94 18.44,1.25 26.87,1.25 l 30.32,-1.25 0,9.85 c -7.03,1.4 -9.22,5.46 -9.22,10.31 0,7.03 9.22,17.65 28.44,40.31 l 24.37,-31.72 c 2.5,-3.44 6.72,-8.59 6.72,-10.47 0,-2.97 -2.66,-7.65 -11.56,-8.43 l 0,-9.85 34.84,1.25 c 8.59,0 21.09,-0.31 30.78,-1.25 l 0,0.31 z m 82.66,0 0,9.85 c -21.1,0 -22.5,1.72 -22.5,14.22 l 0,117.34 -45,-3.75 0,-9.69 c 21.09,0 23.59,-1.87 23.59,-17.5 l 0,-86.09 c 0,-14.53 -3.12,-14.53 -24.84,-14.53 l 0,-10.16 35.47,1.25 c 11.25,0 22.34,-0.62 33.28,-1.25 l 0,0.31 z m -17.66,193.29 c 0,8.59 -7.34,17.03 -16.87,17.03 -10.94,0 -17.66,-9.07 -17.66,-17.03 0,-8.6 7.66,-17.04 17.34,-17.04 10.79,0 17.19,9.07 17.19,17.04 z m 142.5,-152.35 c 0,17.03 -9.53,26.56 -13.44,30.47 -10.46,10.16 -22.96,12.81 -36.4,15.31 -17.97,3.6 -39.38,7.66 -39.38,26.25 0,11.25 8.28,24.38 35.78,24.38 35.32,0 36.57,-28.91 37.19,-38.75 0.31,-2.97 4.06,-2.97 4.06,-2.97 4.22,0 4.22,1.72 4.22,7.81 l 0,32.19 c 0,5.47 0,7.81 -3.43,7.81 -1.72,0 -2.66,0 -6.72,-3.9 -1.1,-1.25 -4.22,-4.22 -5.47,-5.16 -11.88,9.06 -25,9.06 -29.85,9.06 -39.06,0 -51.4,-21.56 -51.4,-39.37 0,-11.25 5,-20.16 13.75,-27.19 10.15,-8.44 19.53,-10.31 42.5,-14.84 7.03,-1.25 32.97,-6.41 32.97,-29.38 0,-16.41 -10.94,-29.06 -35.78,-29.06 -26.88,0 -38.44,18.12 -44.54,45.31 -0.93,4.22 -1.25,5.47 -4.53,5.47 -4.06,0 -4.37,-2.19 -4.37,-7.97 l 0,-42.19 c 0,-5.47 0.31,-7.81 3.75,-7.81 1.56,0 1.87,0.47 7.97,6.41 0.62,0.78 0.62,1.4 6.4,7.03 13.75,-12.97 28.6,-13.44 35.32,-13.44 36.71,0 51.4,21.56 51.4,44.53 z"
         style="fill:#000000;fill-opacity:1;fill-rule:nonzero;stroke:none"
         id="path4190"
         inkscape:connector-curvature="0" /><path
         d="m 5245.31,3183.47 0,9.85 c -16.56,0 -24.69,0 -25,9.69 l 0,61.09 c 0,27.5 0,37.5 -9.84,48.91 -4.53,5.46 -15,11.87 -33.59,11.87 -26.88,0 -41.26,-19.22 -46.72,-31.25 l 0.31,0 c -4.53,27.81 -28.13,31.25 -42.66,31.25 -23.28,0 -38.59,-13.75 -47.65,-33.59 l 0.31,0 0,33.59 -45.47,-3.75 0,-9.69 c 22.81,0 25,-2.18 25,-17.81 l 0,-85.78 c 0,-14.53 -3.12,-14.53 -25,-14.53 l 0,-10.16 36.56,1.25 35.78,-1.25 0,10.16 c -21.4,0 -24.84,0 -24.84,14.53 l 0,58.75 c 0,33.28 22.66,51.25 43.12,51.25 20.16,0 23.44,-17.19 23.44,-35.47 l 0,-74.53 c 0,-14.53 -3.28,-14.53 -25,-14.53 l 0,-10.16 36.41,1.25 35.94,-1.25 0,10.16 c -21.57,0 -25,0 -25,14.53 l 0,58.75 c 0,33.28 22.65,51.25 43.12,51.25 20.16,0 23.44,-17.19 23.44,-35.47 l 0,-74.53 c 0,-14.53 -3.28,-14.53 -25,-14.53 l 0,-10.16 36.56,1.25 35.78,-1.25 0,0.31 z m 161.25,28.44 0,17.97 -8.28,0 0,-17.97 c 0,-18.59 -7.66,-20.47 -11.25,-20.47 -10.47,0 -11.87,14.38 -11.87,16.1 l 0,63.9 c 0,13.44 0,25.94 -11.41,37.82 -12.5,12.5 -28.59,17.65 -43.91,17.65 -26.25,0 -48.59,-15.15 -48.59,-36.25 0,-9.53 6.72,-15 15,-15 8.91,0 14.69,6.41 14.69,14.69 0,3.91 -1.56,14.37 -16.25,14.37 8.59,11.57 24.37,15 34.53,15 15.62,0 33.59,-12.34 33.59,-40.93 l 0,-12.19 c -15.93,-0.63 -38.43,-1.56 -58.59,-11.09 -23.91,-10.94 -32.34,-27.5 -32.34,-41.57 0,-25.93 31.4,-34.06 51.56,-34.06 21.09,0 35.94,12.81 42.03,27.97 l -0.47,0 c 1.41,-12.81 10.31,-26.25 25.31,-26.25 6.72,0 26.25,4.37 26.25,30.31 z m -53.75,16.41 c 0,-30.47 -22.65,-41.25 -37.03,-41.25 -15.78,0 -28.9,11.09 -28.9,27.19 0,17.5 13.43,44.06 65.93,45.62 l 0,-31.56 z m 214.38,84.37 c 0,5.47 -3.75,15.78 -16.25,15.78 -6.41,0 -20.78,-2.03 -34.22,-15.15 -13.13,10.62 -26.56,11.56 -33.6,11.56 -29.84,0 -52.18,-22.03 -52.18,-46.72 0,-14.06 7.03,-26.25 15,-32.97 -4.22,-4.68 -9.85,-15.31 -9.85,-26.56 0,-9.84 4.07,-22.03 14.07,-28.75 -18.91,-5.16 -29.54,-18.91 -29.54,-31.72 0,-22.97 32.04,-40.62 71.1,-40.62 37.81,0 71.09,16.4 71.09,41.25 0,11.25 -4.53,27.5 -20.93,36.56 -16.88,8.91 -35.47,8.91 -55,8.91 -7.97,0 -21.72,0 -23.91,0.31 -10.31,1.25 -17.03,11.25 -17.03,21.4 0,1.41 0,8.75 5.47,14.85 12.18,-8.75 25.62,-9.69 31.71,-9.69 29.69,0 51.72,22.03 51.72,46.72 0,11.87 -5,23.75 -13.12,31.09 11.56,10.78 23.12,12.5 28.9,12.5 0,0 2.19,0 3.13,-0.31 -3.44,-1.41 -5.47,-4.84 -5.47,-8.75 0,-5.31 4.53,-9.22 9.69,-9.22 3.12,0 9.22,2.19 9.22,9.53 z m -56.57,-34.53 c 0,-8.59 -0.31,-18.9 -5.15,-26.87 -2.5,-3.75 -9.53,-12.82 -22.35,-12.82 -27.96,0 -27.96,32.04 -27.96,39.38 0,8.59 0.46,18.91 5.15,26.87 2.66,3.91 10,12.82 22.81,12.82 27.82,0 27.5,-32.03 27.5,-39.38 z m 35.16,-120 c 0,-17.19 -22.34,-33.28 -53.75,-33.28 -32.34,0 -54.37,16.41 -54.37,33.28 0,14.69 12.18,26.56 26.25,27.5 l 18.9,0 c 27.5,0 62.97,0 62.97,-27.5 z m 197.5,25.31 0,9.85 c -16.72,0 -24.69,0 -25,9.69 l 0,61.09 c 0,27.5 0,37.5 -10,48.91 -4.37,5.46 -15,11.87 -33.59,11.87 -23.28,0 -38.6,-13.75 -47.66,-33.59 l 0.31,0 0,33.59 -45.46,-3.75 0,-9.69 c 22.81,0 25,-2.18 25,-17.81 l 0,-85.78 c 0,-14.53 -3.13,-14.53 -25,-14.53 l 0,-10.16 36.56,1.25 35.78,-1.25 0,10.16 c -21.41,0 -24.84,0 -24.84,14.53 l 0,58.75 c 0,33.28 22.65,51.25 43.12,51.25 20.16,0 23.44,-17.19 23.44,-35.47 l 0,-74.53 c 0,-14.53 -3.28,-14.53 -25,-14.53 l 0,-10.16 36.4,1.25 35.94,-1.25 0,0.31 z m 139.69,38.13 c 0,3.12 -2.5,3.75 -4.22,3.75 -2.81,0 -3.75,-1.88 -4.37,-4.38 -11.26,-32.96 -39.69,-32.96 -42.97,-32.96 -15.94,0 -28.75,9.53 -36.1,21.4 -9.69,15.31 -9.69,36.41 -9.69,47.97 l 89.38,0 c 7.03,0 7.97,0 7.97,6.72 0,31.72 -17.35,62.81 -57.35,62.81 -37.03,0 -66.87,-32.97 -66.87,-72.97 0,-42.97 33.91,-74.06 70.78,-74.06 39.06,0 53.44,35.63 53.44,41.72 z m -21.09,42.5 -75.94,0 c 2.03,47.66 28.9,55.62 39.68,55.62 32.97,0 35.94,-43.12 35.94,-55.62 l 0.32,0 z m 136.4,-40.94 0,18.28 -8.28,0 0,-17.65 c 0,-23.75 -9.38,-35.78 -21.09,-35.78 -21.57,0 -21.57,29.06 -21.57,34.53 l 0,88.9 45.78,0 0,10 -45.78,0 0,58.91 -8.28,0 c -0.31,-26.25 -9.53,-60.63 -41.25,-62.19 l 0,-6.72 27.19,0 0,-88.28 c 0,-39.37 30,-43.28 41.56,-43.28 22.82,0 31.72,22.81 31.72,43.28 z"
         style="fill:#000000;fill-opacity:1;fill-rule:nonzero;stroke:none"
         id="path4192"
         inkscape:connector-curvature="0" /><path
         d="m 5350.9344,2356.7818 0,9.8394 c -16.72,0 -24.69,0 -25,9.688 l 0,61.09 c 0,27.5 0,37.5 -10,48.91 -4.38,5.473 -15,11.883 -33.59,11.883 -23.29,0 -38.6,-13.75 -47.66,-33.602 l 0.31,0 0,33.602 -45.47,-3.75 0,-9.692 c 22.82,0 25,-2.191 25,-17.808 l 0,-85.793 c 0,-14.528 -3.12,-14.528 -25,-14.528 l 0,-10.1519 36.57,1.25 35.78,-1.25 0,10.1519 c -21.41,0 -24.85,0 -24.85,14.528 l 0,58.75 c 0,33.293 22.66,51.25 43.13,51.25 20.15,0 23.44,-17.18 23.44,-35.457 l 0,-74.543 c 0,-14.528 -3.29,-14.528 -25,-14.528 l 0,-10.1519 36.4,1.25 35.94,-1.25 z m 157.66,68.4374 c 0,40.93 -32.04,75 -70.79,75 -40,0 -71.4,-35 -71.4,-75 0,-41.25 33.59,-72.0273 71.09,-72.0273 38.75,0 71.1,31.3983 71.1,72.0273 z m -26.88,2.652 c 0,-11.562 0,-28.902 -7.03,-42.972 -7.19,-14.367 -20.94,-23.59 -36.88,-23.59 -13.75,0 -27.81,6.723 -36.4,21.41 -8.13,14.063 -8.13,33.59 -8.13,45.152 0,12.5 0,29.688 7.66,43.75 8.75,14.688 23.75,21.411 36.56,21.411 14.06,0 27.5,-7.032 35.78,-20.782 8.44,-13.75 8.44,-32.351 8.44,-44.379 z m 164.38,-11.25 -8.29,0 c -2.81,-37.812 -9.21,-51.871 -46.4,-51.871 l -37.81,0 89.06,120.309 c 2.81,3.59 2.81,4.223 2.81,5.473 0,4.218 -2.5,4.218 -8.28,4.218 l -102.81,0 -3.44,-51.558 8.28,0 c 2.03,32.648 7.97,44.527 43.28,44.527 l 36.1,0 -89.22,-120.629 c -2.97,-3.59 -2.97,-4.219 -2.97,-5.781 0,-4.5274 2.65,-4.5274 8.75,-4.5274 l 105.47,0 z m 141.87,0 -8.28,0 c -2.81,-37.812 -9.22,-51.871 -46.41,-51.871 l -37.81,0 89.06,120.309 c 2.82,3.59 2.82,4.223 2.82,5.473 0,4.218 -2.5,4.218 -8.29,4.218 l -102.81,0 -3.44,-51.558 8.29,0 c 2.03,32.648 7.96,44.527 43.28,44.527 l 36.09,0 -89.22,-120.629 c -2.97,-3.59 -2.97,-4.219 -2.97,-5.781 0,-4.5274 2.66,-4.5274 8.75,-4.5274 l 105.47,0 z m 95.16,-59.8394 0,9.8394 c -21.41,0 -25,0 -25,14.528 l 0,197.66 -46.25,-3.75 0,-9.688 c 22.65,0 24.84,-2.179 24.84,-17.812 l 0,-166.41 c 0,-14.528 -3.12,-14.528 -24.84,-14.528 l 0,-10.1519 35.78,1.25 35.47,-1.25 z m 140,38.1174 c 0,3.133 -2.5,3.75 -4.22,3.75 -2.81,0 -3.75,-1.867 -4.38,-4.367 -11.25,-32.973 -39.68,-32.973 -42.97,-32.973 -15.93,0 -28.75,9.531 -36.09,21.41 -9.69,15.313 -9.69,36.402 -9.69,47.973 l 89.38,0 c 7.03,0 7.97,0 7.97,6.707 0,31.722 -17.35,62.82 -57.35,62.82 -37.03,0 -66.87,-32.969 -66.87,-72.969 0,-42.968 33.9,-74.0583 70.78,-74.0583 39.06,0 53.44,35.6173 53.44,41.7073 z m -21.1,42.5 -75.93,0 c 2.03,47.66 28.9,55.633 39.68,55.633 32.97,0 35.94,-43.133 35.94,-55.633 z"
         style="fill:#000000;fill-opacity:1;fill-rule:nonzero;stroke:none"
         id="path4194"
         inkscape:connector-curvature="0"
         sodipodi:nodetypes="cccscscccccsscccccssssscccccsssssscscscscsccsccsscccsccssccccsccsscccsccssccccscccsscccccsscsccssssssccscc" /><g
         id="g4232"
         transform="matrix(0.87043089,0.49229064,-0.49229064,0.87043089,1891.1675,-2261.5247)"><g
           id="g5845"
           transform="matrix(0.91437754,0.40486259,-0.40486259,0.91437754,-314.26259,-2709.5522)"><path
             d="m 7182.4306,2183.5961 c -361.1975,101.7506 -364.2467,223.0649 -548.7367,470.1349"
             style="fill:none;stroke:#000000;stroke-width:16;stroke-linecap:butt;stroke-linejoin:miter;stroke-miterlimit:4;stroke-dasharray:none;stroke-opacity:1"
             id="path4196"
             inkscape:connector-curvature="0"
             sodipodi:nodetypes="cc" /><path
             d="m 6729.4339,2525.533 -13.01,-89.571 -82.73,217.769 185.31,-141.171 -89.57,12.973 z"
             style="fill:#000000;fill-opacity:1;fill-rule:evenodd;stroke:none"
             id="path4198"
             inkscape:connector-curvature="0" /><path
             d="m 6729.4339,2525.533 -13.01,-89.575 -82.73,217.773 185.31,-141.167 -89.57,12.969 z"
             style="fill:none;stroke:#000000;stroke-width:16;stroke-linecap:butt;stroke-linejoin:miter;stroke-miterlimit:4;stroke-dasharray:none;stroke-opacity:1"
             id="path4200"
             inkscape:connector-curvature="0" /></g></g><path
         d="m 1325.2178,1960.4611 c 0,3.12 -3.29,3.12 -4.22,3.12 -2.82,0 -3.75,-1.25 -4.38,-3.12 -9.37,-29.85 -29.8401,-33.6 -41.7201,-33.6 -16.87,0 -45,13.75 -45,65.16 0,52.19 26.25,65.62 43.13,65.62 2.97,0 22.8101,-0.31 33.9001,-12.18 -12.81,-0.63 -15,-10.16 -15,-14.38 0,-8.28 6.1,-14.69 15,-14.69 8.29,0 14.69,5.47 14.69,15 0,21.88 -24.22,34.38 -48.9001,34.38 -40,0 -69.69,-34.69 -69.69,-74.38 0,-40.93 31.87,-72.65 69.06,-72.65 42.8101,0 53.1301,38.44 53.1301,41.72 z m 159.84,30.31 c 0,40.94 -32.03,75 -70.78,75 -40,0 -71.41,-35 -71.41,-75 0,-41.25 33.6,-72.03 71.1,-72.03 38.75,0 71.09,31.4 71.09,72.03 z m -26.88,2.66 c 0,-11.57 0,-28.91 -7.03,-42.97 -7.18,-14.38 -20.93,-23.6 -36.87,-23.6 -13.75,0 -27.81,6.72 -36.41,21.41 -8.12,14.06 -8.12,33.59 -8.12,45.16 0,12.5 0,29.68 7.65,43.75 8.75,14.68 23.75,21.4 36.57,21.4 14.06,0 27.5,-7.03 35.78,-20.78 8.43,-13.75 8.43,-32.34 8.43,-44.37 z m 115.16,-71.1 0,9.85 c -21.09,0 -22.5,1.71 -22.5,14.21 l 0,117.35 -45,-3.75 0,-9.69 c 21.09,0 23.59,-1.87 23.59,-17.5 l 0,-86.09 c 0,-14.53 -3.12,-14.53 -24.84,-14.53 l 0,-10.16 35.47,1.25 c 11.25,0 22.34,-0.63 33.28,-1.25 l 0,0.31 z m -17.66,193.28 c 0,8.6 -7.34,17.03 -16.87,17.03 -10.94,0 -17.66,-9.06 -17.66,-17.03 0,-8.59 7.66,-17.03 17.35,-17.03 10.78,0 17.18,9.06 17.18,17.03 z m 108.91,-193.28 0,9.85 c -21.41,0 -25,0 -25,14.53 l 0,197.65 -46.25,-3.75 0,-9.68 c 22.66,0 24.84,-2.19 24.84,-17.82 l 0,-166.4 c 0,-14.53 -3.12,-14.53 -24.84,-14.53 l 0,-10.16 35.78,1.25 35.47,-1.25 0,0.31 z"
         style="fill:#000000;fill-opacity:1;fill-rule:nonzero;stroke:none"
         id="path4202"
         inkscape:connector-curvature="0" /><g
         id="g4226"
         transform="matrix(-0.97773233,-0.20985586,-0.20985586,0.97773233,7098.1835,757.2788)"><g
           id="g4218"><path
             d="M 4998.24,2334.49 C 4391.17,2160.35 4055.62,2230.9 3601.6,2563.44"
             style="fill:none;stroke:#000000;stroke-width:16;stroke-linecap:butt;stroke-linejoin:miter;stroke-miterlimit:4;stroke-dasharray:none;stroke-opacity:1"
             id="path4204"
             inkscape:connector-curvature="0" /></g><path
           inkscape:connector-curvature="0"
           id="path4206"
           style="fill:#000000;fill-opacity:1;fill-rule:evenodd;stroke:none"
           d="m 3730.66,2468.9 13.83,-89.45 -142.89,183.99 218.52,-80.71 -89.46,-13.83 z" /><path
           inkscape:connector-curvature="0"
           id="path4208"
           style="fill:none;stroke:#000000;stroke-width:16;stroke-linecap:butt;stroke-linejoin:miter;stroke-miterlimit:4;stroke-dasharray:none;stroke-opacity:1"
           d="m 3730.66,2468.91 13.82,-89.46 -142.88,183.99 218.52,-80.71 -89.46,-13.82 z" /></g><path
         d="m 4385.814,1106.2826 87.6067,-97.5546 -157.9395,-28.9119 55.2108,-68.672 -319.8316,85.82957 149.7124,143.35913 43.9974,-57.1797 141.2438,23.1295 z"
         style="fill:#000000;fill-opacity:1;fill-rule:nonzero;stroke:none"
         id="path4210"
         inkscape:connector-curvature="0" /><path
         d="m 4884.18,1075.23 -119.69,133.28 215.78,39.46 -75.43,93.86 436.96,-117.26 -204.53,-195.86 -60.12,78.09 -192.97,-31.57 z"
         style="fill:#ffffff;fill-opacity:1;fill-rule:nonzero;stroke:none"
         id="path4214"
         inkscape:connector-curvature="0" /><path
         d="m 4807.9425,1080.8328 -87.6068,97.5539 157.9396,28.8827 -55.2108,68.7005 319.8316,-85.8281 -149.7052,-143.3591 -44.0046,57.1577 -141.2438,-23.1076 z"
         style="fill:#000000;fill-opacity:1;stroke:none;stroke-width:5.85557604;stroke-linecap:butt;stroke-linejoin:miter;stroke-miterlimit:4;stroke-dasharray:none;stroke-opacity:1"
         id="path4216"
         inkscape:connector-curvature="0" /><path
         id="path4239"
         style="fill:#ffffff;fill-rule:evenodd;stroke:#000000;stroke-width:8px;stroke-linecap:butt;stroke-linejoin:miter;stroke-opacity:1;fill-opacity:1"
         d="m 4644.2663,1027.3852 0,1166.3061 c 4.2602,0.1462 18.5986,1.8384 31.462,-4.525 13.6199,-6.7377 35.8277,-0.041 35.8277,-0.041 l -0.2245,-1157.6984 c -12.2753,-8.8322 -48.8019,-11.826 -67.0652,-4.0417 z"
         inkscape:connector-curvature="0"
         sodipodi:nodetypes="ccsccc" /><path
         style="fill:none;fill-rule:evenodd;stroke:#000000;stroke-width:12;stroke-linecap:butt;stroke-linejoin:miter;stroke-opacity:1"
         d="m 4608.005,2176.7669 c 26.2516,19.477 48.2692,21.5941 69.0164,10.5853 20.7472,-11.0088 64.3588,13.9727 64.3588,13.9727"
         id="path4242"
         inkscape:connector-curvature="0" /><path
         transform="scale(1,-1)"
         style="opacity:1;fill:#ffffff;fill-opacity:1;stroke:#000000;stroke-width:7.16761112;stroke-linecap:butt;stroke-linejoin:round;stroke-miterlimit:4;stroke-dasharray:none;stroke-dashoffset:0;stroke-opacity:1"
         d="m 4643.8433,-920.44894 67.5653,-12.9141 0,334.2264 c -22.5218,18.23086 -45.0435,19.2876 -67.5653,0 z"
         id="rect4244"
         inkscape:connector-curvature="0"
         sodipodi:nodetypes="ccccc" /><circle
         style="opacity:1;fill:#ffffff;fill-opacity:1;stroke:#000000;stroke-width:8;stroke-linecap:butt;stroke-linejoin:round;stroke-miterlimit:4;stroke-dasharray:none;stroke-dashoffset:0;stroke-opacity:1"
         id="path5064-7-2"
         cx="4676.7793"
         cy="-201.57018"
         r="37.260357"
         transform="scale(1,-1)" /><circle
         style="opacity:1;fill:#ffffff;fill-opacity:1;stroke:#000000;stroke-width:8;stroke-linecap:butt;stroke-linejoin:round;stroke-miterlimit:4;stroke-dasharray:none;stroke-dashoffset:0;stroke-opacity:1"
         id="path5064-7-2-6"
         cx="4677.626"
         cy="-75.306931"
         r="37.260357"
         transform="scale(1,-1)" /><g
         id="g5177"
         transform="translate(702.71068,266.7868)"><path
           sodipodi:nodetypes="czczc"
           inkscape:connector-curvature="0"
           id="path5129-9"
           d="m 2209.0151,3791.4673 c 0,0 10.9067,40.3506 36.7353,48.2985 25.828,7.9475 41.4179,-22.1054 41.4179,-22.1054 0,0 15.5896,-30.0533 41.4176,-22.1056 25.8286,7.9479 36.7353,48.2987 36.7353,48.2987"
           style="fill:none;fill-rule:evenodd;stroke:#000000;stroke-width:16;stroke-linecap:butt;stroke-linejoin:miter;stroke-opacity:1" /><path
           inkscape:connector-curvature="0"
           id="path5163"
           d="m 2208.5448,3751.5293 158.5149,0"
           style="fill:none;fill-rule:evenodd;stroke:#000000;stroke-width:16;stroke-linecap:butt;stroke-linejoin:miter;stroke-opacity:1" /></g><flowRoot
         xml:space="preserve"
         id="flowRoot5165"
         style="font-style:normal;font-weight:normal;font-size:320px;line-height:82.99999833%;font-family:Sans;letter-spacing:0px;word-spacing:0px;fill:#000000;fill-opacity:1;stroke:none;stroke-width:1px;stroke-linecap:butt;stroke-linejoin:miter;stroke-opacity:1"
         transform="matrix(1,0,0,-1,87.313734,7252.6981)"><flowRegion
           id="flowRegion5167"><rect
             id="rect5169"
             width="5436.2373"
             height="1063.4885"
             x="1091.7729"
             y="-4242.6406"
             transform="scale(1,-1)"
             style="line-height:82.99999833%" /></flowRegion><flowPara
           id="flowPara5173"
           style="font-style:normal;font-variant:normal;font-weight:normal;font-stretch:normal;line-height:82.99999833%;font-family:cmr10;-inkscape-font-specification:cmr10">to function</flowPara><flowPara
           style="font-style:normal;font-variant:normal;font-weight:normal;font-stretch:normal;line-height:82.99999833%;font-family:cmr10;-inkscape-font-specification:cmr10"
           id="flowPara5181">generator</flowPara></flowRoot><path
         style="fill:none;fill-rule:evenodd;stroke:#000000;stroke-width:16;stroke-linecap:butt;stroke-linejoin:miter;stroke-miterlimit:4;stroke-dasharray:none;stroke-opacity:1;marker-end:url(#Arrow1Lend)"
         d="m 2499.9167,3653.6152 c 180,64 254.8701,138.5858 305.7818,175.3554"
         id="path5200"
         inkscape:connector-curvature="0"
         sodipodi:nodetypes="cc" /></g></g></svg>