<?xml version="1.0" encoding="UTF-8" standalone="no"?>
<!-- Created with Inkscape (http://www.inkscape.org/) -->

<svg
   xmlns:dc="http://purl.org/dc/elements/1.1/"
   xmlns:cc="http://creativecommons.org/ns#"
   xmlns:rdf="http://www.w3.org/1999/02/22-rdf-syntax-ns#"
   xmlns:svg="http://www.w3.org/2000/svg"
   xmlns="http://www.w3.org/2000/svg"
   xmlns:sodipodi="http://sodipodi.sourceforge.net/DTD/sodipodi-0.dtd"
   xmlns:inkscape="http://www.inkscape.org/namespaces/inkscape"
   id="svg44269"
   version="1.1"
   inkscape:version="0.48.4 r9939"
   width="774.03394"
   height="526.87854"
   sodipodi:docname="dropletgenerator_exploded.svg">
  <metadata
     id="metadata44275">
    <rdf:RDF>
      <cc:Work
         rdf:about="">
        <dc:format>image/svg+xml</dc:format>
        <dc:type
           rdf:resource="http://purl.org/dc/dcmitype/StillImage" />
        <dc:title></dc:title>
      </cc:Work>
    </rdf:RDF>
  </metadata>
  <defs
     id="defs44273" />
  <sodipodi:namedview
     pagecolor="#ffffff"
     bordercolor="#666666"
     borderopacity="1"
     objecttolerance="10"
     gridtolerance="10"
     guidetolerance="10"
     inkscape:pageopacity="0"
     inkscape:pageshadow="2"
     inkscape:window-width="1920"
     inkscape:window-height="1026"
     id="namedview44271"
     showgrid="false"
     inkscape:zoom="2.085965"
     inkscape:cx="122.32499"
     inkscape:cy="484.22388"
     inkscape:window-x="0"
     inkscape:window-y="28"
     inkscape:window-maximized="1"
     inkscape:current-layer="g45909"
     fit-margin-top="2"
     fit-margin-left="2"
     fit-margin-right="2"
     fit-margin-bottom="2" />
  <path
     style="fill:none;stroke:#000000;stroke-width:3;stroke-linecap:butt;stroke-linejoin:miter;stroke-miterlimit:4;stroke-opacity:1;stroke-dasharray:none;stroke-dashoffset:0"
     d="m 489.83412,347.4662 c 0,20.39574 0,20.39574 0,20.39574"
     id="path44982-9-2"
     inkscape:connector-curvature="0" />
  <path
     style="fill:none;stroke:#000000;stroke-width:1px;stroke-linecap:butt;stroke-linejoin:miter;stroke-opacity:1"
     d="m 27.27407,332.84915 102.5904,32.59882 0,37.87216 c 0,0 23.49032,7.67031 155.80319,48.89823 132.31286,41.22792 321.19426,28.28427 417.07316,-44.58368 l 68.7931,-54.65096 0,15.34062 -68.074,53.45248 c -85.8116,70.95038 -289.7187,85.18182 -418.51136,45.54247 l -185.24157,-58.17217 0,-30 -72.54237,-23.05085 z"
     id="path44279"
     inkscape:connector-curvature="0"
     sodipodi:nodetypes="cccsccccccccc" />
  <path
     style="fill:none;stroke:#000000;stroke-width:1px;stroke-linecap:butt;stroke-linejoin:miter;stroke-opacity:1"
     d="m 27.5036,332.87593 227.48281,-179.79969 58.48606,19.89487 m 1e-5,47.46005 -183.60801,145.25651"
     id="path44281"
     inkscape:connector-curvature="0"
     sodipodi:nodetypes="ccccc" />
  <path
     style="fill:none;stroke:#000000;stroke-width:1px;stroke-linecap:butt;stroke-linejoin:miter;stroke-opacity:1"
     d="M 129.38507,403.32013 349.90652,230.01904"
     id="path44283"
     inkscape:connector-curvature="0"
     sodipodi:nodetypes="cc" />
  <path
     style="fill:none;stroke:#000000;stroke-width:1px;stroke-linecap:butt;stroke-linejoin:miter;stroke-opacity:1"
     d="m 651.90902,315.28188 118.9058,37.70184"
     id="path44285"
     inkscape:connector-curvature="0"
     sodipodi:nodetypes="cc" />
  <path
     style="fill:none;stroke:#000000;stroke-width:1px;stroke-linecap:butt;stroke-linejoin:miter;stroke-opacity:1"
     d="m 600.25062,398.56489 c 0,0 -23.5592,-26.61017 -26.5677,-30.33898 -2.6671,-3.30567 1.0169,-6.44068 4.0678,-6.77966 3.0508,-0.33898 9.7201,-1.5357 9.7201,-1.5357 l -9.7201,-11.00667 2.7118,-25.76272 -63.7288,-138.30508 -23.7288,-27.79661"
     id="path44328"
     inkscape:connector-curvature="0"
     sodipodi:nodetypes="cssccccc" />
  <path
     style="fill:none;stroke:#000000;stroke-width:1px;stroke-linecap:butt;stroke-linejoin:miter;stroke-opacity:1"
     d="m 587.92022,360.21061 0,6.99835 c 0,0 -8.9739,1.50724 -10.6145,1.90678 -0.4843,0.11795 -1.5465,1.44067 -0.9957,2.20339"
     id="path44330"
     inkscape:connector-curvature="0"
     sodipodi:nodetypes="ccsc" />
  <path
     style="fill:none;stroke:#000000;stroke-width:1px;stroke-linecap:butt;stroke-linejoin:miter;stroke-opacity:1"
     d="m 310.29512,142.52651 c 0,10.33898 0,10.33898 0,10.33898 l 4.1525,5.42373"
     id="path44364"
     inkscape:connector-curvature="0" />
  <path
     style="fill:none;stroke:#000000;stroke-width:1px;stroke-linecap:butt;stroke-linejoin:miter;stroke-opacity:1"
     d="m 326.14252,107.78074 0,7.96611 17.3729,17.11864"
     id="path44366"
     inkscape:connector-curvature="0" />
  <path
     style="fill:none;stroke:#000000;stroke-width:1px;stroke-linecap:butt;stroke-linejoin:miter;stroke-opacity:1"
     d="m 385.29512,90.407852 0,8.1356 9.322,8.898308"
     id="path44368"
     inkscape:connector-curvature="0"
     sodipodi:nodetypes="ccc" />
  <path
     style="fill:none;stroke:#000000;stroke-width:1px;stroke-linecap:butt;stroke-linejoin:miter;stroke-opacity:1"
     d="m 312.58834,179.14712 24.74578,27.62712"
     id="path44397"
     inkscape:connector-curvature="0" />
  <path
     style="fill:none;stroke:#000000;stroke-width:1px;stroke-linecap:butt;stroke-linejoin:miter;stroke-opacity:1"
     d="m 313.4358,158.46915 26.77962,28.98305"
     id="path44399"
     inkscape:connector-curvature="0" />
  <path
     style="fill:none;stroke:#000000;stroke-width:1;stroke-opacity:1"
     d="m 506.38932,265.02728 c 0,4.24727 -7.3166,7.69036 -16.342,7.69036 -9.0254,0 -16.3419,-3.44309 -16.3419,-7.69036 0,-4.24727 7.3165,-7.69036 16.3419,-7.69036 9.0254,0 16.342,3.44309 16.342,7.69036 z"
     id="path44401-6-2"
     inkscape:connector-curvature="0"
     sodipodi:nodetypes="sssss" />
  <path
     style="fill:none;stroke:#000000;stroke-width:1;stroke-opacity:1"
     d="m 475.10782,268.0715 c 2.4799,-2.76119 8.2888,-4.69881 15.0594,-4.69881 6.6452,0 12.3641,1.86655 14.9183,4.54633"
     id="path44401-6-8-9"
     inkscape:connector-curvature="0"
     sodipodi:nodetypes="csc" />
  <path
     style="fill:none;stroke:#000000;stroke-width:1;stroke-opacity:1"
     d="m 526.75642,43.088222 c 0,9.30221 -16.0244,16.84315 -35.7916,16.84315 -19.7671,0 -35.7916,-7.54094 -35.7916,-16.84315 0,-9.3022 16.0245,-16.84314 35.7916,-16.84314 19.7672,0 35.7916,7.54094 35.7916,16.84314 z"
     id="path44401-6-1"
     inkscape:connector-curvature="0"
     sodipodi:nodetypes="sssss" />
  <path
     style="fill:none;stroke:#000000;stroke-width:1;stroke-opacity:1"
     d="m 517.65962,43.088222 c 0,6.93794 -11.9517,12.56226 -26.6948,12.56226 -14.7431,0 -26.6947,-5.62432 -26.6947,-12.56226 0,-6.93794 11.9516,-12.56226 26.6947,-12.56226 14.7431,0 26.6948,5.62432 26.6948,12.56226 z"
     id="path44401-6"
     inkscape:connector-curvature="0"
     sodipodi:nodetypes="sssss" />
  <path
     style="fill:none;stroke:#000000;stroke-width:1;stroke-opacity:1"
     d="m 502.49032,43.088222 c 0,2.99544 -5.1601,5.42373 -11.5254,5.42373 -6.3653,0 -11.5254,-2.42829 -11.5254,-5.42373 0,-2.99544 5.1601,-5.42373 11.5254,-5.42373 6.3653,0 11.5254,2.42829 11.5254,5.42373 z"
     id="path44401"
     inkscape:connector-curvature="0"
     sodipodi:nodetypes="sssss" />
  <path
     style="fill:none;stroke:#000000;stroke-width:1;stroke-opacity:1"
     d="m 455.17322,44.505352 0,12.1422 c 0,9.30221 16.0245,16.84315 35.7916,16.84315 19.7672,0 35.7916,-7.54094 35.7916,-16.84315 l 0,-12.8613"
     id="path44401-6-1-6"
     inkscape:connector-curvature="0"
     sodipodi:nodetypes="csc" />
  <path
     style="fill:none;stroke:#000000;stroke-width:1;stroke-opacity:1"
     d="m 465.29532,46.747132 c 3.1926,-5.2555 13.4764,-9.10253 25.6695,-9.10253 12.1436,0 22.3933,3.81581 25.6303,9.0385"
     id="path44401-6-8"
     inkscape:connector-curvature="0"
     sodipodi:nodetypes="csc" />
  <path
     style="fill:none;stroke:#000000;stroke-width:1;stroke-opacity:1"
     d="m 479.47572,43.306882 0,7.13099 c 0,2.08115 2.851,4.1004 6.5063,5.00983 m 10.6262,-0.0787 c 3.4022,-0.94287 5.9183,-2.93864 5.9183,-4.9311 l 0,-7.37069"
     id="path44401-65"
     inkscape:connector-curvature="0"
     sodipodi:nodetypes="csccsc" />
  <path
     style="fill:none;stroke:#000000;stroke-width:1;stroke-opacity:1"
     d="m 479.11502,72.777662 0,37.799938 c 0,2.99544 5.1601,5.42373 11.5254,5.42373 6.3653,0 11.5254,-2.42829 11.5254,-5.42373 l 0,-37.919778"
     id="path44401-8"
     inkscape:connector-curvature="0"
     sodipodi:nodetypes="csc" />
  <path
     id="path44607"
     style="fill:none;stroke:#000000;stroke-width:1px;stroke-linecap:butt;stroke-linejoin:miter;stroke-opacity:1"
     d="m 272.14594,200.4255 c -0.1379,-9.29958 11.74458,-12.22142 19.03538,-14.60949 8.1815,-2.67982 21.5727,-6.71152 21.5727,-6.71152 l 0.9588,-20.61396 4.3146,-2.39697 c 0,0 -4.1491,-6.19451 -6.2322,-8.86879 -2.3811,-3.0568 -1.498,-8.20964 1.3783,-12.0448 2.8764,-3.83515 10.1272,-10.24705 10.1272,-10.24705 0,0 3.9932,4.55222 6.4718,6.83137 3.4959,3.21455 9.9171,3.72985 13.9388,1.11976 2.2925,-1.48783 3.4029,-4.68863 0.1658,-7.67882 -2.5531,-2.35831 -17.7,-17.29081 -17.7,-17.29081 0,0 6.7115,-5.75273 15.3406,-9.228348 8.6291,-3.47561 21.2132,-6.83138 21.2132,-6.83138 l 14.1421,13.423058 c 3.3499,3.34987 9.557,5.76858 16.676,2.97316 2.8669,-1.12574 4.4753,-5.49565 1.4888,-8.06497 -2.4714,-2.126238 -9.7754,-9.889278 -9.7754,-9.889278 26.5801,-7.98651 60.4816,-9.51019 93.7699,-6.5248 m 23.3146,2.83422 c 22.3127,3.42714 43.4598,8.75577 60.8876,15.357088 11.2552,4.26326 17.292,9.85467 21.3598,10.53264 4.0678,0.67796 12.8814,2.71186 12.8814,2.71186 l 2.0339,20 c 0,0 19.4661,3.2814 28.4745,4.74576 15.7444,2.55934 29.7912,6.47651 27.8343,20.80663"
     inkscape:connector-curvature="0"
     sodipodi:nodetypes="cscccsccssscsccsccccssccsc" />
  <path
     style="fill:none;stroke:#000000;stroke-width:1px;stroke-linecap:butt;stroke-linejoin:miter;stroke-opacity:1"
     d="m 576.06082,151.03881 21.2132,-35.59503"
     id="path44630"
     inkscape:connector-curvature="0"
     sodipodi:nodetypes="cc" />
  <path
     style="fill:none;stroke:#000000;stroke-width:1px;stroke-linecap:butt;stroke-linejoin:miter;stroke-opacity:1"
     d="m 599.67102,135.09895 -21.3331,34.2767"
     id="path44632"
     inkscape:connector-curvature="0" />
  <path
     style="fill:none;stroke:#000000;stroke-width:1;stroke-opacity:1"
     d="m 533.13052,363.72339 c 0,1.68269 -2.8987,3.04677 -6.4744,3.04677 -3.5757,0 -6.4743,-1.36408 -6.4743,-3.04677 0,-1.68269 2.8986,-3.04677 6.4743,-3.04677 3.5757,0 6.4744,1.36408 6.4744,3.04677 z"
     id="path44401-6-2-9"
     inkscape:connector-curvature="0"
     sodipodi:nodetypes="sssss" />
  <path
     style="fill:none;stroke:#000000;stroke-width:1;stroke-opacity:1"
     d="m 578.21522,355.24881 c 0,1.68269 -2.8987,3.04677 -6.4744,3.04677 -3.5757,0 -6.4743,-1.36408 -6.4743,-3.04677 0,-1.68269 2.8986,-3.04677 6.4743,-3.04677 3.5757,0 6.4744,1.36408 6.4744,3.04677 z"
     id="path44401-6-2-9-4"
     inkscape:connector-curvature="0"
     sodipodi:nodetypes="sssss" />
  <path
     style="fill:none;stroke:#000000;stroke-width:1;stroke-opacity:1"
     d="m 592.28302,393.72339 c 0,1.68269 -2.8987,3.04677 -6.4744,3.04677 -3.5757,0 -6.4743,-1.36408 -6.4743,-3.04677 0,-1.68269 2.8986,-3.04677 6.4743,-3.04677 3.5757,0 6.4744,1.36408 6.4744,3.04677 z"
     id="path44401-6-2-9-4-7"
     inkscape:connector-curvature="0"
     sodipodi:nodetypes="sssss" />
  <g
     id="g44754"
     transform="translate(-668.25912,-339.46305)">
    <path
       sodipodi:nodetypes="cscsccsccsccscscccsccscc"
       inkscape:connector-curvature="0"
       d="m 1114.3344,648.57913 c -3.8453,0.21243 -7.7742,0.57323 -11.7655,1.1054 -28.7636,3.83515 -44.2712,32.20169 -45.9661,33.89659 -2.6166,2.61649 -7.5373,3.27643 -12.5199,3.01678 -4.7874,-0.24948 -19.1758,-0.4794 -19.1758,-0.4794 l -40.02942,11.2188 c -7.3736,1.97575 -29.4949,5.26353 -39.6699,-3.47561 -4.4595,-3.83013 -4.2227,-9.47326 -4.2227,-9.47326 l 0.032,-6.95645 c 0,0 -0.2648,5.63791 4.1947,9.46804 10.175,8.73914 32.2963,5.45136 39.6699,3.47561 l 40.02942,-11.2188 c 0,0 14.3884,0.22992 19.1758,0.4794 4.9826,0.25965 9.9033,-0.40029 12.5199,-3.01678 1.6949,-1.6949 17.2025,-30.06144 45.9661,-33.89659 1.4151,-0.18869 2.8225,-0.35583 4.221,-0.50245 m 134.9731,4.88368 c 13.8671,2.50861 27.7365,5.00474 41.6053,7.50434 11.5834,2.08771 27.5266,1.07012 34.7175,-5.6414 7.1909,-6.71153 6.3301,-10.47523 6.3301,-10.47523 -0.1014,2.59859 -0.089,9.18738 -0.089,9.18738 -1.6577,4.64317 -3.9506,7.29588 -7.3837,9.38808 -7.3265,4.46493 -21.9955,6.59054 -33.5789,4.50284 -12.2848,-2.31571 -25.9449,-4.87759 -38.2462,-7.09033"
       style="fill:none;stroke:#000000;stroke-width:1px;stroke-linecap:butt;stroke-linejoin:miter;stroke-opacity:1"
       id="path44287-9-1" />
    <path
       sodipodi:nodetypes="csccsccssscsccsccsccsc"
       inkscape:connector-curvature="0"
       d="m 941.01978,678.49593 c 0,-6.5432 11.9244,-9.40498 19.2152,-11.79305 8.1815,-2.67982 21.5727,-6.71152 21.5727,-6.71152 l 5.4925,-3.66833 c 0,0 -4.1491,-6.19451 -6.2322,-8.86879 -2.3811,-3.0568 -1.498,-8.20964 1.3783,-12.0448 2.8764,-3.83515 10.1272,-10.24705 10.1272,-10.24705 0,0 3.9932,4.55222 6.4718,6.83137 3.49592,3.21455 9.91712,3.72985 13.93882,1.11976 2.2925,-1.48783 3.4029,-4.68863 0.1658,-7.67882 -2.5531,-2.35831 -17.70002,-17.29081 -17.70002,-17.29081 0,0 6.71152,-5.75273 15.34062,-9.22834 8.6291,-3.47561 21.2132,-6.83138 21.2132,-6.83138 l 14.1421,13.42305 c 3.3499,3.34987 9.557,5.76853 16.6759,2.97316 0.6275,-0.2464 1.1947,-0.64822 1.6666,-1.15255 m 154.1935,-9.86778 c 4.8169,1.49023 9.439,3.0711 13.8254,4.7326 11.2552,4.26325 14.7752,8.17678 20.2812,11.49142 l 14.1089,3.4565 c 0,0 19.8257,4.12034 28.8341,5.5847 15.7444,2.55934 29.9709,7.55515 28.6133,18.16996"
       style="fill:none;stroke:#000000;stroke-width:1px;stroke-linecap:butt;stroke-linejoin:miter;stroke-opacity:1"
       id="path44607-5" />
  </g>
  <path
     style="fill:none;stroke:#000000;stroke-width:1;stroke-opacity:1"
     d="m 637.16372,300.84203 c 0,2.55473 -4.4009,4.62575 -9.8297,4.62575 -5.4288,0 -9.8296,-2.07102 -9.8296,-4.62575 0,-2.55473 4.4008,-4.62575 9.8296,-4.62575 5.4288,0 9.8297,2.07102 9.8297,4.62575 z"
     id="path44401-6-2-7"
     inkscape:connector-curvature="0"
     sodipodi:nodetypes="sssss" />
  <path
     style="fill:none;stroke:#000000;stroke-width:1;stroke-opacity:1"
     d="m 619.22872,303.39267 c 1.7629,-1.24091 4.7674,-2.05806 8.1774,-2.05806 3.3648,0 6.3347,0.79559 8.1066,2.00885"
     id="path44401-6-8-9-1"
     inkscape:connector-curvature="0"
     sodipodi:nodetypes="csc" />
  <path
     style="fill:none;stroke:#000000;stroke-width:1;stroke-opacity:1"
     d="m 306.65528,340.50305 c 0,2.55473 -4.4009,4.62575 -9.8297,4.62575 -5.4288,0 -9.8296,-2.07102 -9.8296,-4.62575 0,-2.55473 4.4008,-4.62575 9.8296,-4.62575 5.4288,0 9.8297,2.07102 9.8297,4.62575 z"
     id="path44401-6-2-7-8"
     inkscape:connector-curvature="0"
     sodipodi:nodetypes="sssss" />
  <path
     style="fill:none;stroke:#000000;stroke-width:1;stroke-opacity:1"
     d="m 288.72028,343.05369 c 1.7629,-1.24091 4.7674,-2.05806 8.1774,-2.05806 3.3648,0 6.3347,0.79559 8.1066,2.00885"
     id="path44401-6-8-9-1-2"
     inkscape:connector-curvature="0"
     sodipodi:nodetypes="csc" />
  <path
     style="fill:none;stroke:#000000;stroke-width:1;stroke-opacity:1"
     d="m 637.33322,158.63865 c 0,2.55473 -4.4009,4.62575 -9.8297,4.62575 -5.4288,0 -9.8296,-2.07102 -9.8296,-4.62575 0,-2.55473 4.4008,-4.62575 9.8296,-4.62575 5.4288,0 9.8297,2.07102 9.8297,4.62575 z"
     id="path44401-6-2-7-2"
     inkscape:connector-curvature="0"
     sodipodi:nodetypes="sssss" />
  <path
     style="fill:none;stroke:#000000;stroke-width:1;stroke-opacity:1"
     d="m 619.39822,161.18929 c 1.7629,-1.24091 4.7674,-2.05806 8.1774,-2.05806 3.3648,0 6.3347,0.79559 8.1066,2.00885"
     id="path44401-6-8-9-1-6"
     inkscape:connector-curvature="0"
     sodipodi:nodetypes="csc" />
  <path
     style="fill:none;stroke:#000000;stroke-width:1;stroke-opacity:1"
     d="m 306.82483,200.33357 c 0,2.55473 -4.4009,4.62575 -9.8297,4.62575 -5.4288,0 -9.8296,-2.07102 -9.8296,-4.62575 0,-2.55473 4.4008,-4.62575 9.8296,-4.62575 5.4288,0 9.8297,2.07102 9.8297,4.62575 z"
     id="path44401-6-2-7-8-0"
     inkscape:connector-curvature="0"
     sodipodi:nodetypes="sssss" />
  <path
     style="fill:none;stroke:#000000;stroke-width:1;stroke-opacity:1"
     d="m 288.88983,202.88421 c 1.7629,-1.24091 4.7674,-2.05806 8.1774,-2.05806 3.3648,0 6.3347,0.79559 8.1066,2.00885"
     id="path44401-6-8-9-1-2-2"
     inkscape:connector-curvature="0"
     sodipodi:nodetypes="csc" />
  <path
     style="fill:none;stroke:#000000;stroke-width:1;stroke-opacity:1"
     d="m 637.33322,343.7184 c 0,2.55473 -4.4009,4.62575 -9.8297,4.62575 -5.4288,0 -9.8296,-2.07102 -9.8296,-4.62575 0,-2.55473 4.4008,-4.62575 9.8296,-4.62575 5.4288,0 9.8297,2.07102 9.8297,4.62575 z"
     id="path44401-6-2-7-5"
     inkscape:connector-curvature="0"
     sodipodi:nodetypes="sssss" />
  <path
     style="fill:none;stroke:#000000;stroke-width:1;stroke-opacity:1"
     d="m 306.82482,383.37942 c 0,2.55473 -4.4009,4.62575 -9.8297,4.62575 -5.4288,0 -9.8296,-2.07102 -9.8296,-4.62575 0,-2.55473 4.4008,-4.62575 9.8296,-4.62575 5.4288,0 9.8297,2.07102 9.8297,4.62575 z"
     id="path44401-6-2-7-8-5"
     inkscape:connector-curvature="0"
     sodipodi:nodetypes="sssss" />
  <path
     style="fill:none;stroke:#000000;stroke-width:1;stroke-opacity:1"
     d="m 506.21842,361.9932 c 0,4.24727 -7.3166,7.69036 -16.342,7.69036 -9.0254,0 -16.3419,-3.44309 -16.3419,-7.69036 0,-4.24727 7.3165,-7.69036 16.3419,-7.69036 4.6263,0 8.8037,0.90467 11.7768,2.3586"
     id="path44401-6-2-6"
     inkscape:connector-curvature="0"
     sodipodi:nodetypes="csssc" />
  <path
     style="fill:none;stroke:#000000;stroke-width:1;stroke-opacity:1"
     d="m 511.71502,368.71104 c -4.8314,3.22748 -12.8118,5.33594 -21.8386,5.33594 -14.7431,0 -26.6947,-5.62432 -26.6947,-12.56226 0,-6.93794 11.9516,-12.56226 26.6947,-12.56226 1.658,0 3.5504,0.0112 5.1248,0.14734"
     id="path44401-6-0"
     inkscape:connector-curvature="0"
     sodipodi:nodetypes="csssc" />
  <path
     style="fill:none;stroke:#000000;stroke-width:1;stroke-opacity:1"
     d="m 463.18172,361.43394 0,8.05077 c 0,6.93794 11.9516,12.56226 26.6947,12.56226 12.4157,0 22.6997,-4.65817 25.0561,-8.50307"
     id="path44401-6-0-8"
     inkscape:connector-curvature="0"
     sodipodi:nodetypes="cscc" />
  <path
     style="fill:none;stroke:#000000;stroke-width:1;stroke-opacity:1"
     d="m 475.36782,365.33514 c 2.7764,-2.38289 8.4958,-4.25265 14.6781,-4.25265 6.022,0 11.6646,1.70231 14.4993,3.98408"
     id="path44401-6-2-6-6"
     inkscape:connector-curvature="0"
     sodipodi:nodetypes="csc" />
  <path
     id="path44308-7"
     style="fill:none;stroke:#000000;stroke-width:1px;stroke-linecap:butt;stroke-linejoin:miter;stroke-opacity:1"
     d="m 332.32692,215.51405 162.8814,133.72881 17.2881,20 c 2.1469,4.06779 4.2938,8.13559 6.4407,12.20339 0,0 13.8983,-3.05085 20.339,-4.06779 6.4407,-1.01695 12.5424,-0.33899 14.9152,2.71186 2.3729,3.05085 26.4407,29.83051 26.4407,29.83051 l 19.7034,-3.89831 m -0.2119,0.50847 0,-7.79661 -19.322,3.72882 c 0,0 -24.0678,-26.77966 -26.4407,-29.83051 -2.3728,-3.05085 -8.4745,-3.72881 -14.9152,-2.71186 -6.4407,1.01694 -20.339,4.06779 -20.339,4.06779 l -6.4407,-12.20339 -17.2881,-20 -156.6102,-128.13559 -6.8384,-2.08728 0.3977,3.95169"
     inkscape:connector-curvature="0"
     sodipodi:nodetypes="ccccscccccccscccccc" />
  <path
     id="path44287-9"
     style="fill:#ffffff;stroke:#000000;stroke-width:1px;stroke-linecap:butt;stroke-linejoin:miter;stroke-opacity:1"
     d="m 655.81172,167.61056 c 0,0 0.4661,3.39564 -6.7248,10.10717 -7.1909,6.71152 -23.1341,7.7291 -34.7175,5.6414 l -45.8528,-8.52629 -0.1584,-17.65035 c 0,0 -7.9884,-2.24805 -14.2205,-3.20683 -6.2321,-0.95879 -14.6215,3.11606 -18.9361,5.51303 -4.3145,2.39698 -17.8574,5.75274 -32.8385,0.11985 -14.2607,-5.36204 -39.7897,-10.42683 -68.5534,-6.59167 -28.7636,3.83515 -44.2713,32.20169 -45.9662,33.89659 -2.6166,2.61649 -7.5373,3.27643 -12.5199,3.01678 -4.7874,-0.24948 -19.1758,-0.4794 -19.1758,-0.4794 l -9.4641,3.18378 -0.334,18.89246 -30.2313,8.12561 c -7.3736,1.97575 -29.4949,5.26353 -39.6699,-3.47561 -4.4595,-3.83013 -4.2227,-9.47326 -4.2227,-9.47326 l 0.032,-6.95645 c 0,0 -0.2648,5.63791 4.1947,9.46804 10.175,8.73914 32.2963,5.45136 39.6699,3.47561 l 21.333,-5.75273 2.8764,-19.65517 15.82,-4.79395 c 0,0 14.3884,0.22992 19.1758,0.4794 4.9826,0.25965 9.9033,-0.40029 12.5199,-3.01678 1.6949,-1.6949 17.2026,-30.06144 45.9662,-33.89659 28.7637,-3.83516 54.2927,1.22963 68.5534,6.59167 14.9811,5.63289 28.524,2.27713 32.8385,-0.11985 4.3146,-2.39697 12.704,-6.47182 18.9361,-5.51303 6.2321,0.95878 21.9324,3.7153 21.9324,3.7153 l 2.277,19.17578 36.0223,6.49239 c 11.5834,2.0877 27.5266,1.07012 34.7175,-5.6414 7.1909,-6.71153 6.8095,-10.95462 6.8095,-10.95462 -0.1014,2.59859 -0.089,7.80912 -0.089,7.80912 z"
     inkscape:connector-curvature="0"
     sodipodi:nodetypes="cscccscsscsccccsccsccccscsscsccsscc" />
  <path
     style="fill:none;stroke:#000000;stroke-width:1;stroke-opacity:1"
     d="m 506.23162,412.90802 c 0,4.24727 -7.3166,7.69036 -16.342,7.69036 -9.0254,0 -16.3419,-3.44309 -16.3419,-7.69036 0,-4.24727 7.3165,-7.69036 16.3419,-7.69036 9.0254,0 16.342,3.44309 16.342,7.69036 z"
     id="path44401-6-2-4"
     inkscape:connector-curvature="0"
     sodipodi:nodetypes="sssss" />
  <path
     style="fill:none;stroke:#000000;stroke-width:1px;stroke-linecap:butt;stroke-linejoin:miter;stroke-opacity:1"
     d="m 495.34282,349.20848 0,-7.55046"
     id="path44970"
     inkscape:connector-curvature="0" />
  <path
     style="fill:none;stroke:#000000;stroke-width:1px;stroke-linecap:butt;stroke-linejoin:miter;stroke-opacity:1"
     d="m 512.60102,369.4629 0,-7.96993"
     id="path44972"
     inkscape:connector-curvature="0" />
  <path
     style="fill:none;stroke:#000000;stroke-width:1px;stroke-linecap:butt;stroke-linejoin:miter;stroke-opacity:1"
     d="m 519.02902,381.39288 0,-7.37288"
     id="path44974"
     inkscape:connector-curvature="0" />
  <path
     style="fill:none;stroke:#000000;stroke-width:1px;stroke-linecap:butt;stroke-linejoin:miter;stroke-opacity:1"
     d="m 580.67502,409.79196 0,-7.37069"
     id="path44976"
     inkscape:connector-curvature="0" />
  <path
     style="fill:none;stroke:#000000;stroke-width:3;stroke-linecap:butt;stroke-linejoin:miter;stroke-miterlimit:4;stroke-opacity:1;stroke-dasharray:none;stroke-dashoffset:0"
     d="m 489.95872,118.67388 c 0,151.43508 0,151.43508 0,151.43508"
     id="path44982"
     inkscape:connector-curvature="0" />
  <path
     style="fill:none;stroke:#000000;stroke-width:2.99999976;stroke-linecap:butt;stroke-linejoin:miter;stroke-miterlimit:4;stroke-opacity:1;stroke-dasharray:none;stroke-dashoffset:0"
     d="m 489.95862,384.14596 c 0,35.06166 0,35.06166 0,35.06166"
     id="path44982-9"
     inkscape:connector-curvature="0" />
  <path
     style="fill:none;stroke:#000000;stroke-width:3;stroke-linecap:butt;stroke-linejoin:miter;stroke-miterlimit:4;stroke-opacity:1;stroke-dasharray:none;stroke-dashoffset:0"
     d="m 490.36912,489.40131 c 0,33.97723 0,33.97723 0,33.97723"
     id="path44982-9-1"
     inkscape:connector-curvature="0" />
  <g
     id="g45909"
     transform="matrix(0.93849007,-0.12697961,0.33069615,0.30539742,-644.08581,128.62266)">
    <g
       id="g46282"
       style="stroke:#000000"
       transform="translate(3.5764966,-10.874647)">
      <path
         inkscape:connector-curvature="0"
         id="path46267"
         d="m 941.31018,543.7926 c -0.97444,-0.79337 -2.34051,-1.25966 -3.87235,-1.20077 l -5.37262,0.22197 c -1.53188,0.059 -2.94161,0.65258 -3.96636,1.52294 -0.51237,0.43517 -0.94311,0.96967 -1.23888,1.53141 -0.29576,0.56174 -0.46208,1.10664 -0.48136,1.74404 l -0.13971,4.64889 c -0.0386,1.27485 0.53134,2.49318 1.50577,3.28655 0.97443,0.79337 2.37191,1.17055 3.9038,1.11151 l 5.34117,-0.13271 c 1.53187,-0.059 2.94161,-0.65258 3.96635,-1.52295 0.51238,-0.43516 0.94312,-0.96966 1.23889,-1.5314 0.29576,-0.56174 0.49353,-1.19589 0.51281,-1.8333 l 0.13971,-4.64889 c 0.0386,-1.27484 -0.56279,-2.40392 -1.53722,-3.19729 z"
         style="fill:none;stroke:#000000;stroke-width:1.74447px;stroke-linecap:butt;stroke-linejoin:miter;stroke-opacity:1" />
      <path
         inkscape:connector-curvature="0"
         id="path46265"
         d="m 941.31018,543.7926 c 0.97443,0.79337 1.57578,1.92245 1.53722,3.19729 l -0.13971,4.64889 c -0.0193,0.63741 -0.21704,1.27156 -0.51281,1.8333 -0.29576,0.56174 -0.72651,1.09624 -1.23889,1.5314 -1.02474,0.87037 -2.43448,1.46397 -3.96635,1.52295 l -5.34117,0.13271 c -1.53187,0.059 -2.92937,-0.31814 -3.9038,-1.11151 -0.97443,-0.79337 -1.54433,-2.0117 -1.50577,-3.28655 l 0.13971,-4.64889 c 0.0193,-0.6374 0.18559,-1.1823 0.48136,-1.74404 0.29576,-0.56175 0.72651,-1.09624 1.23888,-1.53141 1.02475,-0.87036 2.43448,-1.46396 3.96636,-1.52294 l 5.37262,-0.22197 c 1.53187,-0.059 2.89791,0.4074 3.87235,1.20077 z"
         style="fill:none;stroke:#000000;stroke-width:1.74447px;stroke-linecap:butt;stroke-linejoin:miter;stroke-opacity:1" />
      <path
         inkscape:connector-curvature="0"
         id="path46263"
         d="m 918.82484,543.34587 c -0.25033,0.7473 -0.58775,1.50439 -0.61197,2.30369 l -0.27943,9.29778 c -0.0385,1.27485 0.24037,2.51215 0.76526,3.59261 0.5249,1.08046 1.30571,1.99654 2.28014,2.78991 0.97444,0.79337 2.1364,1.42876 3.4465,1.8423 1.31015,0.41344 2.76633,0.61821 4.2982,0.55922 l 10.77429,-0.43185 c 1.53187,-0.059 2.99369,-0.34382 4.33188,-0.85933 1.3382,-0.51552 2.54463,-1.22694 3.56938,-2.09731 1.02475,-0.87037 1.88623,-1.93936 2.47776,-3.06281 0.59154,-1.12344 0.92657,-2.31457 0.96513,-3.58942 l 0.27942,-9.29778 c 0.0386,-1.27484 -0.24037,-2.51214 -0.76526,-3.5926 -0.52489,-1.08047 -1.3057,-1.99654 -2.28014,-2.78991 -0.97443,-0.79337 -2.13639,-1.42876 -3.4465,-1.84231 -1.31014,-0.41343 -2.76633,-0.6182 -4.2982,-0.55922 l -10.77428,0.43185 c -1.53187,0.059 -2.9937,0.34382 -4.33189,0.85934 -1.08402,0.41762 -1.99874,1.00898 -2.88454,1.66577 -1.21577,1.61413 -2.35771,3.18571 -3.51575,4.78007 z"
         style="fill:none;stroke:#000000;stroke-width:1.74447px;stroke-linecap:butt;stroke-linejoin:miter;stroke-opacity:1" />
      <path
         inkscape:connector-curvature="0"
         id="path46261"
         d="m 909.65686,556.4177 -0.0289,1.2159 c -0.0578,1.91225 0.37749,3.67293 1.16482,5.29362 0.78733,1.6207 1.95615,3.09614 3.4178,4.28619 1.46165,1.19006 3.19009,2.13708 5.15523,2.75742 1.96516,0.62029 4.16641,0.83203 6.46423,0.74354 l 16.1445,-0.55248 c 2.29782,-0.0885 4.50746,-0.61099 6.51475,-1.38429 2.0073,-0.7733 3.81574,-1.78977 5.35286,-3.0953 1.53712,-1.30554 2.76886,-2.83186 3.65616,-4.51704 0.44365,-0.84259 0.81213,-1.7203 1.05964,-2.62919 0.24749,-0.90889 0.38937,-1.8374 0.41829,-2.79353 l 0.45059,-14.03592 c 0.0578,-1.91225 -0.37749,-3.67293 -1.16482,-5.29362 -0.78733,-1.62069 -1.95615,-3.09613 -3.4178,-4.28619 -1.46165,-1.19005 -3.19009,-2.13707 -5.15523,-2.75742 -1.96516,-0.62029 -4.13496,-0.92128 -6.43278,-0.83279 l -13.29846,0.50792 c -2.64119,3.2055 -5.16398,6.26426 -7.61718,9.52128 0.8858,-0.65679 1.80052,-1.24815 2.88454,-1.66577 1.33819,-0.51552 2.80002,-0.80036 4.33189,-0.85934 l 10.77428,-0.43185 c 1.53187,-0.059 2.9881,0.14567 4.2982,0.55922 1.31015,0.41343 2.47251,1.04768 3.4465,1.84231 0.97444,0.79337 1.75525,1.70944 2.28014,2.78991 0.52489,1.08046 0.80382,2.31776 0.76526,3.5926 l -0.27942,9.29778 c -0.0386,1.27485 -0.37359,2.46598 -0.96513,3.58942 -0.59153,1.12345 -1.45301,2.19244 -2.47776,3.06281 -1.02475,0.87037 -2.23118,1.58179 -3.56938,2.09731 -1.33819,0.51551 -2.80001,0.80035 -4.33188,0.85933 l -10.77429,0.43185 c -1.53187,0.059 -2.98809,-0.14567 -4.2982,-0.55922 -1.31014,-0.41343 -2.47251,-1.04767 -3.4465,-1.8423 -0.97443,-0.79337 -1.75524,-1.70945 -2.28014,-2.78991 -0.52489,-1.08046 -0.80381,-2.31776 -0.76526,-3.59261 l 0.27943,-9.29778 c 0.0242,-0.79932 0.36161,-1.5564 0.61197,-2.30369 -3.36756,4.63634 -6.41533,8.95811 -9.16798,13.07183 z"
         style="fill:none;stroke:#000000;stroke-width:1.74447px;stroke-linecap:butt;stroke-linejoin:miter;stroke-opacity:1" />
      <path
         inkscape:connector-curvature="0"
         id="path46259"
         d="m 902.74892,566.95014 c 0.0556,0.12232 0.0792,0.24349 0.13804,0.36422 1.04977,2.16095 2.609,4.0944 4.55787,5.68114 1.94888,1.58674 4.27281,2.85749 6.89301,3.68461 2.62018,0.82715 5.53265,1.2364 8.5964,1.11844 l 21.54857,-0.8637 c 3.06375,-0.11796 5.95833,-0.69969 8.63472,-1.73075 2.6764,-1.03106 5.08925,-2.45391 7.13875,-4.19461 1.02475,-0.87037 1.97173,-1.81904 2.79483,-2.82865 0.82311,-1.00962 1.53772,-2.08428 2.12925,-3.20772 0.59154,-1.12345 1.07317,-2.29776 1.40318,-3.50961 0.33005,-1.21183 0.51996,-2.48364 0.55852,-3.75848 l 0.55885,-18.59556 c 0.0386,-1.27485 -0.094,-2.53827 -0.35144,-3.72752 -0.2574,-1.18926 -0.62514,-2.36515 -1.15004,-3.44562 -1.04976,-2.16095 -2.64044,-4.00515 -4.58932,-5.59189 -1.94887,-1.58674 -4.27281,-2.85749 -6.893,-3.68461 -2.62018,-0.82715 -5.53265,-1.2364 -8.5964,-1.11844 l -10.18621,0.36939 c -2.06266,2.29528 -3.98922,4.72152 -5.97668,7.1336 l 13.29841,-0.50778 c 2.29782,-0.0885 4.46764,0.21244 6.43278,0.83279 1.96516,0.62029 3.69324,1.56834 5.15523,2.75742 1.46165,1.19006 2.63047,2.6655 3.4178,4.28619 0.78733,1.62069 1.22265,3.38137 1.16482,5.29362 l -0.45059,14.03592 c -0.0289,0.95613 -0.17078,1.88464 -0.41829,2.79353 -0.24749,0.90889 -0.61601,1.78659 -1.05964,2.62919 -0.8873,1.68518 -2.11904,3.2115 -3.65616,4.51704 -1.53712,1.30553 -3.34556,2.322 -5.35286,3.0953 -2.00729,0.7733 -4.21693,1.2958 -6.51475,1.38429 l -16.1445,0.55248 c -2.29782,0.0885 -4.49909,-0.12319 -6.46423,-0.74354 -1.96516,-0.62029 -3.69324,-1.56833 -5.15523,-2.75742 -1.46165,-1.19005 -2.63047,-2.66549 -3.4178,-4.28619 -0.78733,-1.62069 -1.22265,-3.38137 -1.16482,-5.29362 l 0.0289,-1.2159 c -3.20542,4.79037 -4.81297,7.22675 -6.90794,10.53244 z"
         style="fill:none;stroke:#000000;stroke-width:1.74447px;stroke-linecap:butt;stroke-linejoin:miter;stroke-opacity:1" />
      <path
         inkscape:connector-curvature="0"
         id="path46257"
         d="m 897.54196,575.01774 c 1.01268,1.30892 1.77867,2.76906 3.10555,3.84938 2.43608,1.98346 5.35553,3.57791 8.63077,4.6118 3.27525,1.0339 6.90129,1.53948 10.73098,1.39201 l 26.9212,-1.08566 c 3.82969,-0.14747 7.50114,-0.95481 10.84663,-2.24363 3.34549,-1.28881 6.36037,-3.01673 8.92223,-5.1926 1.28093,-1.08795 2.458,-2.30213 3.48689,-3.56417 1.02888,-1.26203 1.93666,-2.59928 2.67608,-4.00361 0.73942,-1.40433 1.30514,-2.88726 1.71766,-4.4021 0.41253,-1.51484 0.64816,-3.02857 0.69635,-4.62211 l 0.73002,-23.3337 c 0.0482,-1.59353 -0.12661,-3.09988 -0.44837,-4.58643 -0.32176,-1.48654 -0.79656,-2.93714 -1.45267,-4.28772 -1.3122,-2.70118 -3.26186,-5.09264 -5.69794,-7.0761 -2.43608,-1.98346 -5.35553,-3.5779 -8.63077,-4.6118 -3.27525,-1.0339 -6.90129,-1.53948 -10.73098,-1.39201 l -5.96071,0.28443 c -2.4089,2.35767 -4.80184,4.54376 -7.15043,7.1572 l 10.18621,-0.36939 c 3.06375,-0.11796 5.97621,0.29132 8.5964,1.11844 2.62018,0.82715 4.94411,2.09793 6.893,3.68461 1.94888,1.58675 3.53956,3.43095 4.58932,5.5919 0.5249,1.08046 0.89264,2.25636 1.15004,3.44561 0.2574,1.18925 0.39,2.45268 0.35144,3.72752 l -0.55885,18.59556 c -0.0386,1.27485 -0.22851,2.54663 -0.55852,3.75848 -0.33005,1.21183 -0.81162,2.38617 -1.40318,3.50961 -0.59153,1.12345 -1.30614,2.19811 -2.12925,3.20772 -0.8231,1.00961 -1.77008,1.95828 -2.79483,2.82865 -2.0495,1.7407 -4.46236,3.16356 -7.13875,4.19462 -2.67639,1.03105 -5.57097,1.61278 -8.63472,1.73074 l -21.54857,0.8637 c -3.06375,0.11797 -5.97621,-0.29131 -8.5964,-1.11844 -2.62019,-0.82715 -4.94411,-2.09792 -6.89301,-3.68461 -1.94887,-1.58674 -3.5081,-3.52019 -4.55787,-5.68114 -0.0587,-0.121 -0.0824,-0.24188 -0.13805,-0.36421 -2.11604,3.33894 -4.52896,7.09938 -5.20695,8.06759 z"
         style="fill:none;stroke:#000000;stroke-width:1.74447px;stroke-linecap:butt;stroke-linejoin:miter;stroke-opacity:1" />
      <path
         inkscape:connector-curvature="0"
         id="path46255"
         d="m 890.74709,580.7879 c 1.07765,1.29074 1.82099,2.78033 3.16364,3.87353 2.92329,2.38014 6.4092,4.28624 10.3395,5.52691 3.9303,1.24067 8.26993,1.84253 12.86556,1.66558 l 32.29141,-1.20629 c 4.59562,-0.17695 9.01251,-1.12069 13.02709,-2.66726 2.0073,-0.7733 3.9019,-1.68927 5.69657,-2.74774 1.79466,-1.05847 3.47443,-2.23865 5.01155,-3.54418 1.53713,-1.30554 2.94427,-2.78526 4.17894,-4.29968 1.23467,-1.51443 2.30657,-3.1264 3.19387,-4.81158 0.8873,-1.68518 1.59521,-3.45265 2.09024,-5.27045 0.49503,-1.8178 0.77874,-3.6748 0.83658,-5.58706 l 0.83828,-27.89334 c 0.0578,-1.91225 -0.0963,-3.83997 -0.48239,-5.62383 -0.3861,-1.78386 -0.99942,-3.41989 -1.78675,-5.04058 -1.57465,-3.24141 -3.91231,-6.19224 -6.83561,-8.57238 -2.9233,-2.38014 -6.44065,-4.197 -10.37095,-5.43767 -3.9303,-1.24067 -8.26994,-1.84253 -12.86556,-1.66558 l -0.939,0.0189 c -2.66218,2.13655 -5.27559,4.6651 -7.91518,7.24854 l 5.96071,-0.28443 c 3.82969,-0.14747 7.45573,0.35811 10.73098,1.39201 3.27524,1.0339 6.19468,2.62837 8.63077,4.6118 2.43608,1.98346 4.38574,4.37492 5.69794,7.0761 0.65611,1.35058 1.13091,2.80118 1.45267,4.28772 0.32176,1.48655 0.49655,2.9929 0.44837,4.58643 l -0.73002,23.3337 c -0.0482,1.59354 -0.28382,3.10727 -0.69635,4.62211 -0.41252,1.51484 -0.97822,2.99778 -1.71766,4.4021 -0.73942,1.40433 -1.6472,2.74158 -2.67608,4.00361 -1.02889,1.26204 -2.20596,2.47622 -3.48689,3.56417 -2.56186,2.17587 -5.57674,3.90379 -8.92223,5.1926 -3.34549,1.28882 -7.01694,2.09616 -10.84663,2.24363 l -26.9212,1.08566 c -3.82969,0.14747 -7.45573,-0.35811 -10.73098,-1.39201 -3.27524,-1.03389 -6.19468,-2.62837 -8.63077,-4.6118 -1.32688,-1.08032 -2.09287,-2.54046 -3.10555,-3.84938 -0.0874,0.12475 -0.60959,0.97422 -0.67022,1.05157 -2.03231,2.59268 -4.0992,3.95748 -6.12465,4.71859 z"
         style="fill:none;stroke:#000000;stroke-width:1.74447px;stroke-linecap:butt;stroke-linejoin:miter;stroke-opacity:1" />
      <path
         inkscape:connector-curvature="0"
         id="path46253"
         d="m 878.14756,577.80037 c 0.33447,0.94703 0.54993,1.96517 0.98781,2.86653 0.91854,1.89083 2.05693,3.63954 3.39374,5.29944 1.33682,1.6599 2.87908,3.17817 4.58434,4.56657 3.41051,2.77682 7.49193,5.00663 12.07727,6.4541 4.58534,1.44748 9.66761,2.15768 15.02919,1.95123 l 37.69548,-1.51751 c 5.36157,-0.20645 10.49483,-1.2986 15.17851,-3.10296 2.34185,-0.90218 4.55142,-1.93703 6.64519,-3.17192 2.09377,-1.2349 4.05552,-2.6962 5.84882,-4.21932 1.79331,-1.52312 3.42814,-3.16705 4.86858,-4.93387 1.44044,-1.76682 2.70553,-3.64143 3.74071,-5.60747 1.03517,-1.96604 1.8248,-3.94085 2.40232,-6.06162 0.57752,-2.12076 0.90933,-4.32104 0.97681,-6.552 l 1.00944,-32.63149 c 0.0675,-2.23097 -0.12887,-4.40155 -0.57931,-6.48274 -0.45045,-2.08118 -1.16844,-4.09318 -2.08698,-5.98401 -0.91854,-1.89084 -2.05693,-3.63955 -3.39375,-5.29945 -1.33681,-1.65989 -2.87907,-3.17816 -4.58433,-4.56656 -3.41052,-2.77683 -7.49194,-5.00664 -12.07728,-6.45411 -2.88489,-0.91069 -6.22204,-0.98617 -9.44346,-1.26598 -3.10448,1.67956 -6.26799,3.8878 -9.4206,6.41795 l 0.939,-0.0189 c 4.59562,-0.17695 8.93526,0.42491 12.86556,1.66558 3.9303,1.24067 7.44761,3.05764 10.37095,5.43767 2.9233,2.38014 5.26096,5.33097 6.83561,8.57238 0.78733,1.62069 1.40065,3.25672 1.78675,5.04058 0.3861,1.78386 0.54022,3.71158 0.48239,5.62383 l -0.83828,27.89334 c -0.0578,1.91226 -0.34155,3.76926 -0.83658,5.58706 -0.49503,1.8178 -1.20293,3.58527 -2.09024,5.27045 -0.8873,1.68518 -1.9592,3.29715 -3.19387,4.81158 -1.23467,1.51442 -2.64181,2.99414 -4.17894,4.29968 -1.53712,1.30553 -3.21689,2.48571 -5.01155,3.54418 -1.79467,1.05847 -3.68927,1.97444 -5.69657,2.74774 -4.01458,1.54657 -8.43147,2.49031 -13.02709,2.66726 l -32.29141,1.20629 c -4.59563,0.17695 -8.93526,-0.42491 -12.86556,-1.66558 -3.9303,-1.24067 -7.41622,-3.14674 -10.3395,-5.52691 -1.34265,-1.0932 -2.08599,-2.58279 -3.16364,-3.87353 -3.02242,1.13574 -5.95598,0.69313 -8.57217,-0.90372 -0.97941,-0.59779 -2.35817,-1.20937 -4.02736,-2.08381 z"
         style="fill:none;stroke:#000000;stroke-width:1.74447px;stroke-linecap:butt;stroke-linejoin:miter;stroke-opacity:1" />
      <path
         inkscape:connector-curvature="0"
         id="path46251"
         d="m 868.3817,572.81894 c 0.0653,1.82483 0.11258,3.69036 0.48721,5.42118 0.5148,2.37847 1.3108,4.6531 2.36056,6.81405 1.04977,2.16095 2.34526,4.21566 3.87304,6.11268 1.52779,1.89703 3.26479,3.65079 5.21366,5.23754 3.89774,3.17351 8.60612,5.6378 13.8465,7.29204 2.62018,0.82715 5.38723,1.41845 8.25768,1.79621 2.87045,0.37776 5.84233,0.54656 8.90608,0.42859 l 43.06569,-1.63814 c 3.06376,-0.11797 6.04217,-0.49136 8.94217,-1.09129 2.90001,-0.59994 5.71138,-1.41632 8.38777,-2.44738 2.6764,-1.03106 5.23238,-2.27404 7.62526,-3.68536 2.39289,-1.41131 4.6342,-3.05242 6.68369,-4.79312 2.04948,-1.74071 3.88295,-3.56089 5.52917,-5.58013 1.64623,-2.01925 3.07543,-4.16852 4.2585,-6.41544 1.18307,-2.24692 2.14632,-4.59549 2.80635,-7.01922 0.66002,-2.42373 1.03993,-4.96729 1.11704,-7.51695 l 1.11773,-37.19113 c 0.077,-2.54966 -0.1591,-5.06449 -0.6739,-7.44297 -0.51476,-2.37847 -1.31076,-4.6531 -2.36053,-6.81405 -1.04976,-2.16095 -2.34525,-4.21565 -3.87304,-6.11268 -1.52778,-1.89703 -3.26478,-3.65079 -5.21366,-5.23753 -2.90941,-2.36884 -6.65221,-3.87707 -10.34191,-5.42559 -1.57317,-0.14369 -3.03869,-0.50486 -4.68057,-0.51355 -4.23577,-0.0224 -8.7233,1.6169 -13.29553,4.09053 3.22142,0.27981 6.55857,0.35529 9.44346,1.26598 4.58534,1.44747 8.66679,3.6772 12.07728,6.45411 1.70526,1.3884 3.24752,2.90667 4.58433,4.56656 1.33682,1.6599 2.47521,3.40861 3.39375,5.29945 0.91854,1.89083 1.63653,3.90283 2.08698,5.98401 0.45044,2.08119 0.64679,4.25177 0.57931,6.48274 l -1.00944,32.63149 c -0.0675,2.23096 -0.39929,4.43124 -0.97681,6.552 -0.57752,2.12077 -1.36718,4.09557 -2.40232,6.06162 -1.03518,1.96604 -2.30027,3.84065 -3.74071,5.60747 -1.44044,1.76682 -3.07527,3.41075 -4.86858,4.93387 -1.7933,1.52312 -3.75505,2.98442 -5.84882,4.21932 -2.09377,1.23489 -4.30334,2.26974 -6.64519,3.17192 -4.68368,1.80436 -9.81694,2.89651 -15.17851,3.10296 l -37.69548,1.51751 c -5.36158,0.20645 -10.44385,-0.50375 -15.02919,-1.95123 -4.58534,-1.44747 -8.66679,-3.67719 -12.07727,-6.4541 -1.70526,-1.3884 -3.24752,-2.90667 -4.58434,-4.56657 -1.33681,-1.6599 -2.4752,-3.40861 -3.39374,-5.29944 -0.43788,-0.90136 -0.65334,-1.9195 -0.98781,-2.86653 -4.03848,-2.11582 -7.28232,-3.78054 -9.76586,-4.98143 z"
         style="fill:none;stroke:#000000;stroke-width:1.74447px;stroke-linecap:butt;stroke-linejoin:miter;stroke-opacity:1" />
      <path
         inkscape:connector-curvature="0"
         id="path46249"
         d="m 859.89443,573.28076 -0.005,0.20265 c -0.0867,2.86838 0.19161,5.62608 0.77076,8.30188 0.57915,2.67579 1.48221,5.22509 2.6632,7.65616 1.18099,2.43106 2.63357,4.79176 4.35234,6.92592 1.71876,2.13416 3.71099,4.04624 5.90347,5.83132 2.19248,1.78509 4.58629,3.44681 7.18842,4.8307 2.60215,1.38383 5.38766,2.53513 8.33536,3.46571 2.94769,0.93058 6.04975,1.59122 9.279,2.0162 3.22925,0.42499 6.57262,0.61487 10.01933,0.48217 l 48.43832,-1.8601 c 3.44671,-0.13271 6.82676,-0.55335 10.08928,-1.22829 3.26252,-0.67495 6.44163,-1.66333 9.45257,-2.82326 3.01094,-1.15994 5.88189,-2.5218 8.57389,-4.10954 2.69199,-1.58774 5.21286,-3.40865 7.51854,-5.36694 2.30568,-1.95828 4.36922,-4.044 6.22122,-6.31564 1.85197,-2.27164 3.47437,-4.68355 4.80537,-7.21133 1.3309,-2.52777 2.3783,-5.18502 3.1208,-7.91171 0.7425,-2.72669 1.1681,-5.51221 1.2549,-8.38058 l 1.2888,-41.92927 c 0.087,-2.86837 -0.1916,-5.62608 -0.7707,-8.30187 -0.5792,-2.67579 -1.4822,-5.2251 -2.6632,-7.65616 -0.6423,-1.32222 -1.569,-2.51225 -2.3747,-3.75014 -7.05685,-4.71713 -15.4283,-7.76783 -24.95983,-8.63839 3.6901,1.54738 7.43245,3.0569 10.34191,5.42559 1.94888,1.58674 3.68588,3.3405 5.21366,5.23753 1.52779,1.89703 2.82328,3.95173 3.87304,6.11268 1.04977,2.16095 1.84577,4.43558 2.36062,6.81405 0.5148,2.37848 0.7509,4.89331 0.6738,7.44297 l -1.11772,37.19113 c -0.0771,2.54966 -0.45702,5.09322 -1.11704,7.51695 -0.66003,2.42373 -1.62323,4.77232 -2.80635,7.01922 -1.18307,2.24692 -2.61227,4.39619 -4.2585,6.41544 -1.64622,2.01924 -3.47969,3.83942 -5.52917,5.58013 -2.04949,1.7407 -4.2908,3.38181 -6.68369,4.79312 -2.39288,1.41132 -4.94886,2.6543 -7.62526,3.68536 -2.67639,1.03106 -5.48776,1.84744 -8.38777,2.44738 -2.9,0.59993 -5.87841,0.97332 -8.94217,1.09129 l -43.06569,1.63814 c -3.06375,0.11797 -6.03563,-0.0508 -8.90608,-0.42859 -2.87045,-0.37776 -5.63749,-0.96908 -8.25768,-1.79621 -5.24038,-1.65424 -9.94826,-4.11996 -13.8465,-7.29204 -1.94887,-1.58675 -3.68587,-3.34051 -5.21366,-5.23754 -1.52778,-1.89702 -2.82327,-3.95173 -3.87304,-6.11268 -1.04976,-2.16095 -1.84576,-4.43558 -2.36056,-6.81405 -0.37463,-1.73082 -0.42193,-3.59635 -0.48721,-5.42118 -0.89002,-0.43031 -3.50704,-1.76499 -3.50704,-1.76499 l -4.98028,2.22695 z"
         style="fill:none;stroke:#000000;stroke-width:1.74447px;stroke-linecap:butt;stroke-linejoin:miter;stroke-opacity:1" />
      <path
         inkscape:connector-curvature="0"
         id="path46247"
         d="m 851.89436,579.16376 c 0.10544,2.08148 0.12849,4.1846 0.55749,6.16669 0.6435,2.97312 1.62218,5.88634 2.93438,8.58752 1.31221,2.70118 2.95576,5.17729 4.86549,7.54859 1.90973,2.37129 4.09431,4.62015 6.5304,6.60361 2.43608,1.98346 5.137,3.74457 8.02826,5.28221 2.89125,1.53764 5.98949,2.81824 9.26473,3.85214 3.27525,1.0339 6.70986,1.86532 10.29791,2.33753 3.58806,0.4722 7.33436,0.59396 11.16405,0.44648 l 53.81094,-2.08206 c 3.82969,-0.14747 7.58234,-0.62744 11.20735,-1.37737 3.62502,-0.74993 7.10898,-1.73182 10.45447,-3.02064 3.34549,-1.28882 6.56286,-2.85883 9.55396,-4.62296 2.99111,-1.76413 5.79154,-3.76488 8.3534,-5.94075 2.56191,-2.17587 4.85551,-4.52712 6.91331,-7.05115 2.0577,-2.52404 3.8733,-5.19859 5.3521,-8.00722 0.7395,-1.40433 1.3984,-2.82989 1.9791,-4.29343 0.5806,-1.46355 1.0728,-2.98385 1.4854,-4.49869 0.4125,-1.51484 0.7251,-3.0566 0.9601,-4.61475 0.235,-1.55815 0.3868,-3.13725 0.4349,-4.73078 l 1.3972,-46.48891 c 0.039,-1.29111 -0.2656,-2.4687 -0.3515,-3.72752 -4.0232,-4.945 -8.2677,-9.73164 -13.7311,-13.38364 0.8057,1.23789 1.7323,2.42792 2.3746,3.75014 1.181,2.43106 2.0841,4.98037 2.6632,7.65616 0.5792,2.67579 0.8575,5.4335 0.7708,8.30187 l -1.2889,41.92925 c -0.087,2.86837 -0.5124,5.65389 -1.2549,8.38058 -0.7425,2.72669 -1.7899,5.38394 -3.1208,7.91171 -1.331,2.52778 -2.9534,4.93969 -4.80538,7.21133 -1.852,2.27164 -3.91554,4.35736 -6.22122,6.31564 -2.30568,1.95829 -4.82655,3.7792 -7.51854,5.36694 -2.692,1.58774 -5.56295,2.9496 -8.57389,4.10954 -3.01094,1.15993 -6.19005,2.14831 -9.45257,2.82326 -3.26252,0.67494 -6.64257,1.09558 -10.08928,1.22829 l -48.43832,1.8601 c -3.44671,0.1327 -6.79008,-0.0572 -10.01933,-0.48217 -3.22925,-0.42498 -6.33128,-1.0857 -9.279,-2.0162 -2.9477,-0.93058 -5.73321,-2.08188 -8.33536,-3.46571 -2.60215,-1.38384 -4.99594,-3.04561 -7.18842,-4.8307 -2.19248,-1.78508 -4.18471,-3.69716 -5.90347,-5.83132 -1.71877,-2.13416 -3.17135,-4.49486 -4.35234,-6.92592 -1.18099,-2.43107 -2.08405,-4.98037 -2.6632,-7.65616 -0.57915,-2.6758 -0.85751,-5.4335 -0.77076,-8.30188 l 0.005,-0.20265 -7.02756,3.21759 -0.97247,2.66543 z"
         style="fill:none;stroke:#000000;stroke-width:1.74447px;stroke-linecap:butt;stroke-linejoin:miter;stroke-opacity:1" />
    </g>
    <path
       style="fill:none;stroke:#000000;stroke-width:1px;stroke-linecap:butt;stroke-linejoin:miter;stroke-opacity:1"
       d="m 986.35404,461.34149 c -34.9958,-5.75273 -15.34062,-30.92094 -18.93608,-53.21278 -3.59546,-22.29184 -27.80488,-27.56518 -27.80488,-27.56518"
       id="path46295"
       inkscape:connector-curvature="0"
       transform="matrix(0.92937796,0.38642124,-1.0063664,2.85599,425.61693,-1301.4673)" />
    <path
       style="fill:none;stroke:#000000;stroke-width:1px;stroke-linecap:butt;stroke-linejoin:miter;stroke-opacity:1"
       d="m 1004.571,441.68632 c -12.94362,-0.2397 -26.09762,-16.40046 -25.16818,-29.72246 1.43818,-20.61395 14.3883,-20.7929 9.34819,-31.16063 -5.19177,-10.67971 1.67788,-21.81245 1.67788,-21.81245"
       id="path46297"
       inkscape:connector-curvature="0"
       transform="matrix(0.92937796,0.38642124,-1.0063664,2.85599,425.61693,-1301.4673)"
       sodipodi:nodetypes="cssc" />
    <path
       transform="matrix(0.92336575,0.38392146,-0.33234139,0.94315916,0,0)"
       style="fill:none;stroke:#000000;stroke-width:1.74580252;stroke-miterlimit:4;stroke-dashoffset:0;stroke-opacity:1"
       d="m 655.42631,-381.91333 114.67925,0 c 2.56528,0 4.63047,6.55177 4.63047,14.69006 l 0,539.78651 c 0,8.13829 -2.06519,14.69006 -4.63047,14.69006 l -114.67925,0 c -2.56528,0 -4.63047,-6.55177 -4.63047,-14.69006 l 0,-539.78651 c 0,-8.13829 2.06519,-14.69006 4.63047,-14.69006 z"
       id="rect3069" />
    <path
       style="fill:none;stroke:#000000;stroke-width:1.74447;stroke-miterlimit:4;stroke-opacity:1;stroke-dashoffset:0"
       d="m 731.42271,128.4281 c 11.4379,31.8325 4.6252,96.74129 -19.742,165.89342 -31.6914,89.93769 -81.0753,152.99543 -110.302,140.84339 -29.2268,-12.15203 -27.2288,-94.91212 4.4626,-184.84981 29.6882,-84.25277 75.0434,-144.94409 104.6683,-142.28626"
       id="path3071"
       inkscape:connector-curvature="0"
       sodipodi:nodetypes="csssc" />
    <path
       transform="matrix(0.13259144,0.05512951,-0.1437726,0.40801552,477.76531,263.59387)"
       style="fill:none;stroke:#000000;stroke-width:7.00452089;stroke-miterlimit:4;stroke-dashoffset:0;stroke-opacity:1"
       d="m 1348.4745,-142.22247 c 0,76.009357 -61.6177,137.6271178 -137.6271,137.6271178 -76.0093,0 -137.6271,-61.6177608 -137.6271,-137.6271178 0,-76.00936 61.6178,-137.62712 137.6271,-137.62712 76.0094,0 137.6271,61.61776 137.6271,137.62712 z"
       id="path3071-1" />
    <path
       transform="matrix(0.11933229,0.04961656,-0.12939535,0.36721398,495.86491,264.46631)"
       style="fill:none;stroke:#000000;stroke-width:7.78280115;stroke-miterlimit:4;stroke-dashoffset:0;stroke-opacity:1"
       d="m 1348.4745,-142.22247 c 0,76.009357 -61.6177,137.6271178 -137.6271,137.6271178 -76.0093,0 -137.6271,-61.6177608 -137.6271,-137.6271178 0,-76.00936 61.6178,-137.62712 137.6271,-137.62712 76.0094,0 137.6271,61.61776 137.6271,137.62712 z"
       id="path3071-1-4" />
    <path
       transform="matrix(0.04545992,0.01890155,-0.04929347,0.13989105,596.70531,269.32707)"
       style="fill:none;stroke:#000000;stroke-width:20.42985153;stroke-miterlimit:4;stroke-dashoffset:0;stroke-opacity:1"
       d="m 1348.4745,-142.22247 c 0,76.009357 -61.6177,137.6271178 -137.6271,137.6271178 -76.0093,0 -137.6271,-61.6177608 -137.6271,-137.6271178 0,-76.00936 61.6178,-137.62712 137.6271,-137.62712 76.0094,0 137.6271,61.61776 137.6271,137.62712 z"
       id="path3071-1-4-9" />
    <path
       transform="matrix(0.01136498,0.00472539,-0.01232337,0.03497278,643.24711,271.5705)"
       style="fill:none;stroke:#000000;stroke-width:81.71938324;stroke-miterlimit:4;stroke-dashoffset:0;stroke-opacity:1"
       d="m 1348.4745,-142.22247 c 0,76.009357 -61.6177,137.6271178 -137.6271,137.6271178 -76.0093,0 -137.6271,-61.6177608 -137.6271,-137.6271178 0,-76.00936 61.6178,-137.62712 137.6271,-137.62712 76.0094,0 137.6271,61.61776 137.6271,137.62712 z"
       id="path3071-1-4-9-5" />
    <path
       transform="matrix(0.38451515,0.15987556,-0.41694054,1.183245,131.99211,254.05292)"
       style="fill:none;stroke:#000000;stroke-width:2.41535211;stroke-miterlimit:4;stroke-dashoffset:0;stroke-opacity:1"
       d="m 1083.7288,-317.8157 c 0,2.62101 -2.1248,4.74576 -4.7458,4.74576 -2.621,0 -4.7457,-2.12475 -4.7457,-4.74576 0,-2.62102 2.1247,-4.74577 4.7457,-4.74577 2.621,0 4.7458,2.12475 4.7458,4.74577 z"
       id="path3145" />
    <path
       transform="matrix(0.63170346,0.2626527,-0.68497373,1.9439025,-219.90499,384.90702)"
       style="fill:none;stroke:#000000;stroke-width:1.47021437;stroke-miterlimit:4;stroke-dashoffset:0;stroke-opacity:1"
       d="m 1083.7288,-317.8157 c 0,2.62101 -2.1248,4.74576 -4.7458,4.74576 -2.621,0 -4.7457,-2.12475 -4.7457,-4.74576 0,-2.62102 2.1247,-4.74577 4.7457,-4.74577 2.621,0 4.7458,2.12475 4.7458,4.74577 z"
       id="path3145-9" />
    <path
       transform="matrix(0.38451515,0.15987556,-0.41694054,1.183245,217.23841,169.47219)"
       style="fill:none;stroke:#000000;stroke-width:2.41535211;stroke-miterlimit:4;stroke-dashoffset:0;stroke-opacity:1"
       d="m 1083.7288,-317.8157 c 0,2.62101 -2.1248,4.74576 -4.7458,4.74576 -2.621,0 -4.7457,-2.12475 -4.7457,-4.74576 0,-2.62102 2.1247,-4.74577 4.7457,-4.74577 2.621,0 4.7458,2.12475 4.7458,4.74577 z"
       id="path3145-2" />
    <path
       transform="matrix(0.63170346,0.2626527,-0.68497373,1.9439025,-134.65869,300.3263)"
       style="fill:none;stroke:#000000;stroke-width:1.47021437;stroke-miterlimit:4;stroke-dashoffset:0;stroke-opacity:1"
       d="m 1083.7288,-317.8157 c 0,2.62101 -2.1248,4.74576 -4.7458,4.74576 -2.621,0 -4.7457,-2.12475 -4.7457,-4.74576 0,-2.62102 2.1247,-4.74577 4.7457,-4.74577 2.621,0 4.7458,2.12475 4.7458,4.74577 z"
       id="path3145-9-3" />
    <path
       transform="matrix(0.38451515,0.15987556,-0.41694054,1.183245,268.54851,198.16398)"
       style="fill:none;stroke:#000000;stroke-width:2.41535211;stroke-miterlimit:4;stroke-dashoffset:0;stroke-opacity:1"
       d="m 1083.7288,-317.8157 c 0,2.62101 -2.1248,4.74576 -4.7458,4.74576 -2.621,0 -4.7457,-2.12475 -4.7457,-4.74576 0,-2.62102 2.1247,-4.74577 4.7457,-4.74577 2.621,0 4.7458,2.12475 4.7458,4.74577 z"
       id="path3145-28" />
    <path
       transform="matrix(0.63170346,0.2626527,-0.68497373,1.9439025,-83.348592,329.01809)"
       style="fill:none;stroke:#000000;stroke-width:1.47021437;stroke-miterlimit:4;stroke-dashoffset:0;stroke-opacity:1"
       d="m 1083.7288,-317.8157 c 0,2.62101 -2.1248,4.74576 -4.7458,4.74576 -2.621,0 -4.7457,-2.12475 -4.7457,-4.74576 0,-2.62102 2.1247,-4.74577 4.7457,-4.74577 2.621,0 4.7458,2.12475 4.7458,4.74577 z"
       id="path3145-9-31" />
    <path
       transform="matrix(0.38451515,0.15987556,-0.41694054,1.183245,210.80651,364.99985)"
       style="fill:none;stroke:#000000;stroke-width:2.41535211;stroke-miterlimit:4;stroke-dashoffset:0;stroke-opacity:1"
       d="m 1083.7288,-317.8157 c 0,2.62101 -2.1248,4.74576 -4.7458,4.74576 -2.621,0 -4.7457,-2.12475 -4.7457,-4.74576 0,-2.62102 2.1247,-4.74577 4.7457,-4.74577 2.621,0 4.7458,2.12475 4.7458,4.74577 z"
       id="path3145-7" />
    <path
       transform="matrix(0.63170346,0.2626527,-0.68497373,1.9439025,-141.09059,495.85396)"
       style="fill:none;stroke:#000000;stroke-width:1.47021437;stroke-miterlimit:4;stroke-dashoffset:0;stroke-opacity:1"
       d="m 1083.7288,-317.8157 c 0,2.62101 -2.1248,4.74576 -4.7458,4.74576 -2.621,0 -4.7457,-2.12475 -4.7457,-4.74576 0,-2.62102 2.1247,-4.74577 4.7457,-4.74577 2.621,0 4.7458,2.12475 4.7458,4.74577 z"
       id="path3145-9-35" />
    <path
       transform="matrix(0.38451515,0.15987556,-0.41694054,1.183245,118.62571,616.84746)"
       style="fill:none;stroke:#000000;stroke-width:2.41535211;stroke-miterlimit:4;stroke-dashoffset:0;stroke-opacity:1"
       d="m 1083.7288,-317.8157 c 0,2.62101 -2.1248,4.74576 -4.7458,4.74576 -2.621,0 -4.7457,-2.12475 -4.7457,-4.74576 0,-2.62102 2.1247,-4.74577 4.7457,-4.74577 2.621,0 4.7458,2.12475 4.7458,4.74577 z"
       id="path3145-8" />
    <path
       transform="matrix(0.63170346,0.2626527,-0.68497373,1.9439025,-233.27139,747.70158)"
       style="fill:none;stroke:#000000;stroke-width:1.47021437;stroke-miterlimit:4;stroke-dashoffset:0;stroke-opacity:1"
       d="m 1083.7288,-317.8157 c 0,2.62101 -2.1248,4.74576 -4.7458,4.74576 -2.621,0 -4.7457,-2.12475 -4.7457,-4.74576 0,-2.62102 2.1247,-4.74577 4.7457,-4.74577 2.621,0 4.7458,2.12475 4.7458,4.74577 z"
       id="path3145-9-2" />
    <path
       transform="matrix(0.38451515,0.15987556,-0.41694054,1.183245,19.901808,572.58051)"
       style="fill:none;stroke:#000000;stroke-width:2.41535211;stroke-miterlimit:4;stroke-dashoffset:0;stroke-opacity:1"
       d="m 1083.7288,-317.8157 c 0,2.62101 -2.1248,4.74576 -4.7458,4.74576 -2.621,0 -4.7457,-2.12475 -4.7457,-4.74576 0,-2.62102 2.1247,-4.74577 4.7457,-4.74577 2.621,0 4.7458,2.12475 4.7458,4.74577 z"
       id="path3145-1" />
    <path
       transform="matrix(0.63170346,0.2626527,-0.68497373,1.9439025,-331.99529,703.43461)"
       style="fill:none;stroke:#000000;stroke-width:1.47021437;stroke-miterlimit:4;stroke-dashoffset:0;stroke-opacity:1"
       d="m 1083.7288,-317.8157 c 0,2.62101 -2.1248,4.74576 -4.7458,4.74576 -2.621,0 -4.7457,-2.12475 -4.7457,-4.74576 0,-2.62102 2.1247,-4.74577 4.7457,-4.74577 2.621,0 4.7458,2.12475 4.7458,4.74577 z"
       id="path3145-9-317" />
    <g
       id="g36147"
       style="stroke:#000000;stroke-width:7.59913969"
       transform="matrix(0.25529735,-0.09407334,0.0211099,0.19864134,75.400208,276.87706)">
      <path
         transform="matrix(0.92937796,0.38642124,-1.0063664,2.85599,726.91319,-34.625102)"
         inkscape:connector-curvature="0"
         id="path36089"
         d="m 1803.4818,-212.76727 -87.2497,147.174087 -23.011,27.804877 -17.2582,16.29941 c 0,0 14.3819,8.6291 16.7788,12.9436498 2.397,4.3145499 6.7115,7.1909164 1.9176,12.4642551 -4.7939,5.2733387 -37.8722,44.1042871 -37.8722,44.1042871 l 14.8613,12.464255 36.9133,-47.460048 c 0,0 2.8764,-2.876366 5.7528,-2.396972 2.8763,0.479394 5.2733,2.396972 5.2733,2.396972 l 6.7115,6.232128 11.9849,-15.3406221 41.7073,-20.1345659 123.6838,-107.863743"
         style="fill:none;stroke:#000000;stroke-width:4.35613108;stroke-linecap:butt;stroke-linejoin:miter;stroke-opacity:1" />
      <path
         sodipodi:nodetypes="zsccssssccscssscscccssscssssscssz"
         transform="matrix(0.92937796,0.38642124,-1.0063664,2.85599,726.91319,-34.625102)"
         inkscape:connector-curvature="0"
         id="path36091"
         d="m 1952.5735,-39.22649 c 14.7468,-0.244586 26.8563,-7.909191 26.449,-29.020397 -0.3972,-20.584881 -4.3968,-34.739063 -4.3968,-34.739063 0,0 -1.9176,-9.10849 0,-14.86123 1.9175,-5.75273 10.3897,-45.12229 5.7527,-73.34734 -5.513,-33.55761 -17.7376,-70.71068 -52.7334,-91.80404 0,0 -6.7115,10.78638 -11.5055,15.10093 -4.7939,4.31455 -9.1085,9.58789 -13.9024,5.27334 -4.794,-4.31455 -5.2733,-8.14971 -1.9176,-13.90244 3.3558,-5.75273 15.82,-22.53154 15.82,-22.53154 0,0 -14.8612,-9.58789 -22.0521,-11.02607 -7.1909,-1.43818 -18.217,-2.87637 -18.217,-2.87637 0,0 -13.8361,19.51179 -20.1346,27.80488 -2.7579,3.63133 -9.0279,6.90076 -13.1276,3.8472 -3.6259,-2.70063 -3.4115,-7.68236 -1.2542,-11.03812 2.3901,-3.71784 8.6291,-10.06728 8.6291,-10.06728 0,0 -29.2431,2.39697 -33.5576,4.31455 -4.3146,1.91758 -16.257,16.39496 -16.257,16.39496 -4.1568,3.26394 -11.0237,0.2632 -14.6639,-1.77343 -3.3558,-2.39697 -24.2095,-13.66274 -24.2095,-13.66274 0,0 -6.4622,-2.11366 -11.7356,-1.15487 -5.2733,0.95879 -17.1915,10.42594 -16.3791,22.70602 0.8358,12.63385 13.8798,21.31128 27.1559,28.78526 13.4788,7.58806 21.5728,12.94365 21.5728,12.94365 0,0 3.8351,5.75274 4.3145,9.58789 0.4794,3.83516 2.8764,11.50547 13.4231,11.02607 10.5467,-0.47939 32.9676,-1.85394 49.5273,3.25723 16.3947,5.06023 30.7883,20.09664 36.617,46.18067 5.1333,22.97185 0.1467,31.10037 5.8994,34.93552 5.7527,3.83516 20.1346,4.31455 22.0522,9.58789 1.9175,5.27334 4.3145,9.58789 5.2733,17.2582 0.9588,7.670311 3.7217,26.233824 5.9222,41.034339 1.6908,11.372325 12.8886,22.010917 27.6354,21.766331 z"
         style="fill:none;stroke:#000000;stroke-width:4.35613108;stroke-linecap:butt;stroke-linejoin:miter;stroke-opacity:1" />
      <path
         sodipodi:nodetypes="cc"
         transform="matrix(0.92937796,0.38642124,-1.0063664,2.85599,726.91319,-34.625102)"
         inkscape:connector-curvature="0"
         id="path36093"
         d="m 1790.9171,-281.2056 -24.5883,37.75708"
         style="fill:none;stroke:#000000;stroke-width:4.35613108;stroke-linecap:butt;stroke-linejoin:miter;stroke-opacity:1" />
      <path
         inkscape:connector-curvature="0"
         id="path36095"
         d="m 2606.5034,437.68984 59.6439,-6.28027"
         style="fill:none;stroke:#000000;stroke-width:7.59913969;stroke-linecap:butt;stroke-linejoin:miter;stroke-opacity:1" />
      <path
         transform="matrix(0.92937796,0.38642124,-1.0063664,2.85599,726.91319,-34.625102)"
         inkscape:connector-curvature="0"
         id="path36097"
         d="m 1979.899,-193.3518 36.6737,-45.06307 -5.5131,-7.67032 14.3819,-16.5391 -18.217,-15.58032 -12.704,16.29941 -98.2758,-83.89403 -17.9773,9.34819 -33.5576,55.60976"
         style="fill:none;stroke:#000000;stroke-width:4.35613108;stroke-linecap:butt;stroke-linejoin:miter;stroke-opacity:1" />
      <path
         transform="matrix(0.92937796,0.38642124,-1.0063664,2.85599,726.17107,-31.794186)"
         style="fill:none;stroke:#000000;stroke-width:4.35613108;stroke-miterlimit:4;stroke-dashoffset:0;stroke-opacity:1"
         d="m 1700.6517,-23.885868 c 0,3.441909 -2.7902,6.232128 -6.2321,6.232128 -3.442,0 -6.2322,-2.790219 -6.2322,-6.232128 0,-3.441909 2.7902,-6.232128 6.2322,-6.232128 3.4419,0 6.2321,2.790219 6.2321,6.232128 z"
         id="path36099" />
      <path
         transform="matrix(0.92937796,0.38642124,-1.0063664,2.85599,727.76085,52.847895)"
         style="fill:none;stroke:#000000;stroke-width:4.35613108;stroke-miterlimit:4;stroke-dashoffset:0;stroke-opacity:1"
         d="m 1700.6517,-23.885868 c 0,3.441909 -2.7902,6.232128 -6.2321,6.232128 -3.442,0 -6.2322,-2.790219 -6.2322,-6.232128 0,-3.441909 2.7902,-6.232128 6.2322,-6.232128 3.4419,0 6.2321,2.790219 6.2321,6.232128 z"
         id="path36099-7" />
      <path
         transform="matrix(0.92937796,0.38642124,-1.0063664,2.85599,634.66311,155.41583)"
         style="fill:none;stroke:#000000;stroke-width:4.35613108;stroke-miterlimit:4;stroke-dashoffset:0;stroke-opacity:1"
         d="m 1700.6517,-23.885868 c 0,3.441909 -2.7902,6.232128 -6.2321,6.232128 -3.442,0 -6.2322,-2.790219 -6.2322,-6.232128 0,-3.441909 2.7902,-6.232128 6.2322,-6.232128 3.4419,0 6.2321,2.790219 6.2321,6.232128 z"
         id="path36099-2" />
      <path
         transform="matrix(1.2832384,0.53355105,-1.3895402,3.9434076,366.07654,-547.91003)"
         style="fill:none;stroke:#000000;stroke-width:3.15490246;stroke-miterlimit:4;stroke-dashoffset:0;stroke-opacity:1"
         d="m 1700.6517,-23.885868 c 0,3.441909 -2.7902,6.232128 -6.2321,6.232128 -3.442,0 -6.2322,-2.790219 -6.2322,-6.232128 0,-3.441909 2.7902,-6.232128 6.2322,-6.232128 3.4419,0 6.2321,2.790219 6.2321,6.232128 z"
         id="path36099-6" />
      <path
         transform="matrix(3.2041953,1.3322557,-3.4696266,9.8465318,-2938.5151,-1760.2496)"
         style="fill:none;stroke:#000000;stroke-width:1.26349735;stroke-miterlimit:4;stroke-dashoffset:0;stroke-opacity:1"
         d="m 1700.6517,-23.885868 c 0,3.441909 -2.7902,6.232128 -6.2321,6.232128 -3.442,0 -6.2322,-2.790219 -6.2322,-6.232128 0,-3.441909 2.7902,-6.232128 6.2322,-6.232128 3.4419,0 6.2321,2.790219 6.2321,6.232128 z"
         id="path36099-77" />
      <path
         transform="matrix(4.3668797,1.8156822,-4.7286262,13.419475,-4938.6625,-2494.0341)"
         style="fill:none;stroke:#000000;stroke-width:0.92709041;stroke-miterlimit:4;stroke-dashoffset:0;stroke-opacity:1"
         d="m 1700.6517,-23.885868 c 0,3.441909 -2.7902,6.232128 -6.2321,6.232128 -3.442,0 -6.2322,-2.790219 -6.2322,-6.232128 0,-3.441909 2.7902,-6.232128 6.2322,-6.232128 3.4419,0 6.2321,2.790219 6.2321,6.232128 z"
         id="path36099-3" />
    </g>
    <path
       style="fill:none;stroke:#000000;stroke-width:1.74447;stroke-linecap:butt;stroke-linejoin:miter;stroke-opacity:1"
       d="m 740.91791,48.493501 c -26.4377,26.25667 -26.656,29.84482 -36.9657,31.53645 -10.3098,1.69162 -13.804,-11.71772 -12.2477,-21.64755 1.5562,-9.92984 2.4309,-29.80024 11.8753,-44.72788 9.4444,-14.92762 16.5474,-9.21513 16.5474,-9.21513"
       id="path36160"
       inkscape:connector-curvature="0"
       sodipodi:nodetypes="csssc" />
    <path
       transform="matrix(0.92336575,0.38392146,-0.33234139,0.94315916,0,0)"
       style="fill:none;stroke:#000000;stroke-width:1.74580264;stroke-miterlimit:4;stroke-dashoffset:0;stroke-opacity:1"
       d="m 662.71483,-337.43091 29.50807,0 c 0.74149,0 1.33843,1.84779 1.33843,4.14303 l 0,56.35542 c 0,2.29524 -0.59694,4.14303 -1.33843,4.14303 l -29.50807,0 c -0.74149,0 -1.33843,-1.84779 -1.33843,-4.14303 l 0,-56.35542 c 0,-2.29524 0.59694,-4.14303 1.33843,-4.14303 z"
       id="rect36164" />
    <path
       transform="matrix(0.92336575,0.38392147,-0.33234139,0.94315916,0,0)"
       style="fill:none;stroke:#000000;stroke-width:1.74580264;stroke-miterlimit:4;stroke-dashoffset:0;stroke-opacity:1"
       d="m 664.44592,-300.89319 9.92392,0 c 0.24937,0 0.45013,0.6136 0.45013,1.37579 l 0,18.71413 c 0,0.76219 -0.20076,1.37579 -0.45013,1.37579 l -9.92392,0 c -0.24937,0 -0.45013,-0.6136 -0.45013,-1.37579 l 0,-18.71413 c 0,-0.76219 0.20076,-1.37579 0.45013,-1.37579 z"
       id="rect36164-6" />
    <path
       transform="matrix(0.92336575,0.38392147,-0.33234139,0.94315916,0,0)"
       style="fill:none;stroke:#000000;stroke-width:1.74580264;stroke-miterlimit:4;stroke-dashoffset:0;stroke-opacity:1"
       d="m 664.43676,-329.09668 20.5228,0 c 0.24429,0 0.44097,0.6136 0.44097,1.37579 l 0,18.71413 c 0,0.76219 -0.19668,1.37579 -0.44097,1.37579 l -20.5228,0 c -0.2443,0 -0.44097,-0.6136 -0.44097,-1.37579 l 0,-18.71413 c 0,-0.76219 0.19667,-1.37579 0.44097,-1.37579 z"
       id="rect36164-6-1" />
    <path
       style="fill:none;stroke:#000000;stroke-width:1.74447px;stroke-linecap:butt;stroke-linejoin:miter;stroke-opacity:1"
       d="M 719.16802,-84.23199 832.78037,-36.9937"
       id="path36277"
       inkscape:connector-curvature="0" />
    <path
       style="fill:none;stroke:#000000;stroke-width:1.74447px;stroke-linecap:butt;stroke-linejoin:miter;stroke-opacity:1"
       d="m 549.20898,396.90651 31.08069,12.92288 m 52.2951,21.7435 30.66991,12.75209"
       id="path36279"
       inkscape:connector-curvature="0"
       sodipodi:nodetypes="cccc" />
    <path
       style="fill:none;stroke:#000000;stroke-width:1.74447;stroke-miterlimit:4;stroke-opacity:1;stroke-dashoffset:0"
       d="m 632.76934,431.39288 c -12.33199,9.42018 -23.80903,12.87805 -33.30152,8.93123 -9.42161,-3.91735 -15.81477,-14.68288 -19.22417,-30.44564"
       id="path3071-9"
       inkscape:connector-curvature="0"
       sodipodi:nodetypes="csc" />
  </g>
</svg>
