<?xml version="1.0" encoding="UTF-8" standalone="no"?>
<!-- Created with Inkscape (http://www.inkscape.org/) -->

<svg
   xmlns:dc="http://purl.org/dc/elements/1.1/"
   xmlns:cc="http://creativecommons.org/ns#"
   xmlns:rdf="http://www.w3.org/1999/02/22-rdf-syntax-ns#"
   xmlns:svg="http://www.w3.org/2000/svg"
   xmlns="http://www.w3.org/2000/svg"
   xmlns:sodipodi="http://sodipodi.sourceforge.net/DTD/sodipodi-0.dtd"
   xmlns:inkscape="http://www.inkscape.org/namespaces/inkscape"
   id="svg3020"
   version="1.1"
   inkscape:version="0.48.4 r9939"
   width="774.03397"
   height="526.87855"
   xml:space="preserve"
   sodipodi:docname="New document 4"><metadata
     id="metadata3026"><rdf:RDF><cc:Work
         rdf:about=""><dc:format>image/svg+xml</dc:format><dc:type
           rdf:resource="http://purl.org/dc/dcmitype/StillImage" /><dc:title></dc:title></cc:Work></rdf:RDF></metadata><defs
     id="defs3024"><marker
       inkscape:stockid="Arrow1Lend"
       orient="auto"
       refY="0.0"
       refX="0.0"
       id="Arrow1Lend"
       style="overflow:visible;"><path
         id="path4279"
         d="M 0.0,0.0 L 5.0,-5.0 L -12.5,0.0 L 5.0,5.0 L 0.0,0.0 z "
         style="fill-rule:evenodd;stroke:#000000;stroke-width:1.0pt;"
         transform="scale(0.8) rotate(180) translate(12.5,0)" /></marker><marker
       inkscape:stockid="Arrow1Mend"
       orient="auto"
       refY="0.0"
       refX="0.0"
       id="Arrow1Mend"
       style="overflow:visible;"><path
         id="path4285"
         d="M 0.0,0.0 L 5.0,-5.0 L -12.5,0.0 L 5.0,5.0 L 0.0,0.0 z "
         style="fill-rule:evenodd;stroke:#000000;stroke-width:1.0pt;"
         transform="scale(0.4) rotate(180) translate(10,0)" /></marker><marker
       inkscape:stockid="Arrow1Lend"
       orient="auto"
       refY="0"
       refX="0"
       id="Arrow1Lend-5"
       style="overflow:visible"><path
         inkscape:connector-curvature="0"
         id="path4279-5"
         d="M 0,0 5,-5 -12.5,0 5,5 0,0 z"
         style="fill-rule:evenodd;stroke:#000000;stroke-width:1pt"
         transform="matrix(-0.8,0,0,-0.8,-10,0)" /></marker></defs><sodipodi:namedview
     pagecolor="#ffffff"
     bordercolor="#666666"
     borderopacity="1"
     objecttolerance="10"
     gridtolerance="10"
     guidetolerance="10"
     inkscape:pageopacity="0"
     inkscape:pageshadow="2"
     inkscape:window-width="1920"
     inkscape:window-height="1026"
     id="namedview3022"
     showgrid="false"
     showguides="true"
     inkscape:guide-bbox="true"
     inkscape:zoom="1.1400911"
     inkscape:cx="297.9002"
     inkscape:cy="295.1103"
     inkscape:window-x="0"
     inkscape:window-y="28"
     inkscape:window-maximized="1"
     inkscape:current-layer="g3028" /><g
     id="g3028"
     inkscape:groupmode="layer"
     inkscape:label="dropletgenerator_exploded"
     transform="matrix(1.25,0,0,-1.25,0,526.87855)"><g
       id="g3030"><g
         id="g3032"
         transform="matrix(1,0,0,-1,0,421.50284)"><path
           d="m 391.867,277.973 0,16.316"
           style="fill:none;stroke:#000000;stroke-opacity:1;stroke-width:2.4;stroke-linecap:butt;stroke-linejoin:miter;stroke-miterlimit:4;stroke-dasharray:none"
           id="path3034" /></g><g
         id="g3036"
         transform="matrix(1,0,0,-1,0,421.50284)"><path
           d="m 21.82,266.281 82.071,26.078 0,30.297 c 0,0 18.793,6.137 124.644,39.117 105.848,32.985 256.953,22.629 333.656,-35.664 l 55.036,-43.722 0,12.273 -54.457,42.762 c -68.653,56.762 -231.778,68.144 -334.813,36.433 l -148.191,-46.539 0,-24 -58.036,-18.437 0.09,-18.598 z"
           style="fill:none;stroke:#000000;stroke-opacity:1;stroke-width:0.8;stroke-linecap:butt;stroke-linejoin:miter;stroke-miterlimit:4;stroke-dasharray:none"
           id="path3038" /></g><g
         id="g3040"
         transform="matrix(1,0,0,-1,0,421.50284)"><path
           d="m 22.004,266.301 181.984,-143.84 46.789,15.914 m 0,37.969 -146.886,116.207"
           style="fill:none;stroke:#000000;stroke-opacity:1;stroke-width:0.8;stroke-linecap:butt;stroke-linejoin:miter;stroke-miterlimit:4;stroke-dasharray:none"
           id="path3042" /></g><g
         id="g3044"
         transform="matrix(1,0,0,-1,0,421.50284)"><path
           d="M 103.508,322.656 279.926,184.016"
           style="fill:none;stroke:#000000;stroke-opacity:1;stroke-width:0.8;stroke-linecap:butt;stroke-linejoin:miter;stroke-miterlimit:4;stroke-dasharray:none"
           id="path3046" /></g><g
         id="g3048"
         transform="matrix(1,0,0,-1,0,421.50284)"><path
           d="m 521.527,252.227 95.125,30.16"
           style="fill:none;stroke:#000000;stroke-opacity:1;stroke-width:0.8;stroke-linecap:butt;stroke-linejoin:miter;stroke-miterlimit:4;stroke-dasharray:none"
           id="path3050" /></g><g
         id="g3052"
         transform="matrix(1,0,0,-1,0,421.50284)"><path
           d="m 480.199,318.852 c 0,0 -18.847,-21.29 -21.254,-24.27 -2.133,-2.644 0.817,-5.152 3.254,-5.426 2.442,-0.269 7.778,-1.226 7.778,-1.226 l -7.778,-8.805 2.172,-20.613 -50.984,-110.645 -18.985,-22.234"
           style="fill:none;stroke:#000000;stroke-opacity:1;stroke-width:0.8;stroke-linecap:butt;stroke-linejoin:miter;stroke-miterlimit:4;stroke-dasharray:none"
           id="path3054" /></g><g
         id="g3056"
         transform="matrix(1,0,0,-1,0,421.50284)"><path
           d="m 470.336,288.168 0,5.598 c 0,0 -7.18,1.207 -8.492,1.527 -0.387,0.094 -1.239,1.152 -0.797,1.762"
           style="fill:none;stroke:#000000;stroke-opacity:1;stroke-width:0.8;stroke-linecap:butt;stroke-linejoin:miter;stroke-miterlimit:4;stroke-dasharray:none"
           id="path3058" /></g><g
         id="g3060"
         transform="matrix(1,0,0,-1,0,421.50284)"><path
           d="m 248.234,114.02 0,8.273 3.325,4.34"
           style="fill:none;stroke:#000000;stroke-opacity:1;stroke-width:0.8;stroke-linecap:butt;stroke-linejoin:miter;stroke-miterlimit:4;stroke-dasharray:none"
           id="path3062" /></g><g
         id="g3064"
         transform="matrix(1,0,0,-1,0,421.50284)"><path
           d="m 260.914,86.223 0,6.375 13.898,13.695"
           style="fill:none;stroke:#000000;stroke-opacity:1;stroke-width:0.8;stroke-linecap:butt;stroke-linejoin:miter;stroke-miterlimit:4;stroke-dasharray:none"
           id="path3066" /></g><g
         id="g3068"
         transform="matrix(1,0,0,-1,0,421.50284)"><path
           d="m 308.234,72.328 0,6.508 7.461,7.117"
           style="fill:none;stroke:#000000;stroke-opacity:1;stroke-width:0.8;stroke-linecap:butt;stroke-linejoin:miter;stroke-miterlimit:4;stroke-dasharray:none"
           id="path3070" /></g><g
         id="g3072"
         transform="matrix(1,0,0,-1,0,421.50284)"><path
           d="m 250.07,143.316 19.797,22.102"
           style="fill:none;stroke:#000000;stroke-opacity:1;stroke-width:0.8;stroke-linecap:butt;stroke-linejoin:miter;stroke-miterlimit:4;stroke-dasharray:none"
           id="path3074" /></g><g
         id="g3076"
         transform="matrix(1,0,0,-1,0,421.50284)"><path
           d="m 250.75,126.773 21.422,23.188"
           style="fill:none;stroke:#000000;stroke-opacity:1;stroke-width:0.8;stroke-linecap:butt;stroke-linejoin:miter;stroke-miterlimit:4;stroke-dasharray:none"
           id="path3078" /></g><g
         id="g3080"
         transform="matrix(1,0,0,-1,0,421.50284)"><path
           d="m 405.113,212.023 c 0,3.395 -5.855,6.153 -13.074,6.153 -7.223,0 -13.074,-2.758 -13.074,-6.153 0,-3.398 5.851,-6.152 13.074,-6.152 7.219,0 13.074,2.754 13.074,6.152 z"
           style="fill:none;stroke:#000000;stroke-opacity:1;stroke-width:0.8;stroke-linecap:butt;stroke-linejoin:miter;stroke-miterlimit:4;stroke-dasharray:none"
           id="path3082" /></g><g
         id="g3084"
         transform="matrix(1,0,0,-1,0,421.50284)"><path
           d="m 380.086,214.457 c 1.984,-2.207 6.633,-3.758 12.047,-3.758 5.316,0 9.89,1.492 11.937,3.637"
           style="fill:none;stroke:#000000;stroke-opacity:1;stroke-width:0.8;stroke-linecap:butt;stroke-linejoin:miter;stroke-miterlimit:4;stroke-dasharray:none"
           id="path3086" /></g><g
         id="g3088"
         transform="matrix(1,0,0,-1,0,421.50284)"><path
           d="m 421.406,34.469 c 0,7.445 -12.82,13.476 -28.633,13.476 -15.816,0 -28.636,-6.031 -28.636,-13.476 0,-7.442 12.82,-13.473 28.636,-13.473 15.813,0 28.633,6.031 28.633,13.473 z"
           style="fill:none;stroke:#000000;stroke-opacity:1;stroke-width:0.8;stroke-linecap:butt;stroke-linejoin:miter;stroke-miterlimit:4;stroke-dasharray:none"
           id="path3090" /></g><g
         id="g3092"
         transform="matrix(1,0,0,-1,0,421.50284)"><path
           d="m 414.129,34.469 c 0,5.551 -9.563,10.051 -21.356,10.051 -11.796,0 -21.355,-4.5 -21.355,-10.051 0,-5.547 9.559,-10.047 21.355,-10.047 11.793,0 21.356,4.5 21.356,10.047 z"
           style="fill:none;stroke:#000000;stroke-opacity:1;stroke-width:0.8;stroke-linecap:butt;stroke-linejoin:miter;stroke-miterlimit:4;stroke-dasharray:none"
           id="path3094" /></g><g
         id="g3096"
         transform="matrix(1,0,0,-1,0,421.50284)"><path
           d="m 401.992,34.469 c 0,2.398 -4.129,4.34 -9.219,4.34 -5.093,0 -9.222,-1.942 -9.222,-4.34 0,-2.395 4.129,-4.336 9.222,-4.336 5.09,0 9.219,1.941 9.219,4.336 z"
           style="fill:none;stroke:#000000;stroke-opacity:1;stroke-width:0.8;stroke-linecap:butt;stroke-linejoin:miter;stroke-miterlimit:4;stroke-dasharray:none"
           id="path3098" /></g><g
         id="g3100"
         transform="matrix(1,0,0,-1,0,421.50284)"><path
           d="m 364.137,35.605 0,9.711 c 0,7.446 12.82,13.477 28.636,13.477 15.813,0 28.633,-6.031 28.633,-13.477 l 0,-10.289"
           style="fill:none;stroke:#000000;stroke-opacity:1;stroke-width:0.8;stroke-linecap:butt;stroke-linejoin:miter;stroke-miterlimit:4;stroke-dasharray:none"
           id="path3102" /></g><g
         id="g3104"
         transform="matrix(1,0,0,-1,0,421.50284)"><path
           d="m 372.234,37.398 c 2.555,-4.207 10.782,-7.281 20.539,-7.281 9.715,0 17.915,3.051 20.504,7.231"
           style="fill:none;stroke:#000000;stroke-opacity:1;stroke-width:0.8;stroke-linecap:butt;stroke-linejoin:miter;stroke-miterlimit:4;stroke-dasharray:none"
           id="path3106" /></g><g
         id="g3108"
         transform="matrix(1,0,0,-1,0,421.50284)"><path
           d="m 383.582,34.645 0,5.707 c 0,1.664 2.281,3.277 5.203,4.007 m 8.5,-0.062 c 2.723,-0.758 4.735,-2.352 4.735,-3.945 l 0,-5.899"
           style="fill:none;stroke:#000000;stroke-opacity:1;stroke-width:0.8;stroke-linecap:butt;stroke-linejoin:miter;stroke-miterlimit:4;stroke-dasharray:none"
           id="path3110" /></g><g
         id="g3112"
         transform="matrix(1,0,0,-1,0,421.50284)"><path
           d="m 383.293,58.223 0,30.238 c 0,2.398 4.129,4.34 9.219,4.34 5.093,0 9.222,-1.942 9.222,-4.34 l 0,-30.336"
           style="fill:none;stroke:#000000;stroke-opacity:1;stroke-width:0.8;stroke-linecap:butt;stroke-linejoin:miter;stroke-miterlimit:4;stroke-dasharray:none"
           id="path3114" /></g><g
         id="g3116"
         transform="matrix(1,0,0,-1,0,421.50284)"><path
           d="m 217.715,160.34 c -0.11,-7.438 9.398,-9.778 15.23,-11.688 6.547,-2.144 17.258,-5.367 17.258,-5.367 l 0.766,-16.492 3.453,-1.918 c 0,0 -3.32,-4.957 -4.984,-7.094 -1.907,-2.445 -1.2,-6.57 1.101,-9.636 2.301,-3.071 8.102,-8.2 8.102,-8.2 0,0 3.195,3.645 5.175,5.465 2.797,2.574 7.934,2.985 11.153,0.899 1.836,-1.192 2.722,-3.754 0.133,-6.145 -2.043,-1.887 -14.161,-13.832 -14.161,-13.832 0,0 5.371,-4.602 12.274,-7.383 6.902,-2.781 16.969,-5.465 16.969,-5.465 L 301.5,84.223 c 2.68,2.679 7.645,4.613 13.34,2.379 2.293,-0.903 3.578,-4.399 1.191,-6.454 -1.976,-1.699 -7.82,-7.91 -7.82,-7.91 21.262,-6.39 48.383,-7.609 75.016,-5.222 m 18.652,2.269 c 17.848,2.742 34.766,7.004 48.707,12.285 9.004,3.41 13.836,7.883 17.09,8.426 3.254,0.543 10.304,2.172 10.304,2.172 l 1.629,16 c 0,0 15.571,2.625 22.778,3.793 12.597,2.051 23.832,5.184 22.269,16.648"
           style="fill:none;stroke:#000000;stroke-opacity:1;stroke-width:0.8;stroke-linecap:butt;stroke-linejoin:miter;stroke-miterlimit:4;stroke-dasharray:none"
           id="path3118" /></g><g
         id="g3120"
         transform="matrix(1,0,0,-1,0,421.50284)"><path
           d="M 460.848,120.832 477.82,92.355"
           style="fill:none;stroke:#000000;stroke-opacity:1;stroke-width:0.8;stroke-linecap:butt;stroke-linejoin:miter;stroke-miterlimit:4;stroke-dasharray:none"
           id="path3122" /></g><g
         id="g3124"
         transform="matrix(1,0,0,-1,0,421.50284)"><path
           d="M 479.738,108.078 462.672,135.5"
           style="fill:none;stroke:#000000;stroke-opacity:1;stroke-width:0.8;stroke-linecap:butt;stroke-linejoin:miter;stroke-miterlimit:4;stroke-dasharray:none"
           id="path3126" /></g><g
         id="g3128"
         transform="matrix(1,0,0,-1,0,421.50284)"><path
           d="m 426.504,290.98 c 0,1.344 -2.32,2.438 -5.18,2.438 -2.859,0 -5.179,-1.094 -5.179,-2.438 0,-1.347 2.32,-2.437 5.179,-2.437 2.86,0 5.18,1.09 5.18,2.437 z"
           style="fill:none;stroke:#000000;stroke-opacity:1;stroke-width:0.8;stroke-linecap:butt;stroke-linejoin:miter;stroke-miterlimit:4;stroke-dasharray:none"
           id="path3130" /></g><g
         id="g3132"
         transform="matrix(1,0,0,-1,0,421.50284)"><path
           d="m 462.57,284.199 c 0,1.348 -2.316,2.438 -5.175,2.438 -2.864,0 -5.18,-1.09 -5.18,-2.438 0,-1.347 2.316,-2.437 5.18,-2.437 2.859,0 5.175,1.09 5.175,2.437 z"
           style="fill:none;stroke:#000000;stroke-opacity:1;stroke-width:0.8;stroke-linecap:butt;stroke-linejoin:miter;stroke-miterlimit:4;stroke-dasharray:none"
           id="path3134" /></g><g
         id="g3136"
         transform="matrix(1,0,0,-1,0,421.50284)"><path
           d="m 473.828,314.98 c 0,1.344 -2.32,2.438 -5.18,2.438 -2.863,0 -5.179,-1.094 -5.179,-2.438 0,-1.347 2.316,-2.437 5.179,-2.437 2.86,0 5.18,1.09 5.18,2.437 z"
           style="fill:none;stroke:#000000;stroke-opacity:1;stroke-width:0.8;stroke-linecap:butt;stroke-linejoin:miter;stroke-miterlimit:4;stroke-dasharray:none"
           id="path3138" /></g><g
         id="g3140"
         transform="matrix(1,0,0,-1,0,421.50284)"><path
           d="m 356.859,247.293 c -3.074,0.168 -6.218,0.457 -9.41,0.883 -23.011,3.07 -35.418,25.762 -36.773,27.117 -2.094,2.094 -6.031,2.621 -10.016,2.414 -3.832,-0.199 -15.34,-0.383 -15.34,-0.383 l -32.027,8.977 c -5.898,1.578 -23.594,4.211 -31.734,-2.781 -3.567,-3.067 -3.379,-7.579 -3.379,-7.579 l 0.027,-5.566 c 0,0 -0.211,4.512 3.355,7.574 8.141,6.992 25.836,4.363 31.735,2.781 l 32.023,-8.976 c 0,0 11.512,0.184 15.344,0.383 3.984,0.211 7.922,-0.321 10.016,-2.41 1.355,-1.356 13.761,-24.051 36.769,-27.118 1.133,-0.152 2.262,-0.285 3.379,-0.402 m 107.977,3.906 c 11.093,2.008 22.191,4.004 33.285,6.004 9.265,1.668 22.023,0.856 27.773,-4.515 5.754,-5.368 5.067,-8.379 5.067,-8.379 -0.082,2.078 -0.071,7.351 -0.071,7.351 -1.328,3.715 -3.164,5.836 -5.91,7.508 -5.859,3.574 -17.594,5.273 -26.863,3.606 -9.828,-1.856 -20.754,-3.903 -30.594,-5.676"
           style="fill:none;stroke:#000000;stroke-opacity:1;stroke-width:0.8;stroke-linecap:butt;stroke-linejoin:miter;stroke-miterlimit:4;stroke-dasharray:none"
           id="path3142" /></g><g
         id="g3144"
         transform="matrix(1,0,0,-1,0,421.50284)"><path
           d="m 218.207,271.227 c 0,-5.235 9.543,-7.524 15.375,-9.434 6.543,-2.145 17.258,-5.371 17.258,-5.371 l 4.394,-2.934 c 0,0 -3.32,-4.957 -4.988,-7.093 -1.902,-2.446 -1.199,-6.571 1.106,-9.637 2.3,-3.07 8.101,-8.199 8.101,-8.199 0,0 3.192,3.644 5.176,5.464 2.797,2.575 7.933,2.985 11.152,0.899 1.832,-1.192 2.723,-3.754 0.133,-6.145 -2.043,-1.886 -14.16,-13.832 -14.16,-13.832 0,0 5.367,-4.601 12.269,-7.383 6.907,-2.781 16.973,-5.464 16.973,-5.464 l 11.313,10.738 c 2.679,2.68 7.644,4.613 13.339,2.379 0.504,-0.199 0.957,-0.52 1.336,-0.922 m 123.356,-7.895 c 3.851,1.192 7.551,2.457 11.058,3.786 9.004,3.41 11.821,6.543 16.227,9.191 l 11.285,2.766 c 0,0 15.86,3.297 23.067,4.468 12.597,2.047 23.976,6.043 22.89,14.536"
           style="fill:none;stroke:#000000;stroke-opacity:1;stroke-width:0.8;stroke-linecap:butt;stroke-linejoin:miter;stroke-miterlimit:4;stroke-dasharray:none"
           id="path3146" /></g><g
         id="g3148"
         transform="matrix(1,0,0,-1,0,421.50284)"><path
           d="m 509.73,240.672 c 0,2.047 -3.519,3.703 -7.863,3.703 -4.344,0 -7.863,-1.656 -7.863,-3.703 0,-2.043 3.519,-3.699 7.863,-3.699 4.344,0 7.863,1.656 7.863,3.699 z"
           style="fill:none;stroke:#000000;stroke-opacity:1;stroke-width:0.8;stroke-linecap:butt;stroke-linejoin:miter;stroke-miterlimit:4;stroke-dasharray:none"
           id="path3150" /></g><g
         id="g3152"
         transform="matrix(1,0,0,-1,0,421.50284)"><path
           d="m 495.383,242.715 c 1.41,-0.992 3.812,-1.649 6.543,-1.649 2.691,0 5.066,0.637 6.484,1.61"
           style="fill:none;stroke:#000000;stroke-opacity:1;stroke-width:0.8;stroke-linecap:butt;stroke-linejoin:miter;stroke-miterlimit:4;stroke-dasharray:none"
           id="path3154" /></g><g
         id="g3156"
         transform="matrix(1,0,0,-1,0,421.50284)"><path
           d="m 245.324,272.402 c 0,2.043 -3.519,3.7 -7.863,3.7 -4.344,0 -7.863,-1.657 -7.863,-3.7 0,-2.043 3.519,-3.699 7.863,-3.699 4.344,0 7.863,1.656 7.863,3.699 z"
           style="fill:none;stroke:#000000;stroke-opacity:1;stroke-width:0.8;stroke-linecap:butt;stroke-linejoin:miter;stroke-miterlimit:4;stroke-dasharray:none"
           id="path3158" /></g><g
         id="g3160"
         transform="matrix(1,0,0,-1,0,421.50284)"><path
           d="m 230.977,274.441 c 1.41,-0.992 3.812,-1.644 6.543,-1.644 2.691,0 5.066,0.637 6.484,1.605"
           style="fill:none;stroke:#000000;stroke-opacity:1;stroke-width:0.8;stroke-linecap:butt;stroke-linejoin:miter;stroke-miterlimit:4;stroke-dasharray:none"
           id="path3162" /></g><g
         id="g3164"
         transform="matrix(1,0,0,-1,0,421.50284)"><path
           d="m 509.867,126.91 c 0,2.043 -3.519,3.703 -7.863,3.703 -4.344,0 -7.863,-1.66 -7.863,-3.703 0,-2.043 3.519,-3.699 7.863,-3.699 4.344,0 7.863,1.656 7.863,3.699 z"
           style="fill:none;stroke:#000000;stroke-opacity:1;stroke-width:0.8;stroke-linecap:butt;stroke-linejoin:miter;stroke-miterlimit:4;stroke-dasharray:none"
           id="path3166" /></g><g
         id="g3168"
         transform="matrix(1,0,0,-1,0,421.50284)"><path
           d="m 495.52,128.953 c 1.41,-0.996 3.812,-1.648 6.539,-1.648 2.695,0 5.07,0.636 6.488,1.605"
           style="fill:none;stroke:#000000;stroke-opacity:1;stroke-width:0.8;stroke-linecap:butt;stroke-linejoin:miter;stroke-miterlimit:4;stroke-dasharray:none"
           id="path3170" /></g><g
         id="g3172"
         transform="matrix(1,0,0,-1,0,421.50284)"><path
           d="m 245.461,160.266 c 0,2.046 -3.523,3.703 -7.863,3.703 -4.344,0 -7.864,-1.657 -7.864,-3.703 0,-2.043 3.52,-3.7 7.864,-3.7 4.34,0 7.863,1.657 7.863,3.7 z"
           style="fill:none;stroke:#000000;stroke-opacity:1;stroke-width:0.8;stroke-linecap:butt;stroke-linejoin:miter;stroke-miterlimit:4;stroke-dasharray:none"
           id="path3174" /></g><g
         id="g3176"
         transform="matrix(1,0,0,-1,0,421.50284)"><path
           d="m 231.113,162.309 c 1.41,-0.993 3.813,-1.649 6.539,-1.649 2.692,0 5.071,0.637 6.489,1.61"
           style="fill:none;stroke:#000000;stroke-opacity:1;stroke-width:0.8;stroke-linecap:butt;stroke-linejoin:miter;stroke-miterlimit:4;stroke-dasharray:none"
           id="path3178" /></g><g
         id="g3180"
         transform="matrix(1,0,0,-1,0,421.50284)"><path
           d="m 509.867,274.977 c 0,2.043 -3.519,3.699 -7.863,3.699 -4.344,0 -7.863,-1.656 -7.863,-3.699 0,-2.047 3.519,-3.704 7.863,-3.704 4.344,0 7.863,1.657 7.863,3.704 z"
           style="fill:none;stroke:#000000;stroke-opacity:1;stroke-width:0.8;stroke-linecap:butt;stroke-linejoin:miter;stroke-miterlimit:4;stroke-dasharray:none"
           id="path3182" /></g><g
         id="g3184"
         transform="matrix(1,0,0,-1,0,421.50284)"><path
           d="m 245.461,306.703 c 0,2.043 -3.523,3.699 -7.863,3.699 -4.344,0 -7.868,-1.656 -7.868,-3.699 0,-2.043 3.524,-3.699 7.868,-3.699 4.34,0 7.863,1.656 7.863,3.699 z"
           style="fill:none;stroke:#000000;stroke-opacity:1;stroke-width:0.8;stroke-linecap:butt;stroke-linejoin:miter;stroke-miterlimit:4;stroke-dasharray:none"
           id="path3186" /></g><g
         id="g3188"
         transform="matrix(1,0,0,-1,0,421.50284)"><path
           d="m 404.977,289.594 c 0,3.398 -5.856,6.152 -13.075,6.152 -7.222,0 -13.074,-2.754 -13.074,-6.152 0,-3.399 5.852,-6.153 13.074,-6.153 3.7,0 7.043,0.723 9.422,1.887"
           style="fill:none;stroke:#000000;stroke-opacity:1;stroke-width:0.8;stroke-linecap:butt;stroke-linejoin:miter;stroke-miterlimit:4;stroke-dasharray:none"
           id="path3190" /></g><g
         id="g3192"
         transform="matrix(1,0,0,-1,0,421.50284)"><path
           d="m 409.371,294.969 c -3.863,2.582 -10.25,4.269 -17.469,4.269 -11.797,0 -21.355,-4.5 -21.355,-10.05 0,-5.551 9.558,-10.051 21.355,-10.051 1.325,0 2.84,0.011 4.098,0.117"
           style="fill:none;stroke:#000000;stroke-opacity:1;stroke-width:0.8;stroke-linecap:butt;stroke-linejoin:miter;stroke-miterlimit:4;stroke-dasharray:none"
           id="path3194" /></g><g
         id="g3196"
         transform="matrix(1,0,0,-1,0,421.50284)"><path
           d="m 370.547,289.148 0,6.438 c 0,5.551 9.558,10.051 21.355,10.051 9.93,0 18.16,-3.727 20.043,-6.801"
           style="fill:none;stroke:#000000;stroke-opacity:1;stroke-width:0.8;stroke-linecap:butt;stroke-linejoin:miter;stroke-miterlimit:4;stroke-dasharray:none"
           id="path3198" /></g><g
         id="g3200"
         transform="matrix(1,0,0,-1,0,421.50284)"><path
           d="m 380.293,292.27 c 2.223,-1.907 6.797,-3.403 11.742,-3.403 4.82,0 9.332,1.36 11.602,3.188"
           style="fill:none;stroke:#000000;stroke-opacity:1;stroke-width:0.8;stroke-linecap:butt;stroke-linejoin:miter;stroke-miterlimit:4;stroke-dasharray:none"
           id="path3202" /></g><g
         id="g3204"
         transform="matrix(1,0,0,-1,0,421.50284)"><path
           d="m 265.863,172.41 130.305,106.985 13.828,16 5.152,9.761 c 0,0 11.122,-2.441 16.274,-3.254 5.152,-0.812 10.031,-0.269 11.93,2.168 1.898,2.442 21.152,23.868 21.152,23.868 l 15.766,-3.122 m -0.172,0.411 0,-6.239 -15.457,2.981 c 0,0 -19.254,-21.422 -21.153,-23.864 -1.898,-2.441 -6.777,-2.98 -11.933,-2.167 -5.153,0.812 -16.27,3.253 -16.27,3.253 l -5.152,-9.761 -13.832,-16 -125.285,-102.512 -5.473,-1.668 0.32,3.16"
           style="fill:none;stroke:#000000;stroke-opacity:1;stroke-width:0.8;stroke-linecap:butt;stroke-linejoin:miter;stroke-miterlimit:4;stroke-dasharray:none"
           id="path3206" /></g><g
         id="g3208"
         transform="matrix(1,0,0,-1,0,421.50284)"><path
           d="m 524.648,134.09 c 0,0 0.375,2.715 -5.378,8.086 -5.754,5.367 -18.508,6.183 -27.774,4.512 l -36.684,-6.821 -0.124,-14.121 c 0,0 -6.391,-1.797 -11.379,-2.566 -4.985,-0.766 -11.696,2.492 -15.149,4.41 -3.449,1.918 -14.285,4.601 -26.269,0.098 -11.411,-4.29 -31.832,-8.344 -54.844,-5.274 -23.012,3.066 -35.418,25.762 -36.774,27.117 -2.093,2.094 -6.027,2.621 -10.015,2.414 -3.828,-0.199 -15.34,-0.383 -15.34,-0.383 l -7.57,2.547 -0.27,15.114 -24.183,6.5 c -5.899,1.582 -23.598,4.211 -31.735,-2.782 -3.57,-3.062 -3.379,-7.578 -3.379,-7.578 l 0.024,-5.566 c 0,0 -0.211,4.512 3.355,7.574 8.141,6.992 25.84,4.363 31.738,2.781 l 17.067,-4.601 2.301,-15.723 12.656,-3.836 c 0,0 11.512,0.184 15.34,0.383 3.988,0.207 7.922,-0.32 10.015,-2.414 1.356,-1.356 13.762,-24.047 36.774,-27.117 23.011,-3.067 43.433,0.984 54.844,5.273 11.984,4.508 22.82,1.821 26.269,-0.094 3.453,-1.918 10.164,-5.179 15.148,-4.414 4.989,0.77 17.547,2.973 17.547,2.973 l 1.821,15.344 28.82,5.191 c 9.266,1.672 22.02,0.856 27.773,-4.512 5.754,-5.371 5.446,-8.765 5.446,-8.765 -0.078,2.082 -0.071,6.25 -0.071,6.25 z"
           style="fill:#ffffff;fill-opacity:1;fill-rule:nonzero;stroke:#000000;stroke-opacity:1;stroke-width:0.8;stroke-linecap:butt;stroke-linejoin:miter;stroke-miterlimit:4;stroke-dasharray:none"
           id="path3210" /></g><g
         id="g3212"
         transform="matrix(1,0,0,-1,0,421.50284)"><path
           d="m 404.984,338.04668 c 0,3.395 -5.851,6.152 -13.074,6.152 -7.219,0 -13.07,-2.757 -13.07,-6.152 0,-3.398 5.851,-6.152 13.07,-6.152 7.223,0 13.074,2.754 13.074,6.152 z"
           style="fill:none;stroke:#000000;stroke-width:0.80000001;stroke-linecap:butt;stroke-linejoin:miter;stroke-miterlimit:4;stroke-opacity:1;stroke-dasharray:none"
           id="path3214"
           inkscape:connector-curvature="0" /></g><g
         id="g3216"
         transform="matrix(1,0,0,-1,0,421.50284)"><path
           d="m 396.273,279.367 0,-6.039"
           style="fill:none;stroke:#000000;stroke-opacity:1;stroke-width:0.8;stroke-linecap:butt;stroke-linejoin:miter;stroke-miterlimit:4;stroke-dasharray:none"
           id="path3218" /></g><g
         id="g3220"
         transform="matrix(1,0,0,-1,0,421.50284)"><path
           d="m 410.082,295.57 0,-6.375"
           style="fill:none;stroke:#000000;stroke-opacity:1;stroke-width:0.8;stroke-linecap:butt;stroke-linejoin:miter;stroke-miterlimit:4;stroke-dasharray:none"
           id="path3222" /></g><g
         id="g3224"
         transform="matrix(1,0,0,-1,0,421.50284)"><path
           d="m 415.223,305.113 0,-5.898"
           style="fill:none;stroke:#000000;stroke-opacity:1;stroke-width:0.8;stroke-linecap:butt;stroke-linejoin:miter;stroke-miterlimit:4;stroke-dasharray:none"
           id="path3226" /></g><g
         id="g3228"
         transform="matrix(1,0,0,-1,0,421.50284)"><path
           d="m 464.539,327.832 0,-5.894"
           style="fill:none;stroke:#000000;stroke-opacity:1;stroke-width:0.8;stroke-linecap:butt;stroke-linejoin:miter;stroke-miterlimit:4;stroke-dasharray:none"
           id="path3230" /></g><g
         id="g3232"
         transform="matrix(1,0,0,-1,0,421.50284)"><path
           d="m 391.969,94.938 0,121.148"
           style="fill:none;stroke:#000000;stroke-opacity:1;stroke-width:2.4;stroke-linecap:butt;stroke-linejoin:miter;stroke-miterlimit:4;stroke-dasharray:none"
           id="path3234" /></g><g
         id="g3236"
         transform="matrix(1,0,0,-1.1613047,0,470.88078)"><path
           d="m 391.969,307.316 0,28.051"
           style="fill:none;stroke:#000000;stroke-width:2.22709203;stroke-linecap:butt;stroke-linejoin:miter;stroke-miterlimit:4;stroke-opacity:1;stroke-dasharray:none"
           id="path3238"
           inkscape:connector-curvature="0" /></g><g
         id="g3240"
         transform="matrix(1,0,0,-1,0,421.50284)"><path
           d="m 392.297,391.52 0,27.183"
           style="fill:none;stroke:#000000;stroke-opacity:1;stroke-width:2.4;stroke-linecap:butt;stroke-linejoin:miter;stroke-miterlimit:4;stroke-dasharray:none"
           id="path3242" /></g><g
         id="g3244"
         transform="matrix(1,0.135302,0.35237,-0.325414,0,421.50284)"><path
           d="m 162.808,489.044 c -0.732,-0.593 -1.756,-0.946 -2.91,-0.898 l -4.033,0.172 c -1.15,0.038 -2.21,0.485 -2.979,1.138 -0.383,0.321 -0.706,0.727 -0.929,1.15 -0.223,0.423 -0.347,0.828 -0.362,1.314 l -0.103,3.487 c -0.033,0.958 0.399,1.87 1.132,2.463 0.729,0.603 1.778,0.883 2.929,0.834 l 4.011,-0.097 c 1.146,-0.04 2.206,-0.487 2.975,-1.14 0.387,-0.331 0.709,-0.726 0.929,-1.15 0.224,-0.424 0.373,-0.902 0.387,-1.376 l 0.107,-3.497 c 0.026,-0.949 -0.425,-1.797 -1.154,-2.4 z"
           style="fill:none;stroke:#000000;stroke-opacity:1;stroke-width:1.309734;stroke-linecap:butt;stroke-linejoin:miter;stroke-miterlimit:4;stroke-dasharray:none"
           id="path3246" /></g><g
         id="g3248"
         transform="matrix(1,0.135302,0.35237,-0.325414,0,421.50284)"><path
           d="m 162.808,489.044 c 0.729,0.603 1.18,1.451 1.154,2.4 l -0.107,3.497 c -0.014,0.474 -0.163,0.952 -0.387,1.376 -0.22,0.424 -0.542,0.819 -0.929,1.15 -0.769,0.653 -1.829,1.1 -2.975,1.14 l -4.011,0.097 c -1.151,0.049 -2.2,-0.231 -2.929,-0.834 -0.733,-0.593 -1.165,-1.505 -1.132,-2.463 l 0.103,-3.487 c 0.015,-0.486 0.139,-0.891 0.362,-1.314 0.223,-0.423 0.546,-0.829 0.929,-1.15 0.769,-0.653 1.829,-1.1 2.979,-1.138 l 4.033,-0.172 c 1.154,-0.048 2.178,0.305 2.91,0.898 z"
           style="fill:none;stroke:#000000;stroke-opacity:1;stroke-width:1.309734;stroke-linecap:butt;stroke-linejoin:miter;stroke-miterlimit:4;stroke-dasharray:none"
           id="path3250" /></g><g
         id="g3252"
         transform="matrix(1,0.135302,0.35237,-0.325414,0,421.50284)"><path
           d="m 145.926,488.711 c -0.189,0.557 -0.44,1.125 -0.461,1.729 l -0.211,6.983 c -0.029,0.959 0.183,1.888 0.576,2.7 0.394,0.812 0.98,1.499 1.712,2.092 0.733,0.593 1.602,1.074 2.586,1.387 0.987,0.303 2.081,0.457 3.227,0.418 l 8.09,-0.322 c 1.151,-0.05 2.25,-0.265 3.253,-0.652 1.004,-0.387 1.911,-0.922 2.68,-1.574 0.769,-0.653 1.414,-1.453 1.861,-2.3 0.444,-0.848 0.695,-1.739 0.721,-2.689 l 0.211,-6.983 c 0.029,-0.96 -0.179,-1.887 -0.573,-2.698 -0.393,-0.812 -0.979,-1.5 -1.712,-2.093 -0.729,-0.603 -1.605,-1.075 -2.588,-1.388 -0.981,-0.312 -2.074,-0.466 -3.228,-0.418 l -8.087,0.323 c -1.154,0.048 -2.246,0.255 -3.256,0.651 -0.813,0.31 -1.498,0.757 -2.163,1.249 -0.913,1.205 -1.77,2.385 -2.638,3.585 z"
           style="fill:none;stroke:#000000;stroke-opacity:1;stroke-width:1.309734;stroke-linecap:butt;stroke-linejoin:miter;stroke-miterlimit:4;stroke-dasharray:none"
           id="path3254" /></g><g
         id="g3256"
         transform="matrix(1,0.135302,0.35237,-0.325414,0,421.50284)"><path
           d="m 139.042,498.525 -0.022,0.915 c -0.044,1.434 0.282,2.758 0.872,3.976 0.591,1.218 1.473,2.317 2.567,3.215 1.1,0.89 2.394,1.608 3.873,2.067 1.475,0.469 3.126,0.628 4.852,0.565 l 12.121,-0.422 c 1.725,-0.063 3.383,-0.454 4.893,-1.038 1.504,-0.576 2.864,-1.343 4.015,-2.316 1.156,-0.984 2.081,-2.136 2.748,-3.396 0.331,-0.63 0.608,-1.295 0.793,-1.974 0.185,-0.68 0.294,-1.379 0.318,-2.101 l 0.336,-10.532 c 0.041,-1.435 -0.285,-2.759 -0.875,-3.977 -0.591,-1.218 -1.469,-2.327 -2.566,-3.216 -1.097,-0.9 -2.395,-1.607 -3.87,-2.077 -1.476,-0.457 -3.104,-0.69 -4.83,-0.615 l -9.984,0.374 c -1.983,2.404 -3.875,4.703 -5.719,7.153 0.665,-0.492 1.35,-0.939 2.163,-1.249 1.01,-0.396 2.102,-0.603 3.256,-0.651 l 8.087,-0.323 c 1.154,-0.048 2.247,0.106 3.228,0.418 0.983,0.313 1.859,0.785 2.588,1.388 0.733,0.593 1.319,1.281 1.712,2.093 0.394,0.811 0.602,1.738 0.573,2.698 l -0.211,6.983 c -0.026,0.95 -0.277,1.841 -0.721,2.689 -0.447,0.847 -1.092,1.647 -1.861,2.3 -0.769,0.652 -1.676,1.187 -2.68,1.574 -1.003,0.387 -2.102,0.602 -3.253,0.652 l -8.09,0.322 c -1.146,0.039 -2.24,-0.115 -3.227,-0.418 -0.984,-0.313 -1.853,-0.794 -2.586,-1.387 -0.732,-0.593 -1.318,-1.28 -1.712,-2.092 -0.397,-0.814 -0.605,-1.741 -0.576,-2.7 l 0.211,-6.983 c 0.021,-0.604 0.272,-1.172 0.461,-1.729 -2.529,3.486 -4.819,6.723 -6.884,9.814 z"
           style="fill:none;stroke:#000000;stroke-opacity:1;stroke-width:1.309734;stroke-linecap:butt;stroke-linejoin:miter;stroke-miterlimit:4;stroke-dasharray:none"
           id="path3258" /></g><g
         id="g3260"
         transform="matrix(1,0.135302,0.35237,-0.325414,0,421.50284)"><path
           d="m 133.854,506.439 c 0.043,0.09 0.058,0.18 0.104,0.271 0.787,1.624 1.961,3.072 3.426,4.258 1.461,1.195 3.204,2.148 5.171,2.774 1.97,0.615 4.155,0.923 6.455,0.835 l 16.177,-0.644 c 2.3,-0.088 4.475,-0.528 6.485,-1.301 2.007,-0.774 3.822,-1.844 5.36,-3.149 0.769,-0.653 1.477,-1.367 2.098,-2.129 0.616,-0.752 1.155,-1.56 1.598,-2.408 0.443,-0.836 0.805,-1.718 1.054,-2.635 0.248,-0.905 0.392,-1.866 0.418,-2.816 l 0.421,-13.965 c 0.029,-0.96 -0.072,-1.903 -0.264,-2.799 -0.192,-0.896 -0.467,-1.778 -0.861,-2.59 -0.794,-1.615 -1.986,-2.999 -3.448,-4.195 -1.465,-1.185 -3.207,-2.15 -5.178,-2.765 -1.963,-0.624 -4.151,-0.934 -6.451,-0.846 l -7.645,0.279 c -1.552,1.731 -2.999,3.554 -4.491,5.359 l 9.984,-0.374 c 1.726,-0.075 3.354,0.158 4.83,0.615 1.475,0.47 2.773,1.177 3.87,2.077 1.097,0.889 1.975,1.998 2.566,3.216 0.59,1.218 0.916,2.542 0.875,3.977 l -0.336,10.532 c -0.024,0.722 -0.133,1.421 -0.318,2.101 -0.185,0.679 -0.462,1.344 -0.793,1.974 -0.667,1.26 -1.592,2.412 -2.748,3.396 -1.151,0.973 -2.511,1.74 -4.015,2.316 -1.51,0.584 -3.168,0.975 -4.893,1.038 l -12.121,0.422 c -1.726,0.063 -3.377,-0.096 -4.852,-0.565 -1.479,-0.459 -2.773,-1.177 -3.873,-2.067 -1.094,-0.898 -1.976,-1.997 -2.567,-3.215 -0.59,-1.218 -0.916,-2.542 -0.872,-3.976 l 0.022,-0.915 c -2.408,3.596 -3.615,5.423 -5.188,7.914 z"
           style="fill:none;stroke:#000000;stroke-opacity:1;stroke-width:1.309734;stroke-linecap:butt;stroke-linejoin:miter;stroke-miterlimit:4;stroke-dasharray:none"
           id="path3262" /></g><g
         id="g3264"
         transform="matrix(1,0.135302,0.35237,-0.325414,0,421.50284)"><path
           d="m 129.943,512.495 c 0.761,0.977 1.341,2.07 2.333,2.891 1.83,1.481 4.021,2.68 6.479,3.462 2.459,0.771 5.186,1.148 8.058,1.046 l 20.213,-0.815 c 2.875,-0.113 5.632,-0.719 8.143,-1.692 2.514,-0.971 4.777,-2.263 6.702,-3.9 0.958,-0.813 1.844,-1.73 2.613,-2.67 0.776,-0.95 1.457,-1.951 2.012,-3.005 0.555,-1.054 0.98,-2.173 1.289,-3.305 0.31,-1.144 0.488,-2.282 0.52,-3.47 l 0.55,-17.525 c 0.039,-1.196 -0.096,-2.32 -0.335,-3.44 -0.241,-1.121 -0.598,-2.205 -1.093,-3.215 -0.984,-2.03 -2.449,-3.827 -4.275,-5.319 -1.829,-1.493 -4.023,-2.681 -6.482,-3.463 -2.459,-0.771 -5.179,-1.157 -8.054,-1.044 l -4.478,0.214 c -1.807,1.77 -3.605,3.411 -5.368,5.379 l 7.645,-0.278 c 2.304,-0.099 4.492,0.211 6.455,0.835 1.971,0.615 3.713,1.58 5.178,2.765 1.462,1.196 2.654,2.58 3.445,4.205 0.397,0.802 0.672,1.684 0.864,2.58 0.192,0.896 0.293,1.839 0.264,2.799 l -0.421,13.965 c -0.026,0.95 -0.17,1.911 -0.418,2.816 -0.249,0.917 -0.611,1.799 -1.054,2.635 -0.443,0.848 -0.982,1.656 -1.598,2.408 -0.621,0.762 -1.329,1.476 -2.098,2.129 -1.538,1.305 -3.353,2.375 -5.36,3.149 -2.01,0.773 -4.185,1.213 -6.485,1.301 l -16.177,0.644 c -2.3,0.088 -4.485,-0.22 -6.455,-0.835 -1.967,-0.626 -3.71,-1.579 -5.175,-2.764 -1.461,-1.196 -2.635,-2.644 -3.422,-4.268 -0.046,-0.091 -0.061,-0.181 -0.104,-0.271 -1.587,2.497 -3.398,5.321 -3.911,6.056 z"
           style="fill:none;stroke:#000000;stroke-opacity:1;stroke-width:1.309734;stroke-linecap:butt;stroke-linejoin:miter;stroke-miterlimit:4;stroke-dasharray:none"
           id="path3266" /></g><g
         id="g3268"
         transform="matrix(1,0.135302,0.35237,-0.325414,0,421.50284)"><path
           d="m 124.844,516.822 c 0.81,0.972 1.365,2.091 2.374,2.907 2.194,1.789 4.813,3.226 7.764,4.152 2.95,0.927 6.208,1.382 9.659,1.256 l 24.244,-0.915 c 3.451,-0.126 6.767,-0.836 9.781,-1.996 1.508,-0.585 2.928,-1.267 4.275,-2.064 1.35,-0.795 2.613,-1.686 3.765,-2.66 1.155,-0.984 2.211,-2.093 3.139,-3.232 0.925,-1.14 1.728,-2.343 2.398,-3.612 0.663,-1.261 1.193,-2.589 1.567,-3.959 0.369,-1.358 0.585,-2.757 0.629,-4.191 l 0.628,-20.938 c 0.045,-1.446 -0.073,-2.887 -0.361,-4.231 -0.291,-1.334 -0.751,-2.569 -1.345,-3.777 -1.181,-2.435 -2.934,-4.653 -5.128,-6.442 -2.194,-1.788 -4.835,-3.15 -7.79,-4.079 -2.947,-0.937 -6.208,-1.381 -9.655,-1.253 l -0.706,0.018 c -2,1.606 -3.961,3.503 -5.944,5.439 l 4.478,-0.214 c 2.875,-0.113 5.595,0.273 8.054,1.044 2.459,0.782 4.653,1.97 6.482,3.463 1.826,1.492 3.291,3.289 4.275,5.319 0.495,1.01 0.852,2.094 1.093,3.215 0.239,1.12 0.374,2.244 0.335,3.44 l -0.55,17.525 c -0.032,1.188 -0.21,2.326 -0.52,3.47 -0.309,1.132 -0.734,2.251 -1.289,3.305 -0.555,1.054 -1.236,2.055 -2.012,3.005 -0.769,0.94 -1.655,1.857 -2.613,2.67 -1.925,1.637 -4.188,2.929 -6.702,3.9 -2.511,0.973 -5.268,1.579 -8.143,1.692 l -20.213,0.815 c -2.872,0.102 -5.599,-0.275 -8.058,-1.046 -2.458,-0.782 -4.649,-1.981 -6.479,-3.462 -0.992,-0.821 -1.572,-1.914 -2.333,-2.891 -0.064,0.094 -0.454,0.724 -0.5,0.789 -1.526,1.946 -3.078,2.969 -4.599,3.538 z"
           style="fill:none;stroke:#000000;stroke-opacity:1;stroke-width:1.309734;stroke-linecap:butt;stroke-linejoin:miter;stroke-miterlimit:4;stroke-dasharray:none"
           id="path3270" /></g><g
         id="g3272"
         transform="matrix(1,0.135302,0.35237,-0.325414,0,421.50284)"><path
           d="m 115.384,514.581 c 0.252,0.704 0.412,1.479 0.74,2.156 0.693,1.416 1.546,2.731 2.548,3.976 1.006,1.247 2.163,2.388 3.446,3.426 2.558,2.084 5.625,3.755 9.064,4.849 3.443,1.083 7.26,1.614 11.286,1.463 l 28.299,-1.138 c 4.029,-0.161 7.878,-0.973 11.396,-2.332 1.757,-0.674 3.42,-1.459 4.99,-2.378 1.574,-0.93 3.045,-2.023 4.39,-3.169 1.349,-1.144 2.579,-2.385 3.656,-3.701 1.081,-1.327 2.033,-2.744 2.808,-4.211 0.778,-1.477 1.371,-2.959 1.804,-4.555 0.437,-1.595 0.683,-3.245 0.733,-4.917 l 0.757,-24.498 c 0.054,-1.682 -0.097,-3.305 -0.431,-4.873 -0.342,-1.558 -0.877,-3.077 -1.569,-4.493 -0.689,-1.415 -1.542,-2.73 -2.548,-3.977 -1.003,-1.245 -2.159,-2.386 -3.442,-3.423 -2.562,-2.086 -5.622,-3.766 -9.068,-4.851 -2.165,-0.684 -4.669,-0.741 -7.086,-0.954 -2.332,1.264 -4.707,2.917 -7.075,4.825 l 0.706,-0.018 c 3.447,-0.128 6.708,0.316 9.655,1.253 2.955,0.929 5.596,2.291 7.79,4.079 2.194,1.789 3.947,4.007 5.128,6.442 0.594,1.208 1.054,2.443 1.345,3.777 0.288,1.344 0.406,2.785 0.361,4.231 l -0.628,20.938 c -0.044,1.434 -0.26,2.833 -0.629,4.191 -0.374,1.37 -0.904,2.698 -1.567,3.959 -0.67,1.269 -1.473,2.472 -2.398,3.612 -0.928,1.139 -1.984,2.248 -3.139,3.232 -1.152,0.974 -2.415,1.865 -3.765,2.66 -1.347,0.797 -2.767,1.479 -4.275,2.064 -3.014,1.16 -6.33,1.87 -9.781,1.996 l -24.244,0.915 c -3.451,0.126 -6.709,-0.329 -9.659,-1.256 -2.951,-0.926 -5.57,-2.363 -7.764,-4.152 -1.009,-0.816 -1.564,-1.935 -2.374,-2.907 -2.27,0.856 -4.471,0.517 -6.438,-0.673 -0.736,-0.45 -1.768,-0.915 -3.022,-1.568 z"
           style="fill:none;stroke:#000000;stroke-opacity:1;stroke-width:1.309734;stroke-linecap:butt;stroke-linejoin:miter;stroke-miterlimit:4;stroke-dasharray:none"
           id="path3274" /></g><g
         id="g3276"
         transform="matrix(1,0.135302,0.35237,-0.325414,0,421.50284)"><path
           d="m 108.055,510.837 c 0.046,1.376 0.082,2.771 0.361,4.075 0.387,1.782 0.983,3.494 1.774,5.12 0.791,1.613 1.762,3.157 2.909,4.582 1.146,1.425 2.449,2.747 3.915,3.933 2.926,2.381 6.461,4.234 10.395,5.474 1.967,0.626 4.041,1.068 6.199,1.353 2.154,0.284 4.387,0.408 6.688,0.32 l 32.33,-1.226 c 2.305,-0.098 4.537,-0.371 6.715,-0.821 2.179,-0.451 4.289,-1.062 6.296,-1.836 2.014,-0.783 3.932,-1.714 5.726,-2.769 1.8,-1.064 3.481,-2.298 5.019,-3.603 1.538,-1.305 2.916,-2.677 4.153,-4.191 1.237,-1.515 2.307,-3.122 3.197,-4.817 0.886,-1.684 1.61,-3.448 2.107,-5.27 0.494,-1.811 0.777,-3.723 0.839,-5.641 l 0.839,-27.921 c 0.059,-1.92 -0.12,-3.807 -0.508,-5.588 -0.387,-1.782 -0.983,-3.494 -1.77,-5.118 -0.788,-1.624 -1.762,-3.17 -2.913,-4.584 -1.146,-1.425 -2.446,-2.746 -3.911,-3.931 -2.184,-1.785 -4.996,-2.918 -7.765,-4.081 -1.181,-0.107 -2.283,-0.373 -3.515,-0.381 -3.178,-0.025 -6.549,1.214 -9.978,3.065 2.417,0.213 4.921,0.27 7.086,0.954 3.446,1.085 6.506,2.765 9.068,4.851 1.283,1.037 2.439,2.178 3.442,3.423 1.006,1.247 1.859,2.562 2.548,3.977 0.692,1.416 1.227,2.935 1.569,4.493 0.334,1.568 0.485,3.191 0.431,4.873 l -0.757,24.498 c -0.05,1.672 -0.296,3.322 -0.733,4.917 -0.433,1.596 -1.026,3.078 -1.804,4.555 -0.775,1.467 -1.727,2.884 -2.808,4.211 -1.077,1.316 -2.307,2.557 -3.656,3.701 -1.345,1.146 -2.816,2.239 -4.39,3.169 -1.57,0.919 -3.233,1.704 -4.99,2.378 -3.518,1.359 -7.367,2.171 -11.396,2.332 l -28.299,1.138 c -4.026,0.151 -7.843,-0.38 -11.286,-1.463 -3.439,-1.094 -6.506,-2.765 -9.064,-4.849 -1.283,-1.038 -2.44,-2.179 -3.446,-3.426 -1.002,-1.245 -1.855,-2.56 -2.548,-3.976 -0.328,-0.677 -0.488,-1.452 -0.74,-2.156 -3.035,-1.586 -5.469,-2.838 -7.329,-3.744 z"
           style="fill:none;stroke:#000000;stroke-opacity:1;stroke-width:1.309734;stroke-linecap:butt;stroke-linejoin:miter;stroke-miterlimit:4;stroke-dasharray:none"
           id="path3278" /></g><g
         id="g3280"
         transform="matrix(1,0.135302,0.35237,-0.325414,0,421.50284)"><path
           d="m 101.681,511.188 -0.007,0.153 c -0.061,2.147 0.144,4.225 0.581,6.232 0.435,2.005 1.112,3.919 1.997,5.752 0.889,1.822 1.979,3.595 3.269,5.2 1.294,1.594 2.787,3.032 4.431,4.375 1.651,1.335 3.445,2.585 5.399,3.625 1.953,1.041 4.046,1.899 6.258,2.603 2.217,0.693 4.541,1.191 6.966,1.515 2.425,0.313 4.937,0.457 7.524,0.356 l 36.367,-1.397 c 2.589,-0.1 5.126,-0.413 7.574,-0.92 2.451,-0.505 4.836,-1.242 7.097,-2.115 2.26,-0.873 4.418,-1.896 6.438,-3.085 2.021,-1.2 3.915,-2.562 5.642,-4.028 1.735,-1.475 3.283,-3.041 4.672,-4.744 1.393,-1.713 2.612,-3.523 3.607,-5.414 1.002,-1.901 1.785,-3.892 2.343,-5.94 0.558,-2.049 0.879,-4.136 0.944,-6.294 l 0.968,-31.48 c 0.065,-2.158 -0.144,-4.225 -0.578,-6.23 -0.434,-2.017 -1.111,-3.932 -2,-5.754 -0.482,-0.992 -1.18,-1.883 -1.781,-2.817 -5.301,-3.536 -11.587,-5.826 -18.742,-6.484 2.769,1.163 5.581,2.296 7.765,4.081 1.465,1.185 2.765,2.506 3.911,3.931 1.151,1.414 2.125,2.96 2.913,4.584 0.787,1.624 1.383,3.336 1.77,5.118 0.388,1.781 0.567,3.668 0.508,5.588 l -0.839,27.921 c -0.062,1.918 -0.345,3.83 -0.839,5.641 -0.497,1.822 -1.221,3.586 -2.107,5.27 -0.89,1.695 -1.96,3.302 -3.197,4.817 -1.237,1.514 -2.615,2.886 -4.153,4.191 -1.538,1.305 -3.222,2.537 -5.019,3.603 -1.794,1.055 -3.712,1.986 -5.726,2.769 -2.007,0.774 -4.121,1.384 -6.296,1.836 -2.178,0.45 -4.41,0.723 -6.715,0.821 l -32.33,1.226 c -2.301,0.088 -4.534,-0.036 -6.688,-0.32 -2.158,-0.285 -4.232,-0.727 -6.199,-1.353 -3.934,-1.24 -7.469,-3.093 -10.395,-5.474 -1.466,-1.186 -2.769,-2.508 -3.915,-3.933 -1.147,-1.425 -2.118,-2.969 -2.909,-4.582 -0.791,-1.626 -1.387,-3.338 -1.774,-5.12 -0.279,-1.304 -0.315,-2.699 -0.361,-4.075 -0.674,-0.316 -2.635,-1.324 -2.635,-1.324 l -3.739,1.675 z"
           style="fill:none;stroke:#000000;stroke-opacity:1;stroke-width:1.309734;stroke-linecap:butt;stroke-linejoin:miter;stroke-miterlimit:4;stroke-dasharray:none"
           id="path3282" /></g><g
         id="g3284"
         transform="matrix(1,0.135302,0.35237,-0.325414,0,421.50284)"><path
           d="m 95.672,515.604 c 0.083,1.559 0.098,3.137 0.42,4.628 0.484,2.23 1.22,4.42 2.204,6.45 0.984,2.03 2.22,3.888 3.65,5.671 1.437,1.774 3.076,3.464 4.906,4.957 1.829,1.481 3.859,2.805 6.027,3.958 2.171,1.155 4.494,2.121 6.957,2.893 2.455,0.781 5.038,1.398 7.731,1.762 2.692,0.351 5.505,0.44 8.384,0.329 l 40.396,-1.558 c 2.876,-0.113 5.696,-0.477 8.417,-1.038 2.721,-0.561 5.336,-1.299 7.85,-2.27 2.507,-0.962 4.927,-2.141 7.171,-3.465 2.243,-1.324 4.347,-2.826 6.271,-4.462 1.925,-1.637 3.649,-3.405 5.191,-5.297 1.545,-1.89 2.91,-3.903 4.02,-6.011 0.555,-1.053 1.048,-2.121 1.484,-3.224 0.439,-1.102 0.803,-2.235 1.116,-3.377 0.309,-1.132 0.546,-2.294 0.718,-3.459 0.18,-1.174 0.294,-2.363 0.329,-3.56 l 1.049,-34.904 c 0.026,-0.961 -0.2,-1.848 -0.264,-2.798 -3.022,-3.706 -6.209,-7.3 -10.307,-10.048 0.601,0.934 1.299,1.825 1.781,2.817 0.889,1.822 1.566,3.737 2,5.754 0.434,2.005 0.643,4.072 0.578,6.23 l -0.968,31.48 c -0.065,2.158 -0.386,4.245 -0.944,6.294 -0.558,2.048 -1.341,4.039 -2.343,5.94 -0.995,1.891 -2.214,3.701 -3.607,5.414 -1.389,1.703 -2.937,3.269 -4.672,4.744 -1.727,1.466 -3.621,2.828 -5.642,4.028 -2.02,1.189 -4.178,2.212 -6.438,3.085 -2.261,0.873 -4.646,1.61 -7.097,2.115 -2.448,0.507 -4.985,0.82 -7.574,0.92 l -36.367,1.397 c -2.587,0.101 -5.099,-0.043 -7.524,-0.356 -2.421,-0.322 -4.749,-0.822 -6.966,-1.515 -2.212,-0.704 -4.305,-1.562 -6.258,-2.603 -1.954,-1.04 -3.748,-2.29 -5.399,-3.625 -1.644,-1.343 -3.137,-2.781 -4.431,-4.375 -1.29,-1.605 -2.38,-3.378 -3.269,-5.2 -0.882,-1.832 -1.562,-3.747 -1.997,-5.752 -0.437,-2.007 -0.642,-4.085 -0.581,-6.232 l 0.007,-0.153 -5.277,2.415 -0.732,2.001 z"
           style="fill:none;stroke:#000000;stroke-opacity:1;stroke-width:1.309734;stroke-linecap:butt;stroke-linejoin:miter;stroke-miterlimit:4;stroke-dasharray:none"
           id="path3286" /></g><g
         id="g3288"
         transform="matrix(1,0,2.42569e-8,-1,0,421.50284)"><path
           d="M 249.051,110.766 C 221.055,106.16 236.781,86.027 233.902,68.195 231.027,50.359 211.66,46.141 211.66,46.141"
           style="fill:none;stroke:#000000;stroke-opacity:1;stroke-width:0.8;stroke-linecap:butt;stroke-linejoin:miter;stroke-miterlimit:4;stroke-dasharray:none"
           id="path3290" /></g><g
         id="g3292"
         transform="matrix(1,0,2.42569e-8,-1,0,421.50284)"><path
           d="M 263.625,95.039 C 253.27,94.848 242.746,81.918 243.492,71.262 244.641,54.77 255,54.629 250.969,46.332 c -4.153,-8.543 1.343,-17.449 1.343,-17.449"
           style="fill:none;stroke:#000000;stroke-opacity:1;stroke-width:0.8;stroke-linecap:butt;stroke-linejoin:miter;stroke-miterlimit:4;stroke-dasharray:none"
           id="path3294" /></g><g
         id="g3296"
         transform="matrix(1,0,0,-0.332389,0,421.50284)"><path
           d="m 5.68,6.017 91.152,0 c 2.039,0 3.68,5.206 3.68,11.682 l 0,429.031 c 0,6.464 -1.641,11.67 -3.68,11.67 l -91.152,0 C 3.641,458.4 2,453.194 2,446.73 L 2,17.699 C 2,11.223 3.641,6.017 5.68,6.017 z"
           style="fill:none;stroke:#000000;stroke-opacity:1;stroke-width:1.387607;stroke-linecap:butt;stroke-linejoin:miter;stroke-miterlimit:4;stroke-dasharray:none"
           id="path3298" /></g><g
         id="g3300"
         transform="matrix(1,0.135302,0.35237,-0.325414,0,421.50284)"><path
           d="m 2.539,185.364 c 8.588,23.894 3.474,72.628 -14.821,124.549 -23.793,67.521 -60.869,114.862 -82.814,105.738 -21.941,-9.123 -20.442,-71.257 3.35,-138.778 22.291,-63.259 56.342,-108.821 78.584,-106.824"
           style="fill:none;stroke:#000000;stroke-opacity:1;stroke-width:1.309734;stroke-linecap:butt;stroke-linejoin:miter;stroke-miterlimit:4;stroke-dasharray:none"
           id="path3302" /></g><g
         id="g3304"
         transform="matrix(0.998627,0,2.9162e-8,-1,0,421.50284)"><path
           d="m 67.166,102.512 c 0,8.687 -7.04,15.73 -15.728,15.73 -8.688,0 -15.729,-7.043 -15.729,-15.73 0,-8.688 7.041,-15.731 15.729,-15.731 8.688,0 15.728,7.043 15.728,15.731 z"
           style="fill:none;stroke:#000000;stroke-opacity:1;stroke-width:0.80055;stroke-linecap:butt;stroke-linejoin:miter;stroke-miterlimit:4;stroke-dasharray:none"
           id="path3306" /></g><g
         id="g3308"
         transform="matrix(0.998627,-1.37557e-8,-1.2965e-8,-1,0,421.50284)"><path
           d="m 65.594,102.512 c 0,7.816 -6.337,14.156 -14.156,14.156 -7.819,0 -14.156,-6.34 -14.156,-14.156 0,-7.821 6.337,-14.157 14.156,-14.157 7.819,0 14.156,6.336 14.156,14.157 z"
           style="fill:none;stroke:#000000;stroke-opacity:1;stroke-width:0.80055;stroke-linecap:butt;stroke-linejoin:miter;stroke-miterlimit:4;stroke-dasharray:none"
           id="path3310" /></g><g
         id="g3312"
         transform="matrix(0.998626,-3.45389e-8,0,-1,0,421.50284)"><path
           d="m 56.832,102.512 c 0,2.976 -2.414,5.39 -5.394,5.39 -2.977,0 -5.394,-2.414 -5.394,-5.39 0,-2.981 2.417,-5.395 5.394,-5.395 2.98,0 5.394,2.414 5.394,5.395 z"
           style="fill:none;stroke:#000000;stroke-opacity:1;stroke-width:0.80055;stroke-linecap:butt;stroke-linejoin:miter;stroke-miterlimit:4;stroke-dasharray:none"
           id="path3314" /></g><g
         id="g3316"
         transform="matrix(0.998626,-9.68882e-8,2.71682e-7,-1,0,421.50284)"><path
           d="m 52.787,102.512 c 0,0.742 -0.606,1.347 -1.349,1.347 -0.743,0 -1.35,-0.605 -1.35,-1.347 0,-0.746 0.607,-1.348 1.35,-1.348 0.743,0 1.349,0.602 1.349,1.348 z"
           style="fill:none;stroke:#000000;stroke-opacity:1;stroke-width:0.80055;stroke-linecap:butt;stroke-linejoin:miter;stroke-miterlimit:4;stroke-dasharray:none"
           id="path3318" /></g><g
         id="g3320"
         transform="matrix(0.998627,0,2.27764e-8,-1,0,421.50284)"><path
           d="m 9.756,46.223 c 0,0.867 -0.705,1.574 -1.573,1.574 -0.868,0 -1.572,-0.707 -1.572,-1.574 0,-0.871 0.704,-1.575 1.572,-1.575 0.868,0 1.573,0.704 1.573,1.575 z"
           style="fill:none;stroke:#000000;stroke-opacity:1;stroke-width:0.80055;stroke-linecap:butt;stroke-linejoin:miter;stroke-miterlimit:4;stroke-dasharray:none"
           id="path3322" /></g><g
         id="g3324"
         transform="matrix(0.998627,0,4.2474e-8,-1,0,421.50284)"><path
           d="m 10.765,46.223 c 0,1.425 -1.154,2.582 -2.582,2.582 -1.428,0 -2.585,-1.157 -2.585,-2.582 0,-1.43 1.157,-2.586 2.585,-2.586 1.428,0 2.582,1.156 2.582,2.586 z"
           style="fill:none;stroke:#000000;stroke-opacity:1;stroke-width:0.80055;stroke-linecap:butt;stroke-linejoin:miter;stroke-miterlimit:4;stroke-dasharray:none"
           id="path3326" /></g><g
         id="g3328"
         transform="matrix(0.998627,0,2.27764e-8,-1,0,421.50284)"><path
           d="m 51.438,16.898 c 0,0.868 -0.704,1.575 -1.573,1.575 -0.868,0 -1.572,-0.707 -1.572,-1.575 0,-0.871 0.704,-1.574 1.572,-1.574 0.869,0 1.573,0.703 1.573,1.574 z"
           style="fill:none;stroke:#000000;stroke-opacity:1;stroke-width:0.80055;stroke-linecap:butt;stroke-linejoin:miter;stroke-miterlimit:4;stroke-dasharray:none"
           id="path3330" /></g><g
         id="g3332"
         transform="matrix(0.998627,0,4.2474e-8,-1,0,421.50284)"><path
           d="m 52.451,16.898 c 0,1.426 -1.158,2.582 -2.586,2.582 -1.427,0 -2.585,-1.156 -2.585,-2.582 0,-1.429 1.158,-2.585 2.585,-2.585 1.428,0 2.586,1.156 2.586,2.585 z"
           style="fill:none;stroke:#000000;stroke-opacity:1;stroke-width:0.80055;stroke-linecap:butt;stroke-linejoin:miter;stroke-miterlimit:4;stroke-dasharray:none"
           id="path3334" /></g><g
         id="g3336"
         transform="matrix(0.998627,0,2.27764e-8,-1,0,421.50284)"><path
           d="m 97.615,18.695 c 0,0.868 -0.705,1.575 -1.573,1.575 -0.868,0 -1.572,-0.707 -1.572,-1.575 0,-0.867 0.704,-1.574 1.572,-1.574 0.868,0 1.573,0.707 1.573,1.574 z"
           style="fill:none;stroke:#000000;stroke-opacity:1;stroke-width:0.80055;stroke-linecap:butt;stroke-linejoin:miter;stroke-miterlimit:4;stroke-dasharray:none"
           id="path3338" /></g><g
         id="g3340"
         transform="matrix(0.998627,0,4.2474e-8,-1,0,421.50284)"><path
           d="m 98.628,18.695 c 0,1.426 -1.158,2.586 -2.586,2.586 -1.428,0 -2.586,-1.16 -2.586,-2.586 0,-1.425 1.158,-2.586 2.586,-2.586 1.428,0 2.586,1.161 2.586,2.586 z"
           style="fill:none;stroke:#000000;stroke-opacity:1;stroke-width:0.80055;stroke-linecap:butt;stroke-linejoin:miter;stroke-miterlimit:4;stroke-dasharray:none"
           id="path3342" /></g><g
         id="g3344"
         transform="matrix(0.998627,0,2.27764e-8,-1,0,421.50284)"><path
           d="m 98.401,65.32 c 0,0.871 -0.704,1.575 -1.573,1.575 -0.868,0 -1.572,-0.704 -1.572,-1.575 0,-0.867 0.704,-1.57 1.572,-1.57 0.869,0 1.573,0.703 1.573,1.57 z"
           style="fill:none;stroke:#000000;stroke-opacity:1;stroke-width:0.80055;stroke-linecap:butt;stroke-linejoin:miter;stroke-miterlimit:4;stroke-dasharray:none"
           id="path3346" /></g><g
         id="g3348"
         transform="matrix(0.998627,0,4.2474e-8,-1,0,421.50284)"><path
           d="m 99.414,65.32 c 0,1.43 -1.158,2.586 -2.586,2.586 -1.427,0 -2.581,-1.156 -2.581,-2.586 0,-1.425 1.154,-2.582 2.581,-2.582 1.428,0 2.586,1.157 2.586,2.582 z"
           style="fill:none;stroke:#000000;stroke-opacity:1;stroke-width:0.80055;stroke-linecap:butt;stroke-linejoin:miter;stroke-miterlimit:4;stroke-dasharray:none"
           id="path3350" /></g><g
         id="g3352"
         transform="matrix(0.998627,0,2.27764e-8,-1,0,421.50284)"><path
           d="m 95.819,136.219 c 0,0.867 -0.704,1.57 -1.572,1.57 -0.873,0 -1.577,-0.703 -1.577,-1.57 0,-0.871 0.704,-1.574 1.577,-1.574 0.868,0 1.572,0.703 1.572,1.574 z"
           style="fill:none;stroke:#000000;stroke-opacity:1;stroke-width:0.80055;stroke-linecap:butt;stroke-linejoin:miter;stroke-miterlimit:4;stroke-dasharray:none"
           id="path3354" /></g><g
         id="g3356"
         transform="matrix(0.998627,0,4.2474e-8,-1,0,421.50284)"><path
           d="m 96.828,136.219 c 0,1.426 -1.158,2.582 -2.581,2.582 -1.428,0 -2.586,-1.156 -2.586,-2.582 0,-1.43 1.158,-2.586 2.586,-2.586 1.423,0 2.581,1.156 2.581,2.586 z"
           style="fill:none;stroke:#000000;stroke-opacity:1;stroke-width:0.80055;stroke-linecap:butt;stroke-linejoin:miter;stroke-miterlimit:4;stroke-dasharray:none"
           id="path3358" /></g><g
         id="g3360"
         transform="matrix(0.998627,0,2.27764e-8,-1,0,421.50284)"><path
           d="m 9.869,135.43 c 0,0.871 -0.704,1.574 -1.576,1.574 -0.869,0 -1.573,-0.703 -1.573,-1.574 0,-0.867 0.704,-1.571 1.573,-1.571 0.872,0 1.576,0.704 1.576,1.571 z"
           style="fill:none;stroke:#000000;stroke-opacity:1;stroke-width:0.80055;stroke-linecap:butt;stroke-linejoin:miter;stroke-miterlimit:4;stroke-dasharray:none"
           id="path3362" /></g><g
         id="g3364"
         transform="matrix(0.998627,0,4.2474e-8,-1,0,421.50284)"><path
           d="m 10.878,135.43 c 0,1.429 -1.158,2.586 -2.585,2.586 -1.424,0 -2.582,-1.157 -2.582,-2.586 0,-1.426 1.158,-2.582 2.582,-2.582 1.427,0 2.585,1.156 2.585,2.582 z"
           style="fill:none;stroke:#000000;stroke-opacity:1;stroke-width:0.80055;stroke-linecap:butt;stroke-linejoin:miter;stroke-miterlimit:4;stroke-dasharray:none"
           id="path3366" /></g><g
         id="g3368"
         transform="matrix(0.998511,0.151549,0.151359,-1,0,421.50284)"><path
           d="m 48.143,44.691 -15.856,26.741 -4.181,5.054 -3.136,2.958 c 0,0 2.614,1.568 3.05,2.353 0.437,0.785 1.219,1.306 0.349,2.268 -0.873,0.958 -6.883,8.012 -6.883,8.012 l 2.7,2.264 6.71,-8.624 c 0,0 0.521,-0.522 1.044,-0.435 0.523,0.087 0.959,0.438 0.959,0.438 l 1.217,1.13 2.179,-2.787 7.581,-3.66 22.473,-19.598"
           style="fill:none;stroke:#000000;stroke-opacity:1;stroke-width:0.791556;stroke-linecap:butt;stroke-linejoin:miter;stroke-miterlimit:4;stroke-dasharray:none"
           id="path3370" /></g><g
         id="g3372"
         transform="matrix(0.998511,0.151549,0.151359,-1,0,421.50284)"><path
           d="m 75.235,76.222 c 2.679,-0.043 4.877,-1.436 4.805,-5.272 -0.07,-3.741 -0.799,-6.312 -0.799,-6.312 0,0 -0.348,-1.654 -0.002,-2.7 0.351,-1.048 1.889,-8.202 1.047,-13.329 -1.001,-6.097 -3.225,-12.848 -9.583,-16.683 0,0 -1.217,1.96 -2.091,2.746 -0.87,0.782 -1.653,1.741 -2.524,0.957 -0.87,-0.784 -0.96,-1.482 -0.348,-2.526 0.608,-1.044 2.874,-4.095 2.874,-4.095 0,0 -2.701,-1.742 -4.008,-2.002 -1.306,-0.261 -3.308,-0.525 -3.308,-0.525 0,0 -2.517,3.548 -3.661,5.055 -0.499,0.658 -1.641,1.251 -2.383,0.697 -0.661,-0.491 -0.622,-1.395 -0.228,-2.003 0.431,-0.677 1.564,-1.83 1.564,-1.83 0,0 -5.312,0.434 -6.096,0.784 -0.784,0.346 -2.955,2.978 -2.955,2.978 -0.755,0.592 -2.003,0.048 -2.663,-0.322 -0.61,-0.436 -4.4,-2.483 -4.4,-2.483 0,0 -1.174,-0.385 -2.131,-0.21 -0.958,0.175 -3.124,1.894 -2.977,4.127 0.153,2.297 2.523,3.871 4.935,5.228 2.451,1.38 3.919,2.352 3.919,2.352 0,0 0.698,1.047 0.784,1.744 0.086,0.697 0.524,2.091 2.439,2.002 1.918,-0.084 5.989,-0.334 9.001,0.595 2.98,0.916 5.593,3.648 6.654,8.391 0.933,4.173 0.024,5.648 1.073,6.346 1.044,0.698 3.656,0.785 4.003,1.744 0.352,0.959 0.785,1.74 0.961,3.134 0.172,1.397 0.674,4.77 1.076,7.46 0.305,2.065 2.339,3.999 5.022,3.952 z"
           style="fill:none;stroke:#000000;stroke-opacity:1;stroke-width:0.791556;stroke-linecap:butt;stroke-linejoin:miter;stroke-miterlimit:4;stroke-dasharray:none"
           id="path3374" /></g><g
         id="g3376"
         transform="matrix(0.998511,0.151549,0.151359,-1,0,421.50284)"><path
           d="m 45.858,32.254 -4.466,6.859"
           style="fill:none;stroke:#000000;stroke-opacity:1;stroke-width:0.791556;stroke-linecap:butt;stroke-linejoin:miter;stroke-miterlimit:4;stroke-dasharray:none"
           id="path3378" /></g><g
         id="g3380"
         transform="matrix(1,0.293295,0.410109,-0.278122,0,421.50284)"><path
           d="m -1.988,198.117 9.951,-1.052"
           style="fill:none;stroke:#000000;stroke-opacity:1;stroke-width:1.267441;stroke-linecap:butt;stroke-linejoin:miter;stroke-miterlimit:4;stroke-dasharray:none"
           id="path3382" /></g><g
         id="g3384"
         transform="matrix(0.998511,0.151549,0.151359,-1,0,421.50284)"><path
           d="m 80.2,48.217 6.664,-8.19 -1.002,-1.394 2.611,-3.002 -3.307,-2.833 -2.311,2.962 -17.856,-15.245 -3.266,1.7 -6.1,10.103"
           style="fill:none;stroke:#000000;stroke-opacity:1;stroke-width:0.791556;stroke-linecap:butt;stroke-linejoin:miter;stroke-miterlimit:4;stroke-dasharray:none"
           id="path3386" /></g><g
         id="g3388"
         transform="matrix(0.998511,0.151549,0.151359,-1,0,421.50284)"><path
           d="m 29.5,79.186 c -0.001,0.624 -0.508,1.13 -1.13,1.133 -0.626,-0.001 -1.136,-0.508 -1.135,-1.133 0.001,-0.625 0.508,-1.134 1.134,-1.133 0.626,0.001 1.132,0.508 1.131,1.133 z"
           style="fill:none;stroke:#000000;stroke-opacity:1;stroke-width:0.791556;stroke-linecap:butt;stroke-linejoin:miter;stroke-miterlimit:4;stroke-dasharray:none"
           id="path3390" /></g><g
         id="g3392"
         transform="matrix(0.998511,0.151549,0.151359,-1,0,421.50284)"><path
           d="m 34.857,83.845 c -10e-4,0.625 -0.508,1.134 -1.13,1.134 -0.626,-0.002 -1.136,-0.509 -1.135,-1.133 0.001,-0.625 0.508,-1.134 1.134,-1.133 0.626,0.001 1.132,0.507 1.131,1.132 z"
           style="fill:none;stroke:#000000;stroke-opacity:1;stroke-width:0.791556;stroke-linecap:butt;stroke-linejoin:miter;stroke-miterlimit:4;stroke-dasharray:none"
           id="path3394" /></g><g
         id="g3396"
         transform="matrix(0.998511,0.151549,0.151359,-1,0,421.50284)"><path
           d="m 25.144,91.686 c 0,0.624 -0.507,1.13 -1.13,1.133 -0.626,-0.001 -1.136,-0.508 -1.135,-1.133 10e-4,-0.625 0.509,-1.134 1.134,-1.133 0.626,0.001 1.132,0.508 1.131,1.133 z"
           style="fill:none;stroke:#000000;stroke-opacity:1;stroke-width:0.791556;stroke-linecap:butt;stroke-linejoin:miter;stroke-miterlimit:4;stroke-dasharray:none"
           id="path3398" /></g><g
         id="g3400"
         transform="matrix(0.998511,0.151549,0.151359,-1,0,421.50284)"><path
           d="m 54.74,57.198 c -0.001,0.863 -0.699,1.566 -1.563,1.564 -0.865,0.002 -1.564,-0.698 -1.563,-1.561 -0.002,-0.864 0.699,-1.566 1.564,-1.564 0.864,-0.002 1.564,0.698 1.562,1.561 z"
           style="fill:none;stroke:#000000;stroke-opacity:1;stroke-width:0.791556;stroke-linecap:butt;stroke-linejoin:miter;stroke-miterlimit:4;stroke-dasharray:none"
           id="path3402" /></g><g
         id="g3404"
         transform="matrix(0.998511,0.151549,0.151359,-1,0,421.50284)"><path
           d="m 57.079,57.201 c 0.002,2.157 -1.745,3.904 -3.901,3.905 -2.159,-0.003 -3.905,-1.752 -3.907,-3.908 0.003,-2.156 1.75,-3.903 3.905,-3.901 2.156,-10e-4 3.906,1.748 3.903,3.904 z"
           style="fill:none;stroke:#000000;stroke-opacity:1;stroke-width:0.791556;stroke-linecap:butt;stroke-linejoin:miter;stroke-miterlimit:4;stroke-dasharray:none"
           id="path3406" /></g><g
         id="g3408"
         transform="matrix(0.998511,0.151549,0.151359,-1,0,421.50284)"><path
           d="m 58.499,57.201 c -0.003,2.938 -2.382,5.319 -5.32,5.319 -2.942,0 -5.324,-2.381 -5.324,-5.322 0,-2.938 2.383,-5.319 5.321,-5.319 2.938,0 5.323,2.381 5.323,5.322 z"
           style="fill:none;stroke:#000000;stroke-opacity:1;stroke-width:0.791556;stroke-linecap:butt;stroke-linejoin:miter;stroke-miterlimit:4;stroke-dasharray:none"
           id="path3410" /></g><g
         id="g3412"
         transform="matrix(1,0.135302,0.35237,-0.325414,0,421.50284)"><path
           d="m 9.668,125.344 c -19.849,19.716 -20.013,22.409 -27.754,23.68 -7.741,1.271 -10.364,-8.799 -9.193,-16.259 1.165,-7.45 1.825,-22.372 8.914,-33.578 7.089,-11.205 12.424,-6.922 12.424,-6.922"
           style="fill:none;stroke:#000000;stroke-opacity:1;stroke-width:1.309734;stroke-linecap:butt;stroke-linejoin:miter;stroke-miterlimit:4;stroke-dasharray:none"
           id="path3414" /></g><g
         id="g3416"
         transform="matrix(1,0,0,-0.332389,0,421.50284)"><path
           d="m 11.473,41.367 23.453,0 c 0.59,0 1.066,1.469 1.066,3.302 l 0,44.788 c 0,1.821 -0.476,3.29 -1.066,3.29 l -23.453,0 c -0.59,0 -1.063,-1.469 -1.063,-3.29 l 0,-44.788 c 0,-1.833 0.473,-3.302 1.063,-3.302 z"
           style="fill:none;stroke:#000000;stroke-opacity:1;stroke-width:1.387607;stroke-linecap:butt;stroke-linejoin:miter;stroke-miterlimit:4;stroke-dasharray:none"
           id="path3418" /></g><g
         id="g3420"
         transform="matrix(1,0,0,-0.332389,0,421.50284)"><path
           d="m 12.848,70.418 7.89,0 c 0.196,0 0.356,0.482 0.356,1.093 l 0,14.866 c 0,0.612 -0.16,1.093 -0.356,1.093 l -7.89,0 c -0.196,0 -0.356,-0.481 -0.356,-1.093 l 0,-14.866 c 0,-0.611 0.16,-1.093 0.356,-1.093 z"
           style="fill:none;stroke:#000000;stroke-opacity:1;stroke-width:1.387607;stroke-linecap:butt;stroke-linejoin:miter;stroke-miterlimit:4;stroke-dasharray:none"
           id="path3422" /></g><g
         id="g3424"
         transform="matrix(1,0,0,-0.332389,0,421.50284)"><path
           d="m 12.844,47.995 16.308,0 c 0.196,0 0.352,0.494 0.352,1.093 l 0,14.878 c 0,0.6 -0.156,1.093 -0.352,1.093 l -16.308,0 c -0.196,0 -0.352,-0.493 -0.352,-1.093 l 0,-14.878 c 0,-0.599 0.156,-1.093 0.352,-1.093 z"
           style="fill:none;stroke:#000000;stroke-opacity:1;stroke-width:1.387607;stroke-linecap:butt;stroke-linejoin:miter;stroke-miterlimit:4;stroke-dasharray:none"
           id="path3426" /></g><g
         id="g3428"
         transform="matrix(1,0.135302,0.35237,-0.325414,0,421.50284)"><path
           d="M -6.659,25.693 78.637,61.158"
           style="fill:none;stroke:#000000;stroke-opacity:1;stroke-width:1.309734;stroke-linecap:butt;stroke-linejoin:miter;stroke-miterlimit:4;stroke-dasharray:none"
           id="path3430" /></g><g
         id="g3432"
         transform="matrix(1,0.135302,0.35237,-0.325414,0,421.50284)"><path
           d="m -134.264,386.929 23.335,9.702 m 39.263,16.325 23.025,9.574"
           style="fill:none;stroke:#000000;stroke-opacity:1;stroke-width:1.309734;stroke-linecap:butt;stroke-linejoin:miter;stroke-miterlimit:4;stroke-dasharray:none"
           id="path3434" /></g><g
         id="g3436"
         transform="matrix(1,0.135302,0.35237,-0.325414,0,421.50284)"><path
           d="m -71.529,412.821 c -9.258,7.074 -17.877,9.673 -25.004,6.709 -7.073,-2.94 -11.874,-11.023 -14.431,-22.865"
           style="fill:none;stroke:#000000;stroke-opacity:1;stroke-width:1.309734;stroke-linecap:butt;stroke-linejoin:miter;stroke-miterlimit:4;stroke-dasharray:none"
           id="path3438" /></g></g><flowRoot
       xml:space="preserve"
       id="flowRoot3440"
       style="font-size:40px;font-style:normal;font-weight:normal;line-height:125%;letter-spacing:0px;word-spacing:0px;fill:#000000;fill-opacity:1;stroke:none;font-family:Sans"
       transform="matrix(0.8,0,0,-0.8,2.8067933,422.90624)"><flowRegion
         id="flowRegion3442"><rect
           id="rect3444"
           width="236.82318"
           height="49.996006"
           x="535.04498"
           y="15.51589" /></flowRegion><flowPara
         id="flowPara3446"
         style="font-family:Latin Modern Roman;-inkscape-font-specification:Latin Modern Roman">axis</flowPara></flowRoot><flowRoot
       xml:space="preserve"
       id="flowRoot3440-4"
       style="font-size:40px;font-style:normal;font-weight:normal;line-height:125%;letter-spacing:0px;word-spacing:0px;fill:#000000;fill-opacity:1;stroke:none;font-family:Sans"
       transform="matrix(0.8,0,0,-0.8,71.803435,364.4026)"><flowRegion
         id="flowRegion3442-1"><rect
           id="rect3444-5"
           width="236.82318"
           height="49.996006"
           x="535.04498"
           y="15.51589" /></flowRegion><flowPara
         id="flowPara3446-8"
         style="font-family:Latin Modern Roman;-inkscape-font-specification:Latin Modern Roman">magnet</flowPara></flowRoot><flowRoot
       xml:space="preserve"
       id="flowRoot3440-4-5"
       style="font-size:40px;font-style:normal;font-weight:normal;line-height:125%;letter-spacing:0px;word-spacing:0px;fill:#000000;fill-opacity:1;stroke:none;font-family:Sans"
       transform="matrix(0.8,0,0,-0.8,29.998827,55.839118)"><flowRegion
         id="flowRegion3442-1-4"><rect
           id="rect3444-5-3"
           width="236.82318"
           height="49.996006"
           x="535.04498"
           y="15.51589" /></flowRegion><flowPara
         id="flowPara3446-8-0"
         style="font-family:Latin Modern Roman;-inkscape-font-specification:Latin Modern Roman">nozzle hole</flowPara></flowRoot><path
       style="fill:none;stroke:#000000;stroke-width:1.60000002;stroke-linecap:butt;stroke-linejoin:miter;stroke-opacity:1;marker-end:url(#Arrow1Lend)"
       d="M 544.68028,41.425393 C 507.89444,54.988683 490.05529,79.21489 471.60589,103.92076"
       id="path3502"
       inkscape:connector-curvature="0"
       sodipodi:nodetypes="cc" /><flowRoot
       xml:space="preserve"
       id="flowRoot3440-4-7"
       style="font-size:40px;font-style:normal;font-weight:normal;line-height:125%;letter-spacing:0px;word-spacing:0px;fill:#000000;fill-opacity:1;stroke:none;font-family:Sans"
       transform="matrix(0.8,0,0,-0.8,79.359111,274.86873)"><flowRegion
         id="flowRegion3442-1-6"><rect
           id="rect3444-5-2"
           width="236.82318"
           height="49.996006"
           x="535.04498"
           y="15.51589" /></flowRegion><flowPara
         id="flowPara3446-8-8"
         style="font-family:Latin Modern Roman;-inkscape-font-specification:Latin Modern Roman">coil</flowPara></flowRoot><path
       style="fill:none;stroke:#000000;stroke-width:1.60000002;stroke-linecap:butt;stroke-linejoin:miter;stroke-opacity:1;marker-end:url(#Arrow1Lend)"
       d="M 501.13818,235.26456 C 440.43024,217.85089 406.87382,224.90511 361.47241,258.15978"
       id="path3502-6"
       inkscape:connector-curvature="0"
       sodipodi:nodetypes="cc" /><path
       style="fill:#ffffff;fill-opacity:1;stroke:#000000;stroke-width:0.80000001px;stroke-linecap:butt;stroke-linejoin:miter;stroke-opacity:1"
       d="m 432.05827,112.81414 11.96779,-13.328621 -21.57723,-3.947055 7.54326,-9.38522 -43.69577,11.727004 20.45201,19.586292 6.01323,-7.81006 z"
       id="path4953"
       inkscape:connector-curvature="0"
       sodipodi:nodetypes="cccccccc" /><path
       style="fill:#ffffff;fill-opacity:1;stroke:#000000;stroke-width:0.80000001px;stroke-linecap:butt;stroke-linejoin:miter;stroke-opacity:1"
       d="m 489.7291,109.33702 -11.96779,13.32862 21.57723,3.94706 -7.54326,9.38522 43.69577,-11.72701 -20.45201,-19.58629 -6.01323,7.81006 z"
       id="path4953-0"
       inkscape:connector-curvature="0"
       sodipodi:nodetypes="cccccccc" /></g></svg>