<?xml version="1.0" encoding="UTF-8" standalone="no"?>
<!-- Created with Inkscape (http://www.inkscape.org/) -->

<svg
   xmlns:dc="http://purl.org/dc/elements/1.1/"
   xmlns:cc="http://creativecommons.org/ns#"
   xmlns:rdf="http://www.w3.org/1999/02/22-rdf-syntax-ns#"
   xmlns:svg="http://www.w3.org/2000/svg"
   xmlns="http://www.w3.org/2000/svg"
   xmlns:sodipodi="http://sodipodi.sourceforge.net/DTD/sodipodi-0.dtd"
   xmlns:inkscape="http://www.inkscape.org/namespaces/inkscape"
   width="282.84375"
   height="224.25"
   id="svg17122"
   version="1.1"
   inkscape:version="0.48.4 r9939"
   sodipodi:docname="New document 29">
  <defs
     id="defs17124" />
  <sodipodi:namedview
     id="base"
     pagecolor="#ffffff"
     bordercolor="#666666"
     borderopacity="1.0"
     inkscape:pageopacity="0.0"
     inkscape:pageshadow="2"
     inkscape:zoom="1.979899"
     inkscape:cx="168.201"
     inkscape:cy="93.136331"
     inkscape:document-units="px"
     inkscape:current-layer="layer1"
     showgrid="false"
     fit-margin-top="0"
     fit-margin-left="0"
     fit-margin-right="0"
     fit-margin-bottom="0"
     inkscape:window-width="944"
     inkscape:window-height="707"
     inkscape:window-x="530"
     inkscape:window-y="187"
     inkscape:window-maximized="0" />
  <metadata
     id="metadata17127">
    <rdf:RDF>
      <cc:Work
         rdf:about="">
        <dc:format>image/svg+xml</dc:format>
        <dc:type
           rdf:resource="http://purl.org/dc/dcmitype/StillImage" />
        <dc:title></dc:title>
      </cc:Work>
    </rdf:RDF>
  </metadata>
  <g
     inkscape:label="Layer 1"
     inkscape:groupmode="layer"
     id="layer1"
     transform="translate(-336.125,-577.84375)">
    <g
       id="g7959"
       transform="matrix(0.09989045,0.17301534,0.17301534,-0.09989045,385.31931,742.78746)"
       style="fill:none;stroke:#000000;stroke-width:5.00548363;stroke-linecap:butt;stroke-linejoin:miter;stroke-opacity:1">
      <path
         style="stroke:#000000;stroke-width:5.00548363;stroke-opacity:1"
         d="m 261.791,895.826 1.929,1.114"
         id="path7961"
         inkscape:connector-curvature="0" />
      <path
         style="stroke:#000000;stroke-width:5.00548363;stroke-opacity:1"
         d="m 243.791,927.003 3.696,2.134"
         id="path7963"
         inkscape:connector-curvature="0" />
      <path
         style="stroke:#000000;stroke-width:5.00548363;stroke-opacity:1"
         d="m -42.1751,391.773 0,67.506"
         id="path7965"
         inkscape:connector-curvature="0" />
      <path
         style="stroke:#000000;stroke-width:5.00548363;stroke-opacity:1"
         d="m -92.1751,420.641 0,38.638"
         id="path7967"
         inkscape:connector-curvature="0" />
      <path
         style="stroke:#000000;stroke-width:5.00548363;stroke-opacity:1"
         d="m 218.293,856.856 49.498,28.578"
         id="path7969"
         inkscape:connector-curvature="0" />
      <path
         style="stroke:#000000;stroke-width:5.00548363;stroke-opacity:1"
         d="m 188.293,908.818 49.498,28.577"
         id="path7971"
         inkscape:connector-curvature="0" />
    </g>
    <g
       id="g7973"
       transform="matrix(0.09989045,0.17301534,0.17301534,-0.09989045,385.31931,742.78746)"
       style="fill:none;stroke:#000000;stroke-width:5.00548363;stroke-linecap:butt;stroke-linejoin:miter;stroke-opacity:1">
      <path
         style="stroke:#000000;stroke-width:5.00548363;stroke-opacity:1"
         d="m 353.553,1102.27 -70.71,-40.82"
         id="path7975"
         inkscape:connector-curvature="0" />
      <path
         style="stroke:#000000;stroke-width:5.00548363;stroke-opacity:1"
         d="m 424.264,1061.45 -70.711,40.82"
         id="path7977"
         inkscape:connector-curvature="0" />
      <path
         style="stroke:#000000;stroke-width:5.00548363;stroke-opacity:1"
         d="m 424.264,1061.45 0,-857.326"
         id="path7979"
         inkscape:connector-curvature="0" />
      <path
         style="stroke:#000000;stroke-width:5.00548363;stroke-opacity:1"
         d="M 424.264,204.124 353.553,163.299"
         id="path7981"
         inkscape:connector-curvature="0" />
      <path
         style="stroke:#000000;stroke-width:5.00548363;stroke-opacity:1"
         d="m 282.843,1061.45 0,-93.902"
         id="path7983"
         inkscape:connector-curvature="0" />
      <path
         style="stroke:#000000;stroke-width:5.00548363;stroke-opacity:1"
         d="m 282.843,889.981 0,-563.382"
         id="path7985"
         inkscape:connector-curvature="0" />
      <path
         style="stroke:#000000;stroke-width:5.00548363;stroke-opacity:1"
         d="m 353.553,1102.27 0,-122.474"
         id="path7987"
         inkscape:connector-curvature="0" />
      <path
         style="stroke:#000000;stroke-width:5.00548363;stroke-opacity:1"
         d="m 424.264,204.124 -70.711,40.825"
         id="path7989"
         inkscape:connector-curvature="0" />
      <path
         style="stroke:#000000;stroke-width:5.00548363;stroke-opacity:1"
         d="m 353.553,930.806 0,-685.857"
         id="path7991"
         inkscape:connector-curvature="0" />
      <path
         style="stroke:#000000;stroke-width:5.00548363;stroke-opacity:1"
         d="m 353.553,163.299 -70.71,40.825"
         id="path7993"
         inkscape:connector-curvature="0" />
      <path
         style="stroke:#000000;stroke-width:5.00548363;stroke-opacity:1"
         d="m 353.553,244.949 -70.71,-40.825"
         id="path7995"
         inkscape:connector-curvature="0" />
      <path
         style="stroke:#000000;stroke-width:5.00548363;stroke-opacity:1"
         d="m 282.843,244.949 0,-40.825"
         id="path7997"
         inkscape:connector-curvature="0" />
      <path
         style="stroke:#000000;stroke-width:5.00548363;stroke-opacity:1"
         d="m 318.198,183.712 -530.33,-306.186"
         id="path7999"
         inkscape:connector-curvature="0" />
      <path
         style="stroke:#000000;stroke-width:5.00548363;stroke-opacity:1"
         d="m 282.843,889.981 -3.536,-2.041"
         id="path8001"
         inkscape:connector-curvature="0" />
      <path
         style="stroke:#000000;stroke-width:5.00548363;stroke-opacity:1"
         d="m 282.843,326.599 0,-81.65"
         id="path8003"
         inkscape:connector-curvature="0" />
      <path
         style="stroke:#000000;stroke-width:5.00548363;stroke-opacity:1"
         d="m 353.553,930.806 -70.71,-40.825"
         id="path8005"
         inkscape:connector-curvature="0" />
      <path
         style="stroke:#000000;stroke-width:5.00548363;stroke-opacity:1"
         d="M 282.843,326.599 0,163.299"
         id="path8007"
         inkscape:connector-curvature="0" />
      <path
         style="stroke:#000000;stroke-width:5.00548363;stroke-opacity:1"
         d="M -176.777,61.2372 -282.843,0"
         id="path8009"
         inkscape:connector-curvature="0" />
      <path
         style="stroke:#000000;stroke-width:5.00548363;stroke-opacity:1"
         d="m 360.624,975.713 -31.819,18.372"
         id="path8011"
         inkscape:connector-curvature="0" />
      <path
         style="stroke:#000000;stroke-width:5.00548363;stroke-opacity:1"
         d="M 328.805,994.085 247.487,947.136"
         id="path8013"
         inkscape:connector-curvature="0" />
      <path
         style="stroke:#000000;stroke-width:5.00548363;stroke-opacity:1"
         d="m 360.624,934.889 -7.071,-4.083"
         id="21"
         inkscape:connector-curvature="0" />
      <path
         style="stroke:#000000;stroke-width:5.00548363;stroke-opacity:1"
         d="m 360.624,934.889 0,40.824"
         id="22"
         inkscape:connector-curvature="0" />
      <path
         style="stroke:#000000;stroke-width:5.00548363;stroke-opacity:1"
         d="M 282.843,244.949 0,81.6497"
         id="23"
         inkscape:connector-curvature="0" />
      <path
         style="stroke:#000000;stroke-width:5.00548363;stroke-opacity:1"
         d="m -212.132,-122.474 -70.711,40.8243"
         id="24"
         inkscape:connector-curvature="0" />
      <path
         style="stroke:#000000;stroke-width:5.00548363;stroke-opacity:1"
         d="M -106.066,20.4124 -282.843,-81.6497"
         id="25"
         inkscape:connector-curvature="0" />
      <path
         style="stroke:#000000;stroke-width:5.00548363;stroke-opacity:1"
         d="m -282.843,-81.6497 0,81.6497"
         id="26"
         inkscape:connector-curvature="0" />
      <path
         style="stroke:#000000;stroke-width:5.00548363;stroke-opacity:1"
         d="M 360.624,934.889 328.805,953.26"
         id="27"
         inkscape:connector-curvature="0" />
      <path
         style="stroke:#000000;stroke-width:5.00548363;stroke-opacity:1"
         d="M 328.805,953.26 247.487,906.311"
         id="28"
         inkscape:connector-curvature="0" />
      <path
         style="stroke:#000000;stroke-width:5.00548363;stroke-opacity:1"
         d="m 279.307,887.94 -31.82,18.371"
         id="29"
         inkscape:connector-curvature="0" />
      <path
         style="stroke:#000000;stroke-width:5.00548363;stroke-opacity:1"
         d="m 247.487,906.311 0,40.825"
         id="30"
         inkscape:connector-curvature="0" />
      <path
         style="stroke:#000000;stroke-width:5.00548363;stroke-opacity:1"
         d="M 0,81.6497 0,163.299"
         id="31"
         inkscape:connector-curvature="0" />
      <path
         style="stroke:#000000;stroke-width:5.00548363;stroke-opacity:1"
         d="M 0,163.299 0,367.423"
         id="32"
         inkscape:connector-curvature="0" />
      <path
         style="stroke:#000000;stroke-width:5.00548363;stroke-opacity:1"
         d="m 328.805,953.26 0,40.825"
         id="33"
         inkscape:connector-curvature="0" />
      <path
         style="stroke:#000000;stroke-width:5.00548363;stroke-opacity:1"
         d="M 0,40.8248 -48.9949,12.5376"
         id="34"
         inkscape:connector-curvature="0" />
      <path
         style="stroke:#000000;stroke-width:5.00548363;stroke-opacity:1"
         d="M 0,40.8248 0,81.6497"
         id="35"
         inkscape:connector-curvature="0" />
      <path
         style="stroke:#000000;stroke-width:5.00548363;stroke-opacity:1"
         id="path8030"
         d="m 243.791,927.003 a 18.000037,10.392321 -60 0 1 18,-31.177"
         inkscape:connector-curvature="0" />
      <path
         style="stroke:#000000;stroke-width:5.00548363;stroke-opacity:1"
         d="M 0,40.8248 -113.137,106.145"
         id="37"
         inkscape:connector-curvature="0" />
      <path
         style="stroke:#000000;stroke-width:5.00548363;stroke-opacity:1"
         d="m -113.137,106.145 0,326.598"
         id="38"
         inkscape:connector-curvature="0" />
      <path
         style="stroke:#000000;stroke-width:5.00548363;stroke-opacity:1"
         d="m 0,367.423 -113.137,65.32"
         id="39"
         inkscape:connector-curvature="0" />
      <path
         style="stroke:#000000;stroke-width:5.00548363;stroke-opacity:1"
         d="m -48.9949,12.5376 -43.4315,0"
         id="40"
         inkscape:connector-curvature="0" />
      <path
         style="stroke:#000000;stroke-width:5.00548363;stroke-opacity:1"
         d="m -113.137,432.743 -70.711,-40.825"
         id="41"
         inkscape:connector-curvature="0" />
      <path
         style="stroke:#000000;stroke-width:5.00548363;stroke-opacity:1"
         d="M -113.137,106.145 -183.848,65.3197"
         id="42"
         inkscape:connector-curvature="0" />
      <path
         style="stroke:#000000;stroke-width:5.00548363;stroke-opacity:1"
         d="M -92.4264,12.5376 -183.848,65.3197"
         id="43"
         inkscape:connector-curvature="0" />
      <path
         style="stroke:#000000;stroke-width:5.00548363;stroke-opacity:1"
         id="path8039"
         d="m 247.487,938.193 a 30,17.3205 -60 0 1 -9.696,-0.798"
         inkscape:connector-curvature="0" />
      <path
         style="stroke:#000000;stroke-width:5.00548363;stroke-opacity:1"
         id="path8041"
         d="m 237.791,937.395 a 30,17.3205 -60 0 1 30,-51.961"
         inkscape:connector-curvature="0" />
      <path
         style="stroke:#000000;stroke-width:5.00548363;stroke-opacity:1"
         id="path8043"
         d="m 267.791,885.434 a 30,17.3205 -60 0 1 5,6.268"
         inkscape:connector-curvature="0" />
      <path
         style="stroke:#000000;stroke-width:5.00548363;stroke-opacity:1"
         d="m -183.848,65.3197 0,326.5983"
         id="47"
         inkscape:connector-curvature="0" />
      <path
         style="stroke:#000000;stroke-width:5.00548363;stroke-opacity:1"
         id="path8046"
         d="m -92.1751,459.279 a 25,14.4338 0 1 0 50,0"
         inkscape:connector-curvature="0" />
      <path
         style="stroke:#000000;stroke-width:5.00548363;stroke-opacity:1"
         id="path8048"
         d="m 188.293,908.818 a 30.000206,17.320619 -60 0 1 30,-51.962"
         inkscape:connector-curvature="0" />
    </g>
    <path
       style="fill:none;stroke:#000000;stroke-width:1px;stroke-linecap:butt;stroke-linejoin:miter;stroke-opacity:1"
       d="m 460.23486,681.50074 64.04367,-74.90281"
       id="path8329"
       inkscape:connector-curvature="0"
       sodipodi:nodetypes="cc" />
    <path
       style="fill:none;stroke:#000000;stroke-width:1px;stroke-linecap:butt;stroke-linejoin:miter;stroke-opacity:1"
       d="m 462.43636,685.54135 62.62946,-2.52538"
       id="path8331"
       inkscape:connector-curvature="0"
       sodipodi:nodetypes="cc" />
    <g
       id="g9534"
       transform="matrix(1,-0.36396871,0,1,281.3216,648.00166)">
      <path
         sodipodi:nodetypes="ccccc"
         inkscape:connector-curvature="0"
         id="path8335"
         d="m 211.64657,67.436329 c 0.57481,0.489314 0.6437,1.351678 0.15461,1.926172 -0.48985,0.574502 -1.35198,0.64354 -1.92664,0.154226 -0.56715,-0.482655 -0.64292,-1.330247 -0.16226,-1.916138 0.49751,-0.584528 1.36033,-0.653566 1.93491,-0.164252 z"
         style="fill:#000000;fill-opacity:1;stroke:none" />
      <path
         sodipodi:nodetypes="ccccc"
         inkscape:connector-curvature="0"
         id="path8335-4"
         d="m 220.05614,73.953799 c 0.57481,0.489313 0.64369,1.351678 0.15461,1.926172 -0.48908,0.574501 -1.35198,0.64354 -1.92664,0.154226 -0.56715,-0.482731 -0.64293,-1.330247 -0.16226,-1.916138 0.4975,-0.584528 1.36033,-0.653566 1.9349,-0.164253 z"
         style="fill:#000000;fill-opacity:1;stroke:none" />
      <path
         sodipodi:nodetypes="ccccc"
         inkscape:connector-curvature="0"
         id="path8335-9"
         d="m 222.31718,64.021818 c 0.80634,0.686631 0.90324,1.896843 0.2166,2.703035 -0.68655,0.806185 -1.89717,0.903099 -2.70358,0.216452 -0.79555,-0.677369 -0.90224,-1.866754 -0.22809,-2.688951 0.6988,-0.820269 1.90904,-0.917175 2.71538,-0.230536 z"
         style="fill:#000000;fill-opacity:1;stroke:none" />
      <path
         sodipodi:nodetypes="ccccc"
         inkscape:connector-curvature="0"
         id="path8335-96"
         d="m 225.30848,72.818198 c 0.36126,0.307533 0.40489,0.849575 0.0972,1.210662 -0.30769,0.361111 -0.84974,0.404509 -1.21092,0.09698 -0.35591,-0.3034 -0.40413,-0.836104 -0.1018,-1.204363 0.31304,-0.367387 0.85502,-0.410785 1.21613,-0.103251 z"
         style="fill:#000000;fill-opacity:1;stroke:none" />
      <path
         sodipodi:nodetypes="ccccc"
         inkscape:connector-curvature="0"
         id="path8335-5"
         d="m 211.40548,78.902824 c 0.50362,0.428695 0.56409,1.184311 0.13547,1.687669 -0.42862,0.503321 -1.18452,0.563863 -1.68807,0.135168 -0.49673,-0.422954 -0.56332,-1.165535 -0.14236,-1.678882 0.43627,-0.512123 1.19187,-0.572665 1.69534,-0.14397 z"
         style="fill:#000000;fill-opacity:1;stroke:none" />
      <path
         sodipodi:nodetypes="ccccc"
         inkscape:connector-curvature="0"
         id="path8335-3"
         d="m 217.62327,81.747801 c 0.45005,0.383307 0.5044,1.058794 0.12094,1.508797 -0.38347,0.449973 -1.059,0.504086 -1.50912,0.120855 -0.44393,-0.378102 -0.50363,-1.042001 -0.12706,-1.500937 0.38958,-0.457856 1.06558,-0.511969 1.51563,-0.128662 z"
         style="fill:#000000;fill-opacity:1;stroke:none" />
      <path
         sodipodi:nodetypes="ccccc"
         inkscape:connector-curvature="0"
         id="path8335-8"
         d="m 224.23502,78.526329 c 0.73477,0.62563 0.82302,1.728235 0.19747,2.462772 -0.62609,0.734544 -1.72864,0.822832 -2.46333,0.197241 -0.72483,-0.617211 -0.82203,-1.700842 -0.20819,-2.449952 0.63604,-0.747326 1.73935,-0.83566 2.47405,-0.210023 z"
         style="fill:#000000;fill-opacity:1;stroke:none" />
      <path
         sodipodi:nodetypes="ccccc"
         inkscape:connector-curvature="0"
         id="path8335-87"
         d="m 230.23276,76.975932 c 0.23651,0.201528 0.26483,0.556668 0.0612,0.793289 -0.20129,0.236582 -0.5572,0.265054 -0.79347,0.06353 -0.23345,-0.198772 -0.26483,-0.547866 -0.0689,-0.789163 0.20512,-0.240715 0.56027,-0.269187 0.79685,-0.06735 z"
         style="fill:#000000;fill-opacity:1;stroke:none" />
      <path
         sodipodi:nodetypes="ccccc"
         inkscape:connector-curvature="0"
         id="path8335-0"
         d="m 229.76067,80.195437 c 0.39647,0.337843 0.44469,0.933263 0.10639,1.329919 -0.3383,0.396625 -0.93339,0.444308 -1.33017,0.106465 -0.39111,-0.33325 -0.44393,-0.91846 -0.11251,-1.322991 0.34366,-0.40359 0.93921,-0.451274 1.33591,-0.113431 z"
         style="fill:#000000;fill-opacity:1;stroke:none" />
      <path
         sodipodi:nodetypes="ccccc"
         inkscape:connector-curvature="0"
         id="path8335-2"
         d="m 221.37391,85.025674 c 0.41484,0.352998 0.46459,0.975107 0.11098,1.389542 -0.35284,0.414459 -0.97526,0.464286 -1.38979,0.111288 -0.40872,-0.348252 -0.46383,-0.959646 -0.1171,-1.382309 0.35896,-0.421653 0.9813,-0.47148 1.39584,-0.118482 z"
         style="fill:#000000;fill-opacity:1;stroke:none" />
      <path
         sodipodi:nodetypes="ccccc"
         inkscape:connector-curvature="0"
         id="path8335-06"
         d="m 213.34023,74.877946 c 0.41484,0.352997 0.46459,0.975106 0.11175,1.389542 -0.35285,0.414458 -0.97526,0.464285 -1.3898,0.111287 -0.40872,-0.348252 -0.46382,-0.959645 -0.1171,-1.382309 0.35896,-0.421653 0.9813,-0.47148 1.39584,-0.118482 z"
         style="fill:#000000;fill-opacity:1;stroke:none" />
      <path
         sodipodi:nodetypes="ccccc"
         inkscape:connector-curvature="0"
         id="path8335-99"
         d="m 211.10169,84.149831 c 0.36127,0.307534 0.40489,0.849575 0.0972,1.210663 -0.30769,0.361111 -0.84974,0.404508 -1.21092,0.09698 -0.35591,-0.303401 -0.40413,-0.836104 -0.1018,-1.204364 0.31304,-0.367387 0.85502,-0.410785 1.21613,-0.103251 z"
         style="fill:#000000;fill-opacity:1;stroke:none" />
      <path
         sodipodi:nodetypes="ccccc"
         inkscape:connector-curvature="0"
         id="path8335-6"
         d="m 216.96366,67.593662 c 0.41255,0.351314 0.4623,0.970392 0.11098,1.382822 -0.35131,0.412392 -0.97051,0.46199 -1.38306,0.110752 -0.40718,-0.346568 -0.46153,-0.954999 -0.1171,-1.375619 0.35744,-0.419664 0.97664,-0.469184 1.3891,-0.117947 z"
         style="fill:#000000;fill-opacity:1;stroke:none" />
      <path
         sodipodi:nodetypes="ccccc"
         inkscape:connector-curvature="0"
         id="path8335-6-1"
         d="m 225.69377,68.670022 c 0.41255,0.351314 0.4623,0.970392 0.11098,1.382822 -0.35131,0.412392 -0.97051,0.46199 -1.38305,0.110752 -0.40719,-0.346568 -0.46153,-0.954999 -0.11711,-1.375619 0.35744,-0.419664 0.97664,-0.469184 1.38911,-0.117947 z"
         style="fill:#000000;fill-opacity:1;stroke:none" />
      <path
         sodipodi:nodetypes="ccccc"
         inkscape:connector-curvature="0"
         id="path8335-6-5"
         d="m 228.08562,61.016125 c 0.41254,0.351314 0.46229,0.970392 0.11098,1.382822 -0.35132,0.412392 -0.97052,0.461989 -1.38306,0.110752 -0.40719,-0.346569 -0.46153,-0.955 -0.11711,-1.37562 0.35744,-0.419663 0.97664,-0.469184 1.38911,-0.117946 z"
         style="fill:#000000;fill-opacity:1;stroke:none" />
      <path
         sodipodi:nodetypes="ccccc"
         inkscape:connector-curvature="0"
         id="path8335-6-51"
         d="m 219.47498,55.036518 c 0.41255,0.351313 0.4623,0.970391 0.11098,1.382822 -0.35131,0.412392 -0.97051,0.461989 -1.38306,0.110751 -0.40718,-0.346568 -0.46153,-0.954999 -0.1171,-1.375619 0.35744,-0.419663 0.97664,-0.469184 1.3891,-0.117947 z"
         style="fill:#000000;fill-opacity:1;stroke:none" />
      <path
         sodipodi:nodetypes="ccccc"
         inkscape:connector-curvature="0"
         id="path8335-6-8"
         d="m 214.93048,60.776941 c 0.41254,0.351314 0.46229,0.970391 0.11098,1.382822 -0.35131,0.412392 -0.97051,0.461989 -1.38306,0.110752 -0.40719,-0.346569 -0.46153,-0.955 -0.1171,-1.37562 0.35743,-0.419663 0.97663,-0.469184 1.3891,-0.117947 z"
         style="fill:#000000;fill-opacity:1;stroke:none" />
      <path
         sodipodi:nodetypes="ccccc"
         inkscape:connector-curvature="0"
         id="path8335-6-3"
         d="m 206.31984,66.038995 c 0.41255,0.351314 0.4623,0.970392 0.11099,1.382822 -0.35132,0.412392 -0.97052,0.461989 -1.38306,0.110752 -0.40719,-0.346568 -0.46153,-0.955 -0.11711,-1.37562 0.35744,-0.419663 0.97664,-0.469184 1.38911,-0.117946 z"
         style="fill:#000000;fill-opacity:1;stroke:none" />
      <path
         sodipodi:nodetypes="ccccc"
         inkscape:connector-curvature="0"
         id="path8335-6-0"
         d="m 206.08066,82.064343 c 0.41255,0.351314 0.4623,0.970392 0.11098,1.382822 -0.35131,0.412392 -0.97051,0.461989 -1.38306,0.110752 -0.40718,-0.346569 -0.46153,-0.955 -0.1171,-1.37562 0.35744,-0.419663 0.97664,-0.469184 1.3891,-0.117946 z"
         style="fill:#000000;fill-opacity:1;stroke:none" />
      <path
         sodipodi:nodetypes="ccccc"
         inkscape:connector-curvature="0"
         id="path8335-6-86"
         d="m 206.08066,88.04395 c 0.41255,0.351314 0.4623,0.970392 0.11098,1.382822 -0.35131,0.412392 -0.97051,0.46199 -1.38306,0.110752 -0.40718,-0.346568 -0.46153,-0.954999 -0.1171,-1.375619 0.35744,-0.419664 0.97664,-0.469184 1.3891,-0.117947 z"
         style="fill:#000000;fill-opacity:1;stroke:none" />
      <path
         sodipodi:nodetypes="ccccc"
         inkscape:connector-curvature="0"
         id="path8335-6-80"
         d="m 212.77782,93.545189 c 0.41255,0.351314 0.4623,0.970392 0.11098,1.382822 -0.35131,0.412392 -0.97051,0.46199 -1.38306,0.110752 -0.40718,-0.346568 -0.46153,-0.955 -0.1171,-1.375619 0.35744,-0.419664 0.97664,-0.469184 1.3891,-0.117947 z"
         style="fill:#000000;fill-opacity:1;stroke:none" />
      <path
         sodipodi:nodetypes="ccccc"
         inkscape:connector-curvature="0"
         id="path8335-6-18"
         d="m 222.34519,93.306005 c 0.41255,0.351314 0.4623,0.970392 0.11098,1.382822 -0.35131,0.412392 -0.97051,0.461989 -1.38306,0.110752 -0.40718,-0.346569 -0.46153,-0.955 -0.1171,-1.37562 0.35744,-0.419663 0.97664,-0.469184 1.38911,-0.117946 z"
         style="fill:#000000;fill-opacity:1;stroke:none" />
      <path
         sodipodi:nodetypes="ccccc"
         inkscape:connector-curvature="0"
         id="path8335-6-06"
         d="m 229.04235,90.914162 c 0.41255,0.351314 0.4623,0.970392 0.11098,1.382822 -0.35131,0.412392 -0.97051,0.461989 -1.38305,0.110752 -0.40719,-0.346569 -0.46153,-0.955 -0.11711,-1.37562 0.35744,-0.419663 0.97664,-0.469184 1.38911,-0.117946 z"
         style="fill:#000000;fill-opacity:1;stroke:none" />
      <path
         sodipodi:nodetypes="ccccc"
         inkscape:connector-curvature="0"
         id="path8335-6-4"
         d="m 236.45707,85.412923 c 0.41254,0.351314 0.46229,0.970392 0.11098,1.382822 -0.35132,0.412392 -0.97052,0.461989 -1.38306,0.110752 -0.40719,-0.346568 -0.46153,-0.955 -0.11711,-1.37562 0.35744,-0.419663 0.97664,-0.469183 1.38911,-0.117946 z"
         style="fill:#000000;fill-opacity:1;stroke:none" />
      <path
         sodipodi:nodetypes="ccccc"
         inkscape:connector-curvature="0"
         id="path8335-6-9"
         d="m 216.84395,88.283135 c 0.41255,0.351314 0.4623,0.970392 0.11099,1.382822 -0.35132,0.412392 -0.97052,0.461989 -1.38306,0.110752 -0.40719,-0.346569 -0.46153,-0.955 -0.11711,-1.37562 0.35744,-0.419663 0.97664,-0.469184 1.38911,-0.117947 z"
         style="fill:#000000;fill-opacity:1;stroke:none" />
      <path
         sodipodi:nodetypes="ccccc"
         inkscape:connector-curvature="0"
         id="path8335-6-50"
         d="m 204.88474,75.845551 c 0.41254,0.351314 0.46229,0.970392 0.11098,1.382822 -0.35131,0.412392 -0.97051,0.46199 -1.38306,0.110752 -0.40719,-0.346568 -0.46153,-0.955 -0.1171,-1.375619 0.35743,-0.419664 0.97663,-0.469184 1.3891,-0.117947 z"
         style="fill:#000000;fill-opacity:1;stroke:none" />
      <path
         sodipodi:nodetypes="ccccc"
         inkscape:connector-curvature="0"
         id="path8335-6-7"
         d="m 199.14432,87.326398 c 0.41254,0.351313 0.46229,0.970391 0.11098,1.382822 -0.35132,0.412392 -0.97052,0.461989 -1.38306,0.110751 -0.40719,-0.346568 -0.46153,-0.954999 -0.11711,-1.375619 0.35744,-0.419663 0.97664,-0.469184 1.38911,-0.117947 z"
         style="fill:#000000;fill-opacity:1;stroke:none" />
      <path
         sodipodi:nodetypes="ccccc"
         inkscape:connector-curvature="0"
         id="path8335-6-08"
         d="m 208.23332,96.176217 c 0.41254,0.351313 0.46229,0.970391 0.11098,1.382822 -0.35131,0.412392 -0.97051,0.461989 -1.38306,0.110751 -0.40719,-0.346568 -0.46153,-0.954999 -0.1171,-1.375619 0.35743,-0.419663 0.97663,-0.469184 1.3891,-0.117947 z"
         style="fill:#000000;fill-opacity:1;stroke:none" />
      <path
         sodipodi:nodetypes="ccccc"
         inkscape:connector-curvature="0"
         id="path8335-6-77"
         d="m 222.10601,97.372138 c 0.41254,0.351314 0.46229,0.970392 0.11098,1.382822 -0.35131,0.412392 -0.97051,0.461989 -1.38306,0.110752 -0.40719,-0.346569 -0.46153,-0.955 -0.1171,-1.37562 0.35743,-0.419663 0.97663,-0.469184 1.3891,-0.117946 z"
         style="fill:#000000;fill-opacity:1;stroke:none" />
      <path
         sodipodi:nodetypes="ccccc"
         inkscape:connector-curvature="0"
         id="path8335-6-89"
         d="m 230.71664,95.937032 c 0.41255,0.351314 0.4623,0.970392 0.11098,1.382822 -0.35131,0.412392 -0.97051,0.46199 -1.38305,0.110752 -0.40719,-0.346568 -0.46153,-0.955 -0.11711,-1.37562 0.35744,-0.419663 0.97664,-0.469183 1.38911,-0.117946 z"
         style="fill:#000000;fill-opacity:1;stroke:none" />
      <path
         sodipodi:nodetypes="ccccc"
         inkscape:connector-curvature="0"
         id="path8335-6-87"
         d="m 231.4342,87.087213 c 0.41254,0.351314 0.46229,0.970392 0.11098,1.382822 -0.35132,0.412392 -0.97052,0.46199 -1.38306,0.110752 -0.40719,-0.346568 -0.46153,-0.955 -0.11711,-1.375619 0.35744,-0.419664 0.97664,-0.469184 1.38911,-0.117947 z"
         style="fill:#000000;fill-opacity:1;stroke:none" />
      <path
         sodipodi:nodetypes="ccccc"
         inkscape:connector-curvature="0"
         id="path8335-6-893"
         d="m 234.54359,79.194131 c 0.41255,0.351314 0.4623,0.970392 0.11098,1.382823 -0.35131,0.412392 -0.97051,0.461989 -1.38306,0.110751 -0.40718,-0.346568 -0.46153,-0.954999 -0.1171,-1.375619 0.35744,-0.419663 0.97664,-0.469184 1.38911,-0.117947 z"
         style="fill:#000000;fill-opacity:1;stroke:none" />
      <path
         sodipodi:nodetypes="ccccc"
         inkscape:connector-curvature="0"
         id="path8335-6-15"
         d="m 236.93543,68.191654 c 0.41255,0.351314 0.4623,0.970392 0.11099,1.382822 -0.35132,0.412392 -0.97052,0.461989 -1.38306,0.110752 -0.40719,-0.346569 -0.46153,-0.955 -0.11711,-1.37562 0.35744,-0.419663 0.97664,-0.469184 1.38911,-0.117947 z"
         style="fill:#000000;fill-opacity:1;stroke:none" />
      <path
         sodipodi:nodetypes="ccccc"
         inkscape:connector-curvature="0"
         id="path8335-6-03"
         d="m 229.75991,63.407968 c 0.41254,0.351314 0.46229,0.970392 0.11098,1.382822 -0.35132,0.412392 -0.97052,0.461989 -1.38306,0.110752 -0.40719,-0.346569 -0.46153,-0.955 -0.11711,-1.37562 0.35744,-0.419663 0.97664,-0.469184 1.38911,-0.117946 z"
         style="fill:#000000;fill-opacity:1;stroke:none" />
      <path
         sodipodi:nodetypes="ccccc"
         inkscape:connector-curvature="0"
         id="path8335-6-53"
         d="m 221.26982,88.640679 c 0.199,0.169534 0.22273,0.468265 0.0536,0.667343 -0.16992,0.199002 -0.46842,0.222958 -0.66742,0.05358 -0.19671,-0.167238 -0.22273,-0.460842 -0.0536,-0.6639 0.17221,-0.202522 0.47148,-0.226402 0.67048,-0.05664 z"
         style="fill:#000000;fill-opacity:1;stroke:none" />
      <path
         sodipodi:nodetypes="ccccc"
         inkscape:connector-curvature="0"
         id="path8335-6-53-5"
         d="m 217.44777,96.789722 c 0.199,0.169534 0.22273,0.468266 0.0536,0.667344 -0.16992,0.199001 -0.46842,0.222958 -0.66742,0.05358 -0.19671,-0.167238 -0.22273,-0.460841 -0.0536,-0.663899 0.17221,-0.202522 0.47148,-0.226402 0.67048,-0.05664 z"
         style="fill:#000000;fill-opacity:1;stroke:none" />
      <path
         sodipodi:nodetypes="ccccc"
         inkscape:connector-curvature="0"
         id="path8335-6-53-3"
         d="m 211.27452,91.715854 c 0.199,0.169534 0.22273,0.468266 0.0536,0.667344 -0.16992,0.199001 -0.46842,0.222958 -0.66742,0.05358 -0.19671,-0.167238 -0.22273,-0.460841 -0.0536,-0.663899 0.17221,-0.202522 0.47148,-0.226403 0.67048,-0.05664 z"
         style="fill:#000000;fill-opacity:1;stroke:none" />
      <path
         sodipodi:nodetypes="ccccc"
         inkscape:connector-curvature="0"
         id="path8335-6-53-2"
         d="m 205.10134,94.252784 c 0.19901,0.169534 0.22273,0.468266 0.0536,0.667344 -0.16991,0.199001 -0.46842,0.222958 -0.66742,0.05358 -0.1967,-0.167238 -0.22273,-0.460841 -0.0536,-0.663899 0.17222,-0.202522 0.47148,-0.226402 0.67049,-0.05664 z"
         style="fill:#000000;fill-opacity:1;stroke:none" />
      <path
         sodipodi:nodetypes="ccccc"
         inkscape:connector-curvature="0"
         id="path8335-6-53-55"
         d="m 218.2088,78.946627 c 0.199,0.169534 0.22273,0.468266 0.0536,0.667344 -0.16991,0.199001 -0.46841,0.222958 -0.66742,0.05358 -0.1967,-0.167238 -0.22272,-0.460841 -0.0536,-0.663899 0.17221,-0.202522 0.47148,-0.226402 0.67048,-0.05664 z"
         style="fill:#000000;fill-opacity:1;stroke:none" />
      <path
         sodipodi:nodetypes="ccccc"
         inkscape:connector-curvature="0"
         id="path8335-6-53-33"
         d="m 227.59546,89.51718 c 0.199,0.169534 0.22273,0.468266 0.0536,0.667344 -0.16992,0.199001 -0.46842,0.222958 -0.66742,0.05358 -0.19671,-0.167238 -0.22273,-0.460841 -0.0536,-0.663899 0.17221,-0.202522 0.47148,-0.226402 0.67048,-0.05664 z"
         style="fill:#000000;fill-opacity:1;stroke:none" />
      <path
         sodipodi:nodetypes="ccccc"
         inkscape:connector-curvature="0"
         id="path8335-6-53-59"
         d="m 239.51908,96.620594 c 0.19901,0.169534 0.22273,0.468266 0.0536,0.667344 -0.16991,0.199001 -0.46842,0.222958 -0.66742,0.05358 -0.1967,-0.167238 -0.22273,-0.460841 -0.0536,-0.663899 0.17222,-0.202522 0.47148,-0.226403 0.67049,-0.05664 z"
         style="fill:#000000;fill-opacity:1;stroke:none" />
      <path
         sodipodi:nodetypes="ccccc"
         inkscape:connector-curvature="0"
         id="path8335-6-53-7"
         d="m 233.93779,75.986881 c 0.199,0.169533 0.22272,0.468265 0.0536,0.667343 -0.16991,0.199001 -0.46842,0.222958 -0.66742,0.05358 -0.1967,-0.167237 -0.22273,-0.460841 -0.0536,-0.663899 0.17221,-0.202522 0.47148,-0.226402 0.67048,-0.05664 z"
         style="fill:#000000;fill-opacity:1;stroke:none" />
      <path
         sodipodi:nodetypes="ccccc"
         inkscape:connector-curvature="0"
         id="path8335-6-53-6"
         d="m 230.38607,70.913012 c 0.199,0.169534 0.22273,0.468266 0.0536,0.667344 -0.16992,0.199001 -0.46842,0.222958 -0.66742,0.05358 -0.19671,-0.167238 -0.22273,-0.460841 -0.0536,-0.663899 0.17221,-0.202522 0.47148,-0.226402 0.67048,-0.05664 z"
         style="fill:#000000;fill-opacity:1;stroke:none" />
      <path
         sodipodi:nodetypes="ccccc"
         inkscape:connector-curvature="0"
         id="path8335-6-53-60"
         d="m 199.94292,82.413774 c 0.199,0.169534 0.22273,0.468266 0.0536,0.667343 -0.16992,0.199002 -0.46842,0.222958 -0.66742,0.05358 -0.1967,-0.167238 -0.22273,-0.460841 -0.0536,-0.663899 0.17222,-0.202522 0.47148,-0.226403 0.67049,-0.05664 z"
         style="fill:#000000;fill-opacity:1;stroke:none" />
      <path
         sodipodi:nodetypes="ccccc"
         inkscape:connector-curvature="0"
         id="path8335-6-53-36"
         d="m 202.14158,71.082141 c 0.199,0.169533 0.22273,0.468265 0.0536,0.667343 -0.16992,0.199001 -0.46842,0.222958 -0.66742,0.05358 -0.19671,-0.167237 -0.22273,-0.460841 -0.0536,-0.663899 0.17221,-0.202522 0.47148,-0.226402 0.67048,-0.05664 z"
         style="fill:#000000;fill-opacity:1;stroke:none" />
      <path
         sodipodi:nodetypes="ccccc"
         inkscape:connector-curvature="0"
         id="path8335-6-53-8"
         d="m 206.20067,64.147855 c 0.199,0.169534 0.22273,0.468265 0.0536,0.667343 -0.16992,0.199002 -0.46842,0.222958 -0.66742,0.05358 -0.1967,-0.167237 -0.22273,-0.460841 -0.0536,-0.663899 0.17222,-0.202522 0.47148,-0.226402 0.67049,-0.05664 z"
         style="fill:#000000;fill-opacity:1;stroke:none" />
      <path
         sodipodi:nodetypes="ccccc"
         inkscape:connector-curvature="0"
         id="path8335-6-53-0"
         d="m 210.59807,57.551833 c 0.199,0.169534 0.22273,0.468266 0.0536,0.667343 -0.16991,0.199002 -0.46841,0.222959 -0.66742,0.05358 -0.1967,-0.167238 -0.22272,-0.460841 -0.0536,-0.663899 0.17221,-0.202522 0.47148,-0.226403 0.67048,-0.05664 z"
         style="fill:#000000;fill-opacity:1;stroke:none" />
      <path
         sodipodi:nodetypes="ccccc"
         inkscape:connector-curvature="0"
         id="path8335-6-53-4"
         d="m 213.98063,49.264522 c 0.199,0.169534 0.22273,0.468266 0.0536,0.667343 -0.16992,0.199002 -0.46842,0.222958 -0.66742,0.05358 -0.19671,-0.167238 -0.22273,-0.460842 -0.0536,-0.663899 0.17221,-0.202523 0.47148,-0.226403 0.67048,-0.05664 z"
         style="fill:#000000;fill-opacity:1;stroke:none" />
      <path
         sodipodi:nodetypes="ccccc"
         inkscape:connector-curvature="0"
         id="path8335-6-53-9"
         d="m 221.08398,60.427027 c 0.199,0.169534 0.22273,0.468266 0.0536,0.667344 -0.16992,0.199001 -0.46842,0.222958 -0.66742,0.05358 -0.1967,-0.167238 -0.22273,-0.460841 -0.0536,-0.663899 0.17222,-0.202522 0.47148,-0.226402 0.67048,-0.05664 z"
         style="fill:#000000;fill-opacity:1;stroke:none" />
      <path
         sodipodi:nodetypes="ccccc"
         inkscape:connector-curvature="0"
         id="path8335-6-53-94"
         d="m 218.5471,68.883467 c 0.199,0.169534 0.22273,0.468265 0.0536,0.667343 -0.16992,0.199001 -0.46842,0.222958 -0.66742,0.05358 -0.19671,-0.167237 -0.22273,-0.460841 -0.0536,-0.663899 0.17221,-0.202522 0.47148,-0.226402 0.67048,-0.05664 z"
         style="fill:#000000;fill-opacity:1;stroke:none" />
      <path
         sodipodi:nodetypes="ccccc"
         inkscape:connector-curvature="0"
         id="path8335-6-53-69"
         d="m 209.07586,74.633848 c 0.199,0.169533 0.22273,0.468265 0.0536,0.667343 -0.16992,0.199001 -0.46842,0.222958 -0.66742,0.05358 -0.19671,-0.167238 -0.22273,-0.460841 -0.0536,-0.663899 0.17221,-0.202522 0.47148,-0.226402 0.67048,-0.05664 z"
         style="fill:#000000;fill-opacity:1;stroke:none" />
      <path
         sodipodi:nodetypes="ccccc"
         inkscape:connector-curvature="0"
         id="path8335-6-53-51"
         d="m 199.94292,75.986881 c 0.199,0.169533 0.22273,0.468265 0.0536,0.667343 -0.16992,0.199001 -0.46842,0.222958 -0.66742,0.05358 -0.1967,-0.167237 -0.22273,-0.460841 -0.0536,-0.663899 0.17222,-0.202522 0.47148,-0.226402 0.67049,-0.05664 z"
         style="fill:#000000;fill-opacity:1;stroke:none" />
      <path
         sodipodi:nodetypes="ccccc"
         inkscape:connector-curvature="0"
         id="path8335-6-53-1"
         d="m 202.47988,79.876844 c 0.19901,0.169534 0.22273,0.468265 0.0536,0.667343 -0.16991,0.199002 -0.46842,0.222958 -0.66742,0.05358 -0.1967,-0.167237 -0.22273,-0.460841 -0.0536,-0.663899 0.17222,-0.202522 0.47148,-0.226402 0.67049,-0.05664 z"
         style="fill:#000000;fill-opacity:1;stroke:none" />
      <path
         sodipodi:nodetypes="ccccc"
         inkscape:connector-curvature="0"
         id="path8335-6-53-21"
         d="m 227.34181,84.950704 c 0.199,0.169534 0.22273,0.468266 0.0536,0.667344 -0.16992,0.199001 -0.46842,0.222958 -0.66742,0.05358 -0.19671,-0.167238 -0.22273,-0.460841 -0.0536,-0.663899 0.17221,-0.202522 0.47148,-0.226402 0.67048,-0.05664 z"
         style="fill:#000000;fill-opacity:1;stroke:none" />
      <path
         sodipodi:nodetypes="ccccc"
         inkscape:connector-curvature="0"
         id="path8335-6-53-67"
         d="m 230.38607,74.126463 c 0.199,0.169534 0.22273,0.468265 0.0536,0.667343 -0.16992,0.199002 -0.46842,0.222958 -0.66742,0.05358 -0.19671,-0.167238 -0.22273,-0.460842 -0.0536,-0.663899 0.17221,-0.202523 0.47148,-0.226403 0.67048,-0.05664 z"
         style="fill:#000000;fill-opacity:1;stroke:none" />
      <path
         sodipodi:nodetypes="ccccc"
         inkscape:connector-curvature="0"
         id="path8335-6-53-71"
         d="m 234.95262,72.096917 c 0.199,0.169534 0.22272,0.468266 0.0536,0.667344 -0.16991,0.199001 -0.46842,0.222958 -0.66742,0.05358 -0.1967,-0.167238 -0.22272,-0.460841 -0.0536,-0.663899 0.17221,-0.202522 0.47148,-0.226402 0.67048,-0.05664 z"
         style="fill:#000000;fill-opacity:1;stroke:none" />
      <path
         sodipodi:nodetypes="ccccc"
         inkscape:connector-curvature="0"
         id="path8335-6-53-29"
         d="m 239.34993,84.950704 c 0.199,0.169534 0.22273,0.468266 0.0536,0.667344 -0.16992,0.199001 -0.46842,0.222958 -0.66742,0.05358 -0.1967,-0.167238 -0.22273,-0.460841 -0.0536,-0.663899 0.17222,-0.202522 0.47148,-0.226402 0.67048,-0.05664 z"
         style="fill:#000000;fill-opacity:1;stroke:none" />
      <path
         sodipodi:nodetypes="ccccc"
         inkscape:connector-curvature="0"
         id="path8335-6-53-672"
         d="m 237.65865,90.701085 c 0.199,0.169534 0.22273,0.468266 0.0536,0.667344 -0.16992,0.199001 -0.46842,0.222958 -0.66742,0.05358 -0.19671,-0.167238 -0.22273,-0.460841 -0.0536,-0.663899 0.17221,-0.202522 0.47148,-0.226403 0.67048,-0.05664 z"
         style="fill:#000000;fill-opacity:1;stroke:none" />
      <path
         sodipodi:nodetypes="ccccc"
         inkscape:connector-curvature="0"
         id="path8335-6-53-942"
         d="m 241.71774,93.068887 c 0.199,0.169534 0.22273,0.468266 0.0536,0.667344 -0.16992,0.199001 -0.46842,0.222958 -0.66742,0.05358 -0.1967,-0.167238 -0.22273,-0.460841 -0.0536,-0.663899 0.17222,-0.202522 0.47148,-0.226402 0.67048,-0.05664 z"
         style="fill:#000000;fill-opacity:1;stroke:none" />
      <path
         sodipodi:nodetypes="ccccc"
         inkscape:connector-curvature="0"
         id="path8335-6-53-81"
         d="m 238.16603,93.576279 c 0.199,0.169534 0.22273,0.468266 0.0536,0.667344 -0.16992,0.199001 -0.46842,0.222958 -0.66742,0.05358 -0.19671,-0.167238 -0.22273,-0.460841 -0.0536,-0.663899 0.17221,-0.202522 0.47148,-0.226402 0.67048,-0.05664 z"
         style="fill:#000000;fill-opacity:1;stroke:none" />
      <path
         sodipodi:nodetypes="ccccc"
         inkscape:connector-curvature="0"
         id="path8335-6-53-80"
         d="m 239.18078,97.635371 c 0.199,0.169534 0.22273,0.468265 0.0536,0.667343 -0.16992,0.199002 -0.46842,0.222958 -0.66742,0.05358 -0.19671,-0.167238 -0.22273,-0.460842 -0.0536,-0.6639 0.17221,-0.202522 0.47148,-0.226402 0.67048,-0.05664 z"
         style="fill:#000000;fill-opacity:1;stroke:none" />
      <path
         sodipodi:nodetypes="ccccc"
         inkscape:connector-curvature="0"
         id="path8335-6-53-65"
         d="m 230.89352,100.1723 c 0.19901,0.16953 0.22273,0.46827 0.0536,0.66734 -0.16991,0.19901 -0.46842,0.22296 -0.66742,0.0536 -0.1967,-0.16724 -0.22273,-0.46084 -0.0536,-0.6639 0.17222,-0.20252 0.47148,-0.2264 0.67049,-0.0566 z"
         style="fill:#000000;fill-opacity:1;stroke:none" />
      <path
         sodipodi:nodetypes="ccccc"
         inkscape:connector-curvature="0"
         id="path8335-6-53-17"
         d="m 215.84106,92.223246 c 0.199,0.169534 0.22273,0.468266 0.0536,0.667344 -0.16992,0.199001 -0.46842,0.222958 -0.66742,0.05358 -0.1967,-0.167238 -0.22273,-0.460841 -0.0536,-0.663899 0.17222,-0.202522 0.47148,-0.226402 0.67049,-0.05664 z"
         style="fill:#000000;fill-opacity:1;stroke:none" />
      <path
         sodipodi:nodetypes="ccccc"
         inkscape:connector-curvature="0"
         id="path8335-8-1"
         d="m 203.30528,92.268068 c 0.73477,0.625629 0.82302,1.728234 0.19747,2.462771 -0.62609,0.734545 -1.72863,0.822833 -2.46333,0.197241 -0.72482,-0.61721 -0.82203,-1.700841 -0.20819,-2.449951 0.63604,-0.747327 1.73935,-0.83566 2.47405,-0.210023 z"
         style="fill:#000000;fill-opacity:1;stroke:none" />
      <path
         sodipodi:nodetypes="ccccc"
         inkscape:connector-curvature="0"
         id="path8335-6-53-65-0"
         d="m 212.08501,100.41259 c 0.19901,0.16953 0.22273,0.46827 0.0536,0.66734 -0.16991,0.19901 -0.46842,0.22296 -0.66742,0.0536 -0.1967,-0.16724 -0.22273,-0.46084 -0.0536,-0.6639 0.17222,-0.20252 0.47148,-0.2264 0.67049,-0.0566 z"
         style="fill:#000000;fill-opacity:1;stroke:none" />
      <path
         sodipodi:nodetypes="ccccc"
         inkscape:connector-curvature="0"
         id="path8335-6-53-65-8"
         d="m 205.19072,104.47845 c 0.19901,0.16953 0.22273,0.46827 0.0536,0.66734 -0.16991,0.19901 -0.46842,0.22296 -0.66742,0.0536 -0.1967,-0.16724 -0.22273,-0.46084 -0.0536,-0.6639 0.17222,-0.20252 0.47148,-0.2264 0.67049,-0.0566 z"
         style="fill:#000000;fill-opacity:1;stroke:none" />
      <path
         sodipodi:nodetypes="ccccc"
         inkscape:connector-curvature="0"
         id="path8335-6-53-65-7"
         d="m 199.35709,101.11969 c 0.19901,0.16953 0.22273,0.46827 0.0536,0.66734 -0.16991,0.19901 -0.46842,0.22296 -0.66742,0.0536 -0.1967,-0.16724 -0.22273,-0.46084 -0.0536,-0.6639 0.17222,-0.20252 0.47148,-0.2264 0.67049,-0.0566 z"
         style="fill:#000000;fill-opacity:1;stroke:none" />
      <path
         sodipodi:nodetypes="ccccc"
         inkscape:connector-curvature="0"
         id="path8335-6-53-65-88"
         d="m 211.3779,105.53911 c 0.19901,0.16953 0.22273,0.46827 0.0536,0.66734 -0.16991,0.19901 -0.46842,0.22296 -0.66742,0.0536 -0.1967,-0.16724 -0.22273,-0.46084 -0.0536,-0.6639 0.17222,-0.20252 0.47148,-0.2264 0.67049,-0.0566 z"
         style="fill:#000000;fill-opacity:1;stroke:none" />
      <path
         sodipodi:nodetypes="ccccc"
         inkscape:connector-curvature="0"
         id="path8335-6-53-65-2"
         d="m 218.80252,103.59457 c 0.19901,0.16953 0.22273,0.46827 0.0536,0.66734 -0.16991,0.19901 -0.46842,0.22296 -0.66742,0.0536 -0.1967,-0.16724 -0.22273,-0.46084 -0.0536,-0.6639 0.17222,-0.20252 0.47148,-0.2264 0.67049,-0.0566 z"
         style="fill:#000000;fill-opacity:1;stroke:none" />
      <path
         sodipodi:nodetypes="ccccc"
         inkscape:connector-curvature="0"
         id="path8335-6-53-65-1"
         d="m 225.69681,105.36233 c 0.19901,0.16953 0.22273,0.46827 0.0536,0.66734 -0.16991,0.19901 -0.46842,0.22296 -0.66742,0.0536 -0.1967,-0.16724 -0.22273,-0.46084 -0.0536,-0.6639 0.17222,-0.20252 0.47148,-0.2264 0.67049,-0.0566 z"
         style="fill:#000000;fill-opacity:1;stroke:none" />
      <path
         sodipodi:nodetypes="ccccc"
         inkscape:connector-curvature="0"
         id="path8335-6-53-65-9"
         d="m 227.99491,100.58936 c 0.19901,0.16953 0.22273,0.46827 0.0536,0.66734 -0.16991,0.19901 -0.46842,0.22296 -0.66742,0.0536 -0.1967,-0.16724 -0.22273,-0.46084 -0.0536,-0.6639 0.17222,-0.20252 0.47148,-0.2264 0.67049,-0.0566 z"
         style="fill:#000000;fill-opacity:1;stroke:none" />
      <path
         sodipodi:nodetypes="ccccc"
         inkscape:connector-curvature="0"
         id="path8335-6-53-65-5"
         d="m 221.45417,101.29647 c 0.19901,0.16953 0.22273,0.46827 0.0536,0.66734 -0.16991,0.19901 -0.46842,0.22296 -0.66742,0.0536 -0.1967,-0.16724 -0.22273,-0.46084 -0.0536,-0.6639 0.17222,-0.20252 0.47148,-0.2264 0.67049,-0.0566 z"
         style="fill:#000000;fill-opacity:1;stroke:none" />
      <path
         sodipodi:nodetypes="ccccc"
         inkscape:connector-curvature="0"
         id="path8335-6-53-65-4"
         d="m 215.26699,99.882255 c 0.19901,0.169535 0.22273,0.468275 0.0536,0.667345 -0.16991,0.19901 -0.46842,0.22296 -0.66742,0.0536 -0.1967,-0.16724 -0.22273,-0.46084 -0.0536,-0.663905 0.17222,-0.20252 0.47148,-0.2264 0.67049,-0.0566 z"
         style="fill:#000000;fill-opacity:1;stroke:none" />
      <path
         sodipodi:nodetypes="ccccc"
         inkscape:connector-curvature="0"
         id="path8335-6-53-65-54"
         d="m 212.26178,104.47845 c 0.19901,0.16953 0.22273,0.46827 0.0536,0.66734 -0.16991,0.19901 -0.46842,0.22296 -0.66742,0.0536 -0.1967,-0.16724 -0.22273,-0.46084 -0.0536,-0.6639 0.17222,-0.20252 0.47148,-0.2264 0.67049,-0.0566 z"
         style="fill:#000000;fill-opacity:1;stroke:none" />
      <path
         sodipodi:nodetypes="ccccc"
         inkscape:connector-curvature="0"
         id="path8335-6-53-65-16"
         d="m 206.0746,101.47325 c 0.19901,0.16953 0.22273,0.46827 0.0536,0.66734 -0.16991,0.19901 -0.46842,0.22296 -0.66742,0.0536 -0.1967,-0.16724 -0.22273,-0.46084 -0.0536,-0.6639 0.17222,-0.20252 0.47148,-0.2264 0.67049,-0.0566 z"
         style="fill:#000000;fill-opacity:1;stroke:none" />
      <path
         sodipodi:nodetypes="ccccc"
         inkscape:connector-curvature="0"
         id="path8335-6-53-65-70"
         d="m 201.12485,97.760935 c 0.19901,0.16953 0.22273,0.46827 0.0536,0.66734 -0.16991,0.19901 -0.46842,0.22296 -0.66742,0.0536 -0.1967,-0.16724 -0.22273,-0.46084 -0.0536,-0.6639 0.17222,-0.20252 0.47148,-0.2264 0.67049,-0.0566 z"
         style="fill:#000000;fill-opacity:1;stroke:none" />
      <path
         sodipodi:nodetypes="ccccc"
         inkscape:connector-curvature="0"
         id="path8335-6-53-65-26"
         d="m 221.45417,107.30688 c 0.19901,0.16953 0.22273,0.46827 0.0536,0.66734 -0.16991,0.19901 -0.46842,0.22296 -0.66742,0.0536 -0.1967,-0.16724 -0.22273,-0.46084 -0.0536,-0.6639 0.17222,-0.20252 0.47148,-0.2264 0.67049,-0.0566 z"
         style="fill:#000000;fill-opacity:1;stroke:none" />
      <path
         sodipodi:nodetypes="ccccc"
         inkscape:connector-curvature="0"
         id="path8335-6-53-65-53"
         d="m 229.5859,108.54431 c 0.19901,0.16953 0.22273,0.46827 0.0536,0.66734 -0.16991,0.19901 -0.46842,0.22296 -0.66742,0.0536 -0.1967,-0.16724 -0.22273,-0.46084 -0.0536,-0.6639 0.17222,-0.20252 0.47148,-0.2264 0.67049,-0.0566 z"
         style="fill:#000000;fill-opacity:1;stroke:none" />
      <path
         sodipodi:nodetypes="ccccc"
         inkscape:connector-curvature="0"
         id="path8335-6-53-65-3"
         d="m 243.55126,100.58936 c 0.19901,0.16953 0.22273,0.46827 0.0536,0.66734 -0.16991,0.19901 -0.46842,0.22296 -0.66742,0.0536 -0.1967,-0.16724 -0.22273,-0.46084 -0.0536,-0.6639 0.17222,-0.20252 0.47148,-0.2264 0.67049,-0.0566 z"
         style="fill:#000000;fill-opacity:1;stroke:none" />
      <path
         sodipodi:nodetypes="ccccc"
         inkscape:connector-curvature="0"
         id="path8335-6-53-65-73"
         d="m 236.83375,100.05903 c 0.19901,0.16953 0.22273,0.46827 0.0536,0.66734 -0.16991,0.19901 -0.46842,0.22296 -0.66742,0.0536 -0.1967,-0.16724 -0.22273,-0.46084 -0.0536,-0.6639 0.17222,-0.202518 0.47148,-0.226398 0.67049,-0.0566 z"
         style="fill:#000000;fill-opacity:1;stroke:none" />
      <path
         sodipodi:nodetypes="ccccc"
         inkscape:connector-curvature="0"
         id="path8335-6-53-65-6"
         d="m 234.71242,106.24622 c 0.19901,0.16953 0.22273,0.46827 0.0536,0.66734 -0.16991,0.19901 -0.46842,0.22296 -0.66742,0.0536 -0.1967,-0.16724 -0.22273,-0.46084 -0.0536,-0.6639 0.17222,-0.20252 0.47148,-0.2264 0.67049,-0.0566 z"
         style="fill:#000000;fill-opacity:1;stroke:none" />
      <path
         sodipodi:nodetypes="ccccc"
         inkscape:connector-curvature="0"
         id="path8335-6-53-65-74"
         d="m 231.70722,104.1249 c 0.19901,0.16953 0.22273,0.46827 0.0536,0.66734 -0.16991,0.19901 -0.46842,0.22296 -0.66742,0.0536 -0.1967,-0.16724 -0.22273,-0.46084 -0.0536,-0.6639 0.17222,-0.20252 0.47148,-0.2264 0.67049,-0.0566 z"
         style="fill:#000000;fill-opacity:1;stroke:none" />
      <path
         sodipodi:nodetypes="ccccc"
         inkscape:connector-curvature="0"
         id="path8335-6-53-65-24"
         d="m 235.24275,96.523498 c 0.19901,0.16953 0.22273,0.46827 0.0536,0.66734 -0.16991,0.19901 -0.46842,0.22296 -0.66742,0.0536 -0.1967,-0.16724 -0.22273,-0.46084 -0.0536,-0.6639 0.17222,-0.20252 0.47148,-0.2264 0.67049,-0.0566 z"
         style="fill:#000000;fill-opacity:1;stroke:none" />
      <path
         sodipodi:nodetypes="ccccc"
         inkscape:connector-curvature="0"
         id="path8335-6-53-65-59"
         d="m 234.53565,90.336314 c 0.19901,0.16953 0.22273,0.46827 0.0536,0.66734 -0.16991,0.19901 -0.46842,0.22296 -0.66742,0.0536 -0.1967,-0.16724 -0.22273,-0.46084 -0.0536,-0.6639 0.17222,-0.20252 0.47148,-0.2264 0.67049,-0.0566 z"
         style="fill:#000000;fill-opacity:1;stroke:none" />
      <path
         sodipodi:nodetypes="ccccc"
         inkscape:connector-curvature="0"
         id="path8335-6-53-65-77"
         d="m 240.1925,102.18035 c 0.19901,0.16953 0.22273,0.46827 0.0536,0.66734 -0.16991,0.19901 -0.46842,0.22296 -0.66742,0.0536 -0.1967,-0.16724 -0.22273,-0.46084 -0.0536,-0.6639 0.17222,-0.20252 0.47148,-0.2264 0.67049,-0.0566 z"
         style="fill:#000000;fill-opacity:1;stroke:none" />
      <path
         sodipodi:nodetypes="ccccc"
         inkscape:connector-curvature="0"
         id="path8335-6-53-65-04"
         d="m 241.96027,106.24622 c 0.19901,0.16953 0.22273,0.46827 0.0536,0.66734 -0.16991,0.19901 -0.46842,0.22296 -0.66742,0.0536 -0.1967,-0.16724 -0.22273,-0.46084 -0.0536,-0.6639 0.17222,-0.20252 0.47148,-0.2264 0.67049,-0.0566 z"
         style="fill:#000000;fill-opacity:1;stroke:none" />
      <path
         sodipodi:nodetypes="ccccc"
         inkscape:connector-curvature="0"
         id="path8335-6-53-65-78"
         d="m 247.08679,103.24101 c 0.19901,0.16953 0.22273,0.46827 0.0536,0.66734 -0.16991,0.19901 -0.46842,0.22296 -0.66742,0.0536 -0.1967,-0.16724 -0.22273,-0.46084 -0.0536,-0.6639 0.17222,-0.20252 0.47148,-0.2264 0.67049,-0.0566 z"
         style="fill:#000000;fill-opacity:1;stroke:none" />
      <path
         sodipodi:nodetypes="ccccc"
         inkscape:connector-curvature="0"
         id="path8335-6-53-65-709"
         d="m 196.35188,105.71589 c 0.19901,0.16953 0.22273,0.46827 0.0536,0.66734 -0.16991,0.19901 -0.46842,0.22296 -0.66742,0.0536 -0.1967,-0.16724 -0.22273,-0.46084 -0.0536,-0.6639 0.17222,-0.20252 0.47148,-0.2264 0.67049,-0.0566 z"
         style="fill:#000000;fill-opacity:1;stroke:none" />
      <path
         sodipodi:nodetypes="ccccc"
         inkscape:connector-curvature="0"
         id="path8335-6-53-65-44"
         d="m 195.64478,99.351925 c 0.19901,0.16953 0.22273,0.46827 0.0536,0.667345 -0.16991,0.19901 -0.46842,0.22296 -0.66742,0.0536 -0.1967,-0.167245 -0.22273,-0.460845 -0.0536,-0.663905 0.17222,-0.20252 0.47148,-0.2264 0.67049,-0.0566 z"
         style="fill:#000000;fill-opacity:1;stroke:none" />
      <path
         sodipodi:nodetypes="ccccc"
         inkscape:connector-curvature="0"
         id="path8335-6-53-65-48"
         d="m 198.82676,110.31208 c 0.19901,0.16953 0.22273,0.46827 0.0536,0.66734 -0.16991,0.19901 -0.46842,0.22296 -0.66742,0.0536 -0.1967,-0.16724 -0.22273,-0.46084 -0.0536,-0.6639 0.17222,-0.20252 0.47148,-0.2264 0.67049,-0.0566 z"
         style="fill:#000000;fill-opacity:1;stroke:none" />
      <path
         sodipodi:nodetypes="ccccc"
         inkscape:connector-curvature="0"
         id="path8335-6-53-65-62"
         d="m 205.01394,108.72109 c 0.19901,0.16953 0.22273,0.46827 0.0536,0.66734 -0.16991,0.19901 -0.46842,0.22296 -0.66742,0.0536 -0.1967,-0.16724 -0.22273,-0.46084 -0.0536,-0.6639 0.17222,-0.20252 0.47148,-0.2264 0.67049,-0.0566 z"
         style="fill:#000000;fill-opacity:1;stroke:none" />
      <path
         sodipodi:nodetypes="ccccc"
         inkscape:connector-curvature="0"
         id="path8335-6-53-65-786"
         d="m 197.58932,112.96373 c 0.19901,0.16953 0.22273,0.46827 0.0536,0.66734 -0.16991,0.19901 -0.46842,0.22296 -0.66742,0.0536 -0.1967,-0.16724 -0.22273,-0.46084 -0.0536,-0.6639 0.17222,-0.20252 0.47148,-0.2264 0.67049,-0.0566 z"
         style="fill:#000000;fill-opacity:1;stroke:none" />
      <path
         sodipodi:nodetypes="ccccc"
         inkscape:connector-curvature="0"
         id="path8335-6-53-65-43"
         d="m 210.84757,115.08505 c 0.19901,0.16953 0.22273,0.46827 0.0536,0.66734 -0.16991,0.19901 -0.46842,0.22296 -0.66742,0.0536 -0.1967,-0.16724 -0.22273,-0.46084 -0.0536,-0.6639 0.17222,-0.20252 0.47148,-0.2264 0.67049,-0.0566 z"
         style="fill:#000000;fill-opacity:1;stroke:none" />
      <path
         sodipodi:nodetypes="ccccc"
         inkscape:connector-curvature="0"
         id="path8335-6-53-65-19"
         d="m 217.38831,110.66563 c 0.19901,0.16953 0.22273,0.46827 0.0536,0.66734 -0.16991,0.19901 -0.46842,0.22296 -0.66742,0.0536 -0.1967,-0.16724 -0.22273,-0.46084 -0.0536,-0.6639 0.17222,-0.20252 0.47148,-0.2264 0.67049,-0.0566 z"
         style="fill:#000000;fill-opacity:1;stroke:none" />
      <path
         sodipodi:nodetypes="ccccc"
         inkscape:connector-curvature="0"
         id="path8335-6-53-65-245"
         d="m 214.02955,106.77655 c 0.19901,0.16953 0.22273,0.46827 0.0536,0.66734 -0.16991,0.19901 -0.46842,0.22296 -0.66742,0.0536 -0.1967,-0.16724 -0.22273,-0.46084 -0.0536,-0.6639 0.17222,-0.20252 0.47148,-0.2264 0.67049,-0.0566 z"
         style="fill:#000000;fill-opacity:1;stroke:none" />
      <path
         sodipodi:nodetypes="ccccc"
         inkscape:connector-curvature="0"
         id="path8335-6-53-65-20"
         d="m 212.96889,110.1353 c 0.19901,0.16953 0.22273,0.46827 0.0536,0.66734 -0.16991,0.19901 -0.46842,0.22296 -0.66742,0.0536 -0.1967,-0.16724 -0.22273,-0.46084 -0.0536,-0.6639 0.17222,-0.20252 0.47148,-0.2264 0.67049,-0.0566 z"
         style="fill:#000000;fill-opacity:1;stroke:none" />
      <path
         sodipodi:nodetypes="ccccc"
         inkscape:connector-curvature="0"
         id="path8335-6-53-65-76"
         d="m 203.95328,114.90827 c 0.19901,0.16953 0.22273,0.46827 0.0536,0.66734 -0.16991,0.19901 -0.46842,0.22296 -0.66742,0.0536 -0.1967,-0.16724 -0.22273,-0.46084 -0.0536,-0.6639 0.17222,-0.20252 0.47148,-0.2264 0.67049,-0.0566 z"
         style="fill:#000000;fill-opacity:1;stroke:none" />
      <path
         sodipodi:nodetypes="ccccc"
         inkscape:connector-curvature="0"
         id="path8335-6-53-65-79"
         d="m 225.87359,120.56513 c 0.19901,0.16953 0.22273,0.46827 0.0536,0.66734 -0.16991,0.19901 -0.46842,0.22296 -0.66742,0.0536 -0.1967,-0.16724 -0.22273,-0.46084 -0.0536,-0.6639 0.17222,-0.20252 0.47148,-0.2264 0.67049,-0.0566 z"
         style="fill:#000000;fill-opacity:1;stroke:none" />
      <path
         sodipodi:nodetypes="ccccc"
         inkscape:connector-curvature="0"
         id="path8335-6-53-65-46"
         d="m 228.87879,112.96373 c 0.19901,0.16953 0.22273,0.46827 0.0536,0.66734 -0.16991,0.19901 -0.46842,0.22296 -0.66742,0.0536 -0.1967,-0.16724 -0.22273,-0.46084 -0.0536,-0.6639 0.17222,-0.20252 0.47148,-0.2264 0.67049,-0.0566 z"
         style="fill:#000000;fill-opacity:1;stroke:none" />
      <path
         sodipodi:nodetypes="ccccc"
         inkscape:connector-curvature="0"
         id="path8335-6-53-65-98"
         d="m 225.16648,111.19596 c 0.19901,0.16953 0.22273,0.46827 0.0536,0.66734 -0.16991,0.19901 -0.46842,0.22296 -0.66742,0.0536 -0.1967,-0.16724 -0.22273,-0.46084 -0.0536,-0.6639 0.17222,-0.20252 0.47148,-0.2264 0.67049,-0.0566 z"
         style="fill:#000000;fill-opacity:1;stroke:none" />
      <path
         sodipodi:nodetypes="ccccc"
         inkscape:connector-curvature="0"
         id="path8335-6-53-65-37"
         d="m 220.57029,115.4386 c 0.19901,0.16953 0.22273,0.46827 0.0536,0.66734 -0.16991,0.19901 -0.46842,0.22296 -0.66742,0.0536 -0.1967,-0.16724 -0.22273,-0.46084 -0.0536,-0.6639 0.17222,-0.20252 0.47148,-0.2264 0.67049,-0.0566 z"
         style="fill:#000000;fill-opacity:1;stroke:none" />
      <path
         sodipodi:nodetypes="ccccc"
         inkscape:connector-curvature="0"
         id="path8335-6-53-65-736"
         d="m 211.3779,118.62059 c 0.19901,0.16953 0.22273,0.46827 0.0536,0.66734 -0.16991,0.19901 -0.46842,0.22296 -0.66742,0.0536 -0.1967,-0.16724 -0.22273,-0.46084 -0.0536,-0.6639 0.17222,-0.20252 0.47148,-0.2264 0.67049,-0.0566 z"
         style="fill:#000000;fill-opacity:1;stroke:none" />
      <path
         sodipodi:nodetypes="ccccc"
         inkscape:connector-curvature="0"
         id="path8335-6-53-65-30"
         d="m 200.41775,118.79736 c 0.19901,0.16953 0.22273,0.46827 0.0536,0.66734 -0.16991,0.19901 -0.46842,0.22296 -0.66742,0.0536 -0.1967,-0.16724 -0.22273,-0.46084 -0.0536,-0.6639 0.17222,-0.20252 0.47148,-0.2264 0.67049,-0.0566 z"
         style="fill:#000000;fill-opacity:1;stroke:none" />
      <path
         sodipodi:nodetypes="ccccc"
         inkscape:connector-curvature="0"
         id="path8335-6-53-65-22"
         d="m 218.62575,111.72629 c 0.19901,0.16953 0.22273,0.46827 0.0536,0.66734 -0.16991,0.19901 -0.46842,0.22296 -0.66742,0.0536 -0.1967,-0.16724 -0.22273,-0.46084 -0.0536,-0.6639 0.17222,-0.20252 0.47148,-0.2264 0.67049,-0.0566 z"
         style="fill:#000000;fill-opacity:1;stroke:none" />
      <path
         sodipodi:nodetypes="ccccc"
         inkscape:connector-curvature="0"
         id="path8335-6-53-65-84"
         d="m 241.78349,109.78175 c 0.19901,0.16953 0.22273,0.46827 0.0536,0.66734 -0.16991,0.19901 -0.46842,0.22296 -0.66742,0.0536 -0.1967,-0.16724 -0.22273,-0.46084 -0.0536,-0.6639 0.17222,-0.20252 0.47148,-0.2264 0.67049,-0.0566 z"
         style="fill:#000000;fill-opacity:1;stroke:none" />
      <path
         sodipodi:nodetypes="ccccc"
         inkscape:connector-curvature="0"
         id="path8335-6-53-65-162"
         d="m 236.48019,114.55472 c 0.19901,0.16953 0.22273,0.46827 0.0536,0.66734 -0.16991,0.19901 -0.46842,0.22296 -0.66742,0.0536 -0.1967,-0.16724 -0.22273,-0.46084 -0.0536,-0.6639 0.17222,-0.20252 0.47148,-0.2264 0.67049,-0.0566 z"
         style="fill:#000000;fill-opacity:1;stroke:none" />
      <path
         sodipodi:nodetypes="ccccc"
         inkscape:connector-curvature="0"
         id="path8335-6-53-65-52"
         d="m 233.82854,113.31728 c 0.19901,0.16953 0.22273,0.46827 0.0536,0.66734 -0.16991,0.19901 -0.46842,0.22296 -0.66742,0.0536 -0.1967,-0.16724 -0.22273,-0.46084 -0.0536,-0.6639 0.17222,-0.20252 0.47148,-0.2264 0.67049,-0.0566 z"
         style="fill:#000000;fill-opacity:1;stroke:none" />
      <path
         sodipodi:nodetypes="ccccc"
         inkscape:connector-curvature="0"
         id="path8335-6-53-65-36"
         d="m 236.30341,119.32769 c 0.19901,0.16953 0.22273,0.46827 0.0536,0.66734 -0.16991,0.19901 -0.46842,0.22296 -0.66742,0.0536 -0.1967,-0.16724 -0.22273,-0.46084 -0.0536,-0.6639 0.17222,-0.20252 0.47148,-0.2264 0.67049,-0.0566 z"
         style="fill:#000000;fill-opacity:1;stroke:none" />
      <path
         sodipodi:nodetypes="ccccc"
         inkscape:connector-curvature="0"
         id="path8335-6-53-65-69"
         d="m 240.72283,118.44381 c 0.19901,0.16953 0.22273,0.46827 0.0536,0.66734 -0.16991,0.19901 -0.46842,0.22296 -0.66742,0.0536 -0.1967,-0.16724 -0.22273,-0.46084 -0.0536,-0.6639 0.17222,-0.20252 0.47148,-0.2264 0.67049,-0.0566 z"
         style="fill:#000000;fill-opacity:1;stroke:none" />
      <path
         sodipodi:nodetypes="ccccc"
         inkscape:connector-curvature="0"
         id="path8335-6-53-65-18"
         d="m 246.91002,115.4386 c 0.19901,0.16953 0.22273,0.46827 0.0536,0.66734 -0.16991,0.19901 -0.46842,0.22296 -0.66742,0.0536 -0.1967,-0.16724 -0.22273,-0.46084 -0.0536,-0.6639 0.17222,-0.20252 0.47148,-0.2264 0.67049,-0.0566 z"
         style="fill:#000000;fill-opacity:1;stroke:none" />
      <path
         sodipodi:nodetypes="ccccc"
         inkscape:connector-curvature="0"
         id="path8335-6-53-65-09"
         d="m 246.02613,111.54952 c 0.19901,0.16953 0.22273,0.46827 0.0536,0.66734 -0.16991,0.19901 -0.46842,0.22296 -0.66742,0.0536 -0.1967,-0.16724 -0.22273,-0.46084 -0.0536,-0.6639 0.17222,-0.20252 0.47148,-0.2264 0.67049,-0.0566 z"
         style="fill:#000000;fill-opacity:1;stroke:none" />
      <path
         sodipodi:nodetypes="ccccc"
         inkscape:connector-curvature="0"
         id="path8335-6-53-65-57"
         d="m 245.31903,109.60497 c 0.19901,0.16953 0.22273,0.46827 0.0536,0.66734 -0.16991,0.19901 -0.46842,0.22296 -0.66742,0.0536 -0.1967,-0.16724 -0.22273,-0.46084 -0.0536,-0.6639 0.17222,-0.20252 0.47148,-0.2264 0.67049,-0.0566 z"
         style="fill:#000000;fill-opacity:1;stroke:none" />
      <path
         sodipodi:nodetypes="ccccc"
         inkscape:connector-curvature="0"
         id="path8335-6-53-65-01"
         d="m 251.68299,106.59977 c 0.19901,0.16953 0.22273,0.46827 0.0536,0.66734 -0.16991,0.19901 -0.46842,0.22296 -0.66742,0.0536 -0.1967,-0.16724 -0.22273,-0.46084 -0.0536,-0.6639 0.17222,-0.20252 0.47148,-0.2264 0.67049,-0.0566 z"
         style="fill:#000000;fill-opacity:1;stroke:none" />
      <path
         sodipodi:nodetypes="ccccc"
         inkscape:connector-curvature="0"
         id="path8335-6-53-65-49"
         d="m 251.32943,102.88746 c 0.19901,0.16953 0.22273,0.46827 0.0536,0.66734 -0.16991,0.19901 -0.46842,0.22296 -0.66742,0.0536 -0.1967,-0.16724 -0.22273,-0.46084 -0.0536,-0.6639 0.17222,-0.20252 0.47148,-0.2264 0.67049,-0.0566 z"
         style="fill:#000000;fill-opacity:1;stroke:none" />
      <path
         sodipodi:nodetypes="ccccc"
         inkscape:connector-curvature="0"
         id="path8335-6-53-65-198"
         d="m 248.32423,97.937712 c 0.19901,0.16953 0.22273,0.46827 0.0536,0.66734 -0.16991,0.19901 -0.46842,0.22296 -0.66742,0.0536 -0.1967,-0.16724 -0.22273,-0.46084 -0.0536,-0.6639 0.17222,-0.20252 0.47148,-0.2264 0.67049,-0.0566 z"
         style="fill:#000000;fill-opacity:1;stroke:none" />
      <path
         sodipodi:nodetypes="ccccc"
         inkscape:connector-curvature="0"
         id="path8335-6-53-65-95"
         d="m 244.25837,94.578955 c 0.19901,0.16953 0.22273,0.46827 0.0536,0.66734 -0.16991,0.19901 -0.46842,0.22296 -0.66742,0.0536 -0.1967,-0.16724 -0.22273,-0.46084 -0.0536,-0.6639 0.17222,-0.20252 0.47148,-0.2264 0.67049,-0.0566 z"
         style="fill:#000000;fill-opacity:1;stroke:none" />
      <path
         sodipodi:nodetypes="ccccc"
         inkscape:connector-curvature="0"
         id="path8335-6-53-65-445"
         d="m 244.25837,89.805984 c 0.19901,0.16953 0.22273,0.46827 0.0536,0.66734 -0.16991,0.19901 -0.46842,0.22296 -0.66742,0.0536 -0.1967,-0.16724 -0.22273,-0.46084 -0.0536,-0.6639 0.17222,-0.20252 0.47148,-0.2264 0.67049,-0.0566 z"
         style="fill:#000000;fill-opacity:1;stroke:none" />
      <path
         sodipodi:nodetypes="ccccc"
         inkscape:connector-curvature="0"
         id="path8335-6-53-65-86"
         d="m 244.61192,85.74012 c 0.19901,0.16953 0.22273,0.46827 0.0536,0.66734 -0.16991,0.19901 -0.46842,0.22296 -0.66742,0.0536 -0.1967,-0.16724 -0.22273,-0.46084 -0.0536,-0.6639 0.17222,-0.20252 0.47148,-0.2264 0.67049,-0.0566 z"
         style="fill:#000000;fill-opacity:1;stroke:none" />
      <path
         sodipodi:nodetypes="ccccc"
         inkscape:connector-curvature="0"
         id="path8335-6-53-65-548"
         d="m 240.36928,80.967149 c 0.19901,0.16953 0.22273,0.46827 0.0536,0.66734 -0.16991,0.19901 -0.46842,0.22296 -0.66742,0.0536 -0.1967,-0.16724 -0.22273,-0.46084 -0.0536,-0.6639 0.17222,-0.20252 0.47148,-0.2264 0.67049,-0.0566 z"
         style="fill:#000000;fill-opacity:1;stroke:none" />
      <path
         sodipodi:nodetypes="ccccc"
         inkscape:connector-curvature="0"
         id="path8335-6-53-65-165"
         d="m 235.41953,82.734916 c 0.19901,0.16953 0.22273,0.46827 0.0536,0.66734 -0.16991,0.19901 -0.46842,0.22296 -0.66742,0.0536 -0.1967,-0.16724 -0.22273,-0.46084 -0.0536,-0.6639 0.17222,-0.20252 0.47148,-0.2264 0.67049,-0.0566 z"
         style="fill:#000000;fill-opacity:1;stroke:none" />
      <path
         sodipodi:nodetypes="ccccc"
         inkscape:connector-curvature="0"
         id="path8335-6-53-65-594"
         d="m 220.57029,51.091888 c 0.19901,0.16953 0.22273,0.46827 0.0536,0.66734 -0.16991,0.19901 -0.46842,0.22296 -0.66742,0.0536 -0.1967,-0.16724 -0.22273,-0.46084 -0.0536,-0.6639 0.17222,-0.20252 0.47148,-0.2264 0.67049,-0.0566 z"
         style="fill:#000000;fill-opacity:1;stroke:none" />
      <path
         sodipodi:nodetypes="ccccc"
         inkscape:connector-curvature="0"
         id="path8335-6-53-65-28"
         d="m 214.3831,52.329325 c 0.19901,0.16953 0.22273,0.46827 0.0536,0.66734 -0.16991,0.19901 -0.46842,0.22296 -0.66742,0.0536 -0.1967,-0.16724 -0.22273,-0.46084 -0.0536,-0.6639 0.17222,-0.20252 0.47148,-0.2264 0.67049,-0.0566 z"
         style="fill:#000000;fill-opacity:1;stroke:none" />
      <path
         sodipodi:nodetypes="ccccc"
         inkscape:connector-curvature="0"
         id="path8335-6-53-65-520"
         d="m 214.02955,56.925519 c 0.19901,0.16953 0.22273,0.46827 0.0536,0.66734 -0.16991,0.19901 -0.46842,0.22296 -0.66742,0.0536 -0.1967,-0.16724 -0.22273,-0.46084 -0.0536,-0.6639 0.17222,-0.20252 0.47148,-0.2264 0.67049,-0.0566 z"
         style="fill:#000000;fill-opacity:1;stroke:none" />
      <path
         sodipodi:nodetypes="ccccc"
         inkscape:connector-curvature="0"
         id="path8335-6-53-65-690"
         d="m 217.91864,57.279072 c 0.19901,0.16953 0.22273,0.46827 0.0536,0.66734 -0.16991,0.19901 -0.46842,0.22296 -0.66742,0.0536 -0.1967,-0.16724 -0.22273,-0.46084 -0.0536,-0.6639 0.17222,-0.20252 0.47148,-0.2264 0.67049,-0.0566 z"
         style="fill:#000000;fill-opacity:1;stroke:none" />
      <path
         sodipodi:nodetypes="ccccc"
         inkscape:connector-curvature="0"
         id="path8335-6-53-65-60"
         d="m 219.50963,63.466256 c 0.19901,0.16953 0.22273,0.46827 0.0536,0.66734 -0.16991,0.19901 -0.46842,0.22296 -0.66742,0.0536 -0.1967,-0.16724 -0.22273,-0.46084 -0.0536,-0.6639 0.17222,-0.20252 0.47148,-0.2264 0.67049,-0.0566 z"
         style="fill:#000000;fill-opacity:1;stroke:none" />
      <path
         sodipodi:nodetypes="ccccc"
         inkscape:connector-curvature="0"
         id="path8335-6-53-65-45"
         d="m 220.92384,71.067654 c 0.19901,0.16953 0.22273,0.46827 0.0536,0.66734 -0.16991,0.19901 -0.46842,0.22296 -0.66742,0.0536 -0.1967,-0.16724 -0.22273,-0.46084 -0.0536,-0.6639 0.17222,-0.20252 0.47148,-0.2264 0.67049,-0.0566 z"
         style="fill:#000000;fill-opacity:1;stroke:none" />
      <path
         sodipodi:nodetypes="ccccc"
         inkscape:connector-curvature="0"
         id="path8335-6-53-65-25"
         d="m 227.81813,75.487072 c 0.19901,0.16953 0.22273,0.46827 0.0536,0.66734 -0.16991,0.19901 -0.46842,0.22296 -0.66742,0.0536 -0.1967,-0.16724 -0.22273,-0.46084 -0.0536,-0.6639 0.17222,-0.20252 0.47148,-0.2264 0.67049,-0.0566 z"
         style="fill:#000000;fill-opacity:1;stroke:none" />
      <path
         sodipodi:nodetypes="ccccc"
         inkscape:connector-curvature="0"
         id="path8335-6-53-65-33"
         d="m 241.78349,78.138722 c 0.19901,0.16953 0.22273,0.46827 0.0536,0.66734 -0.16991,0.19901 -0.46842,0.22296 -0.66742,0.0536 -0.1967,-0.16724 -0.22273,-0.46084 -0.0536,-0.6639 0.17222,-0.20252 0.47148,-0.2264 0.67049,-0.0566 z"
         style="fill:#000000;fill-opacity:1;stroke:none" />
      <path
         sodipodi:nodetypes="ccccc"
         inkscape:connector-curvature="0"
         id="path8335-6-53-65-29"
         d="m 231.53044,68.416004 c 0.19901,0.16953 0.22273,0.46827 0.0536,0.66734 -0.16991,0.19901 -0.46842,0.22296 -0.66742,0.0536 -0.1967,-0.16724 -0.22273,-0.46084 -0.0536,-0.6639 0.17222,-0.20252 0.47148,-0.2264 0.67049,-0.0566 z"
         style="fill:#000000;fill-opacity:1;stroke:none" />
      <path
         sodipodi:nodetypes="ccccc"
         inkscape:connector-curvature="0"
         id="path8335-6-53-65-99"
         d="m 223.57549,82.204586 c 0.19901,0.16953 0.22273,0.46827 0.0536,0.66734 -0.16991,0.19901 -0.46842,0.22296 -0.66742,0.0536 -0.1967,-0.16724 -0.22273,-0.46084 -0.0536,-0.6639 0.17222,-0.20252 0.47148,-0.2264 0.67049,-0.0566 z"
         style="fill:#000000;fill-opacity:1;stroke:none" />
      <path
         sodipodi:nodetypes="ccccc"
         inkscape:connector-curvature="0"
         id="path8335-6-53-65-764"
         d="m 206.95848,95.286061 c 0.19901,0.16953 0.22273,0.46827 0.0536,0.66734 -0.16991,0.19901 -0.46842,0.22296 -0.66742,0.0536 -0.1967,-0.16724 -0.22273,-0.46084 -0.0536,-0.6639 0.17222,-0.20252 0.47148,-0.2264 0.67049,-0.0566 z"
         style="fill:#000000;fill-opacity:1;stroke:none" />
      <path
         sodipodi:nodetypes="ccccc"
         inkscape:connector-curvature="0"
         id="path8335-6-53-65-168"
         d="m 201.47841,103.06424 c 0.19901,0.16953 0.22273,0.46827 0.0536,0.66734 -0.16991,0.19901 -0.46842,0.22296 -0.66742,0.0536 -0.1967,-0.16724 -0.22273,-0.46084 -0.0536,-0.6639 0.17222,-0.20252 0.47148,-0.2264 0.67049,-0.0566 z"
         style="fill:#000000;fill-opacity:1;stroke:none" />
      <path
         sodipodi:nodetypes="ccccc"
         inkscape:connector-curvature="0"
         id="path8335-6-77-9"
         d="m 209.05525,110.98629 c 0.41254,0.35131 0.46229,0.97039 0.11098,1.38282 -0.35131,0.41239 -0.97051,0.46199 -1.38306,0.11075 -0.40719,-0.34656 -0.46153,-0.955 -0.1171,-1.37562 0.35743,-0.41966 0.97663,-0.46918 1.3891,-0.11794 z"
         style="fill:#000000;fill-opacity:1;stroke:none" />
      <path
         sodipodi:nodetypes="ccccc"
         inkscape:connector-curvature="0"
         id="path8335-6-77-3"
         d="m 216.65664,107.0972 c 0.41254,0.35132 0.46229,0.9704 0.11098,1.38283 -0.35131,0.41239 -0.97051,0.46198 -1.38306,0.11075 -0.40719,-0.34657 -0.46153,-0.955 -0.1171,-1.37562 0.35743,-0.41967 0.97663,-0.46919 1.3891,-0.11795 z"
         style="fill:#000000;fill-opacity:1;stroke:none" />
      <path
         sodipodi:nodetypes="ccccc"
         inkscape:connector-curvature="0"
         id="path8335-6-77-30"
         d="m 238.40018,115.40571 c 0.41254,0.35131 0.46229,0.97039 0.11098,1.38282 -0.35131,0.41239 -0.97051,0.46199 -1.38306,0.11075 -0.40719,-0.34657 -0.46153,-0.955 -0.1171,-1.37562 0.35743,-0.41966 0.97663,-0.46918 1.3891,-0.11794 z"
         style="fill:#000000;fill-opacity:1;stroke:none" />
      <path
         sodipodi:nodetypes="ccccc"
         inkscape:connector-curvature="0"
         id="path8335-6-77-7"
         d="m 236.63241,103.38489 c 0.41254,0.35132 0.46229,0.9704 0.11098,1.38283 -0.35131,0.41239 -0.97051,0.46198 -1.38306,0.11075 -0.40719,-0.34657 -0.46153,-0.955 -0.1171,-1.37562 0.35743,-0.41967 0.97663,-0.46919 1.3891,-0.11795 z"
         style="fill:#000000;fill-opacity:1;stroke:none" />
      <path
         sodipodi:nodetypes="ccccc"
         inkscape:connector-curvature="0"
         id="path8335-6-77-79"
         d="m 230.97556,109.21852 c 0.41254,0.35132 0.46229,0.9704 0.11098,1.38283 -0.35131,0.41239 -0.97051,0.46199 -1.38306,0.11075 -0.40719,-0.34657 -0.46153,-0.955 -0.1171,-1.37562 0.35743,-0.41966 0.97663,-0.46919 1.3891,-0.11795 z"
         style="fill:#000000;fill-opacity:1;stroke:none" />
      <path
         sodipodi:nodetypes="ccccc"
         inkscape:connector-curvature="0"
         id="path8335-6-77-5"
         d="m 220.19218,114.52182 c 0.41254,0.35132 0.46229,0.9704 0.11098,1.38283 -0.35131,0.41239 -0.97051,0.46199 -1.38306,0.11075 -0.40719,-0.34657 -0.46153,-0.955 -0.1171,-1.37562 0.35743,-0.41966 0.97663,-0.46919 1.3891,-0.11795 z"
         style="fill:#000000;fill-opacity:1;stroke:none" />
      <path
         sodipodi:nodetypes="ccccc"
         inkscape:connector-curvature="0"
         id="path8335-6-77-0"
         d="m 205.69649,103.03134 c 0.41254,0.35131 0.46229,0.97039 0.11098,1.38282 -0.35131,0.41239 -0.97051,0.46199 -1.38306,0.11075 -0.40719,-0.34657 -0.46153,-0.955 -0.1171,-1.37562 0.35743,-0.41966 0.97663,-0.46918 1.3891,-0.11794 z"
         style="fill:#000000;fill-opacity:1;stroke:none" />
      <path
         sodipodi:nodetypes="ccccc"
         inkscape:connector-curvature="0"
         id="path8335-6-77-1"
         d="m 245.47125,109.04175 c 0.41254,0.35131 0.46229,0.97039 0.11098,1.38282 -0.35131,0.41239 -0.97051,0.46199 -1.38306,0.11075 -0.40719,-0.34657 -0.46153,-0.955 -0.1171,-1.37562 0.35743,-0.41966 0.97663,-0.46918 1.3891,-0.11794 z"
         style="fill:#000000;fill-opacity:1;stroke:none" />
      <path
         sodipodi:nodetypes="ccccc"
         inkscape:connector-curvature="0"
         id="path8335-8-11"
         d="m 214.86632,86.08694 c 0.73477,0.62563 0.82302,1.72823 0.19747,2.46277 -0.62609,0.73455 -1.72864,0.82283 -2.46333,0.19724 -0.72483,-0.61721 -0.82203,-1.70084 -0.20819,-2.44995 0.63604,-0.74733 1.73935,-0.83566 2.47405,-0.21002 z"
         style="fill:#000000;fill-opacity:1;stroke:none" />
    </g>
    <text
       xml:space="preserve"
       style="font-size:7.94614172px;font-style:normal;font-weight:normal;line-height:125%;letter-spacing:0px;word-spacing:0px;fill:#000000;fill-opacity:1;stroke:none;font-family:Sans"
       x="386.61765"
       y="684.74677"
       id="text9697"
       sodipodi:linespacing="125%"><tspan
         sodipodi:role="line"
         id="tspan9699"
         x="386.61765"
         y="684.74677"
         style="font-style:normal;font-variant:normal;font-weight:normal;font-stretch:normal;font-family:DIN 1451 Mittelschrift;-inkscape-font-specification:DIN 1451 Mittelschrift">laser</tspan></text>
    <text
       xml:space="preserve"
       style="font-size:7.94614172px;font-style:normal;font-weight:normal;line-height:125%;letter-spacing:0px;word-spacing:0px;fill:#000000;fill-opacity:1;stroke:none;font-family:Sans"
       x="566.54303"
       y="673.02283"
       id="text9697-0-7"
       sodipodi:linespacing="125%"><tspan
         sodipodi:role="line"
         x="566.54303"
         y="673.02283"
         style="font-style:normal;font-variant:normal;font-weight:normal;font-stretch:normal;font-family:DIN 1451 Mittelschrift;-inkscape-font-specification:DIN 1451 Mittelschrift"
         id="tspan10543">defocused</tspan><tspan
         sodipodi:role="line"
         x="566.54303"
         y="682.95551"
         style="font-style:normal;font-variant:normal;font-weight:normal;font-stretch:normal;font-family:DIN 1451 Mittelschrift;-inkscape-font-specification:DIN 1451 Mittelschrift"
         id="tspan10547">camera</tspan></text>
    <path
       style="fill:none;stroke:#000000;stroke-width:1.5;stroke-linecap:butt;stroke-linejoin:miter;stroke-opacity:1"
       d="m 584.93818,707.10811 c 11.31371,13.78858 -0.70711,25.45585 6.01041,31.46625 6.71751,6.01041 12.02082,14.84925 12.02082,14.84925"
       id="path9743"
       inkscape:connector-curvature="0"
       sodipodi:nodetypes="csc" />
    <text
       xml:space="preserve"
       style="font-size:7.94614172px;font-style:normal;font-weight:normal;line-height:125%;letter-spacing:0px;word-spacing:0px;fill:#000000;fill-opacity:1;stroke:none;font-family:Sans"
       x="471.56812"
       y="616.20807"
       id="text9697-0"
       sodipodi:linespacing="125%"><tspan
         sodipodi:role="line"
         id="tspan9699-2"
         x="471.56812"
         y="616.20807"
         style="font-style:normal;font-variant:normal;font-weight:normal;font-stretch:normal;font-family:DIN 1451 Mittelschrift;-inkscape-font-specification:DIN 1451 Mittelschrift">spray</tspan></text>
    <g
       id="g8894"
       transform="matrix(0.59461818,0.00672877,0,0.59461818,370.57629,584.97581)">
      <path
         sodipodi:nodetypes="ccccc"
         inkscape:connector-curvature="0"
         id="rect8889"
         d="m 211.4464,30.706848 c 3.21407,1.80394 5.88559,1.166421 8.43958,0 l 0,16.192389 c -2.42439,1.555228 -5.02507,2.405254 -8.43958,0 z"
         style="fill:none;stroke:#000000;stroke-width:1.68175173;stroke-opacity:1" />
      <path
         sodipodi:nodetypes="cc"
         inkscape:connector-curvature="0"
         id="path8892"
         d="m 211.06937,30.016361 c 1.75622,-1.321759 7.18607,-1.654909 9.09394,0.132583"
         style="fill:none;stroke:#000000;stroke-width:1.68175149px;stroke-linecap:butt;stroke-linejoin:miter;stroke-opacity:1" />
    </g>
    <path
       style="fill:none;stroke:#000000;stroke-width:1;stroke-miterlimit:4;stroke-opacity:1;stroke-dashoffset:0"
       d="m 499.62828,583.22756 0,20.85965 -1.68566,-0.0191 0,-20.85965"
       id="rect9747"
       inkscape:connector-curvature="0"
       sodipodi:nodetypes="cccc" />
  </g>
</svg>
