<?xml version="1.0" encoding="UTF-8" standalone="no"?>
<!-- Created with Inkscape (http://www.inkscape.org/) -->

<svg
   xmlns:dc="http://purl.org/dc/elements/1.1/"
   xmlns:cc="http://creativecommons.org/ns#"
   xmlns:rdf="http://www.w3.org/1999/02/22-rdf-syntax-ns#"
   xmlns:svg="http://www.w3.org/2000/svg"
   xmlns="http://www.w3.org/2000/svg"
   xmlns:sodipodi="http://sodipodi.sourceforge.net/DTD/sodipodi-0.dtd"
   xmlns:inkscape="http://www.inkscape.org/namespaces/inkscape"
   id="svg8354"
   version="1.1"
   inkscape:version="0.48.4 r9939"
   width="88.1875"
   height="82.8125"
   sodipodi:docname="droplet_rays.svg">
  <metadata
     id="metadata8360">
    <rdf:RDF>
      <cc:Work
         rdf:about="">
        <dc:format>image/svg+xml</dc:format>
        <dc:type
           rdf:resource="http://purl.org/dc/dcmitype/StillImage" />
      </cc:Work>
    </rdf:RDF>
  </metadata>
  <defs
     id="defs8358">
    <marker
       inkscape:stockid="Arrow1Mend"
       orient="auto"
       refY="0"
       refX="0"
       id="Arrow1Mend"
       style="overflow:visible">
      <path
         id="path9081"
         d="M 0,0 5,-5 -12.5,0 5,5 0,0 z"
         style="fill-rule:evenodd;stroke:#000000;stroke-width:1pt"
         transform="matrix(-0.4,0,0,-0.4,-4,0)"
         inkscape:connector-curvature="0" />
    </marker>
    <marker
       inkscape:stockid="Arrow1Lend"
       orient="auto"
       refY="0"
       refX="0"
       id="Arrow1Lend"
       style="overflow:visible">
      <path
         id="path9075"
         d="M 0,0 5,-5 -12.5,0 5,5 0,0 z"
         style="fill-rule:evenodd;stroke:#000000;stroke-width:1pt"
         transform="matrix(-0.8,0,0,-0.8,-10,0)"
         inkscape:connector-curvature="0" />
    </marker>
  </defs>
  <sodipodi:namedview
     pagecolor="#ffffff"
     bordercolor="#666666"
     borderopacity="1"
     objecttolerance="10"
     gridtolerance="10"
     guidetolerance="10"
     inkscape:pageopacity="0"
     inkscape:pageshadow="2"
     inkscape:window-width="1920"
     inkscape:window-height="1026"
     id="namedview8356"
     showgrid="false"
     fit-margin-top="0"
     fit-margin-left="0"
     fit-margin-right="0"
     fit-margin-bottom="0"
     inkscape:zoom="7.3539105"
     inkscape:cx="23.369941"
     inkscape:cy="34.990762"
     inkscape:window-x="0"
     inkscape:window-y="28"
     inkscape:window-maximized="1"
     inkscape:current-layer="g9053" />
  <path
     sodipodi:type="arc"
     style="fill:none;stroke:#000000;stroke-width:3.26675677;stroke-miterlimit:4;stroke-opacity:1;stroke-dasharray:none;stroke-dashoffset:0"
     id="path8364"
     sodipodi:cx="1002.4598"
     sodipodi:cy="520.84174"
     sodipodi:rx="84.308884"
     sodipodi:ry="84.308884"
     d="m 1086.7687,520.84174 a 84.308884,84.308884 0 1 1 -168.61781,0 84.308884,84.308884 0 1 1 168.61781,0 z"
     transform="matrix(0.3066235,0,0,0.30560528,-263.30679,-125.90999)" />
  <path
     style="fill:none;stroke:#000000;stroke-width:0.64999998;stroke-linecap:butt;stroke-linejoin:miter;stroke-miterlimit:4;stroke-opacity:1;stroke-dasharray:none;marker-end:url(#Arrow1Mend)"
     d="m 4.703207,57.138973 27.920053,0 22.181887,19.781056"
     id="path9762" />
  <path
     style="fill:none;stroke:#000000;stroke-width:0.64999998;stroke-linecap:butt;stroke-linejoin:miter;stroke-miterlimit:4;stroke-opacity:1;stroke-dasharray:none;marker-end:url(#Arrow1Mend)"
     d="m 4.703207,8.992791 30.028003,0 31.188096,10.306098 19.179824,16.788961"
     id="path8368" />
  <path
     style="fill:none;stroke:#000000;stroke-width:0.49999997;stroke-linecap:butt;stroke-linejoin:miter;stroke-miterlimit:4;stroke-opacity:1;stroke-dasharray:0.99999999, 0.99999999;stroke-dashoffset:0"
     d="m 32.404322,57.149528 47.723858,0"
     id="path8878"
     inkscape:connector-curvature="0" />
  <path
     style="fill:none;stroke:#000000;stroke-width:0.49999997;stroke-miterlimit:4;stroke-opacity:1;stroke-dasharray:none;stroke-dashoffset:0"
     d="m 51.672063,57.093776 c 0,4.585355 -1.650472,9.017142 -4.648954,12.483195"
     id="path8880"
     inkscape:connector-curvature="0"
     sodipodi:nodetypes="cc" />
  <g
     id="g9053"
     transform="matrix(0.66,0,-0.1036827,0.66,6.3633994,26.958284)"
     style="stroke:#000000;stroke-width:0.75757575;stroke-miterlimit:4;stroke-dasharray:none">
    <path
       style="font-size:medium;font-style:normal;font-variant:normal;font-weight:normal;font-stretch:normal;text-indent:0;text-align:start;text-decoration:none;line-height:normal;letter-spacing:normal;word-spacing:normal;text-transform:none;direction:ltr;block-progression:tb;writing-mode:lr-tb;text-anchor:start;baseline-shift:baseline;color:#000000;fill:#000000;fill-opacity:1;stroke:none;stroke-width:0.75757575;marker:none;visibility:visible;display:inline;overflow:visible;enable-background:accumulate;font-family:Sans;-inkscape-font-specification:Sans"
       d="m 67.75,53.34375 c -0.198155,0.426055 -0.332206,0.817277 -0.375,1.375 -0.03234,0.42156 -0.122754,1.250941 0.28125,1.96875 0.185728,0.329993 0.4851,0.550963 0.78125,0.625 0.186255,0.04656 0.354912,0.02855 0.53125,0.03125 l 0,1.5625 0.75,0 0,-1.53125 c 0.123375,0.0045 0.242241,0.01093 0.375,0 0.287644,-0.02367 0.622014,-0.13855 0.875,-0.40625 0.340447,-0.360247 0.454214,-0.850674 0.5,-1.3125 0.04579,-0.461826 0.0066,-0.907581 -0.03125,-1.21875 -0.09683,-0.796209 -0.883992,-1.269136 -1.59375,-1.03125 -0.492676,0.165127 -0.78125,0.53125 -0.78125,0.53125 l -0.09375,0.125 0,0.125 0,2.40625 c -0.119918,-0.0047 -0.264491,-0.01143 -0.34375,-0.03125 -0.151002,-0.03775 -0.220328,-0.05498 -0.3125,-0.21875 -0.240636,-0.427547 -0.220476,-1.13271 -0.1875,-1.5625 0.03779,-0.492511 0.136907,-0.716205 0.3125,-1.09375 L 67.75,53.34375 z m 2.3125,0.78125 c 0.27103,-0.09084 0.581355,0.04738 0.625,0.40625 0.03263,0.268282 0.06886,0.683129 0.03125,1.0625 -0.03761,0.379371 -0.173073,0.696214 -0.3125,0.84375 -0.120046,0.127027 -0.197843,0.17292 -0.375,0.1875 -0.07369,0.0061 -0.213569,0.0034 -0.3125,0 l 0,-2.25 c 0.04595,-0.0486 0.152127,-0.185775 0.34375,-0.25 z"
       id="path8917"
       inkscape:connector-curvature="0" />
  </g>
  <text
     sodipodi:linespacing="125%"
     id="text9697-2-7"
     y="63.025879"
     x="21.08499"
     style="font-size:5.24445343px;font-style:normal;font-weight:normal;line-height:125%;letter-spacing:0px;word-spacing:0px;fill:#000000;fill-opacity:1;stroke:none;font-family:Sans"
     xml:space="preserve"><tspan
       style="font-style:normal;font-variant:normal;font-weight:normal;font-stretch:normal;font-family:DIN 1451 Mittelschrift;-inkscape-font-specification:DIN 1451 Mittelschrift"
       y="63.025879"
       x="21.08499"
       id="tspan9699-4"
       sodipodi:role="line">glare</tspan><tspan
       id="tspan9027"
       style="font-style:normal;font-variant:normal;font-weight:normal;font-stretch:normal;font-family:DIN 1451 Mittelschrift;-inkscape-font-specification:DIN 1451 Mittelschrift"
       y="69.581444"
       x="21.08499"
       sodipodi:role="line">point</tspan></text>
  <text
     sodipodi:linespacing="125%"
     id="text9697-2-7-4"
     y="10.44418"
     x="67.038216"
     style="font-size:5.24445343px;font-style:normal;font-weight:normal;line-height:125%;letter-spacing:0px;word-spacing:0px;fill:#000000;fill-opacity:1;stroke:none;font-family:Sans"
     xml:space="preserve"><tspan
       style="font-style:normal;font-variant:normal;font-weight:normal;font-stretch:normal;font-family:DIN 1451 Mittelschrift;-inkscape-font-specification:DIN 1451 Mittelschrift"
       y="10.44418"
       x="67.038216"
       id="tspan9699-4-7"
       sodipodi:role="line">glare</tspan><tspan
       id="tspan9027-3"
       style="font-style:normal;font-variant:normal;font-weight:normal;font-stretch:normal;font-family:DIN 1451 Mittelschrift;-inkscape-font-specification:DIN 1451 Mittelschrift"
       y="16.999746"
       x="67.038216"
       sodipodi:role="line">point</tspan></text>
</svg>
